/* XPM */
static char * 2_xpm[] = {
"64 64 71 1",
" 	c #335FB3",
".	c #2B5397",
"+	c #132B4B",
"@	c #0B1B33",
"#	c #23437F",
"$	c #ED4C11",
"%	c #130215",
"&	c #FD5F0C",
"*	c #CC342E",
"=	c #FF8000",
"-	c #FF8601",
";	c #FFCE38",
">	c #FEF9ED",
",	c #130217",
"'	c #C1987A",
")	c #F4E3A2",
"!	c #F8F8DA",
"~	c #4D4358",
"{	c #5B1932",
"]	c #1E0417",
"^	c #C05539",
"/	c #6A2533",
"(	c #66142F",
"_	c #7B2C37",
":	c #CD5827",
"<	c #F9A93A",
"[	c #B85733",
"}	c #170416",
"|	c #F2B85D",
"1	c #DF9834",
"2	c #ECE3AD",
"3	c #D09E6F",
"4	c #5A4F5A",
"5	c #574B64",
"6	c #544F61",
"7	c #D39D78",
"8	c #584F62",
"9	c #433950",
"0	c #632034",
"a	c #3E081F",
"b	c #FAB831",
"c	c #B6552C",
"d	c #892E31",
"e	c #B1542B",
"f	c #621D33",
"g	c #3F0B20",
"h	c #D17724",
"i	c #B8542B",
"j	c #140115",
"k	c #F6B448",
"l	c #B34F2C",
"m	c #5F1A2D",
"n	c #6D2538",
"o	c #340922",
"p	c #5A172C",
"q	c #631D2A",
"r	c #C05C2D",
"s	c #3C061A",
"t	c #52192F",
"u	c #E4EBE9",
"v	c #FBFADD",
"w	c #EFD095",
"x	c #555168",
"y	c #4C475B",
"z	c #5A5765",
"A	c #F0D49D",
"B	c #CB9D78",
"C	c #C69475",
"D	c #4B4152",
"E	c #5F1F34",
"F	c #4F1932",
"   ......               .. ..++@   ......               .. ..++@",
"  .............    ...........+@  .............    ...........+@",
" ....#######................#++@ ....#######................#++@",
" ...################......##+@@@ ...################......##+@@@",
" ...########################++@@ ...########################++@@",
" ...####+########...#########+@@ ...####+++#######+++########+@@",
"...######.######.###+########++@...####+$##++#####+##########++@",
"..#############.####+#########+@..###%#+####+########.########+@",
"..################+++#########+@.&###*%+....######....########+@",
" ..#############++###########+@@=..#%*%##...#################+@@",
" ..######@@@#################+@@ ..#%$%######################+@@",
" ..####@@+++####+###+######+++%% ..%*$%###+++#######+@++###+++@@",
"..#####@++######+##+++#@@@+@@+@&..#%*%@@#+=++######@@+++##+@@+@@",
"..+++#@+###++++++++++++@@@@@@@@@%.%%$-%#+==++++++++@++++++@@@@@@",
"++@@++@+++++@@@@@++@@@@@@@@@@@@%%%**--$%++++@@@@@++@@@@++@@@@@@@",
"@@@@@@@@@@@@@@@@@@@@@@@@@@@@@%%%**$$--*%@@%@@@@@@@@@@@@@@@@@@@@@",
"        .. ..++@   ......   %***$---;-$*%. ..++@   ......       ",
"   ...........+@  ..........%*$-;;;;;$$*%.....+@  ............. ",
"............#++@ ....######%%--;;>>;;$*%..%.#++@ ....#######....",
"####......##+@@@ ...#######%--;;>>>>;$*%.%%#+@@@ ...############",
"############++@@ ...######%*-;;>>>>>;*%##=##++@@ ...####+#######",
"#############+@@ ...####++%*;;>>>>;--*%######+@@ ...#####.######",
"#########+###++@...####+##%$;>>>>;----*%#####++@...#############",
"##########.###+@..#####+##%$->->>>>-;-*%%#####+@..##############",
"##############+@..######..%$$;-;>>>>;$*%######+@..##############",
"#############+@@ ..########%$--;;;;>$*%+#####+@@ ..#############",
"#############+@@ ..#########%$-;;;**%%#######+@@ ..#############",
"###########+++@@ ..#########%%%%%%%%%######+++@@ ..#############",
"####++####+@@+@@..########,')!!!!!))',@@##+@@+@@..########@+####",
"+#++++++++@@@@@@..+++####+,~~')!'')~~,++++@@@@@@..+++###@@++++++",
"@++@@@@++@@@@@@@++@@++++++@,,,,,,,,,,,+++@@@@@@@++@@+++@@+++@@@@",
"@@@@@@@@@@@@@@@@@@@@@@@@@@@,{]^//^(]{,@@@@@@@@@@@@@@@@@@@@@@@@@@",
".        ++#    .. ..++@   ,_:<][]<_{,          .. ..++@   .....",
"....... +###..........+@  .,,,[<][:,,,.    ...........+@  ......",
"####....+##.........#++@ ...,{}{|1}{,...............#++@ ....###",
"#######+####......##+@@@ ...#,,,,,,,########......##+@@@ ...####",
"#######+###.########++@@ ...#,23435,#+++##########++++@@ ...####",
"#########..##########+@@ ...#,63789,+############++##+@@ ...####",
"##++#################++@...###,,,,,#+###.#######++###++@...#####",
"#+##.#################+@..###+,00a,##....######++#####+@..######",
"#+##.#################+@..####,bcd,############+######+@..######",
"##..#################+@@ ..###,efg,############+#####+@@ ..#####",
"#####################+@@ ..###,hij,############+#####+@@ ..#####",
"##########@@@######+++@@ ..###,klm,#######@@@#++.##+++@@ ..#####",
"########@+++++####+@@+@@..####,nop,######@++++##...@@+@@..######",
"###++++@@+++++++@@@@@@@@..+++#,qrs,+++++@+++++++++.@@@@@..+++###",
"++++@@@@@++@@@@++@@@@@@@++@@++,qrt,+@@@@@++@@@@++@@@@@@@++@@++++",
"@@@@@@@@@@@@@@@@@@@@@@@@@@@@@,uvwxy,@@@@@@@@@@@@@@@@@@@@@@@@@@@@",
".. ..++@   ......            ,zABCD,.++@   ......    +#+        ",
"......+@  .............    ..,,EEF,,..+@  ..........++##   .....",
"....#++@ ....#######..........,,E,,.#++@ ....#######+###........",
"..##+@@@ ...############+++#...,,,##+@@@ ...########+###.###....",
"####++@@ ...#####+++####+##.########++@@ ...########+##.########",
"#####+@@ ...###++###+##+###.##++#####+@@ ...##########.#########",
"#####++@...###++####.##+#...##+#.####++@...####+###########+++##",
"######+@..####+####..########+##.#####+@..######.#########+###.#",
"######+@..#####++#..###########..#####+@..###++###########+###.#",
"#####+@@ ..######..##################+@@ ..#+##.###########...##",
"#####+@@ ..##########################+@@ ..#+##.################",
"###+++@@ ..#####+#######@@#########+++@@ ..##..##@@#############",
"##+@@+@@..####@++######@+++#++####+@@+@@..#######++######@+#++##",
"++@@@@@@..+++@@++##++@@+++++++++++@@@@@@..+++##@+++++++@@+++++++",
"+@@@@@@@++@@@@++++++@@+++++@@@@++@@@@@@@++@@++@+++++@@@@@++@@@@+",
"@@@@@@@@@@@@@@@@@@@@@@@@@@@@@@@@@@@@@@@@@@@@@@@@@@@@@@@@@@@@@@@@"};
