/* XPM */
static char * V2_1_xpm[] = {
"64 64 618 2",
"  	c #051128",
". 	c #040D21",
"+ 	c #040E21",
"@ 	c #040E22",
"# 	c #06122B",
"$ 	c #06122C",
"% 	c #06132C",
"& 	c #06122A",
"* 	c #051129",
"= 	c #01040B",
"- 	c #010205",
"; 	c #050F24",
"> 	c #051126",
", 	c #061228",
"' 	c #06142C",
") 	c #07162F",
"! 	c #081833",
"~ 	c #091934",
"{ 	c #091A36",
"] 	c #0A1A36",
"^ 	c #091935",
"/ 	c #0A1B3A",
"( 	c #091836",
"_ 	c #081733",
": 	c #081632",
"< 	c #061229",
"[ 	c #051228",
"} 	c #02060F",
"| 	c #010207",
"1 	c #071530",
"2 	c #07152F",
"3 	c #051026",
"4 	c #051025",
"5 	c #040F23",
"6 	c #040F24",
"7 	c #051024",
"8 	c #06132A",
"9 	c #0C1E3E",
"0 	c #0B1B3A",
"a 	c #0D1F41",
"b 	c #0F2144",
"c 	c #102449",
"d 	c #11264C",
"e 	c #12274E",
"f 	c #18325F",
"g 	c #17315E",
"h 	c #162F5A",
"i 	c #152D56",
"j 	c #132A52",
"k 	c #12294F",
"l 	c #11274D",
"m 	c #11274C",
"n 	c #11274B",
"o 	c #11264A",
"p 	c #11264B",
"q 	c #10264A",
"r 	c #0D1E3F",
"s 	c #051122",
"t 	c #020815",
"u 	c #142B56",
"v 	c #0F2345",
"w 	c #0E2142",
"x 	c #0D2040",
"y 	c #0C1E3D",
"z 	c #07142D",
"A 	c #07132C",
"B 	c #06132B",
"C 	c #091A35",
"D 	c #0A1A37",
"E 	c #081832",
"F 	c #01050F",
"G 	c #01040C",
"H 	c #06132D",
"I 	c #162D59",
"J 	c #183261",
"K 	c #1A3465",
"L 	c #1B3668",
"M 	c #1C376B",
"N 	c #1C386C",
"O 	c #1D396D",
"P 	c #1C386B",
"Q 	c #1B3669",
"R 	c #1A3566",
"S 	c #193364",
"T 	c #193363",
"U 	c #193262",
"V 	c #204076",
"W 	c #1F3F75",
"X 	c #1F3F74",
"Y 	c #1F3E74",
"Z 	c #193261",
"` 	c #0C1F39",
" .	c #061326",
"..	c #061225",
"+.	c #244687",
"@.	c #1D3B6F",
"#.	c #1C3A6C",
"$.	c #1B3869",
"%.	c #152B55",
"&.	c #142A53",
"*.	c #132851",
"=.	c #12274F",
"-.	c #17315D",
";.	c #12264D",
">.	c #11254B",
",.	c #061427",
"'.	c #020611",
").	c #010309",
"!.	c #010206",
"~.	c #07142E",
"{.	c #0D2041",
"].	c #1B3768",
"^.	c #234681",
"/.	c #203E76",
"(.	c #213F79",
"_.	c #21407A",
":.	c #22417B",
"<.	c #22417C",
"[.	c #214079",
"}.	c #122947",
"|.	c #0A1930",
"1.	c #3059A9",
"2.	c #284D8D",
"3.	c #274C8B",
"4.	c #264B89",
"5.	c #1E3B72",
"6.	c #1E3A70",
"7.	c #1D396E",
"8.	c #1D386C",
"9.	c #0D213C",
"0.	c #091A31",
"a.	c #020713",
"b.	c #010308",
"c.	c #07142F",
"d.	c #102549",
"e.	c #284E8F",
"f.	c #23437E",
"g.	c #23437F",
"h.	c #132B4B",
"i.	c #2B5397",
"j.	c #0B1B33",
"k.	c #335FB2",
"l.	c #2B5396",
"m.	c #2B5296",
"n.	c #2A5295",
"o.	c #22427D",
"p.	c #122A49",
"q.	c #0F2440",
"r.	c #040D1D",
"s.	c #01040D",
"t.	c #21427A",
"u.	c #112745",
"v.	c #0B1D34",
"w.	c #213F78",
"x.	c #0B1D36",
"y.	c #020712",
"z.	c #051127",
"A.	c #1C3769",
"B.	c #203F77",
"C.	c #0B1D35",
"D.	c #22447D",
"E.	c #335FB3",
"F.	c #051022",
"G.	c #020610",
"H.	c #22437C",
"I.	c #23427E",
"J.	c #102744",
"K.	c #050F20",
"L.	c #02050F",
"M.	c #21427B",
"N.	c #132A4A",
"O.	c #102643",
"P.	c #040E1E",
"Q.	c #0F2446",
"R.	c #0B1A32",
"S.	c #0F2541",
"T.	c #0D203A",
"U.	c #122948",
"V.	c #08162B",
"W.	c #040C1B",
"X.	c #01050D",
"Y.	c #071326",
"Z.	c #0A1A31",
"`.	c #361F32",
" +	c #081529",
".+	c #040C1A",
"++	c #01030A",
"@+	c #07142A",
"#+	c #9D3529",
"$+	c #071529",
"%+	c #030B19",
"&+	c #122852",
"*+	c #264A8E",
"=+	c #315CAD",
"-+	c #7864A5",
";+	c #B45F8A",
">+	c #325EB1",
",+	c #AA426A",
"'+	c #1E3468",
")+	c #284D93",
"!+	c #193466",
"~+	c #0A1938",
"{+	c #122751",
"]+	c #264A8D",
"^+	c #295092",
"/+	c #8767A0",
"(+	c #BF3919",
"_+	c #192A54",
":+	c #142B53",
"<+	c #091937",
"[+	c #0D2141",
"}+	c #295091",
"|+	c #60334E",
"1+	c #52508C",
"2+	c #50172A",
"3+	c #C6391F",
"4+	c #213E74",
"5+	c #775C8B",
"6+	c #3B5496",
"7+	c #214279",
"8+	c #132B53",
"9+	c #07142C",
"0+	c #030A1C",
"a+	c #091834",
"b+	c #18315F",
"c+	c #3C447D",
"d+	c #2C2244",
"e+	c #323363",
"f+	c #691D18",
"g+	c #F4730A",
"h+	c #3F294D",
"i+	c #3D5495",
"j+	c #F57D2D",
"k+	c #4D5693",
"l+	c #1A3466",
"m+	c #0E2143",
"n+	c #040E23",
"o+	c #17305D",
"p+	c #10234A",
"q+	c #922224",
"r+	c #C13324",
"s+	c #E54E1E",
"t+	c #FF8700",
"u+	c #BD3521",
"v+	c #203D76",
"w+	c #0E2144",
"x+	c #0A1936",
"y+	c #A82827",
"z+	c #D33E29",
"A+	c #ED7320",
"B+	c #FF990A",
"C+	c #FFA01D",
"D+	c #FD9F20",
"E+	c #E5461C",
"F+	c #5C1624",
"G+	c #040E24",
"H+	c #030B1E",
"I+	c #0B1C3B",
"J+	c #191F42",
"K+	c #CD6513",
"L+	c #FD9419",
"M+	c #FFCE48",
"N+	c #FEF2DA",
"O+	c #FFD151",
"P+	c #F48B23",
"Q+	c #BD3326",
"R+	c #33376A",
"S+	c #1E3466",
"T+	c #0D1F40",
"U+	c #21407B",
"V+	c #1F3D74",
"W+	c #9C3927",
"X+	c #FF9E1A",
"Y+	c #FFD35F",
"Z+	c #FEF6E5",
"`+	c #FEF9EE",
" @	c #FEF7E4",
".@	c #EC881A",
"+@	c #8B2836",
"@@	c #2D4078",
"#@	c #89483E",
"$@	c #0F2245",
"%@	c #0F2246",
"&@	c #183160",
"*@	c #D15A2C",
"=@	c #FEF7E8",
"-@	c #FEF9ED",
";@	c #FEE4B3",
">@	c #FF9542",
",@	c #E36323",
"'@	c #3F2344",
")@	c #25437E",
"!@	c #475594",
"~@	c #1B3567",
"{@	c #EA5B11",
"]@	c #FFE3CA",
"^@	c #FECEB4",
"/@	c #FEF9EC",
"(@	c #FEE3C3",
"_@	c #FF9129",
":@	c #FF9C17",
"<@	c #B22C29",
"[@	c #15244B",
"}@	c #0F2145",
"|@	c #1B366A",
"1@	c #CF4114",
"2@	c #FAA428",
"3@	c #FF9D0D",
"4@	c #FEEAC1",
"5@	c #FEEFD0",
"6@	c #FEF3E0",
"7@	c #EE7A10",
"8@	c #9B2830",
"9@	c #203F78",
"0@	c #0E2043",
"a@	c #11264D",
"b@	c #2E3A6F",
"c@	c #CC4911",
"d@	c #FC9C1B",
"e@	c #FCCC35",
"f@	c #EAA62F",
"g@	c #CA7168",
"h@	c #601117",
"i@	c #09172D",
"j@	c #8E755F",
"k@	c #B1AF92",
"l@	c #AFB19E",
"m@	c #B0B19E",
"n@	c #AFAB8D",
"o@	c #ACA072",
"p@	c #574A5E",
"q@	c #203E77",
"r@	c #18305E",
"s@	c #0C1C3C",
"t@	c #0E233E",
"u@	c #0A1328",
"v@	c #524553",
"w@	c #A0826F",
"x@	c #E7DDAC",
"y@	c #C2A78D",
"z@	c #D1B98A",
"A@	c #685E5D",
"B@	c #332735",
"C@	c #132B4A",
"D@	c #112744",
"E@	c #0A1C34",
"F@	c #040E1D",
"G@	c #01050E",
"H@	c #0E223E",
"I@	c #1E061D",
"J@	c #27001C",
"K@	c #90352A",
"L@	c #581629",
"M@	c #852F2B",
"N@	c #260119",
"O@	c #30081F",
"P@	c #071428",
"Q@	c #290A1C",
"R@	c #9B3E27",
"S@	c #D78B34",
"T@	c #994B2A",
"U@	c #BA702C",
"V@	c #73322F",
"W@	c #2F081F",
"X@	c #08172C",
"Y@	c #050E1F",
"Z@	c #02050E",
"`@	c #183263",
" #	c #284C92",
".#	c #315BAD",
"+#	c #274987",
"@#	c #451129",
"##	c #5A2922",
"$#	c #D29C50",
"%#	c #A96C27",
"&#	c #4F162D",
"*#	c #28498E",
"=#	c #2A5194",
"-#	c #244783",
";#	c #183361",
">#	c #0A1B38",
",#	c #132B52",
"'#	c #214179",
")#	c #AFA179",
"!#	c #534345",
"~#	c #7E6051",
"{#	c #191E3E",
"]#	c #244782",
"^#	c #050E24",
"/#	c #1A2C59",
"(#	c #7F685F",
"_#	c #BE8E6C",
":#	c #494054",
"<#	c #1C2348",
"[#	c #2F061D",
"}#	c #53142C",
"|#	c #280218",
"1#	c #2A5193",
"2#	c #132850",
"3#	c #81581F",
"4#	c #AC5D2F",
"5#	c #571924",
"6#	c #1E3A6F",
"7#	c #132951",
"8#	c #76421D",
"9#	c #B6582B",
"0#	c #0E0017",
"a#	c #1E3B71",
"b#	c #142A54",
"c#	c #081630",
"d#	c #030B1D",
"e#	c #0D213B",
"f#	c #684427",
"g#	c #88462C",
"h#	c #450F24",
"i#	c #22427E",
"j#	c #1F3C72",
"k#	c #081732",
"l#	c #2F0014",
"m#	c #B1512A",
"n#	c #29001B",
"o#	c #162E5A",
"p#	c #D3D7CF",
"q#	c #E3C393",
"r#	c #484059",
"s#	c #1D264C",
"t#	c #142B55",
"u#	c #081631",
"v#	c #0D1F3F",
"w#	c #294F91",
"x#	c #18254D",
"y#	c #79685B",
"z#	c #AD8467",
"A#	c #815E54",
"B#	c #181632",
"C#	c #142952",
"D#	c #030A1B",
"E#	c #020513",
"F#	c #091833",
"G#	c #23427D",
"H#	c #160E2A",
"I#	c #531A2E",
"J#	c #150720",
"K#	c #223F79",
"L#	c #1D3A6F",
"M#	c #020717",
"N#	c #1D396C",
"O#	c #22407A",
"P#	c #1C3568",
"Q#	c #0D182F",
"R#	c #1D386D",
"S#	c #102348",
"T#	c #01040F",
"U#	c #01030C",
"V#	c #203D75",
"W#	c #22427C",
"X#	c #17305E",
"Y#	c #020818",
"Z#	c #01030B",
"`#	c #030A1D",
" $	c #051123",
".$	c #0A1C33",
"+$	c #09182E",
"@$	c #112846",
"#$	c #0D1F39",
"$$	c #000104",
"%$	c #030917",
"&$	c #030A18",
"*$	c #040C1C",
"=$	c #071429",
"-$	c #0B1B32",
";$	c #122949",
">$	c #061224",
",$	c #040F20",
"'$	c #030916",
")$	c #000102",
"!$	c #02050D",
"~$	c #030814",
"{$	c #09182F",
"]$	c #08152A",
"^$	c #051021",
"/$	c #020814",
"($	c #030C1E",
"_$	c #102448",
":$	c #12284E",
"<$	c #051224",
"[$	c #17305F",
"}$	c #1C386E",
"|$	c #1C396A",
"1$	c #254987",
"2$	c #315CAF",
"3$	c #305BAB",
"4$	c #2F58A6",
"5$	c #1D3A71",
"6$	c #183162",
"7$	c #172F5F",
"8$	c #162F5D",
"9$	c #142A55",
"0$	c #0C1E40",
"a$	c #050F25",
"b$	c #020614",
"c$	c #030B1C",
"d$	c #081934",
"e$	c #0F2346",
"f$	c #11284D",
"g$	c #12284F",
"h$	c #162F5E",
"i$	c #172F5E",
"j$	c #122950",
"k$	c #1A3767",
"l$	c #1F3E73",
"m$	c #23457F",
"n$	c #254986",
"o$	c #264B8A",
"p$	c #274D8D",
"q$	c #335EB2",
"r$	c #274C8A",
"s$	c #254985",
"t$	c #22447E",
"u$	c #09192F",
"v$	c #173060",
"w$	c #01040E",
"x$	c #030919",
"y$	c #081731",
"z$	c #0F2244",
"A$	c #152C56",
"B$	c #162E5B",
"C$	c #234680",
"D$	c #254885",
"E$	c #254A87",
"F$	c #274D8C",
"G$	c #112847",
"H$	c #122847",
"I$	c #305AAA",
"J$	c #284E8E",
"K$	c #274C8C",
"L$	c #152C58",
"M$	c #0F2347",
"N$	c #0E2042",
"O$	c #0E2041",
"P$	c #0F2344",
"Q$	c #030A1A",
"R$	c #020817",
"S$	c #0E1F41",
"T$	c #10244A",
"U$	c #132952",
"V$	c #142B54",
"W$	c #091B31",
"X$	c #0A1B32",
"Y$	c #172E5B",
"Z$	c #172F5C",
"`$	c #061123",
" %	c #061124",
".%	c #234483",
"+%	c #1C396B",
"@%	c #1A3666",
"#%	c #193462",
"$%	c #11254A",
"%%	c #102347",
"&%	c #0E2243",
"*%	c #010510",
"=%	c #050F23",
"-%	c #0A1935",
";%	c #061325",
">%	c #061426",
",%	c #132A51",
"'%	c #132A50",
")%	c #020510",
"!%	c #040D22",
"~%	c #0C1E3F",
"{%	c #030C1B",
"]%	c #010209",
"^%	c #010410",
"/%	c #0C1D3E",
"(%	c #020511",
"_%	c #020512",
":%	c #0C1D3D",
"<%	c #08152F",
"[%	c #020716",
"}%	c #0A1C39",
"|%	c #030817",
"1%	c #0C1D3C",
"2%	c #030819",
"3%	c #03091A",
"4%	c #030C1F",
"5%	c #020613",
"6%	c #061324",
"7%	c #11284E",
"8%	c #030816",
"9%	c #030815",
"0%	c #030818",
"a%	c #040D1C",
"b%	c #051121",
"c%	c #020714",
"d%	c #040F1F",
"e%	c #0A1A38",
"f%	c #020612",
"g%	c #030D1C",
"h%	c #030D1B",
"i%	c #051223",
"j%	c #020915",
"k%	c #01050C",
"l%	c #030B1A",
"m%	c #030A19",
"n%	c #041020",
"o%	c #030C1A",
"p%	c #030B18",
"q%	c #020813",
"r%	c #051020",
"s%	c #051124",
"t%	c #020916",
"u%	c #01040A",
"v%	c #010208",
"w%	c #010307",
"x%	c #020711",
"y%	c #02040E",
"z%	c #02040C",
"A%	c #02040D",
"      . . . + + @ # # $ % $ # & * * * * * * * * + + * + + = = - * * * + + . . . . * * * * * * * * * * * * * * * . . * . . = = - ",
"* * + @ ; > , ' ) ! ~ { ] ^ ! / ( _ : < < < , [ [ [ [ , < < } | 1 2 3 4 4 ; 5 5 5 5 5 5 5 5 5 # # # % 5 5 6 5 5 5 5 5 5 @ + = - ",
"* 7 8 ~ 9 0 a b c d e e f g h i j k l l m m n o p q n p r s s t u v w x y 2 z A B B B % { C ^ ^ ^ ^ C { ] D ] { ^ ~ ~ E 3 F G - ",
"H ~ q f I J K L M N O O O O P Q R S T U V W W X Y X Z U `  .....+.@.#.$.%.&.*.=.e e e e =.e e e e e e =.f f f f -.-.;.>.,.'.).!.",
"~.{.].^./.(._.:.<.<.<.<.<.<.<.:._.[.[.[._.[.[.[.(.[.[.[.}.}.|.|.1.2.3.4.5.6.7.O O O O O O O O O O O O O O O 7.O O 8.N N 9.0.a.b.",
"c.d.X e.f.g.g.g.h.g.g.g.g.g.g.g.g.i.i.i.g.g.g.g.g.g.g.g.g.h.j.j.k.l.m.n.o.o.<.<.p.p.p.<.<.<.<.<.<.<.p.p.p.<.<.<.<.<.<.<._.q.r.s.",
"3 d.t.<.g.g.g.g.g.i.g.g.g.g.g.g.i.g.g.g.h.g.g.g.g.g.g.g.g.h.h.j.i.i.i.g.g.g.g.h.g.g.g.h.h.g.g.g.g.g.h.g.g.g.g.g.g.g.g.g.f.u.v.'.",
"3 p L <.g.g.g.g.g.g.g.g.g.g.g.i.g.g.g.g.h.g.g.g.g.g.g.g.g.g.h.j.i.i.g.g.g.g.g.h.g.g.g.g.h.g.g.g.g.g.g.g.g.i.g.g.g.g.g.g.g.w.x.y.",
"z.l A.<.g.g.g.g.g.g.g.g.g.g.g.g.g.g.h.h.h.g.g.g.g.g.g.g.g.g.h.j.i.i.g.g.g.g.g.h.i.i.i.i.g.g.g.g.g.g.i.i.i.i.g.g.g.g.g.g.g.B.C.'.",
"2 l D.<.g.g.g.g.g.g.g.g.g.g.g.g.h.h.g.g.g.g.g.g.g.g.g.g.g.h.j.j.E.i.i.g.g.g.g.g.g.i.i.i.g.g.g.g.g.g.g.g.g.g.g.g.g.g.g.g.f.u.F.G.",
"c.p H.<.g.g.g.g.g.j.j.j.g.g.g.g.g.g.g.g.g.g.g.g.g.g.g.g.g.h.j.j.E.i.i.g.g.g.g.g.g.g.g.g.g.g.g.g.g.g.g.g.g.g.g.g.g.g.g.g.I.J.K.L.",
"~.d.M.<.g.g.g.j.j.h.h.h.g.g.g.g.h.g.g.g.h.g.g.g.g.g.g.h.h.h.j.j.E.i.i.g.g.g.g.g.g.g.h.h.h.g.g.g.g.g.g.g.h.j.h.h.g.g.g.h.N.O.P.s.",
"7 Q.K :.g.g.g.j.h.h.g.g.g.g.g.g.h.g.g.h.h.h.g.j.j.j.h.j.j.h.j.j.i.i.g.g.g.j.j.j.g.h.h.h.h.g.g.g.g.g.g.j.j.h.h.h.g.g.h.j.R.S.r.G ",
"; v T.U.h.g.j.h.g.g.g.h.h.h.h.h.h.h.h.h.h.h.h.j.j.j.j.j.j.j.j.j.i.i.h.h.j.j.j.g.h.h.h.h.h.h.h.h.h.h.h.j.h.h.h.h.h.h.j.j.R.V.W.= ",
"X.P.Y.Z.h.h.j.h.h.h.h.h.j.j.j.j.j.h.h.j.j.j.j.j.j.j.j.j.j.j.j.j.h.h.j.j.`.j.h.h.h.h.h.h.j.j.j.j.j.h.h.j.j.j.j.h.h.j.j.j.Z. +.+++",
"!.y.Y.Z.j.j.j.j.j.j.j.j.j.j.j.j.j.j.j.j.j.j.j.j.j.j.j.j.j.j.j.j.j.j.@+j.#+j.j.j.j.j.j.j.j.j.j.j.j.j.j.j.j.j.j.j.j.j.j.j.Z.$+%+++",
"% &+*+=+E.E.E.E.i.i.E.i.i.h.h.j.E.E.E.i.i.i.i.i.i.E.E.E.E.E.E.-+;+>+,+'+E.E.E.E.i.i.E.i.i.h.h.j.E.E.E.i.i.i.i.i.i.E.E.E.=+)+!+~+",
"% {+]+^+i.i.i.i.i.i.i.i.i.i.h.j.E.E.i.i.i.i.i.i.i.i.i.i.i.i.i./+E.1.(+_+i.i.i.i.i.i.i.i.i.i.h.j.E.E.i.i.i.i.i.i.i.i.i.i.^+M.:+<+",
"5 [+Y }+i.i.i.i.i.i.i.i.g.h.h.j.E.i.i.i.i.g.g.g.g.g.g.g.i.i.|+1+i.2+3+4+i.5+6+i.i.i.i.i.g.h.h.j.E.i.i.i.i.g.g.g.g.g.g.g.}+7+8+9+",
"0+a+b+_.i.i.i.i.i.i.g.g.h.j.j.j.E.i.i.i.g.g.g.g.g.g.g.g.g.g.c+d+e+f+g+h+i+j+k+i.i.i.g.g.h.j.j.j.E.i.i.i.g.g.g.g.g.g.g.g._.l+m+n+",
"0+a+o+(.g.g.g.g.g.g.g.g.h.h.j.j.E.i.i.i.g.g.g.g.g.g.g.g.g.l+p+q+r+s+t+u+v+7.o.g.g.g.g.g.h.h.j.j.E.i.i.i.g.g.g.g.h.g.g.g._.K w+n+",
"0+x+b+[.g.g.g.g.g.g.g.g.g.h.j.j.E.i.i.i.g.g.g.g.h.h.g.g.w.y+z+A+B+C+D+E+F+g.g.g.g.g.g.g.g.h.j.j.E.i.i.i.g.g.g.g.g.i.g.g._.R w+G+",
"H+I+Z [.g.g.g.g.g.h.g.g.g.h.h.j.i.i.i.g.g.g.g.h.g.g.i.g.J+K+L+M+N+O+P+Q+R+S+o.g.g.g.g.g.g.h.h.j.i.i.i.g.g.g.g.g.g.g.g.g._.R b ; ",
". T+l+U+g.g.g.g.g.g.i.g.g.g.h.j.i.i.g.g.g.g.g.h.g.g.i.V+W+X+Y+Z+`+ @.@+@@@#@n.g.g.g.g.g.g.g.h.j.i.i.g.g.g.g.g.g.g.g.g.g._.R $@; ",
"; %@L :.g.g.g.g.g.g.g.g.g.g.h.j.i.i.g.g.g.g.g.g.i.i.g.&@*@O+=@-@;@>@,@'@)@!@g.h.g.g.g.g.g.g.h.j.i.i.g.g.g.g.g.g.g.g.g.g.U+~@$@; ",
"z.c M <.g.g.g.g.g.g.g.g.g.h.j.j.E.i.i.g.g.g.g.g.g.g.g.&@{@]@^@/@(@_@:@<@[@g.h.h.g.g.g.g.g.h.j.j.E.i.i.g.g.g.g.g.g.g.g.g._.R }@; ",
"< >.P <.g.g.g.g.g.g.g.g.g.h.j.j.E.i.i.g.g.g.g.g.g.g.g.|@1@2@3@4@5@6@7@8@9@g.g.g.g.g.g.g.g.h.j.j.E.i.i.g.g.g.g.g.g.g.g.g._.K 0@n+",
"& a@8.<.g.g.g.g.g.g.g.h.h.h.j.j.E.i.i.g.g.g.g.g.g.g.g.g.b@c@d@e@f@g@h@9@g.g.g.g.g.g.g.h.h.h.j.j.E.i.i.g.g.g.g.g.g.g.g.g.[.U r @ ",
"& d N <.h.h.g.g.g.g.h.j.j.h.j.j.i.i.g.g.g.g.g.g.g.g.h.i@j@k@l@m@n@o@p@g.h.j.j.j.g.g.h.j.j.h.j.j.i.i.g.g.g.g.g.g.g.g.j.h.q@r@s@. ",
"t >.t@p.h.h.h.h.h.h.j.j.j.j.j.j.i.i.h.h.h.g.g.g.g.h.j.u@v@w@x@y@z@A@B@h.j.j.h.h.h.h.j.j.j.j.j.j.i.i.h.h.h.g.g.g.j.j.h.C@D@E@F@G@",
"= $+H@Z.j.j.j.h.h.j.j.j.j.j.j.j.h.h.j.j.h.h.h.h.h.h.j.h.I@J@K@L@M@N@O@j.j.h.h.h.h.j.j.j.j.j.j.j.h.h.j.j.h.h.h.j.j.h.h.N.i@K.G.!.",
"++%+P@Z.j.j.j.j.j.j.j.j.j.j.j.j.j.j.j.j.j.j.j.j.j.j.j.j.Q@R@S@T@U@V@W@j.j.j.j.j.j.j.j.j.j.j.j.j.j.j.j.j.j.j.j.j.j.j.j.R.X@Y@Z@!.",
"z `@ #.#E.E.E.E.E.h.h.g.E.E.E.E.i.i.E.i.i.h.h.j.E.E.E.i.+#@###$#%#&#*#E.E.E.E.E.E.E.E.E.E.E.E.E.i.i.E.i.i.h.h.j.E.E.E.=#-#;#>#6 ",
"' ,#'#}+i.i.i.E.h.g.g.g.i.i.i.i.i.i.i.i.i.i.h.j.E.E.i.i.i.o+)#!#~#{#i.i.i.i.i.E.E.E.E.i.i.i.i.i.i.i.i.i.i.i.h.j.E.E.i.=#]#f ] 5 ",
"^#w+R _.i.i.i.i.h.g.g.i.i.i.i.i.i.i.i.i.g.h.h.j.E.i.i.i.i./#(#_#:#<#g.g.i.i.i.i.i.i.i.i.i.i.i.i.i.i.i.i.g.h.h.j.E.i.i.=#]#=.% 0+",
"; b R _.g.g.g.h.g.g.g.g.i.i.i.i.i.i.g.g.h.j.j.j.E.i.i.i.g.g.[#}#|#<.g.g.g.g.g.g.g.g.g.g.i.i.i.i.i.i.g.g.h.j.j.j.E.i.i.1#O 2#A 0+",
"; $@R _.g.g.g.h.g.g.g.i.g.g.g.g.g.g.g.g.h.h.j.j.E.i.i.i.g.g.3#4#5#<.g.g.g.h.h.h.g.g.g.g.g.g.g.g.g.g.h.h.h.h.j.j.E.i.i.=#6#7#~.0+",
"; $@~@U+g.g.g.g.g.i.i.g.g.g.g.g.g.g.g.g.g.h.j.j.E.i.i.i.g.g.8#9#0#<.g.g.h.g.g.g.g.g.g.g.g.g.g.g.g.h.h.g.g.h.j.j.E.i.i.n.a#b#c#d#",
"; $@e#U.g.g.g.g.g.g.g.g.g.g.g.g.g.g.g.g.g.h.h.j.i.i.i.g.g.g.f#g#h#<.g.g.h.g.g.g.i.g.g.g.g.g.g.g.h.h.g.g.g.h.h.j.i.i.i.i#j#%.k#H+",
";  .R _.i.g.g.g.g.g.g.g.g.g.g.g.g.g.g.g.g.g.h.j.i.i.g.g.g.h.l#m#n#<.g.g.g.i.i.i.i.g.g.g.g.g.g.h.h.g.g.g.g.g.h.j.i.i.g.I.j#%._ H+",
"@ ..K _.i.g.g.g.g.g.g.g.g.g.g.g.g.g.g.g.g.g.h.j.i.i.g.g.g.o#p#q#r#s#g.g.g.g.g.g.g.g.g.g.g.g.g.h.g.g.g.g.g.g.h.j.i.i.g.o.a#t#u#d#",
"d#v#V w#g.g.g.g.g.g.g.g.g.g.g.g.g.g.g.g.g.h.j.j.E.i.i.g.g.x#y#z#A#B#g.g.g.g.g.g.g.g.g.g.g.g.g.h.g.g.g.g.g.h.j.j.E.i.i.o.6.C#2 D#",
"E#F#o+(.g.g.g.g.g.g.g.g.g.g.g.g.g.g.g.g.g.h.j.j.E.i.i.g.g.G#H#I#J#K#g.g.g.g.g.g.g.g.g.g.g.g.g.h.g.g.g.g.g.h.j.j.E.i.i.<.L#*.& M#",
"s.n+c N#<.f.g.g.g.g.j.j.j.g.g.g.g.g.g.h.h.h.j.j.E.i.i.g.g.g.O#P#Q#j.j.g.g.g.g.g.g.g.j.j.j.g.h.h.i.g.g.h.h.h.j.j.E.i.i.o.R#S#. T#",
"U#d#^ 2#~@V#W#f.j.h.h.h.h.h.g.g.g.g.h.j.j.h.j.j.i.i.g.g.g.g.g.j.h.h.h.g.g.g.g.g.g.j.h.h.h.h.g.g.i.i.i.j.j.h.j.j.i.i.f.9@X#x+Y#Z#",
"U#`#c# $$+.$t@+$Z.N.h.h.h.h.h.h.j.j.j.j.j.j.j.j.i.i.h.h.h.g.j.j.h.h.h.h.h.h.h.h.j.h.h.h.h.h.h.h.h.h.i.j.j.j.j.j.i.n.@$#$ .% M#Z#",
"$$G %+F.%$&$*$F.=$O.U.-$j.j.j.h.h.j.j.j.j.j.j.j.h.h.j.j.h.h.j.h.h.h.h.h.j.j.j.j.j.h.h.j.j.j.j.h.h.j.j.j.j.j.j.j.;$O.>$%+,$'$++$$",
")$- !$~$'$'$%$&$*$F.P@i@Z.-$j.j.j.j.j.j.j.j.j.j.j.j.j.j.j.j.j.j.j.j.j.j.j.j.j.j.j.j.j.j.j.j.j.j.j.j.j.j.j.R.Z.{$]$^$%+'$/$G - )$",
"T#($a _$:$<$<$%$[$`@}$|$t.1$e.=#m.k.k.k.E.E.E.E.E.E.E.E.E.E.E.E.i.i.E.i.i.h.h.j.E.E.E.i.i.i.i.i.m.>+2$3$4$S.L x.5$6$7$8$9$0$a$b$",
"T#c$d$e$f$g$<$'$h$i$j$8+h k$l$m$n$o$p$e.^+=#n.>+>+q$q$m.m.m.m.m.m.m.m.l.i.i.h.j.E.E.i.i.m.n.^+e.r$s$t$V E@u$d %@v$i$h$f$e$! c$T#",
"w$x$y$z$T+<$<$'$h$g$g$g$k w+S#;.C#A$B$&@t.C$D$E$4.o$r$3.3.3.3.3.3.3.F$p$B.G$H$|.I$J$K$4.D$M K X#L$7#d M$ .N$N$O$g$g$g$l P$y$Q$w$",
"s.R$3 x+ $'$'$'$h$g$g$g$a S$O$N$0@w+}@M$T$e U$V$W$X$.$o##.#.#.#.#.#.Y$Z$C.`$ % %.%+%@%#%e $%%%$@m+N$O$O$<$a a a g$a a r &%) Y#s.",
").*%=%-% $<$'$'$h$g$g$g$a a a a a <$<$<$O$N$N$m+;%w+b ,#b b b b b b b $@ .>%&$&$`@,%'%j$N$O$O$S$S$a a a <$a a g$a a a r x+=%)%).",
").T#!%a+r <$'$'$h$g$g$g$a a a <$<$a a a <$a a <$S$S$S$g$S$S$<$<$S$S$S$S$S$<$'$'$h$g$g$g$a a a a a a a a a a g$a a a a r a+. T#).",
"Z#T#. a+~%<$<$'$g$g$g$a a a <$<$a a a a g$a a <$a g$g$g$a a <$a g$a a a a <$<$'$g$g$g$a a a a <$a a a a a a a a a a a s {%L.s.]%",
"w$^%. a+9 a <$'$g$g$a a a a <$a a a a g$g$a a a a a a a a <$a a g$a a a a a <$'$g$g$a a a a a a g$a a a a a a a a a <$/%c#d#(%]%",
"E#_%. ! 9 a <$'$g$g$a a a a a <$<$a g$g$a a a a a a a a a a a g$g$a a a a a <$'$g$g$a a a <$<$a a a a a a a a a a S$<$:%<%0+*%]%",
"[%[%@ F#9 <$'$'$h$g$g$a a a a a a g$g$a a a a a a a a a a a a a a a a a a <$'$'$h$g$g$a <$a a g$a a a S$S$S$S$S$S$S$S$d.}%+ U#++",
"|%Y#a$a+9 <$'$'$h$g$g$a a a a a a a a a a a a a a a a a a a a a a a a a a <$'$'$h$g$g$a <$a a g$S$S$S$S$S$S$S$S$S$S$S$1%~.D#w$w$",
"2%3%< F@ $<$'$'$h$g$g$a a a a a <$a a a a a a a '$'$a a a a a a a a a <$<$<$'$'$h$g$g$a a g$g$a a '$'$S$S$S$S$S$a a S$s@c#4%5%b$",
"3%d#{%t %$6%'$'$:$7%S$S$S$S$8% $ $r r r r r r 9%s s s ~% $ $r T+T+S$<$'$'$<$'$'$g$g$S$S$S$S$S$S$S$<$<$S$S$S$S$S$S$%$>$r F@y.Y#0%",
"= } a.W.a%%+%$'$d p b%^$^$/$c%d%P.e%e%P.P.f%'.a%g%h%g%a%r.F@P.d%,$^$9%'$'$'$'$'$:$:$<$i% $r r 9%s s s s s  $s 9%9% $;% .^$j%k%= ",
"G ).y.l%W.m%%$t n%d%y.f%'.G.o%p%&$&$&$&$G@G t /$q%q%/$= G s.Z@%+%+G.'./$j%%$%$%$i%i%9%/$r%d%f%r.r.r.F@F@y.y.y.y.y.K.s%t%'.u%!.= ",
"!.b.G G.'.L.L.Z@s.G G G = u%).b.v%v%v%v%v%| !.!.- - - !.!.w%w%w%).).= G@x%c%/$/$/$a.y.'.)%L.y%s.G G G G z%z%A%A%A%G@F A%).| - - "};
