/* XPM */
static char * V2_2_xpm[] = {
"64 64 611 2",
"  	c #051128",
". 	c #040D21",
"+ 	c #040E21",
"@ 	c #040E22",
"# 	c #06122B",
"$ 	c #06122C",
"% 	c #06132C",
"& 	c #06122A",
"* 	c #051129",
"= 	c #01040B",
"- 	c #010205",
"; 	c #050F24",
"> 	c #051126",
", 	c #061228",
"' 	c #06142C",
") 	c #07162F",
"! 	c #081833",
"~ 	c #091934",
"{ 	c #091A36",
"] 	c #0A1A36",
"^ 	c #091935",
"/ 	c #0A1B3A",
"( 	c #091836",
"_ 	c #081733",
": 	c #081632",
"< 	c #061229",
"[ 	c #051228",
"} 	c #02060F",
"| 	c #010207",
"1 	c #071530",
"2 	c #07152F",
"3 	c #051026",
"4 	c #051025",
"5 	c #040F23",
"6 	c #040F24",
"7 	c #051024",
"8 	c #06132A",
"9 	c #0C1E3E",
"0 	c #0B1B3A",
"a 	c #0D1F41",
"b 	c #0F2144",
"c 	c #102449",
"d 	c #11264C",
"e 	c #12274E",
"f 	c #18325F",
"g 	c #17315E",
"h 	c #162F5A",
"i 	c #152D56",
"j 	c #132A52",
"k 	c #12294F",
"l 	c #11274D",
"m 	c #11274C",
"n 	c #11274B",
"o 	c #11264A",
"p 	c #11264B",
"q 	c #10264A",
"r 	c #0D1E3F",
"s 	c #051122",
"t 	c #020815",
"u 	c #142B56",
"v 	c #0F2345",
"w 	c #0E2142",
"x 	c #0D2040",
"y 	c #0C1E3D",
"z 	c #07142D",
"A 	c #07132C",
"B 	c #06132B",
"C 	c #091A35",
"D 	c #0A1A37",
"E 	c #081832",
"F 	c #01050F",
"G 	c #01040C",
"H 	c #06132D",
"I 	c #162D59",
"J 	c #183261",
"K 	c #1A3465",
"L 	c #1B3668",
"M 	c #1C376B",
"N 	c #1C386C",
"O 	c #1D396D",
"P 	c #1C386B",
"Q 	c #1B3669",
"R 	c #1A3566",
"S 	c #193364",
"T 	c #193363",
"U 	c #193262",
"V 	c #204076",
"W 	c #1F3F75",
"X 	c #1F3F74",
"Y 	c #1F3E74",
"Z 	c #193261",
"` 	c #0C1F39",
" .	c #061326",
"..	c #061225",
"+.	c #244687",
"@.	c #1D3B6F",
"#.	c #1C3A6C",
"$.	c #1B3869",
"%.	c #152B55",
"&.	c #142A53",
"*.	c #132851",
"=.	c #12274F",
"-.	c #17315D",
";.	c #12264D",
">.	c #11254B",
",.	c #061427",
"'.	c #020611",
").	c #010309",
"!.	c #010206",
"~.	c #07142E",
"{.	c #0D2041",
"].	c #1B3768",
"^.	c #234681",
"/.	c #203E76",
"(.	c #213F79",
"_.	c #21407A",
":.	c #22417B",
"<.	c #22417C",
"[.	c #214079",
"}.	c #122947",
"|.	c #0A1930",
"1.	c #3059A9",
"2.	c #284D8D",
"3.	c #274C8B",
"4.	c #264B89",
"5.	c #1E3B72",
"6.	c #1E3A70",
"7.	c #1D396E",
"8.	c #1D386C",
"9.	c #0D213C",
"0.	c #091A31",
"a.	c #020713",
"b.	c #010308",
"c.	c #07142F",
"d.	c #102549",
"e.	c #284E8F",
"f.	c #23437E",
"g.	c #23437F",
"h.	c #132B4B",
"i.	c #2B5397",
"j.	c #0B1B33",
"k.	c #335FB2",
"l.	c #2B5396",
"m.	c #2B5296",
"n.	c #2A5295",
"o.	c #22427D",
"p.	c #122A49",
"q.	c #0F2440",
"r.	c #040D1D",
"s.	c #01040D",
"t.	c #21427A",
"u.	c #112745",
"v.	c #0B1D34",
"w.	c #213F78",
"x.	c #0B1D36",
"y.	c #020712",
"z.	c #051127",
"A.	c #1C3769",
"B.	c #203F77",
"C.	c #0B1D35",
"D.	c #22447D",
"E.	c #335FB3",
"F.	c #051022",
"G.	c #020610",
"H.	c #22437C",
"I.	c #23427E",
"J.	c #102744",
"K.	c #050F20",
"L.	c #02050F",
"M.	c #21427B",
"N.	c #132A4A",
"O.	c #102643",
"P.	c #040E1E",
"Q.	c #0F2446",
"R.	c #0B1A32",
"S.	c #0F2541",
"T.	c #0D203A",
"U.	c #122948",
"V.	c #08162B",
"W.	c #040C1B",
"X.	c #01050D",
"Y.	c #071326",
"Z.	c #0A1A31",
"`.	c #081529",
" +	c #040C1A",
".+	c #01030A",
"++	c #071529",
"@+	c #030B19",
"#+	c #122852",
"$+	c #264A8E",
"%+	c #315CAD",
"&+	c #675DA9",
"*+	c #5A5EAC",
"=+	c #385FB2",
"-+	c #284D93",
";+	c #193466",
">+	c #0A1938",
",+	c #122751",
"'+	c #264A8D",
")+	c #295092",
"!+	c #775289",
"~+	c #325EB1",
"{+	c #64467F",
"]+	c #3C5FB2",
"^+	c #142B53",
"/+	c #091937",
"(+	c #0D2141",
"_+	c #295091",
":+	c #9B547D",
"<+	c #6A5B8E",
"[+	c #152043",
"}+	c #633259",
"|+	c #24457F",
"1+	c #214279",
"2+	c #132B53",
"3+	c #07142C",
"4+	c #030A1C",
"5+	c #091834",
"6+	c #18315F",
"7+	c #542232",
"8+	c #3D3D6B",
"9+	c #1C386D",
"0+	c #B42D2B",
"a+	c #DB4422",
"b+	c #521E31",
"c+	c #1A3466",
"d+	c #0E2143",
"e+	c #040E23",
"f+	c #17305D",
"g+	c #1A3567",
"h+	c #A72D21",
"i+	c #DB421E",
"j+	c #FC7E02",
"k+	c #EA6C19",
"l+	c #AE451F",
"m+	c #B7665F",
"n+	c #0E2144",
"o+	c #0A1936",
"p+	c #7A5273",
"q+	c #11264F",
"r+	c #DC5025",
"s+	c #FD8305",
"t+	c #FF9806",
"u+	c #FFCD74",
"v+	c #E05821",
"w+	c #0F2248",
"x+	c #272A52",
"y+	c #584D7A",
"z+	c #2F447E",
"A+	c #040E24",
"B+	c #030B1E",
"C+	c #0B1C3B",
"D+	c #A65D5E",
"E+	c #85536A",
"F+	c #972731",
"G+	c #F29479",
"H+	c #FFCC6C",
"I+	c #FFE09D",
"J+	c #FEEFDF",
"K+	c #F05F00",
"L+	c #9F2A30",
"M+	c #B04329",
"N+	c #48457C",
"O+	c #0D1F40",
"P+	c #21407B",
"Q+	c #B43020",
"R+	c #F8A614",
"S+	c #FEF3DC",
"T+	c #FEF9EE",
"U+	c #FEF1E0",
"V+	c #FF9200",
"W+	c #D05622",
"X+	c #40315E",
"Y+	c #906383",
"Z+	c #425595",
"`+	c #0F2245",
" @	c #0F2246",
".@	c #4C1A33",
"+@	c #E3471D",
"@@	c #FFD981",
"#@	c #FEF8EA",
"$@	c #FEF9ED",
"%@	c #FEF5E2",
"&@	c #FFAA32",
"*@	c #E2491D",
"=@	c #571422",
"-@	c #1B3567",
";@	c #541A26",
">@	c #F77300",
",@	c #FEEBC4",
"'@	c #FEF7E7",
")@	c #FFBD61",
"!@	c #B02B29",
"~@	c #080217",
"{@	c #213C73",
"]@	c #0F2145",
"^@	c #1B366A",
"/@	c #B62F28",
"(@	c #F56A00",
"_@	c #FFDDB5",
":@	c #FFEBC2",
"<@	c #FFF1E3",
"[@	c #F97F36",
"}@	c #F06A18",
"|@	c #9B2830",
"1@	c #203F78",
"2@	c #0E2043",
"3@	c #11264D",
"4@	c #2B3A6F",
"5@	c #B22E26",
"6@	c #ED5F0D",
"7@	c #ED711E",
"8@	c #E26C55",
"9@	c #C63628",
"0@	c #59111D",
"a@	c #09172D",
"b@	c #8E755F",
"c@	c #B2AF92",
"d@	c #AFB29E",
"e@	c #B0B39E",
"f@	c #AFAC8D",
"g@	c #ACA072",
"h@	c #574A5E",
"i@	c #203E77",
"j@	c #18305E",
"k@	c #0C1C3C",
"l@	c #0E233E",
"m@	c #0A1328",
"n@	c #524553",
"o@	c #A0826F",
"p@	c #E7DDAC",
"q@	c #C2A78D",
"r@	c #D1B98A",
"s@	c #685E5D",
"t@	c #332735",
"u@	c #132B4A",
"v@	c #112744",
"w@	c #0A1C34",
"x@	c #040E1D",
"y@	c #01050E",
"z@	c #0E223E",
"A@	c #1E061D",
"B@	c #27001C",
"C@	c #90352A",
"D@	c #581629",
"E@	c #852F2B",
"F@	c #260119",
"G@	c #30081F",
"H@	c #071428",
"I@	c #290A1C",
"J@	c #9B3E27",
"K@	c #D78B34",
"L@	c #994B2A",
"M@	c #BA702C",
"N@	c #73322F",
"O@	c #2F081F",
"P@	c #08172C",
"Q@	c #050E1F",
"R@	c #02050E",
"S@	c #183263",
"T@	c #284C92",
"U@	c #315BAD",
"V@	c #274987",
"W@	c #451129",
"X@	c #5A2922",
"Y@	c #D29C50",
"Z@	c #A96C27",
"`@	c #4F162D",
" #	c #28498E",
".#	c #2A5194",
"+#	c #244783",
"@#	c #183361",
"##	c #0A1B38",
"$#	c #132B52",
"%#	c #214179",
"&#	c #AFA179",
"*#	c #534345",
"=#	c #7E6051",
"-#	c #191E3E",
";#	c #244782",
">#	c #050E24",
",#	c #1A2C59",
"'#	c #7F685F",
")#	c #BE8E6C",
"!#	c #494054",
"~#	c #1C2348",
"{#	c #2F061D",
"]#	c #53142C",
"^#	c #280218",
"/#	c #2A5193",
"(#	c #132850",
"_#	c #81581F",
":#	c #AC5D2F",
"<#	c #571924",
"[#	c #1E3A6F",
"}#	c #132951",
"|#	c #76421D",
"1#	c #B6582B",
"2#	c #0E0017",
"3#	c #1E3B71",
"4#	c #142A54",
"5#	c #081630",
"6#	c #030B1D",
"7#	c #0D213B",
"8#	c #684427",
"9#	c #88462C",
"0#	c #450F24",
"a#	c #22427E",
"b#	c #1F3C72",
"c#	c #081732",
"d#	c #2F0014",
"e#	c #B1512A",
"f#	c #29001B",
"g#	c #162E5A",
"h#	c #D3D7CF",
"i#	c #E3C393",
"j#	c #484059",
"k#	c #1D264C",
"l#	c #142B55",
"m#	c #081631",
"n#	c #0D1F3F",
"o#	c #294F91",
"p#	c #18254D",
"q#	c #79685B",
"r#	c #AD8467",
"s#	c #815E54",
"t#	c #181632",
"u#	c #142952",
"v#	c #030A1B",
"w#	c #020513",
"x#	c #091833",
"y#	c #23427D",
"z#	c #160E2A",
"A#	c #531A2E",
"B#	c #150720",
"C#	c #223F79",
"D#	c #1D3A6F",
"E#	c #020717",
"F#	c #1D396C",
"G#	c #22407A",
"H#	c #1C3568",
"I#	c #0D182F",
"J#	c #1D386D",
"K#	c #102348",
"L#	c #01040F",
"M#	c #01030C",
"N#	c #203D75",
"O#	c #22427C",
"P#	c #17305E",
"Q#	c #020818",
"R#	c #01030B",
"S#	c #030A1D",
"T#	c #051123",
"U#	c #0A1C33",
"V#	c #09182E",
"W#	c #112846",
"X#	c #0D1F39",
"Y#	c #000104",
"Z#	c #030917",
"`#	c #030A18",
" $	c #040C1C",
".$	c #071429",
"+$	c #0B1B32",
"@$	c #122949",
"#$	c #061224",
"$$	c #040F20",
"%$	c #030916",
"&$	c #000102",
"*$	c #02050D",
"=$	c #030814",
"-$	c #09182F",
";$	c #08152A",
">$	c #051021",
",$	c #020814",
"'$	c #030C1E",
")$	c #102448",
"!$	c #12284E",
"~$	c #051224",
"{$	c #17305F",
"]$	c #1C386E",
"^$	c #1C396A",
"/$	c #254987",
"($	c #315CAF",
"_$	c #305BAB",
":$	c #2F58A6",
"<$	c #1D3A71",
"[$	c #183162",
"}$	c #172F5F",
"|$	c #162F5D",
"1$	c #142A55",
"2$	c #0C1E40",
"3$	c #050F25",
"4$	c #020614",
"5$	c #030B1C",
"6$	c #081934",
"7$	c #0F2346",
"8$	c #11284D",
"9$	c #12284F",
"0$	c #162F5E",
"a$	c #172F5E",
"b$	c #122950",
"c$	c #1A3767",
"d$	c #1F3E73",
"e$	c #23457F",
"f$	c #254986",
"g$	c #264B8A",
"h$	c #274D8D",
"i$	c #335EB2",
"j$	c #274C8A",
"k$	c #254985",
"l$	c #22447E",
"m$	c #09192F",
"n$	c #173060",
"o$	c #01040E",
"p$	c #030919",
"q$	c #081731",
"r$	c #0F2244",
"s$	c #152C56",
"t$	c #162E5B",
"u$	c #183160",
"v$	c #234680",
"w$	c #254885",
"x$	c #254A87",
"y$	c #274D8C",
"z$	c #112847",
"A$	c #122847",
"B$	c #305AAA",
"C$	c #284E8E",
"D$	c #274C8C",
"E$	c #152C58",
"F$	c #0F2347",
"G$	c #0E2042",
"H$	c #0E2041",
"I$	c #0F2344",
"J$	c #030A1A",
"K$	c #020817",
"L$	c #0E1F41",
"M$	c #10244A",
"N$	c #132952",
"O$	c #142B54",
"P$	c #091B31",
"Q$	c #0A1B32",
"R$	c #172E5B",
"S$	c #172F5C",
"T$	c #061123",
"U$	c #061124",
"V$	c #234483",
"W$	c #1C396B",
"X$	c #1A3666",
"Y$	c #193462",
"Z$	c #11254A",
"`$	c #102347",
" %	c #0E2243",
".%	c #010510",
"+%	c #050F23",
"@%	c #0A1935",
"#%	c #061325",
"$%	c #061426",
"%%	c #132A51",
"&%	c #132A50",
"*%	c #020510",
"=%	c #040D22",
"-%	c #0C1E3F",
";%	c #030C1B",
">%	c #010209",
",%	c #010410",
"'%	c #0C1D3E",
")%	c #020511",
"!%	c #020512",
"~%	c #0C1D3D",
"{%	c #08152F",
"]%	c #020716",
"^%	c #0A1C39",
"/%	c #030817",
"(%	c #0C1D3C",
"_%	c #030819",
":%	c #03091A",
"<%	c #030C1F",
"[%	c #020613",
"}%	c #061324",
"|%	c #11284E",
"1%	c #030816",
"2%	c #030815",
"3%	c #030818",
"4%	c #040D1C",
"5%	c #051121",
"6%	c #020714",
"7%	c #040F1F",
"8%	c #0A1A38",
"9%	c #020612",
"0%	c #030D1C",
"a%	c #030D1B",
"b%	c #051223",
"c%	c #020915",
"d%	c #01050C",
"e%	c #030B1A",
"f%	c #030A19",
"g%	c #041020",
"h%	c #030C1A",
"i%	c #030B18",
"j%	c #020813",
"k%	c #051020",
"l%	c #051124",
"m%	c #020916",
"n%	c #01040A",
"o%	c #010208",
"p%	c #010307",
"q%	c #020711",
"r%	c #02040E",
"s%	c #02040C",
"t%	c #02040D",
"      . . . + + @ # # $ % $ # & * * * * * * * * + + * + + = = - * * * + + . . . . * * * * * * * * * * * * * * * . . * . . = = - ",
"* * + @ ; > , ' ) ! ~ { ] ^ ! / ( _ : < < < , [ [ [ [ , < < } | 1 2 3 4 4 ; 5 5 5 5 5 5 5 5 5 # # # % 5 5 6 5 5 5 5 5 5 @ + = - ",
"* 7 8 ~ 9 0 a b c d e e f g h i j k l l m m n o p q n p r s s t u v w x y 2 z A B B B % { C ^ ^ ^ ^ C { ] D ] { ^ ~ ~ E 3 F G - ",
"H ~ q f I J K L M N O O O O P Q R S T U V W W X Y X Z U `  .....+.@.#.$.%.&.*.=.e e e e =.e e e e e e =.f f f f -.-.;.>.,.'.).!.",
"~.{.].^./.(._.:.<.<.<.<.<.<.<.:._.[.[.[._.[.[.[.(.[.[.[.}.}.|.|.1.2.3.4.5.6.7.O O O O O O O O O O O O O O O 7.O O 8.N N 9.0.a.b.",
"c.d.X e.f.g.g.g.h.g.g.g.g.g.g.g.g.i.i.i.g.g.g.g.g.g.g.g.g.h.j.j.k.l.m.n.o.o.<.<.p.p.p.<.<.<.<.<.<.<.p.p.p.<.<.<.<.<.<.<._.q.r.s.",
"3 d.t.<.g.g.g.g.g.i.g.g.g.g.g.g.i.g.g.g.h.g.g.g.g.g.g.g.g.h.h.j.i.i.i.g.g.g.g.h.g.g.g.h.h.g.g.g.g.g.h.g.g.g.g.g.g.g.g.g.f.u.v.'.",
"3 p L <.g.g.g.g.g.g.g.g.g.g.g.i.g.g.g.g.h.g.g.g.g.g.g.g.g.g.h.j.i.i.g.g.g.g.g.h.g.g.g.g.h.g.g.g.g.g.g.g.g.i.g.g.g.g.g.g.g.w.x.y.",
"z.l A.<.g.g.g.g.g.g.g.g.g.g.g.g.g.g.h.h.h.g.g.g.g.g.g.g.g.g.h.j.i.i.g.g.g.g.g.h.i.i.i.i.g.g.g.g.g.g.i.i.i.i.g.g.g.g.g.g.g.B.C.'.",
"2 l D.<.g.g.g.g.g.g.g.g.g.g.g.g.h.h.g.g.g.g.g.g.g.g.g.g.g.h.j.j.E.i.i.g.g.g.g.g.g.i.i.i.g.g.g.g.g.g.g.g.g.g.g.g.g.g.g.g.f.u.F.G.",
"c.p H.<.g.g.g.g.g.j.j.j.g.g.g.g.g.g.g.g.g.g.g.g.g.g.g.g.g.h.j.j.E.i.i.g.g.g.g.g.g.g.g.g.g.g.g.g.g.g.g.g.g.g.g.g.g.g.g.g.I.J.K.L.",
"~.d.M.<.g.g.g.j.j.h.h.h.g.g.g.g.h.g.g.g.h.g.g.g.g.g.g.h.h.h.j.j.E.i.i.g.g.g.g.g.g.g.h.h.h.g.g.g.g.g.g.g.h.j.h.h.g.g.g.h.N.O.P.s.",
"7 Q.K :.g.g.g.j.h.h.g.g.g.g.g.g.h.g.g.h.h.h.g.j.j.j.h.j.j.h.j.j.i.i.g.g.g.j.j.j.g.h.h.h.h.g.g.g.g.g.g.j.j.h.h.h.g.g.h.j.R.S.r.G ",
"; v T.U.h.g.j.h.g.g.g.h.h.h.h.h.h.h.h.h.h.h.h.j.j.j.j.j.j.j.j.j.i.i.h.h.j.j.j.g.h.h.h.h.h.h.h.h.h.h.h.j.h.h.h.h.h.h.j.j.R.V.W.= ",
"X.P.Y.Z.h.h.j.h.h.h.h.h.j.j.j.j.j.h.h.j.j.j.j.j.j.j.j.j.j.j.j.j.h.h.j.j.j.j.h.h.h.h.h.h.j.j.j.j.j.h.h.j.j.j.j.h.h.j.j.j.Z.`. +.+",
"!.y.Y.Z.j.j.j.j.j.j.j.j.j.j.j.j.j.j.j.j.j.j.j.j.j.j.j.j.j.j.j.j.j.j.j.j.j.j.j.j.j.j.j.j.j.j.j.j.j.j.j.j.j.j.j.j.j.j.j.j.Z.++@+.+",
"% #+$+%+E.E.E.E.i.i.E.i.i.h.h.j.E.E.E.i.i.i.i.i.i.E.E.E.E.E.&+E.*+=+E.E.E.E.E.E.i.i.E.i.i.h.h.j.E.E.E.i.i.i.i.i.i.E.E.E.%+-+;+>+",
"% ,+'+)+i.i.i.i.i.i.i.i.i.i.h.j.E.E.i.i.i.i.i.i.i.i.i.i.i.i.!+~+{+]+E.i.i.i.i.i.i.i.i.i.i.i.h.j.E.E.i.i.i.i.i.i.i.i.i.i.)+M.^+/+",
"5 (+Y _+i.i.i.i.i.i.i.i.g.h.h.j.E.i.i.i.i.g.g.g.g.g.g.g.:+<+i.[+}+|+i.i.i.i.i.i.i.i.i.i.g.h.h.j.E.i.i.i.i.g.g.g.g.g.g.g._+1+2+3+",
"4+5+6+_.i.i.i.i.i.i.g.g.h.j.j.j.E.i.i.i.g.g.g.g.g.g.g.g.7+8+9+0+a+b+<.g.i.i.i.i.i.i.g.g.h.j.j.j.E.i.i.i.g.g.g.g.g.g.g.g._.c+d+e+",
"4+5+f+(.g.g.g.g.g.g.g.g.h.h.j.j.E.i.i.i.g.g.g.g.g.g.g.g.g.g+h+i+j+k+l+S m+g.g.g.g.g.g.g.h.h.j.j.E.i.i.i.g.g.g.g.h.g.g.g._.K n+e+",
"4+o+6+[.g.g.g.g.g.g.g.g.g.h.j.j.E.i.i.i.g.g.g.g.h.h.g.[.p+q+r+s+t+u+v+w+x+y+z+g.g.g.g.g.g.h.j.j.E.i.i.i.g.g.g.g.g.i.g.g._.R n+A+",
"B+C+Z [.g.g.g.g.g.h.g.g.g.h.h.j.i.i.i.g.g.g.g.h.g.g.i.D+E+F+G+H+I+J+K+L+/.M+N+g.g.g.g.g.g.h.h.j.i.i.i.g.g.g.g.g.g.g.g.g._.R b ; ",
". O+c+P+g.g.g.g.g.g.i.g.g.g.h.j.i.i.g.g.g.g.g.h.g.g.i.g.(.Q+R+S+T+U+V+W+X+Y+Z+g.g.g.g.g.g.g.h.j.i.i.g.g.g.g.g.g.g.g.g.g._.R `+; ",
";  @L :.g.g.g.g.g.g.g.g.g.g.h.j.i.i.g.g.g.g.g.g.i.i.g.g..@+@@@#@$@%@&@*@=@n.g.h.g.g.g.g.g.g.h.j.i.i.g.g.g.g.g.g.g.g.g.g.P+-@`+; ",
"z.c M <.g.g.g.g.g.g.g.g.g.h.j.j.E.i.i.g.g.g.g.g.g.g.g.g.;@>@,@'@$@'@)@!@~@{@h.h.g.g.g.g.g.h.j.j.E.i.i.g.g.g.g.g.g.g.g.g._.R ]@; ",
"< >.P <.g.g.g.g.g.g.g.g.g.h.j.j.E.i.i.g.g.g.g.g.g.g.g.^@/@(@_@:@<@[@}@|@1@g.g.g.g.g.g.g.g.h.j.j.E.i.i.g.g.g.g.g.g.g.g.g._.K 2@e+",
"& 3@8.<.g.g.g.g.g.g.g.h.h.h.j.j.E.i.i.g.g.g.g.g.g.g.g.g.4@5@6@7@8@9@0@1@g.g.g.g.g.g.g.h.h.h.j.j.E.i.i.g.g.g.g.g.g.g.g.g.[.U r @ ",
"& d N <.h.h.g.g.g.g.h.j.j.h.j.j.i.i.g.g.g.g.g.g.g.g.h.a@b@c@d@e@f@g@h@g.h.j.j.j.g.g.h.j.j.h.j.j.i.i.g.g.g.g.g.g.g.g.j.h.i@j@k@. ",
"t >.l@p.h.h.h.h.h.h.j.j.j.j.j.j.i.i.h.h.h.g.g.g.g.h.j.m@n@o@p@q@r@s@t@h.j.j.h.h.h.h.j.j.j.j.j.j.i.i.h.h.h.g.g.g.j.j.h.u@v@w@x@y@",
"= ++z@Z.j.j.j.h.h.j.j.j.j.j.j.j.h.h.j.j.h.h.h.h.h.h.j.h.A@B@C@D@E@F@G@j.j.h.h.h.h.j.j.j.j.j.j.j.h.h.j.j.h.h.h.j.j.h.h.N.a@K.G.!.",
".+@+H@Z.j.j.j.j.j.j.j.j.j.j.j.j.j.j.j.j.j.j.j.j.j.j.j.j.I@J@K@L@M@N@O@j.j.j.j.j.j.j.j.j.j.j.j.j.j.j.j.j.j.j.j.j.j.j.j.R.P@Q@R@!.",
"z S@T@U@E.E.E.E.E.h.h.g.E.E.E.E.i.i.E.i.i.h.h.j.E.E.E.i.V@W@X@Y@Z@`@ #E.E.E.E.E.E.E.E.E.E.E.E.E.i.i.E.i.i.h.h.j.E.E.E..#+#@###6 ",
"' $#%#_+i.i.i.E.h.g.g.g.i.i.i.i.i.i.i.i.i.i.h.j.E.E.i.i.i.f+&#*#=#-#i.i.i.i.i.E.E.E.E.i.i.i.i.i.i.i.i.i.i.i.h.j.E.E.i..#;#f ] 5 ",
">#n+R _.i.i.i.i.h.g.g.i.i.i.i.i.i.i.i.i.g.h.h.j.E.i.i.i.i.,#'#)#!#~#g.g.i.i.i.i.i.i.i.i.i.i.i.i.i.i.i.i.g.h.h.j.E.i.i..#;#=.% 4+",
"; b R _.g.g.g.h.g.g.g.g.i.i.i.i.i.i.g.g.h.j.j.j.E.i.i.i.g.g.{#]#^#<.g.g.g.g.g.g.g.g.g.g.i.i.i.i.i.i.g.g.h.j.j.j.E.i.i./#O (#A 4+",
"; `+R _.g.g.g.h.g.g.g.i.g.g.g.g.g.g.g.g.h.h.j.j.E.i.i.i.g.g._#:#<#<.g.g.g.h.h.h.g.g.g.g.g.g.g.g.g.g.h.h.h.h.j.j.E.i.i..#[#}#~.4+",
"; `+-@P+g.g.g.g.g.i.i.g.g.g.g.g.g.g.g.g.g.h.j.j.E.i.i.i.g.g.|#1#2#<.g.g.h.g.g.g.g.g.g.g.g.g.g.g.g.h.h.g.g.h.j.j.E.i.i.n.3#4#5#6#",
"; `+7#U.g.g.g.g.g.g.g.g.g.g.g.g.g.g.g.g.g.h.h.j.i.i.i.g.g.g.8#9#0#<.g.g.h.g.g.g.i.g.g.g.g.g.g.g.h.h.g.g.g.h.h.j.i.i.i.a#b#%.c#B+",
";  .R _.i.g.g.g.g.g.g.g.g.g.g.g.g.g.g.g.g.g.h.j.i.i.g.g.g.h.d#e#f#<.g.g.g.i.i.i.i.g.g.g.g.g.g.h.h.g.g.g.g.g.h.j.i.i.g.I.b#%._ B+",
"@ ..K _.i.g.g.g.g.g.g.g.g.g.g.g.g.g.g.g.g.g.h.j.i.i.g.g.g.g#h#i#j#k#g.g.g.g.g.g.g.g.g.g.g.g.g.h.g.g.g.g.g.g.h.j.i.i.g.o.3#l#m#6#",
"6#n#V o#g.g.g.g.g.g.g.g.g.g.g.g.g.g.g.g.g.h.j.j.E.i.i.g.g.p#q#r#s#t#g.g.g.g.g.g.g.g.g.g.g.g.g.h.g.g.g.g.g.h.j.j.E.i.i.o.6.u#2 v#",
"w#x#f+(.g.g.g.g.g.g.g.g.g.g.g.g.g.g.g.g.g.h.j.j.E.i.i.g.g.y#z#A#B#C#g.g.g.g.g.g.g.g.g.g.g.g.g.h.g.g.g.g.g.h.j.j.E.i.i.<.D#*.& E#",
"s.e+c F#<.f.g.g.g.g.j.j.j.g.g.g.g.g.g.h.h.h.j.j.E.i.i.g.g.g.G#H#I#j.j.g.g.g.g.g.g.g.j.j.j.g.h.h.i.g.g.h.h.h.j.j.E.i.i.o.J#K#. L#",
"M#6#^ (#-@N#O#f.j.h.h.h.h.h.g.g.g.g.h.j.j.h.j.j.i.i.g.g.g.g.g.j.h.h.h.g.g.g.g.g.g.j.h.h.h.h.g.g.i.i.i.j.j.h.j.j.i.i.f.1@P#o+Q#R#",
"M#S#5#T#++U#l@V#Z.N.h.h.h.h.h.h.j.j.j.j.j.j.j.j.i.i.h.h.h.g.j.j.h.h.h.h.h.h.h.h.j.h.h.h.h.h.h.h.h.h.i.j.j.j.j.j.i.n.W#X# .% E#R#",
"Y#G @+F.Z#`# $F..$O.U.+$j.j.j.h.h.j.j.j.j.j.j.j.h.h.j.j.h.h.j.h.h.h.h.h.j.j.j.j.j.h.h.j.j.j.j.h.h.j.j.j.j.j.j.j.@$O.#$@+$$%$.+Y#",
"&$- *$=$%$%$Z#`# $F.H@a@Z.+$j.j.j.j.j.j.j.j.j.j.j.j.j.j.j.j.j.j.j.j.j.j.j.j.j.j.j.j.j.j.j.j.j.j.j.j.j.j.j.R.Z.-$;$>$@+%$,$G - &$",
"L#'$a )$!$~$~$Z#{$S@]$^$t./$e..#m.k.k.k.E.E.E.E.E.E.E.E.E.E.E.E.i.i.E.i.i.h.h.j.E.E.E.i.i.i.i.i.m.~+($_$:$S.L x.<$[$}$|$1$2$3$4$",
"L#5$6$7$8$9$~$%$0$a$b$2+h c$d$e$f$g$h$e.)+.#n.~+~+i$i$m.m.m.m.m.m.m.m.l.i.i.h.j.E.E.i.i.m.n.)+e.j$k$l$V w@m$d  @n$a$0$8$7$! 5$L#",
"o$p$q$r$O+~$~$%$0$9$9$9$k n+K#;.u#s$t$u$t.v$w$x$4.g$j$3.3.3.3.3.3.3.y$h$B.z$A$|.B$C$D$4.w$M K P#E$}#d F$ .G$G$H$9$9$9$l I$q$J$o$",
"s.K$3 o+T#%$%$%$0$9$9$9$a L$H$G$2@n+]@F$M$e N$O$P$Q$U#g##.#.#.#.#.#.R$S$C.T$U$U$V$W$X$Y$e Z$`$`+d+G$H$H$~$a a a 9$a a r  %) Q#s.",
")..%+%@%T#~$%$%$0$9$9$9$a a a a a ~$~$~$H$G$G$d+#%n+b $#b b b b b b b `+ .$%`#`#S@%%&%b$G$H$H$L$L$a a a ~$a a 9$a a a r o++%*%).",
").L#=%5+r ~$%$%$0$9$9$9$a a a ~$~$a a a ~$a a ~$L$L$L$9$L$L$~$~$L$L$L$L$L$~$%$%$0$9$9$9$a a a a a a a a a a 9$a a a a r 5+. L#).",
"R#L#. 5+-%~$~$%$9$9$9$a a a ~$~$a a a a 9$a a ~$a 9$9$9$a a ~$a 9$a a a a ~$~$%$9$9$9$a a a a ~$a a a a a a a a a a a s ;%L.s.>%",
"o$,%. 5+9 a ~$%$9$9$a a a a ~$a a a a 9$9$a a a a a a a a ~$a a 9$a a a a a ~$%$9$9$a a a a a a 9$a a a a a a a a a ~$'%5#6#)%>%",
"w#!%. ! 9 a ~$%$9$9$a a a a a ~$~$a 9$9$a a a a a a a a a a a 9$9$a a a a a ~$%$9$9$a a a ~$~$a a a a a a a a a a L$~$~%{%4+.%>%",
"]%]%@ x#9 ~$%$%$0$9$9$a a a a a a 9$9$a a a a a a a a a a a a a a a a a a ~$%$%$0$9$9$a ~$a a 9$a a a L$L$L$L$L$L$L$L$d.^%+ M#.+",
"/%Q#3$5+9 ~$%$%$0$9$9$a a a a a a a a a a a a a a a a a a a a a a a a a a ~$%$%$0$9$9$a ~$a a 9$L$L$L$L$L$L$L$L$L$L$L$(%~.v#o$o$",
"_%:%< x@T#~$%$%$0$9$9$a a a a a ~$a a a a a a a %$%$a a a a a a a a a ~$~$~$%$%$0$9$9$a a 9$9$a a %$%$L$L$L$L$L$a a L$k@5#<%[%4$",
":%6#;%t Z#}%%$%$!$|%L$L$L$L$1%T#T#r r r r r r 2%s s s -%T#T#r O+O+L$~$%$%$~$%$%$9$9$L$L$L$L$L$L$L$~$~$L$L$L$L$L$L$Z##$r x@y.Q#3%",
"= } a.W.4%@+Z#%$d p 5%>$>$,$6%7%P.8%8%P.P.9%'.4%0%a%0%4%r.x@P.7%$$>$2%%$%$%$%$%$!$!$~$b%T#r r 2%s s s s s T#s 2%2%T##% .>$c%d%= ",
"G ).y.e%W.f%Z#t g%7%y.9%'.G.h%i%`#`#`#`#y@G t ,$j%j%,$= G s.R@@+@+G.'.,$c%Z#Z#Z#b%b%2%,$k%7%9%r.r.r.x@x@y.y.y.y.y.K.l%m%'.n%!.= ",
"!.b.G G.'.L.L.R@s.G G G = n%).b.o%o%o%o%o%| !.!.- - - !.!.p%p%p%).).= y@q%6%,$,$,$a.y.'.*%L.r%s.G G G G s%s%t%t%t%y@F t%).| - - "};
