/* XPM */
static char * V2_3_xpm[] = {
"64 64 628 2",
"  	c #051128",
". 	c #040D21",
"+ 	c #040E21",
"@ 	c #040E22",
"# 	c #06122B",
"$ 	c #06122C",
"% 	c #06132C",
"& 	c #06122A",
"* 	c #051129",
"= 	c #01040B",
"- 	c #010205",
"; 	c #050F24",
"> 	c #051126",
", 	c #061228",
"' 	c #06142C",
") 	c #07162F",
"! 	c #081833",
"~ 	c #091934",
"{ 	c #091A36",
"] 	c #0A1A36",
"^ 	c #091935",
"/ 	c #0A1B3A",
"( 	c #091836",
"_ 	c #081733",
": 	c #081632",
"< 	c #061229",
"[ 	c #051228",
"} 	c #02060F",
"| 	c #010207",
"1 	c #071530",
"2 	c #07152F",
"3 	c #051026",
"4 	c #051025",
"5 	c #040F23",
"6 	c #040F24",
"7 	c #051024",
"8 	c #06132A",
"9 	c #0C1E3E",
"0 	c #0B1B3A",
"a 	c #0D1F41",
"b 	c #0F2144",
"c 	c #102449",
"d 	c #11264C",
"e 	c #12274E",
"f 	c #18325F",
"g 	c #17315E",
"h 	c #162F5A",
"i 	c #152D56",
"j 	c #132A52",
"k 	c #12294F",
"l 	c #11274D",
"m 	c #11274C",
"n 	c #11274B",
"o 	c #11264A",
"p 	c #11264B",
"q 	c #10264A",
"r 	c #0D1E3F",
"s 	c #051122",
"t 	c #020815",
"u 	c #142B56",
"v 	c #0F2345",
"w 	c #0E2142",
"x 	c #0D2040",
"y 	c #0C1E3D",
"z 	c #07142D",
"A 	c #07132C",
"B 	c #06132B",
"C 	c #091A35",
"D 	c #0A1A37",
"E 	c #081832",
"F 	c #01050F",
"G 	c #01040C",
"H 	c #06132D",
"I 	c #162D59",
"J 	c #183261",
"K 	c #1A3465",
"L 	c #1B3668",
"M 	c #1C376B",
"N 	c #1C386C",
"O 	c #1D396D",
"P 	c #1C386B",
"Q 	c #1B3669",
"R 	c #1A3566",
"S 	c #193364",
"T 	c #193363",
"U 	c #193262",
"V 	c #204076",
"W 	c #1F3F75",
"X 	c #1F3F74",
"Y 	c #1F3E74",
"Z 	c #193261",
"` 	c #0C1F39",
" .	c #061326",
"..	c #061225",
"+.	c #244687",
"@.	c #1D3B6F",
"#.	c #1C3A6C",
"$.	c #1B3869",
"%.	c #152B55",
"&.	c #142A53",
"*.	c #132851",
"=.	c #12274F",
"-.	c #17315D",
";.	c #12264D",
">.	c #11254B",
",.	c #061427",
"'.	c #020611",
").	c #010309",
"!.	c #010206",
"~.	c #07142E",
"{.	c #0D2041",
"].	c #1B3768",
"^.	c #234681",
"/.	c #203E76",
"(.	c #213F79",
"_.	c #21407A",
":.	c #22417B",
"<.	c #22417C",
"[.	c #214079",
"}.	c #122947",
"|.	c #0A1930",
"1.	c #3059A9",
"2.	c #284D8D",
"3.	c #274C8B",
"4.	c #264B89",
"5.	c #1E3B72",
"6.	c #1E3A70",
"7.	c #1D396E",
"8.	c #1D386C",
"9.	c #0D213C",
"0.	c #091A31",
"a.	c #020713",
"b.	c #010308",
"c.	c #07142F",
"d.	c #102549",
"e.	c #284E8F",
"f.	c #23437E",
"g.	c #23437F",
"h.	c #132B4B",
"i.	c #2B5397",
"j.	c #0B1B33",
"k.	c #335FB2",
"l.	c #2B5396",
"m.	c #2B5296",
"n.	c #2A5295",
"o.	c #22427D",
"p.	c #122A49",
"q.	c #0F2440",
"r.	c #040D1D",
"s.	c #01040D",
"t.	c #21427A",
"u.	c #112745",
"v.	c #0B1D34",
"w.	c #213F78",
"x.	c #0B1D36",
"y.	c #020712",
"z.	c #051127",
"A.	c #1C3769",
"B.	c #203F77",
"C.	c #0B1D35",
"D.	c #22447D",
"E.	c #335FB3",
"F.	c #051022",
"G.	c #020610",
"H.	c #22437C",
"I.	c #23427E",
"J.	c #102744",
"K.	c #050F20",
"L.	c #02050F",
"M.	c #21427B",
"N.	c #132A4A",
"O.	c #102643",
"P.	c #040E1E",
"Q.	c #0F2446",
"R.	c #0B1A32",
"S.	c #0F2541",
"T.	c #0D203A",
"U.	c #122948",
"V.	c #08162B",
"W.	c #040C1B",
"X.	c #01050D",
"Y.	c #071326",
"Z.	c #0A1A31",
"`.	c #331E32",
" +	c #0D1A32",
".+	c #291F39",
"++	c #081529",
"@+	c #040C1A",
"#+	c #01030A",
"$+	c #96332A",
"%+	c #290A1C",
"&+	c #9F292B",
"*+	c #0B1B32",
"=+	c #071529",
"-+	c #030B19",
";+	c #122852",
">+	c #264A8E",
",+	c #315CAD",
"'+	c #365FB3",
")+	c #6363AB",
"!+	c #325DB0",
"~+	c #5D294C",
"{+	c #9B2525",
"]+	c #325DAF",
"^+	c #284D93",
"/+	c #193466",
"(+	c #0A1938",
"_+	c #122751",
":+	c #264A8D",
"<+	c #295092",
"[+	c #315395",
"}+	c #714B68",
"|+	c #244783",
"1+	c #BD302A",
"2+	c #DD4517",
"3+	c #3F396E",
"4+	c #142B53",
"5+	c #091937",
"6+	c #0D2141",
"7+	c #295091",
"8+	c #765375",
"9+	c #3B5496",
"0+	c #791D1B",
"a+	c #F16212",
"b+	c #F37616",
"c+	c #9A2E17",
"d+	c #4E0E19",
"e+	c #C46540",
"f+	c #BE5C69",
"g+	c #214279",
"h+	c #132B53",
"i+	c #07142C",
"j+	c #030A1C",
"k+	c #091834",
"l+	c #18315F",
"m+	c #453961",
"n+	c #28427C",
"o+	c #372A53",
"p+	c #8D2A16",
"q+	c #FD820C",
"r+	c #FFB441",
"s+	c #F97C0D",
"t+	c #851C21",
"u+	c #1F2951",
"v+	c #445795",
"w+	c #1A3466",
"x+	c #0E2143",
"y+	c #040E23",
"z+	c #17305D",
"A+	c #132954",
"B+	c #BA341D",
"C+	c #F27108",
"D+	c #FFC9AB",
"E+	c #FFDA7F",
"F+	c #FD8505",
"G+	c #DA3C27",
"H+	c #0E2146",
"I+	c #B7675F",
"J+	c #8E456C",
"K+	c #0E2144",
"L+	c #0A1936",
"M+	c #452D57",
"N+	c #CF3B29",
"O+	c #F2851E",
"P+	c #FFD04D",
"Q+	c #FEF4DF",
"R+	c #FEF9EE",
"S+	c #FFC94F",
"T+	c #E45920",
"U+	c #0F2248",
"V+	c #26294F",
"W+	c #A75327",
"X+	c #45477C",
"Y+	c #040E24",
"Z+	c #030B1E",
"`+	c #0B1C3B",
" @	c #2B5295",
".@	c #8F2123",
"+@	c #EE5512",
"@@	c #FFBA25",
"#@	c #FEF3DD",
"$@	c #FEF9ED",
"%@	c #FEFAEF",
"&@	c #FFD055",
"*@	c #FDBE32",
"=@	c #9F2830",
"-@	c #203E77",
";@	c #0D1F40",
">@	c #21407B",
",@	c #8E1F23",
"'@	c #F47A18",
")@	c #FFDC8B",
"!@	c #FEF6E4",
"~@	c #FFBE22",
"{@	c #C93824",
"]@	c #40315E",
"^@	c #0F2245",
"/@	c #0F2246",
"(@	c #23427D",
"_@	c #911F22",
":@	c #FB8006",
"<@	c #FED6BC",
"[@	c #FEF6E6",
"}@	c #FFD77A",
"|@	c #FE9E1A",
"1@	c #E5461C",
"2@	c #5C1623",
"3@	c #1B3567",
"4@	c #681D14",
"5@	c #DA4223",
"6@	c #FC7A00",
"7@	c #FFC085",
"8@	c #FEEECD",
"9@	c #FDB691",
"0@	c #EF5200",
"a@	c #C73825",
"b@	c #3A0B1C",
"c@	c #0F2145",
"d@	c #1E366A",
"e@	c #4F0F1A",
"f@	c #E4431E",
"g@	c #FFB14C",
"h@	c #FEF4E1",
"i@	c #FFDBA0",
"j@	c #FD8507",
"k@	c #110C25",
"l@	c #0E2043",
"m@	c #11264D",
"n@	c #2D3A6F",
"o@	c #C73C15",
"p@	c #FCA942",
"q@	c #FCD273",
"r@	c #F67B01",
"s@	c #CC4726",
"t@	c #60171C",
"u@	c #09172D",
"v@	c #8E755F",
"w@	c #B1AF92",
"x@	c #AFB19E",
"y@	c #B0B19E",
"z@	c #AEAB8D",
"A@	c #ACA072",
"B@	c #574A5E",
"C@	c #18305E",
"D@	c #0C1C3C",
"E@	c #0E233E",
"F@	c #0A1328",
"G@	c #524553",
"H@	c #A0826F",
"I@	c #E7DDAC",
"J@	c #C2A78D",
"K@	c #D1B98A",
"L@	c #685E5D",
"M@	c #332735",
"N@	c #132B4A",
"O@	c #112744",
"P@	c #0A1C34",
"Q@	c #040E1D",
"R@	c #01050E",
"S@	c #0E223E",
"T@	c #1E061D",
"U@	c #27001C",
"V@	c #90352A",
"W@	c #581629",
"X@	c #852F2B",
"Y@	c #260119",
"Z@	c #30081F",
"`@	c #071428",
" #	c #9B3E27",
".#	c #D78B34",
"+#	c #994B2A",
"@#	c #BA702C",
"##	c #73322F",
"$#	c #2F081F",
"%#	c #08172C",
"&#	c #050E1F",
"*#	c #02050E",
"=#	c #183263",
"-#	c #284C92",
";#	c #315BAD",
">#	c #274987",
",#	c #451129",
"'#	c #5A2922",
")#	c #D29C50",
"!#	c #A96C27",
"~#	c #4F162D",
"{#	c #28498E",
"]#	c #2A5194",
"^#	c #183361",
"/#	c #0A1B38",
"(#	c #132B52",
"_#	c #214179",
":#	c #AFA179",
"<#	c #534345",
"[#	c #7E6051",
"}#	c #191E3E",
"|#	c #244782",
"1#	c #050E24",
"2#	c #1A2C59",
"3#	c #7F685F",
"4#	c #BE8E6C",
"5#	c #494054",
"6#	c #1C2348",
"7#	c #2F061D",
"8#	c #53142C",
"9#	c #280218",
"0#	c #2A5193",
"a#	c #132850",
"b#	c #81581F",
"c#	c #AC5D2F",
"d#	c #571924",
"e#	c #1E3A6F",
"f#	c #132951",
"g#	c #76421D",
"h#	c #B6582B",
"i#	c #0E0017",
"j#	c #1E3B71",
"k#	c #142A54",
"l#	c #081630",
"m#	c #030B1D",
"n#	c #0D213B",
"o#	c #684427",
"p#	c #88462C",
"q#	c #450F24",
"r#	c #22427E",
"s#	c #1F3C72",
"t#	c #081732",
"u#	c #2F0014",
"v#	c #B1512A",
"w#	c #29001B",
"x#	c #162E5A",
"y#	c #D3D7CF",
"z#	c #E3C393",
"A#	c #484059",
"B#	c #1D264C",
"C#	c #142B55",
"D#	c #081631",
"E#	c #0D1F3F",
"F#	c #294F91",
"G#	c #18254D",
"H#	c #79685B",
"I#	c #AD8467",
"J#	c #815E54",
"K#	c #181632",
"L#	c #142952",
"M#	c #030A1B",
"N#	c #020513",
"O#	c #091833",
"P#	c #160E2A",
"Q#	c #531A2E",
"R#	c #150720",
"S#	c #223F79",
"T#	c #1D3A6F",
"U#	c #020717",
"V#	c #1D396C",
"W#	c #22407A",
"X#	c #1C3568",
"Y#	c #0D182F",
"Z#	c #1D386D",
"`#	c #102348",
" $	c #01040F",
".$	c #01030C",
"+$	c #203D75",
"@$	c #22427C",
"#$	c #203F78",
"$$	c #17305E",
"%$	c #020818",
"&$	c #01030B",
"*$	c #030A1D",
"=$	c #051123",
"-$	c #0A1C33",
";$	c #09182E",
">$	c #112846",
",$	c #0D1F39",
"'$	c #000104",
")$	c #030917",
"!$	c #030A18",
"~$	c #040C1C",
"{$	c #071429",
"]$	c #122949",
"^$	c #061224",
"/$	c #040F20",
"($	c #030916",
"_$	c #000102",
":$	c #02050D",
"<$	c #030814",
"[$	c #09182F",
"}$	c #08152A",
"|$	c #051021",
"1$	c #020814",
"2$	c #030C1E",
"3$	c #102448",
"4$	c #12284E",
"5$	c #051224",
"6$	c #17305F",
"7$	c #1C386E",
"8$	c #1C396A",
"9$	c #254987",
"0$	c #325EB1",
"a$	c #315CAF",
"b$	c #305BAB",
"c$	c #2F58A6",
"d$	c #1D3A71",
"e$	c #183162",
"f$	c #172F5F",
"g$	c #162F5D",
"h$	c #142A55",
"i$	c #0C1E40",
"j$	c #050F25",
"k$	c #020614",
"l$	c #030B1C",
"m$	c #081934",
"n$	c #0F2346",
"o$	c #11284D",
"p$	c #12284F",
"q$	c #162F5E",
"r$	c #172F5E",
"s$	c #122950",
"t$	c #1A3767",
"u$	c #1F3E73",
"v$	c #23457F",
"w$	c #254986",
"x$	c #264B8A",
"y$	c #274D8D",
"z$	c #335EB2",
"A$	c #274C8A",
"B$	c #254985",
"C$	c #22447E",
"D$	c #09192F",
"E$	c #173060",
"F$	c #01040E",
"G$	c #030919",
"H$	c #081731",
"I$	c #0F2244",
"J$	c #152C56",
"K$	c #162E5B",
"L$	c #183160",
"M$	c #234680",
"N$	c #254885",
"O$	c #254A87",
"P$	c #274D8C",
"Q$	c #112847",
"R$	c #122847",
"S$	c #305AAA",
"T$	c #284E8E",
"U$	c #274C8C",
"V$	c #152C58",
"W$	c #0F2347",
"X$	c #0E2042",
"Y$	c #0E2041",
"Z$	c #0F2344",
"`$	c #030A1A",
" %	c #020817",
".%	c #0E1F41",
"+%	c #10244A",
"@%	c #132952",
"#%	c #142B54",
"$%	c #091B31",
"%%	c #0A1B32",
"&%	c #172E5B",
"*%	c #172F5C",
"=%	c #061123",
"-%	c #061124",
";%	c #234483",
">%	c #1C396B",
",%	c #1A3666",
"'%	c #193462",
")%	c #11254A",
"!%	c #102347",
"~%	c #0E2243",
"{%	c #010510",
"]%	c #050F23",
"^%	c #0A1935",
"/%	c #061325",
"(%	c #061426",
"_%	c #132A51",
":%	c #132A50",
"<%	c #020510",
"[%	c #040D22",
"}%	c #0C1E3F",
"|%	c #030C1B",
"1%	c #010209",
"2%	c #010410",
"3%	c #0C1D3E",
"4%	c #020511",
"5%	c #020512",
"6%	c #0C1D3D",
"7%	c #08152F",
"8%	c #020716",
"9%	c #0A1C39",
"0%	c #030817",
"a%	c #0C1D3C",
"b%	c #030819",
"c%	c #03091A",
"d%	c #030C1F",
"e%	c #020613",
"f%	c #061324",
"g%	c #11284E",
"h%	c #030816",
"i%	c #030815",
"j%	c #030818",
"k%	c #040D1C",
"l%	c #051121",
"m%	c #020714",
"n%	c #040F1F",
"o%	c #0A1A38",
"p%	c #020612",
"q%	c #030D1C",
"r%	c #030D1B",
"s%	c #051223",
"t%	c #020915",
"u%	c #01050C",
"v%	c #030B1A",
"w%	c #030A19",
"x%	c #041020",
"y%	c #030C1A",
"z%	c #030B18",
"A%	c #020813",
"B%	c #051020",
"C%	c #051124",
"D%	c #020916",
"E%	c #01040A",
"F%	c #010208",
"G%	c #010307",
"H%	c #020711",
"I%	c #02040E",
"J%	c #02040C",
"K%	c #02040D",
"      . . . + + @ # # $ % $ # & * * * * * * * * + + * + + = = - * * * + + . . . . * * * * * * * * * * * * * * * . . * . . = = - ",
"* * + @ ; > , ' ) ! ~ { ] ^ ! / ( _ : < < < , [ [ [ [ , < < } | 1 2 3 4 4 ; 5 5 5 5 5 5 5 5 5 # # # % 5 5 6 5 5 5 5 5 5 @ + = - ",
"* 7 8 ~ 9 0 a b c d e e f g h i j k l l m m n o p q n p r s s t u v w x y 2 z A B B B % { C ^ ^ ^ ^ C { ] D ] { ^ ~ ~ E 3 F G - ",
"H ~ q f I J K L M N O O O O P Q R S T U V W W X Y X Z U `  .....+.@.#.$.%.&.*.=.e e e e =.e e e e e e =.f f f f -.-.;.>.,.'.).!.",
"~.{.].^./.(._.:.<.<.<.<.<.<.<.:._.[.[.[._.[.[.[.(.[.[.[.}.}.|.|.1.2.3.4.5.6.7.O O O O O O O O O O O O O O O 7.O O 8.N N 9.0.a.b.",
"c.d.X e.f.g.g.g.h.g.g.g.g.g.g.g.g.i.i.i.g.g.g.g.g.g.g.g.g.h.j.j.k.l.m.n.o.o.<.<.p.p.p.<.<.<.<.<.<.<.p.p.p.<.<.<.<.<.<.<._.q.r.s.",
"3 d.t.<.g.g.g.g.g.i.g.g.g.g.g.g.i.g.g.g.h.g.g.g.g.g.g.g.g.h.h.j.i.i.i.g.g.g.g.h.g.g.g.h.h.g.g.g.g.g.h.g.g.g.g.g.g.g.g.g.f.u.v.'.",
"3 p L <.g.g.g.g.g.g.g.g.g.g.g.i.g.g.g.g.h.g.g.g.g.g.g.g.g.g.h.j.i.i.g.g.g.g.g.h.g.g.g.g.h.g.g.g.g.g.g.g.g.i.g.g.g.g.g.g.g.w.x.y.",
"z.l A.<.g.g.g.g.g.g.g.g.g.g.g.g.g.g.h.h.h.g.g.g.g.g.g.g.g.g.h.j.i.i.g.g.g.g.g.h.i.i.i.i.g.g.g.g.g.g.i.i.i.i.g.g.g.g.g.g.g.B.C.'.",
"2 l D.<.g.g.g.g.g.g.g.g.g.g.g.g.h.h.g.g.g.g.g.g.g.g.g.g.g.h.j.j.E.i.i.g.g.g.g.g.g.i.i.i.g.g.g.g.g.g.g.g.g.g.g.g.g.g.g.g.f.u.F.G.",
"c.p H.<.g.g.g.g.g.j.j.j.g.g.g.g.g.g.g.g.g.g.g.g.g.g.g.g.g.h.j.j.E.i.i.g.g.g.g.g.g.g.g.g.g.g.g.g.g.g.g.g.g.g.g.g.g.g.g.g.I.J.K.L.",
"~.d.M.<.g.g.g.j.j.h.h.h.g.g.g.g.h.g.g.g.h.g.g.g.g.g.g.h.h.h.j.j.E.i.i.g.g.g.g.g.g.g.h.h.h.g.g.g.g.g.g.g.h.j.h.h.g.g.g.h.N.O.P.s.",
"7 Q.K :.g.g.g.j.h.h.g.g.g.g.g.g.h.g.g.h.h.h.g.j.j.j.h.j.j.h.j.j.i.i.g.g.g.j.j.j.g.h.h.h.h.g.g.g.g.g.g.j.j.h.h.h.g.g.h.j.R.S.r.G ",
"; v T.U.h.g.j.h.g.g.g.h.h.h.h.h.h.h.h.h.h.h.h.j.j.j.j.j.j.j.j.j.i.i.h.h.j.j.j.g.h.h.h.h.h.h.h.h.h.h.h.j.h.h.h.h.h.h.j.j.R.V.W.= ",
"X.P.Y.Z.h.h.j.h.h.h.h.h.j.j.j.j.j.h.h.j.j.j.j.j.j.j.j.j.j.j.`. +.+h.j.j.j.j.h.h.h.h.h.h.j.j.j.j.j.h.h.j.j.j.j.h.h.j.j.j.Z.++@+#+",
"!.y.Y.Z.j.j.j.j.j.j.j.j.j.j.j.j.j.j.j.j.j.j.j.j.j.j.j.j.j.j.$+%+&+*+j.j.j.j.j.j.j.j.j.j.j.j.j.j.j.j.j.j.j.j.j.j.j.j.j.j.Z.=+-+#+",
"% ;+>+,+E.E.E.E.i.i.E.i.i.h.h.j.E.E.E.i.i.i.i.i.i.E.'+)+E.E.!+~+{+]+E.E.E.E.E.E.i.i.E.i.i.h.h.j.E.E.E.i.i.i.i.i.i.E.E.E.,+^+/+(+",
"% _+:+<+i.i.i.i.i.i.i.i.i.i.h.j.E.E.i.i.i.i.i.i.i.i.[+}+i.i.|+1+2+3+E.i.i.i.i.i.i.i.i.i.i.i.h.j.E.E.i.i.i.i.i.i.i.i.i.i.<+M.4+5+",
"5 6+Y 7+i.i.i.i.i.i.i.i.g.h.h.j.E.i.i.i.i.g.g.g.g.g.g.8+9+i.0+a+b+c+d+i.e+f+i.i.i.i.i.i.g.h.h.j.E.i.i.i.i.g.g.g.g.g.g.g.7+g+h+i+",
"j+k+l+_.i.i.i.i.i.i.g.g.h.j.j.j.E.i.i.i.g.g.g.g.g.g.g.m+n+o+p+q+r+s+t+o.u+v+i.i.i.i.g.g.h.j.j.j.E.i.i.i.g.g.g.g.g.g.g.g._.w+x+y+",
"j+k+z+(.g.g.g.g.g.g.g.g.h.h.j.j.E.i.i.i.g.g.g.g.g.g.g.g.A+B+C+D+E+F+G+H+I+J+g.g.g.g.g.g.h.h.j.j.E.i.i.i.g.g.g.g.h.g.g.g._.K K+y+",
"j+L+l+[.g.g.g.g.g.g.g.g.g.h.j.j.E.i.i.i.g.g.g.g.h.h.g.M+N+O+P+Q+R+S+T+U+V+W+X+g.g.g.g.g.g.h.j.j.E.i.i.i.g.g.g.g.g.i.g.g._.R K+Y+",
"Z+`+Z [.g.g.g.g.g.h.g.g.g.h.h.j.i.i.i.g.g.g.g.h.g.g. @.@+@@@#@$@%@&@*@=@-@w.g.g.g.g.g.g.g.h.h.j.i.i.i.g.g.g.g.g.g.g.g.g._.R b ; ",
". ;@w+>@g.g.g.g.g.g.i.g.g.g.h.j.i.i.g.g.g.g.g.h.g.g. @,@'@)@$@$@$@!@~@{@]@i.i.g.g.g.g.g.g.g.h.j.i.i.g.g.g.g.g.g.g.g.g.g._.R ^@; ",
"; /@L :.g.g.g.g.g.g.g.g.g.g.h.j.i.i.g.g.g.g.g.g.i.i.(@_@:@<@[@$@%@}@|@1@2@i.g.h.g.g.g.g.g.g.h.j.i.i.g.g.g.g.g.g.g.g.g.g.>@3@^@; ",
"z.c M <.g.g.g.g.g.g.g.g.g.h.j.j.E.i.i.g.g.g.g.g.g.g.(@4@5@6@7@R+8@9@0@a@b@g.h.h.g.g.g.g.g.h.j.j.E.i.i.g.g.g.g.g.g.g.g.g._.R c@; ",
"< >.P <.g.g.g.g.g.g.g.g.g.h.j.j.E.i.i.g.g.g.g.g.g.g.g.d@e@f@g@h@i@j@G+k@w.g.g.g.g.g.g.g.g.h.j.j.E.i.i.g.g.g.g.g.g.g.g.g._.K l@y+",
"& m@8.<.g.g.g.g.g.g.g.h.h.h.j.j.E.i.i.g.g.g.g.g.g.g.g.g.n@o@p@q@r@s@t@w.g.g.g.g.g.g.g.h.h.h.j.j.E.i.i.g.g.g.g.g.g.g.g.g.[.U r @ ",
"& d N <.h.h.g.g.g.g.h.j.j.h.j.j.i.i.g.g.g.g.g.g.g.g.h.u@v@w@x@y@z@A@B@g.h.j.j.j.g.g.h.j.j.h.j.j.i.i.g.g.g.g.g.g.g.g.j.h.-@C@D@. ",
"t >.E@p.h.h.h.h.h.h.j.j.j.j.j.j.i.i.h.h.h.g.g.g.g.h.j.F@G@H@I@J@K@L@M@h.j.j.h.h.h.h.j.j.j.j.j.j.i.i.h.h.h.g.g.g.j.j.h.N@O@P@Q@R@",
"= =+S@Z.j.j.j.h.h.j.j.j.j.j.j.j.h.h.j.j.h.h.h.h.h.h.j.h.T@U@V@W@X@Y@Z@j.j.h.h.h.h.j.j.j.j.j.j.j.h.h.j.j.h.h.h.j.j.h.h.N.u@K.G.!.",
"#+-+`@Z.j.j.j.j.j.j.j.j.j.j.j.j.j.j.j.j.j.j.j.j.j.j.j.j.%+ #.#+#@###$#j.j.j.j.j.j.j.j.j.j.j.j.j.j.j.j.j.j.j.j.j.j.j.j.R.%#&#*#!.",
"z =#-#;#E.E.E.E.E.h.h.g.E.E.E.E.i.i.E.i.i.h.h.j.E.E.E.i.>#,#'#)#!#~#{#E.E.E.E.E.E.E.E.E.E.E.E.E.i.i.E.i.i.h.h.j.E.E.E.]#|+^#/#6 ",
"' (#_#7+i.i.i.E.h.g.g.g.i.i.i.i.i.i.i.i.i.i.h.j.E.E.i.i.i.z+:#<#[#}#i.i.i.i.i.E.E.E.E.i.i.i.i.i.i.i.i.i.i.i.h.j.E.E.i.]#|#f ] 5 ",
"1#K+R _.i.i.i.i.h.g.g.i.i.i.i.i.i.i.i.i.g.h.h.j.E.i.i.i.i.2#3#4#5#6#g.g.i.i.i.i.i.i.i.i.i.i.i.i.i.i.i.i.g.h.h.j.E.i.i.]#|#=.% j+",
"; b R _.g.g.g.h.g.g.g.g.i.i.i.i.i.i.g.g.h.j.j.j.E.i.i.i.g.g.7#8#9#<.g.g.g.g.g.g.g.g.g.g.i.i.i.i.i.i.g.g.h.j.j.j.E.i.i.0#O a#A j+",
"; ^@R _.g.g.g.h.g.g.g.i.g.g.g.g.g.g.g.g.h.h.j.j.E.i.i.i.g.g.b#c#d#<.g.g.g.h.h.h.g.g.g.g.g.g.g.g.g.g.h.h.h.h.j.j.E.i.i.]#e#f#~.j+",
"; ^@3@>@g.g.g.g.g.i.i.g.g.g.g.g.g.g.g.g.g.h.j.j.E.i.i.i.g.g.g#h#i#<.g.g.h.g.g.g.g.g.g.g.g.g.g.g.g.h.h.g.g.h.j.j.E.i.i.n.j#k#l#m#",
"; ^@n#U.g.g.g.g.g.g.g.g.g.g.g.g.g.g.g.g.g.h.h.j.i.i.i.g.g.g.o#p#q#<.g.g.h.g.g.g.i.g.g.g.g.g.g.g.h.h.g.g.g.h.h.j.i.i.i.r#s#%.t#Z+",
";  .R _.i.g.g.g.g.g.g.g.g.g.g.g.g.g.g.g.g.g.h.j.i.i.g.g.g.h.u#v#w#<.g.g.g.i.i.i.i.g.g.g.g.g.g.h.h.g.g.g.g.g.h.j.i.i.g.I.s#%._ Z+",
"@ ..K _.i.g.g.g.g.g.g.g.g.g.g.g.g.g.g.g.g.g.h.j.i.i.g.g.g.x#y#z#A#B#g.g.g.g.g.g.g.g.g.g.g.g.g.h.g.g.g.g.g.g.h.j.i.i.g.o.j#C#D#m#",
"m#E#V F#g.g.g.g.g.g.g.g.g.g.g.g.g.g.g.g.g.h.j.j.E.i.i.g.g.G#H#I#J#K#g.g.g.g.g.g.g.g.g.g.g.g.g.h.g.g.g.g.g.h.j.j.E.i.i.o.6.L#2 M#",
"N#O#z+(.g.g.g.g.g.g.g.g.g.g.g.g.g.g.g.g.g.h.j.j.E.i.i.g.g.(@P#Q#R#S#g.g.g.g.g.g.g.g.g.g.g.g.g.h.g.g.g.g.g.h.j.j.E.i.i.<.T#*.& U#",
"s.y+c V#<.f.g.g.g.g.j.j.j.g.g.g.g.g.g.h.h.h.j.j.E.i.i.g.g.g.W#X#Y#j.j.g.g.g.g.g.g.g.j.j.j.g.h.h.i.g.g.h.h.h.j.j.E.i.i.o.Z#`#.  $",
".$m#^ a#3@+$@$f.j.h.h.h.h.h.g.g.g.g.h.j.j.h.j.j.i.i.g.g.g.g.g.j.h.h.h.g.g.g.g.g.g.j.h.h.h.h.g.g.i.i.i.j.j.h.j.j.i.i.f.#$$$L+%$&$",
".$*$l#=$=+-$E@;$Z.N.h.h.h.h.h.h.j.j.j.j.j.j.j.j.i.i.h.h.h.g.j.j.h.h.h.h.h.h.h.h.j.h.h.h.h.h.h.h.h.h.i.j.j.j.j.j.i.n.>$,$ .% U#&$",
"'$G -+F.)$!$~$F.{$O.U.*+j.j.j.h.h.j.j.j.j.j.j.j.h.h.j.j.h.h.j.h.h.h.h.h.j.j.j.j.j.h.h.j.j.j.j.h.h.j.j.j.j.j.j.j.]$O.^$-+/$($#+'$",
"_$- :$<$($($)$!$~$F.`@u@Z.*+j.j.j.j.j.j.j.j.j.j.j.j.j.j.j.j.j.j.j.j.j.j.j.j.j.j.j.j.j.j.j.j.j.j.j.j.j.j.j.R.Z.[$}$|$-+($1$G - _$",
" $2$a 3$4$5$5$)$6$=#7$8$t.9$e.]#m.k.k.k.E.E.E.E.E.E.E.E.E.E.E.E.i.i.E.i.i.h.h.j.E.E.E.i.i.i.i.i.m.0$a$b$c$S.L x.d$e$f$g$h$i$j$k$",
" $l$m$n$o$p$5$($q$r$s$h+h t$u$v$w$x$y$e.<+]#n.0$0$z$z$m.m.m.m.m.m.m.m.l.i.i.h.j.E.E.i.i.m.n.<+e.A$B$C$V P@D$d /@E$r$q$o$n$! l$ $",
"F$G$H$I$;@5$5$($q$p$p$p$k K+`#;.L#J$K$L$t.M$N$O$4.x$A$3.3.3.3.3.3.3.P$y$B.Q$R$|.S$T$U$4.N$M K $$V$f#d W$ .X$X$Y$p$p$p$l Z$H$`$F$",
"s. %3 L+=$($($($q$p$p$p$a .%Y$X$l@K+c@W$+%e @%#%$%%%-$x##.#.#.#.#.#.&%*%C.=%-%-%;%>%,%'%e )%!%^@x+X$Y$Y$5$a a a p$a a r ~%) %$s.",
").{%]%^%=$5$($($q$p$p$p$a a a a a 5$5$5$Y$X$X$x+/%K+b (#b b b b b b b ^@ .(%!$!$=#_%:%s$X$Y$Y$.%.%a a a 5$a a p$a a a r L+]%<%).",
"). $[%k+r 5$($($q$p$p$p$a a a 5$5$a a a 5$a a 5$.%.%.%p$.%.%5$5$.%.%.%.%.%5$($($q$p$p$p$a a a a a a a a a a p$a a a a r k+.  $).",
"&$ $. k+}%5$5$($p$p$p$a a a 5$5$a a a a p$a a 5$a p$p$p$a a 5$a p$a a a a 5$5$($p$p$p$a a a a 5$a a a a a a a a a a a s |%L.s.1%",
"F$2%. k+9 a 5$($p$p$a a a a 5$a a a a p$p$a a a a a a a a 5$a a p$a a a a a 5$($p$p$a a a a a a p$a a a a a a a a a 5$3%l#m#4%1%",
"N#5%. ! 9 a 5$($p$p$a a a a a 5$5$a p$p$a a a a a a a a a a a p$p$a a a a a 5$($p$p$a a a 5$5$a a a a a a a a a a .%5$6%7%j+{%1%",
"8%8%@ O#9 5$($($q$p$p$a a a a a a p$p$a a a a a a a a a a a a a a a a a a 5$($($q$p$p$a 5$a a p$a a a .%.%.%.%.%.%.%.%d.9%+ .$#+",
"0%%$j$k+9 5$($($q$p$p$a a a a a a a a a a a a a a a a a a a a a a a a a a 5$($($q$p$p$a 5$a a p$.%.%.%.%.%.%.%.%.%.%.%a%~.M#F$F$",
"b%c%< Q@=$5$($($q$p$p$a a a a a 5$a a a a a a a ($($a a a a a a a a a 5$5$5$($($q$p$p$a a p$p$a a ($($.%.%.%.%.%a a .%D@l#d%e%k$",
"c%m#|%t )$f%($($4$g%.%.%.%.%h%=$=$r r r r r r i%s s s }%=$=$r ;@;@.%5$($($5$($($p$p$.%.%.%.%.%.%.%5$5$.%.%.%.%.%.%)$^$r Q@y.%$j%",
"= } a.W.k%-+)$($d p l%|$|$1$m%n%P.o%o%P.P.p%'.k%q%r%q%k%r.Q@P.n%/$|$i%($($($($($4$4$5$s%=$r r i%s s s s s =$s i%i%=$/% .|$t%u%= ",
"G ).y.v%W.w%)$t x%n%y.p%'.G.y%z%!$!$!$!$R@G t 1$A%A%1$= G s.*#-+-+G.'.1$t%)$)$)$s%s%i%1$B%n%p%r.r.r.Q@Q@y.y.y.y.y.K.C%D%'.E%!.= ",
"!.b.G G.'.L.L.*#s.G G G = E%).b.F%F%F%F%F%| !.!.- - - !.!.G%G%G%).).= R@H%m%1$1$1$a.y.'.<%L.I%s.G G G G J%J%K%K%K%R@F K%).| - - "};
