/* XPM */
static char * V2_4_xpm[] = {
"64 64 621 2",
"  	c #051128",
". 	c #040D21",
"+ 	c #040E21",
"@ 	c #040E22",
"# 	c #06122B",
"$ 	c #06122C",
"% 	c #06132C",
"& 	c #06122A",
"* 	c #051129",
"= 	c #01040B",
"- 	c #010205",
"; 	c #050F24",
"> 	c #051126",
", 	c #061228",
"' 	c #06142C",
") 	c #07162F",
"! 	c #081833",
"~ 	c #091934",
"{ 	c #091A36",
"] 	c #0A1A36",
"^ 	c #091935",
"/ 	c #0A1B3A",
"( 	c #091836",
"_ 	c #081733",
": 	c #081632",
"< 	c #061229",
"[ 	c #051228",
"} 	c #02060F",
"| 	c #010207",
"1 	c #071530",
"2 	c #07152F",
"3 	c #051026",
"4 	c #051025",
"5 	c #040F23",
"6 	c #040F24",
"7 	c #051024",
"8 	c #06132A",
"9 	c #0C1E3E",
"0 	c #0B1B3A",
"a 	c #0D1F41",
"b 	c #0F2144",
"c 	c #102449",
"d 	c #11264C",
"e 	c #12274E",
"f 	c #18325F",
"g 	c #17315E",
"h 	c #162F5A",
"i 	c #152D56",
"j 	c #132A52",
"k 	c #12294F",
"l 	c #11274D",
"m 	c #11274C",
"n 	c #11274B",
"o 	c #11264A",
"p 	c #11264B",
"q 	c #10264A",
"r 	c #0D1E3F",
"s 	c #051122",
"t 	c #020815",
"u 	c #142B56",
"v 	c #0F2345",
"w 	c #0E2142",
"x 	c #0D2040",
"y 	c #0C1E3D",
"z 	c #07142D",
"A 	c #07132C",
"B 	c #06132B",
"C 	c #091A35",
"D 	c #0A1A37",
"E 	c #081832",
"F 	c #01050F",
"G 	c #01040C",
"H 	c #06132D",
"I 	c #162D59",
"J 	c #183261",
"K 	c #1A3465",
"L 	c #1B3668",
"M 	c #1C376B",
"N 	c #1C386C",
"O 	c #1D396D",
"P 	c #1C386B",
"Q 	c #1B3669",
"R 	c #1A3566",
"S 	c #193364",
"T 	c #193363",
"U 	c #193262",
"V 	c #204076",
"W 	c #1F3F75",
"X 	c #1F3F74",
"Y 	c #1F3E74",
"Z 	c #193261",
"` 	c #0C1F39",
" .	c #061326",
"..	c #061225",
"+.	c #244687",
"@.	c #1D3B6F",
"#.	c #1C3A6C",
"$.	c #1B3869",
"%.	c #152B55",
"&.	c #142A53",
"*.	c #132851",
"=.	c #12274F",
"-.	c #17315D",
";.	c #12264D",
">.	c #11254B",
",.	c #061427",
"'.	c #020611",
").	c #010309",
"!.	c #010206",
"~.	c #07142E",
"{.	c #0D2041",
"].	c #1B3768",
"^.	c #234681",
"/.	c #203E76",
"(.	c #213F79",
"_.	c #21407A",
":.	c #22417B",
"<.	c #22417C",
"[.	c #214079",
"}.	c #122947",
"|.	c #0A1930",
"1.	c #3059A9",
"2.	c #284D8D",
"3.	c #274C8B",
"4.	c #264B89",
"5.	c #1E3B72",
"6.	c #1E3A70",
"7.	c #1D396E",
"8.	c #1D386C",
"9.	c #0D213C",
"0.	c #091A31",
"a.	c #020713",
"b.	c #010308",
"c.	c #07142F",
"d.	c #102549",
"e.	c #284E8F",
"f.	c #23437E",
"g.	c #23437F",
"h.	c #132B4B",
"i.	c #2B5397",
"j.	c #0B1B33",
"k.	c #335FB2",
"l.	c #2B5396",
"m.	c #2B5296",
"n.	c #2A5295",
"o.	c #22427D",
"p.	c #122A49",
"q.	c #0F2440",
"r.	c #040D1D",
"s.	c #01040D",
"t.	c #21427A",
"u.	c #112745",
"v.	c #0B1D34",
"w.	c #213F78",
"x.	c #0B1D36",
"y.	c #020712",
"z.	c #051127",
"A.	c #1C3769",
"B.	c #203F77",
"C.	c #0B1D35",
"D.	c #22447D",
"E.	c #335FB3",
"F.	c #051022",
"G.	c #020610",
"H.	c #22437C",
"I.	c #23427E",
"J.	c #102744",
"K.	c #050F20",
"L.	c #02050F",
"M.	c #21427B",
"N.	c #132A4A",
"O.	c #102643",
"P.	c #040E1E",
"Q.	c #0F2446",
"R.	c #0B1A32",
"S.	c #0F2541",
"T.	c #0D203A",
"U.	c #122948",
"V.	c #08162B",
"W.	c #040C1B",
"X.	c #01050D",
"Y.	c #071326",
"Z.	c #0A1A31",
"`.	c #131B33",
" +	c #231D33",
".+	c #081529",
"++	c #040C1A",
"@+	c #01030A",
"#+	c #361B32",
"$+	c #6B2426",
"%+	c #852329",
"&+	c #832E2D",
"*+	c #301E32",
"=+	c #071529",
"-+	c #030B19",
";+	c #122852",
">+	c #264A8E",
",+	c #315CAD",
"'+	c #525DAE",
")+	c #D77A6C",
"!+	c #1C3870",
"~+	c #B72E2A",
"{+	c #395099",
"]+	c #3C5FB2",
"^+	c #4F62AF",
"/+	c #4560B1",
"(+	c #284D93",
"_+	c #193466",
":+	c #0A1938",
"<+	c #122751",
"[+	c #264A8D",
"}+	c #295092",
"|+	c #65528E",
"1+	c #305396",
"2+	c #932323",
"3+	c #5D1726",
"4+	c #C14C46",
"5+	c #D2734D",
"6+	c #142B53",
"7+	c #091937",
"8+	c #0D2141",
"9+	c #295091",
"0+	c #162F5C",
"a+	c #E7471B",
"b+	c #D0382A",
"c+	c #1B386B",
"d+	c #1E3D72",
"e+	c #214279",
"f+	c #132B53",
"g+	c #07142C",
"h+	c #030A1C",
"i+	c #091834",
"j+	c #18315F",
"k+	c #30264C",
"l+	c #DD5426",
"m+	c #EE5A13",
"n+	c #92232A",
"o+	c #223F79",
"p+	c #1A2954",
"q+	c #1A3466",
"r+	c #0E2143",
"s+	c #040E23",
"t+	c #17305D",
"u+	c #A72728",
"v+	c #FA9669",
"w+	c #FE944C",
"x+	c #C53324",
"y+	c #1B0721",
"z+	c #081737",
"A+	c #182146",
"B+	c #0E2144",
"C+	c #0A1936",
"D+	c #4E162A",
"E+	c #E6501E",
"F+	c #FFAB76",
"G+	c #FEF5E6",
"H+	c #FF9600",
"I+	c #ED5C13",
"J+	c #CE352D",
"K+	c #0F2247",
"L+	c #040E24",
"M+	c #030B1E",
"N+	c #0B1C3B",
"O+	c #5D1C26",
"P+	c #F9750B",
"Q+	c #FFD07C",
"R+	c #FEF8E9",
"S+	c #FEF2D8",
"T+	c #FFBE47",
"U+	c #EE5C13",
"V+	c #9F2A30",
"W+	c #203E77",
"X+	c #0D1F40",
"Y+	c #21407B",
"Z+	c #A0687D",
"`+	c #17305F",
" @	c #E0481E",
".@	c #FC7E02",
"+@	c #FFC46D",
"@@	c #FEF6E6",
"#@	c #FEF9EE",
"$@	c #FFDDA2",
"%@	c #F98207",
"&@	c #C83724",
"*@	c #40315E",
"=@	c #0F2245",
"-@	c #0F2246",
";@	c #CF4E46",
">@	c #601B28",
",@	c #E64B1D",
"'@	c #FF9D06",
")@	c #FEF3DB",
"!@	c #FEF9ED",
"~@	c #FEF1D8",
"{@	c #FFA207",
"]@	c #F27116",
"^@	c #5D1623",
"/@	c #1B3567",
"(@	c #1C386D",
"_@	c #AC2D29",
":@	c #F26611",
"<@	c #FFC872",
"[@	c #FEF7E9",
"}@	c #FEEECE",
"|@	c #FFCB3A",
"1@	c #F87F14",
"2@	c #C93822",
"3@	c #473560",
"4@	c #0F2145",
"5@	c #1B366A",
"6@	c #B62F28",
"7@	c #F56C0F",
"8@	c #FF9811",
"9@	c #FFD786",
"0@	c #FFE3B9",
"a@	c #FB7F0A",
"b@	c #EE5D16",
"c@	c #9B2830",
"d@	c #203F78",
"e@	c #0E2043",
"f@	c #11264D",
"g@	c #2B3A6F",
"h@	c #B22E25",
"i@	c #DF5C20",
"j@	c #FCC86B",
"k@	c #EA8053",
"l@	c #C73628",
"m@	c #60171C",
"n@	c #09172D",
"o@	c #8E755F",
"p@	c #B2AF92",
"q@	c #B0B29E",
"r@	c #AFAC8D",
"s@	c #ACA072",
"t@	c #574A5E",
"u@	c #18305E",
"v@	c #0C1C3C",
"w@	c #0E233E",
"x@	c #0A1328",
"y@	c #524553",
"z@	c #A0826F",
"A@	c #E7DDAC",
"B@	c #C2A78D",
"C@	c #D1B98A",
"D@	c #685E5D",
"E@	c #332735",
"F@	c #132B4A",
"G@	c #112744",
"H@	c #0A1C34",
"I@	c #040E1D",
"J@	c #01050E",
"K@	c #0E223E",
"L@	c #1E061D",
"M@	c #27001C",
"N@	c #90352A",
"O@	c #581629",
"P@	c #852F2B",
"Q@	c #260119",
"R@	c #30081F",
"S@	c #071428",
"T@	c #290A1C",
"U@	c #9B3E27",
"V@	c #D78B34",
"W@	c #994B2A",
"X@	c #BA702C",
"Y@	c #73322F",
"Z@	c #2F081F",
"`@	c #08172C",
" #	c #050E1F",
".#	c #02050E",
"+#	c #183263",
"@#	c #284C92",
"##	c #315BAD",
"$#	c #274987",
"%#	c #451129",
"&#	c #5A2922",
"*#	c #D29C50",
"=#	c #A96C27",
"-#	c #4F162D",
";#	c #28498E",
">#	c #2A5194",
",#	c #244783",
"'#	c #183361",
")#	c #0A1B38",
"!#	c #132B52",
"~#	c #214179",
"{#	c #AFA179",
"]#	c #534345",
"^#	c #7E6051",
"/#	c #191E3E",
"(#	c #244782",
"_#	c #050E24",
":#	c #1A2C59",
"<#	c #7F685F",
"[#	c #BE8E6C",
"}#	c #494054",
"|#	c #1C2348",
"1#	c #2F061D",
"2#	c #53142C",
"3#	c #280218",
"4#	c #2A5193",
"5#	c #132850",
"6#	c #81581F",
"7#	c #AC5D2F",
"8#	c #571924",
"9#	c #1E3A6F",
"0#	c #132951",
"a#	c #76421D",
"b#	c #B6582B",
"c#	c #0E0017",
"d#	c #1E3B71",
"e#	c #142A54",
"f#	c #081630",
"g#	c #030B1D",
"h#	c #0D213B",
"i#	c #684427",
"j#	c #88462C",
"k#	c #450F24",
"l#	c #22427E",
"m#	c #1F3C72",
"n#	c #081732",
"o#	c #2F0014",
"p#	c #B1512A",
"q#	c #29001B",
"r#	c #162E5A",
"s#	c #D3D7CF",
"t#	c #E3C393",
"u#	c #484059",
"v#	c #1D264C",
"w#	c #142B55",
"x#	c #081631",
"y#	c #0D1F3F",
"z#	c #294F91",
"A#	c #18254D",
"B#	c #79685B",
"C#	c #AD8467",
"D#	c #815E54",
"E#	c #181632",
"F#	c #142952",
"G#	c #030A1B",
"H#	c #020513",
"I#	c #091833",
"J#	c #23427D",
"K#	c #160E2A",
"L#	c #531A2E",
"M#	c #150720",
"N#	c #1D3A6F",
"O#	c #020717",
"P#	c #1D396C",
"Q#	c #22407A",
"R#	c #1C3568",
"S#	c #0D182F",
"T#	c #1D386D",
"U#	c #102348",
"V#	c #01040F",
"W#	c #01030C",
"X#	c #203D75",
"Y#	c #22427C",
"Z#	c #17305E",
"`#	c #020818",
" $	c #01030B",
".$	c #030A1D",
"+$	c #051123",
"@$	c #0A1C33",
"#$	c #09182E",
"$$	c #112846",
"%$	c #0D1F39",
"&$	c #000104",
"*$	c #030917",
"=$	c #030A18",
"-$	c #040C1C",
";$	c #071429",
">$	c #0B1B32",
",$	c #122949",
"'$	c #061224",
")$	c #040F20",
"!$	c #030916",
"~$	c #000102",
"{$	c #02050D",
"]$	c #030814",
"^$	c #09182F",
"/$	c #08152A",
"($	c #051021",
"_$	c #020814",
":$	c #030C1E",
"<$	c #102448",
"[$	c #12284E",
"}$	c #051224",
"|$	c #1C386E",
"1$	c #1C396A",
"2$	c #254987",
"3$	c #325EB1",
"4$	c #315CAF",
"5$	c #305BAB",
"6$	c #2F58A6",
"7$	c #1D3A71",
"8$	c #183162",
"9$	c #172F5F",
"0$	c #162F5D",
"a$	c #142A55",
"b$	c #0C1E40",
"c$	c #050F25",
"d$	c #020614",
"e$	c #030B1C",
"f$	c #081934",
"g$	c #0F2346",
"h$	c #11284D",
"i$	c #12284F",
"j$	c #162F5E",
"k$	c #172F5E",
"l$	c #122950",
"m$	c #1A3767",
"n$	c #1F3E73",
"o$	c #23457F",
"p$	c #254986",
"q$	c #264B8A",
"r$	c #274D8D",
"s$	c #335EB2",
"t$	c #274C8A",
"u$	c #254985",
"v$	c #22447E",
"w$	c #09192F",
"x$	c #173060",
"y$	c #01040E",
"z$	c #030919",
"A$	c #081731",
"B$	c #0F2244",
"C$	c #152C56",
"D$	c #162E5B",
"E$	c #183160",
"F$	c #234680",
"G$	c #254885",
"H$	c #254A87",
"I$	c #274D8C",
"J$	c #112847",
"K$	c #122847",
"L$	c #305AAA",
"M$	c #284E8E",
"N$	c #274C8C",
"O$	c #152C58",
"P$	c #0F2347",
"Q$	c #0E2042",
"R$	c #0E2041",
"S$	c #0F2344",
"T$	c #030A1A",
"U$	c #020817",
"V$	c #0E1F41",
"W$	c #10244A",
"X$	c #132952",
"Y$	c #142B54",
"Z$	c #091B31",
"`$	c #0A1B32",
" %	c #172E5B",
".%	c #172F5C",
"+%	c #061123",
"@%	c #061124",
"#%	c #234483",
"$%	c #1C396B",
"%%	c #1A3666",
"&%	c #193462",
"*%	c #11254A",
"=%	c #102347",
"-%	c #0E2243",
";%	c #010510",
">%	c #050F23",
",%	c #0A1935",
"'%	c #061325",
")%	c #061426",
"!%	c #132A51",
"~%	c #132A50",
"{%	c #020510",
"]%	c #040D22",
"^%	c #0C1E3F",
"/%	c #030C1B",
"(%	c #010209",
"_%	c #010410",
":%	c #0C1D3E",
"<%	c #020511",
"[%	c #020512",
"}%	c #0C1D3D",
"|%	c #08152F",
"1%	c #020716",
"2%	c #0A1C39",
"3%	c #030817",
"4%	c #0C1D3C",
"5%	c #030819",
"6%	c #03091A",
"7%	c #030C1F",
"8%	c #020613",
"9%	c #061324",
"0%	c #11284E",
"a%	c #030816",
"b%	c #030815",
"c%	c #030818",
"d%	c #040D1C",
"e%	c #051121",
"f%	c #020714",
"g%	c #040F1F",
"h%	c #0A1A38",
"i%	c #020612",
"j%	c #030D1C",
"k%	c #030D1B",
"l%	c #051223",
"m%	c #020915",
"n%	c #01050C",
"o%	c #030B1A",
"p%	c #030A19",
"q%	c #041020",
"r%	c #030C1A",
"s%	c #030B18",
"t%	c #020813",
"u%	c #051020",
"v%	c #051124",
"w%	c #020916",
"x%	c #01040A",
"y%	c #010208",
"z%	c #010307",
"A%	c #020711",
"B%	c #02040E",
"C%	c #02040C",
"D%	c #02040D",
"      . . . + + @ # # $ % $ # & * * * * * * * * + + * + + = = - * * * + + . . . . * * * * * * * * * * * * * * * . . * . . = = - ",
"* * + @ ; > , ' ) ! ~ { ] ^ ! / ( _ : < < < , [ [ [ [ , < < } | 1 2 3 4 4 ; 5 5 5 5 5 5 5 5 5 # # # % 5 5 6 5 5 5 5 5 5 @ + = - ",
"* 7 8 ~ 9 0 a b c d e e f g h i j k l l m m n o p q n p r s s t u v w x y 2 z A B B B % { C ^ ^ ^ ^ C { ] D ] { ^ ~ ~ E 3 F G - ",
"H ~ q f I J K L M N O O O O P Q R S T U V W W X Y X Z U `  .....+.@.#.$.%.&.*.=.e e e e =.e e e e e e =.f f f f -.-.;.>.,.'.).!.",
"~.{.].^./.(._.:.<.<.<.<.<.<.<.:._.[.[.[._.[.[.[.(.[.[.[.}.}.|.|.1.2.3.4.5.6.7.O O O O O O O O O O O O O O O 7.O O 8.N N 9.0.a.b.",
"c.d.X e.f.g.g.g.h.g.g.g.g.g.g.g.g.i.i.i.g.g.g.g.g.g.g.g.g.h.j.j.k.l.m.n.o.o.<.<.p.p.p.<.<.<.<.<.<.<.p.p.p.<.<.<.<.<.<.<._.q.r.s.",
"3 d.t.<.g.g.g.g.g.i.g.g.g.g.g.g.i.g.g.g.h.g.g.g.g.g.g.g.g.h.h.j.i.i.i.g.g.g.g.h.g.g.g.h.h.g.g.g.g.g.h.g.g.g.g.g.g.g.g.g.f.u.v.'.",
"3 p L <.g.g.g.g.g.g.g.g.g.g.g.i.g.g.g.g.h.g.g.g.g.g.g.g.g.g.h.j.i.i.g.g.g.g.g.h.g.g.g.g.h.g.g.g.g.g.g.g.g.i.g.g.g.g.g.g.g.w.x.y.",
"z.l A.<.g.g.g.g.g.g.g.g.g.g.g.g.g.g.h.h.h.g.g.g.g.g.g.g.g.g.h.j.i.i.g.g.g.g.g.h.i.i.i.i.g.g.g.g.g.g.i.i.i.i.g.g.g.g.g.g.g.B.C.'.",
"2 l D.<.g.g.g.g.g.g.g.g.g.g.g.g.h.h.g.g.g.g.g.g.g.g.g.g.g.h.j.j.E.i.i.g.g.g.g.g.g.i.i.i.g.g.g.g.g.g.g.g.g.g.g.g.g.g.g.g.f.u.F.G.",
"c.p H.<.g.g.g.g.g.j.j.j.g.g.g.g.g.g.g.g.g.g.g.g.g.g.g.g.g.h.j.j.E.i.i.g.g.g.g.g.g.g.g.g.g.g.g.g.g.g.g.g.g.g.g.g.g.g.g.g.I.J.K.L.",
"~.d.M.<.g.g.g.j.j.h.h.h.g.g.g.g.h.g.g.g.h.g.g.g.g.g.g.h.h.h.j.j.E.i.i.g.g.g.g.g.g.g.h.h.h.g.g.g.g.g.g.g.h.j.h.h.g.g.g.h.N.O.P.s.",
"7 Q.K :.g.g.g.j.h.h.g.g.g.g.g.g.h.g.g.h.h.h.g.j.j.j.h.j.j.h.j.j.i.i.g.g.g.j.j.j.g.h.h.h.h.g.g.g.g.g.g.j.j.h.h.h.g.g.h.j.R.S.r.G ",
"; v T.U.h.g.j.h.g.g.g.h.h.h.h.h.h.h.h.h.h.h.h.j.j.j.j.j.j.j.j.j.i.i.h.h.j.j.j.g.h.h.h.h.h.h.h.h.h.h.h.j.h.h.h.h.h.h.j.j.R.V.W.= ",
"X.P.Y.Z.h.h.j.h.h.h.h.h.j.j.j.j.j.h.h.j.j.j.j.j.j.j.j.j.`. +R.j.h.h.j.j.j.j.h.h.h.h.h.h.j.j.j.j.j.h.h.j.j.j.j.h.h.j.j.j.Z..+++@+",
"!.y.Y.Z.j.j.j.j.j.j.j.j.j.j.j.j.j.j.j.j.j.j.j.j.j.j.j.j.#+$+%+j.&+*+j.j.j.j.j.j.j.j.j.j.j.j.j.j.j.j.j.j.j.j.j.j.j.j.j.j.Z.=+-+@+",
"% ;+>+,+E.E.E.E.i.i.E.i.i.h.h.j.E.E.E.i.i.i.i.i.i.E.E.'+)+!+~+{+]+E.E.^+/+E.E.E.i.i.E.i.i.h.h.j.E.E.E.i.i.i.i.i.i.E.E.E.,+(+_+:+",
"% <+[+}+i.i.i.i.i.i.i.i.i.i.h.j.E.E.i.i.i.i.i.i.i.i.i.|+1+3.2+3+E.E.E.4+5+i.i.i.i.i.i.i.i.i.h.j.E.E.i.i.i.i.i.i.i.i.i.i.}+M.6+7+",
"5 8+Y 9+i.i.i.i.i.i.i.i.g.h.h.j.E.i.i.i.i.g.g.g.g.g.g.g.i.0+a+b+c+i.i.d+i.i.i.i.i.i.i.i.g.h.h.j.E.i.i.i.i.g.g.g.g.g.g.g.9+e+f+g+",
"h+i+j+_.i.i.i.i.i.i.g.g.h.j.j.j.E.i.i.i.g.g.g.g.g.g.g.g.g.k+l+m+n+o+p+<.i.i.i.i.i.i.g.g.h.j.j.j.E.i.i.i.g.g.g.g.g.g.g.g._.q+r+s+",
"h+i+t+(.g.g.g.g.g.g.g.g.h.h.j.j.E.i.i.i.g.g.g.g.g.g.g.g.(.u+v+w+x+y+z+A+g.g.g.g.g.g.g.g.h.h.j.j.E.i.i.i.g.g.g.g.h.g.g.g._.K B+s+",
"h+C+j+[.g.g.g.g.g.g.g.g.g.h.j.j.E.i.i.i.g.g.g.g.h.h.g.g.D+E+F+G+H+I+J+K+g.g.g.g.g.g.g.g.g.h.j.j.E.i.i.i.g.g.g.g.g.i.g.g._.R B+L+",
"M+N+Z [.g.g.g.g.g.h.g.g.g.h.h.j.i.i.i.g.g.g.g.h.g.g.i.g.O+P+Q+R+S+T+U+V+W+g.g.g.g.g.g.g.g.h.h.j.i.i.i.g.g.g.g.g.g.g.g.g._.R b ; ",
". X+q+Y+g.g.g.g.g.g.i.g.g.g.h.j.i.i.g.g.g.g.g.h.g.g.Z+`+ @.@+@@@#@$@%@&@*@i.i.g.g.g.g.g.g.g.h.j.i.i.g.g.g.g.g.g.g.g.g.g._.R =@; ",
"; -@L :.g.g.g.g.g.g.g.g.g.g.h.j.i.i.g.g.g.g.g.g.i.i.;@g.>@,@'@)@!@~@{@]@^@i.g.h.g.g.g.g.g.g.h.j.i.i.g.g.g.g.g.g.g.g.g.g.Y+/@=@; ",
"z.c M <.g.g.g.g.g.g.g.g.g.h.j.j.E.i.i.g.g.g.g.g.g.g.g.(@_@:@<@[@}@|@1@2@3@g.h.h.g.g.g.g.g.h.j.j.E.i.i.g.g.g.g.g.g.g.g.g._.R 4@; ",
"< >.P <.g.g.g.g.g.g.g.g.g.h.j.j.E.i.i.g.g.g.g.g.g.g.g.5@6@7@8@9@0@a@b@c@d@g.g.g.g.g.g.g.g.h.j.j.E.i.i.g.g.g.g.g.g.g.g.g._.K e@s+",
"& f@8.<.g.g.g.g.g.g.g.h.h.h.j.j.E.i.i.g.g.g.g.g.g.g.g.g.g@h@i@j@k@l@m@d@g.g.g.g.g.g.g.h.h.h.j.j.E.i.i.g.g.g.g.g.g.g.g.g.[.U r @ ",
"& d N <.h.h.g.g.g.g.h.j.j.h.j.j.i.i.g.g.g.g.g.g.g.g.h.n@o@p@q@q@r@s@t@g.h.j.j.j.g.g.h.j.j.h.j.j.i.i.g.g.g.g.g.g.g.g.j.h.W+u@v@. ",
"t >.w@p.h.h.h.h.h.h.j.j.j.j.j.j.i.i.h.h.h.g.g.g.g.h.j.x@y@z@A@B@C@D@E@h.j.j.h.h.h.h.j.j.j.j.j.j.i.i.h.h.h.g.g.g.j.j.h.F@G@H@I@J@",
"= =+K@Z.j.j.j.h.h.j.j.j.j.j.j.j.h.h.j.j.h.h.h.h.h.h.j.h.L@M@N@O@P@Q@R@j.j.h.h.h.h.j.j.j.j.j.j.j.h.h.j.j.h.h.h.j.j.h.h.N.n@K.G.!.",
"@+-+S@Z.j.j.j.j.j.j.j.j.j.j.j.j.j.j.j.j.j.j.j.j.j.j.j.j.T@U@V@W@X@Y@Z@j.j.j.j.j.j.j.j.j.j.j.j.j.j.j.j.j.j.j.j.j.j.j.j.R.`@ #.#!.",
"z +#@###E.E.E.E.E.h.h.g.E.E.E.E.i.i.E.i.i.h.h.j.E.E.E.i.$#%#&#*#=#-#;#E.E.E.E.E.E.E.E.E.E.E.E.E.i.i.E.i.i.h.h.j.E.E.E.>#,#'#)#6 ",
"' !#~#9+i.i.i.E.h.g.g.g.i.i.i.i.i.i.i.i.i.i.h.j.E.E.i.i.i.t+{#]#^#/#i.i.i.i.i.E.E.E.E.i.i.i.i.i.i.i.i.i.i.i.h.j.E.E.i.>#(#f ] 5 ",
"_#B+R _.i.i.i.i.h.g.g.i.i.i.i.i.i.i.i.i.g.h.h.j.E.i.i.i.i.:#<#[#}#|#g.g.i.i.i.i.i.i.i.i.i.i.i.i.i.i.i.i.g.h.h.j.E.i.i.>#(#=.% h+",
"; b R _.g.g.g.h.g.g.g.g.i.i.i.i.i.i.g.g.h.j.j.j.E.i.i.i.g.g.1#2#3#<.g.g.g.g.g.g.g.g.g.g.i.i.i.i.i.i.g.g.h.j.j.j.E.i.i.4#O 5#A h+",
"; =@R _.g.g.g.h.g.g.g.i.g.g.g.g.g.g.g.g.h.h.j.j.E.i.i.i.g.g.6#7#8#<.g.g.g.h.h.h.g.g.g.g.g.g.g.g.g.g.h.h.h.h.j.j.E.i.i.>#9#0#~.h+",
"; =@/@Y+g.g.g.g.g.i.i.g.g.g.g.g.g.g.g.g.g.h.j.j.E.i.i.i.g.g.a#b#c#<.g.g.h.g.g.g.g.g.g.g.g.g.g.g.g.h.h.g.g.h.j.j.E.i.i.n.d#e#f#g#",
"; =@h#U.g.g.g.g.g.g.g.g.g.g.g.g.g.g.g.g.g.h.h.j.i.i.i.g.g.g.i#j#k#<.g.g.h.g.g.g.i.g.g.g.g.g.g.g.h.h.g.g.g.h.h.j.i.i.i.l#m#%.n#M+",
";  .R _.i.g.g.g.g.g.g.g.g.g.g.g.g.g.g.g.g.g.h.j.i.i.g.g.g.h.o#p#q#<.g.g.g.i.i.i.i.g.g.g.g.g.g.h.h.g.g.g.g.g.h.j.i.i.g.I.m#%._ M+",
"@ ..K _.i.g.g.g.g.g.g.g.g.g.g.g.g.g.g.g.g.g.h.j.i.i.g.g.g.r#s#t#u#v#g.g.g.g.g.g.g.g.g.g.g.g.g.h.g.g.g.g.g.g.h.j.i.i.g.o.d#w#x#g#",
"g#y#V z#g.g.g.g.g.g.g.g.g.g.g.g.g.g.g.g.g.h.j.j.E.i.i.g.g.A#B#C#D#E#g.g.g.g.g.g.g.g.g.g.g.g.g.h.g.g.g.g.g.h.j.j.E.i.i.o.6.F#2 G#",
"H#I#t+(.g.g.g.g.g.g.g.g.g.g.g.g.g.g.g.g.g.h.j.j.E.i.i.g.g.J#K#L#M#o+g.g.g.g.g.g.g.g.g.g.g.g.g.h.g.g.g.g.g.h.j.j.E.i.i.<.N#*.& O#",
"s.s+c P#<.f.g.g.g.g.j.j.j.g.g.g.g.g.g.h.h.h.j.j.E.i.i.g.g.g.Q#R#S#j.j.g.g.g.g.g.g.g.j.j.j.g.h.h.i.g.g.h.h.h.j.j.E.i.i.o.T#U#. V#",
"W#g#^ 5#/@X#Y#f.j.h.h.h.h.h.g.g.g.g.h.j.j.h.j.j.i.i.g.g.g.g.g.j.h.h.h.g.g.g.g.g.g.j.h.h.h.h.g.g.i.i.i.j.j.h.j.j.i.i.f.d@Z#C+`# $",
"W#.$f#+$=+@$w@#$Z.N.h.h.h.h.h.h.j.j.j.j.j.j.j.j.i.i.h.h.h.g.j.j.h.h.h.h.h.h.h.h.j.h.h.h.h.h.h.h.h.h.i.j.j.j.j.j.i.n.$$%$ .% O# $",
"&$G -+F.*$=$-$F.;$O.U.>$j.j.j.h.h.j.j.j.j.j.j.j.h.h.j.j.h.h.j.h.h.h.h.h.j.j.j.j.j.h.h.j.j.j.j.h.h.j.j.j.j.j.j.j.,$O.'$-+)$!$@+&$",
"~$- {$]$!$!$*$=$-$F.S@n@Z.>$j.j.j.j.j.j.j.j.j.j.j.j.j.j.j.j.j.j.j.j.j.j.j.j.j.j.j.j.j.j.j.j.j.j.j.j.j.j.j.R.Z.^$/$($-+!$_$G - ~$",
"V#:$a <$[$}$}$*$`++#|$1$t.2$e.>#m.k.k.k.E.E.E.E.E.E.E.E.E.E.E.E.i.i.E.i.i.h.h.j.E.E.E.i.i.i.i.i.m.3$4$5$6$S.L x.7$8$9$0$a$b$c$d$",
"V#e$f$g$h$i$}$!$j$k$l$f+h m$n$o$p$q$r$e.}+>#n.3$3$s$s$m.m.m.m.m.m.m.m.l.i.i.h.j.E.E.i.i.m.n.}+e.t$u$v$V H@w$d -@x$k$j$h$g$! e$V#",
"y$z$A$B$X+}$}$!$j$i$i$i$k B+U#;.F#C$D$E$t.F$G$H$4.q$t$3.3.3.3.3.3.3.I$r$B.J$K$|.L$M$N$4.G$M K Z#O$0#d P$ .Q$Q$R$i$i$i$l S$A$T$y$",
"s.U$3 C++$!$!$!$j$i$i$i$a V$R$Q$e@B+4@P$W$e X$Y$Z$`$@$r##.#.#.#.#.#. %.%C.+%@%@%#%$%%%&%e *%=%=@r+Q$R$R$}$a a a i$a a r -%) `#s.",
").;%>%,%+$}$!$!$j$i$i$i$a a a a a }$}$}$R$Q$Q$r+'%B+b !#b b b b b b b =@ .)%=$=$+#!%~%l$Q$R$R$V$V$a a a }$a a i$a a a r C+>%{%).",
").V#]%i+r }$!$!$j$i$i$i$a a a }$}$a a a }$a a }$V$V$V$i$V$V$}$}$V$V$V$V$V$}$!$!$j$i$i$i$a a a a a a a a a a i$a a a a r i+. V#).",
" $V#. i+^%}$}$!$i$i$i$a a a }$}$a a a a i$a a }$a i$i$i$a a }$a i$a a a a }$}$!$i$i$i$a a a a }$a a a a a a a a a a a s /%L.s.(%",
"y$_%. i+9 a }$!$i$i$a a a a }$a a a a i$i$a a a a a a a a }$a a i$a a a a a }$!$i$i$a a a a a a i$a a a a a a a a a }$:%f#g#<%(%",
"H#[%. ! 9 a }$!$i$i$a a a a a }$}$a i$i$a a a a a a a a a a a i$i$a a a a a }$!$i$i$a a a }$}$a a a a a a a a a a V$}$}%|%h+;%(%",
"1%1%@ I#9 }$!$!$j$i$i$a a a a a a i$i$a a a a a a a a a a a a a a a a a a }$!$!$j$i$i$a }$a a i$a a a V$V$V$V$V$V$V$V$d.2%+ W#@+",
"3%`#c$i+9 }$!$!$j$i$i$a a a a a a a a a a a a a a a a a a a a a a a a a a }$!$!$j$i$i$a }$a a i$V$V$V$V$V$V$V$V$V$V$V$4%~.G#y$y$",
"5%6%< I@+$}$!$!$j$i$i$a a a a a }$a a a a a a a !$!$a a a a a a a a a }$}$}$!$!$j$i$i$a a i$i$a a !$!$V$V$V$V$V$a a V$v@f#7%8%d$",
"6%g#/%t *$9%!$!$[$0%V$V$V$V$a%+$+$r r r r r r b%s s s ^%+$+$r X+X+V$}$!$!$}$!$!$i$i$V$V$V$V$V$V$V$}$}$V$V$V$V$V$V$*$'$r I@y.`#c%",
"= } a.W.d%-+*$!$d p e%($($_$f%g%P.h%h%P.P.i%'.d%j%k%j%d%r.I@P.g%)$($b%!$!$!$!$!$[$[$}$l%+$r r b%s s s s s +$s b%b%+$'% .($m%n%= ",
"G ).y.o%W.p%*$t q%g%y.i%'.G.r%s%=$=$=$=$J@G t _$t%t%_$= G s..#-+-+G.'._$m%*$*$*$l%l%b%_$u%g%i%r.r.r.I@I@y.y.y.y.y.K.v%w%'.x%!.= ",
"!.b.G G.'.L.L..#s.G G G = x%).b.y%y%y%y%y%| !.!.- - - !.!.z%z%z%).).= J@A%f%_$_$_$a.y.'.{%L.B%s.G G G G C%C%D%D%D%J@F D%).| - - "};
