/* XPM */
static char * V2_5_xpm[] = {
"64 64 619 2",
"  	c #051128",
". 	c #040D21",
"+ 	c #040E21",
"@ 	c #040E22",
"# 	c #06122B",
"$ 	c #06122C",
"% 	c #06132C",
"& 	c #06122A",
"* 	c #051129",
"= 	c #01040B",
"- 	c #010205",
"; 	c #050F24",
"> 	c #051126",
", 	c #061228",
"' 	c #06142C",
") 	c #07162F",
"! 	c #081833",
"~ 	c #091934",
"{ 	c #091A36",
"] 	c #0A1A36",
"^ 	c #091935",
"/ 	c #0A1B3A",
"( 	c #091836",
"_ 	c #081733",
": 	c #081632",
"< 	c #061229",
"[ 	c #051228",
"} 	c #02060F",
"| 	c #010207",
"1 	c #071530",
"2 	c #07152F",
"3 	c #051026",
"4 	c #051025",
"5 	c #040F23",
"6 	c #040F24",
"7 	c #051024",
"8 	c #06132A",
"9 	c #0C1E3E",
"0 	c #0B1B3A",
"a 	c #0D1F41",
"b 	c #0F2144",
"c 	c #102449",
"d 	c #11264C",
"e 	c #12274E",
"f 	c #18325F",
"g 	c #17315E",
"h 	c #162F5A",
"i 	c #152D56",
"j 	c #132A52",
"k 	c #12294F",
"l 	c #11274D",
"m 	c #11274C",
"n 	c #11274B",
"o 	c #11264A",
"p 	c #11264B",
"q 	c #10264A",
"r 	c #0D1E3F",
"s 	c #051122",
"t 	c #020815",
"u 	c #142B56",
"v 	c #0F2345",
"w 	c #0E2142",
"x 	c #0D2040",
"y 	c #0C1E3D",
"z 	c #07142D",
"A 	c #07132C",
"B 	c #06132B",
"C 	c #091A35",
"D 	c #0A1A37",
"E 	c #081832",
"F 	c #01050F",
"G 	c #01040C",
"H 	c #06132D",
"I 	c #162D59",
"J 	c #183261",
"K 	c #1A3465",
"L 	c #1B3668",
"M 	c #1C376B",
"N 	c #1C386C",
"O 	c #1D396D",
"P 	c #1C386B",
"Q 	c #1B3669",
"R 	c #1A3566",
"S 	c #193364",
"T 	c #193363",
"U 	c #193262",
"V 	c #204076",
"W 	c #1F3F75",
"X 	c #1F3F74",
"Y 	c #1F3E74",
"Z 	c #193261",
"` 	c #0C1F39",
" .	c #061326",
"..	c #061225",
"+.	c #244687",
"@.	c #1D3B6F",
"#.	c #1C3A6C",
"$.	c #1B3869",
"%.	c #152B55",
"&.	c #142A53",
"*.	c #132851",
"=.	c #12274F",
"-.	c #17315D",
";.	c #12264D",
">.	c #11254B",
",.	c #061427",
"'.	c #020611",
").	c #010309",
"!.	c #010206",
"~.	c #07142E",
"{.	c #0D2041",
"].	c #1B3768",
"^.	c #234681",
"/.	c #203E76",
"(.	c #213F79",
"_.	c #21407A",
":.	c #22417B",
"<.	c #22417C",
"[.	c #214079",
"}.	c #122947",
"|.	c #0A1930",
"1.	c #3059A9",
"2.	c #284D8D",
"3.	c #274C8B",
"4.	c #264B89",
"5.	c #1E3B72",
"6.	c #1E3A70",
"7.	c #1D396E",
"8.	c #1D386C",
"9.	c #0D213C",
"0.	c #091A31",
"a.	c #020713",
"b.	c #010308",
"c.	c #07142F",
"d.	c #102549",
"e.	c #284E8F",
"f.	c #23437E",
"g.	c #23437F",
"h.	c #132B4B",
"i.	c #2B5397",
"j.	c #0B1B33",
"k.	c #335FB2",
"l.	c #2B5396",
"m.	c #2B5296",
"n.	c #2A5295",
"o.	c #22427D",
"p.	c #122A49",
"q.	c #0F2440",
"r.	c #040D1D",
"s.	c #01040D",
"t.	c #21427A",
"u.	c #112745",
"v.	c #0B1D34",
"w.	c #213F78",
"x.	c #0B1D36",
"y.	c #020712",
"z.	c #051127",
"A.	c #1C3769",
"B.	c #203F77",
"C.	c #0B1D35",
"D.	c #22447D",
"E.	c #335FB3",
"F.	c #051022",
"G.	c #020610",
"H.	c #22437C",
"I.	c #23427E",
"J.	c #102744",
"K.	c #050F20",
"L.	c #02050F",
"M.	c #21427B",
"N.	c #132A4A",
"O.	c #102643",
"P.	c #040E1E",
"Q.	c #0F2446",
"R.	c #0B1A32",
"S.	c #0F2541",
"T.	c #0D203A",
"U.	c #122948",
"V.	c #08162B",
"W.	c #040C1B",
"X.	c #01050D",
"Y.	c #071326",
"Z.	c #0A1A31",
"`.	c #1E1C33",
" +	c #191C33",
".+	c #081529",
"++	c #040C1A",
"@+	c #01030A",
"#+	c #622630",
"$+	c #4D2231",
"%+	c #0E162C",
"&+	c #071529",
"*+	c #030B19",
"=+	c #122852",
"-+	c #264A8E",
";+	c #315CAD",
">+	c #3257A5",
",+	c #464380",
"'+	c #C7536E",
")+	c #284D93",
"!+	c #193466",
"~+	c #0A1938",
"{+	c #122751",
"]+	c #264A8D",
"^+	c #295092",
"/+	c #2E2143",
"(+	c #9E3040",
"_+	c #142B53",
":+	c #091937",
"<+	c #0D2141",
"[+	c #295091",
"}+	c #2C1B3A",
"|+	c #B83125",
"1+	c #2D437C",
"2+	c #BE4C3F",
"3+	c #495894",
"4+	c #C9682B",
"5+	c #63528F",
"6+	c #214279",
"7+	c #132B53",
"8+	c #07142C",
"9+	c #030A1C",
"0+	c #091834",
"a+	c #18315F",
"b+	c #E76121",
"c+	c #C13F29",
"d+	c #263669",
"e+	c #393965",
"f+	c #2B1A2F",
"g+	c #2D407A",
"h+	c #3B437D",
"i+	c #1A3466",
"j+	c #0E2143",
"k+	c #040E23",
"l+	c #17305D",
"m+	c #201938",
"n+	c #C1361B",
"o+	c #F97E0B",
"p+	c #BF2F1F",
"q+	c #9E2026",
"r+	c #9F2126",
"s+	c #782840",
"t+	c #1B2E5C",
"u+	c #0E2144",
"v+	c #0A1936",
"w+	c #7F1920",
"x+	c #F47913",
"y+	c #FFBA2D",
"z+	c #FEA922",
"A+	c #FDA21F",
"B+	c #D2402B",
"C+	c #6A171D",
"D+	c #1B366A",
"E+	c #A86261",
"F+	c #6A4F75",
"G+	c #040E24",
"H+	c #030B1E",
"I+	c #0B1C3B",
"J+	c #D1765F",
"K+	c #142B57",
"L+	c #82271B",
"M+	c #FCB22E",
"N+	c #FFD983",
"O+	c #FFD46C",
"P+	c #FBA625",
"Q+	c #C5392A",
"R+	c #735171",
"S+	c #0D1F40",
"T+	c #21407B",
"U+	c #684B6D",
"V+	c #50528A",
"W+	c #8F1D23",
"X+	c #FC810B",
"Y+	c #F57600",
"Z+	c #FEE0CD",
"`+	c #FEE5B3",
" @	c #FFBD1F",
".@	c #F88302",
"+@	c #95391D",
"@@	c #1E386C",
"#@	c #0F2245",
"$@	c #0F2246",
"%@	c #384A84",
"&@	c #2E3F76",
"*@	c #262F5D",
"=@	c #D24C29",
"-@	c #FFBA2C",
";@	c #FFA63A",
">@	c #FEF4DE",
",@	c #FEE7B8",
"'@	c #FFC536",
")@	c #E25F24",
"!@	c #152247",
"~@	c #1B3567",
"{@	c #183161",
"]@	c #CE5A2E",
"^@	c #FFE3A6",
"/@	c #FEEFD1",
"(@	c #FEF9ED",
"_@	c #FEFBF0",
":@	c #FEE9BD",
"<@	c #F58B18",
"[@	c #142147",
"}@	c #0F2145",
"|@	c #7D2437",
"1@	c #E74D1D",
"2@	c #F6C1AD",
"3@	c #FFF2DA",
"4@	c #FEF0D4",
"5@	c #FFAE00",
"6@	c #FEE5C1",
"7@	c #E07910",
"8@	c #192D5A",
"9@	c #0E2043",
"0@	c #11264D",
"a@	c #5C1A2B",
"b@	c #B12924",
"c@	c #DF8F4A",
"d@	c #FCCD45",
"e@	c #FCAF28",
"f@	c #F08B0D",
"g@	c #3C3161",
"h@	c #09172D",
"i@	c #8E755F",
"j@	c #B2AF92",
"k@	c #B0B19E",
"l@	c #AEAA8D",
"m@	c #AB9F73",
"n@	c #574A5C",
"o@	c #203E77",
"p@	c #18305E",
"q@	c #0C1C3C",
"r@	c #0E233E",
"s@	c #0A1328",
"t@	c #524553",
"u@	c #A0826F",
"v@	c #E7DDAC",
"w@	c #C2A78D",
"x@	c #D1B98A",
"y@	c #685E5D",
"z@	c #332735",
"A@	c #132B4A",
"B@	c #112744",
"C@	c #0A1C34",
"D@	c #040E1D",
"E@	c #01050E",
"F@	c #0E223E",
"G@	c #1E061D",
"H@	c #27001C",
"I@	c #90352A",
"J@	c #581629",
"K@	c #852F2B",
"L@	c #260119",
"M@	c #30081F",
"N@	c #071428",
"O@	c #290A1C",
"P@	c #9B3E27",
"Q@	c #D78B34",
"R@	c #994B2A",
"S@	c #BA702C",
"T@	c #73322F",
"U@	c #2F081F",
"V@	c #08172C",
"W@	c #050E1F",
"X@	c #02050E",
"Y@	c #183263",
"Z@	c #284C92",
"`@	c #315BAD",
" #	c #274987",
".#	c #451129",
"+#	c #5A2922",
"@#	c #D29C50",
"##	c #A96C27",
"$#	c #4F162D",
"%#	c #28498E",
"&#	c #2A5194",
"*#	c #244783",
"=#	c #183361",
"-#	c #0A1B38",
";#	c #132B52",
">#	c #214179",
",#	c #AFA179",
"'#	c #534345",
")#	c #7E6051",
"!#	c #191E3E",
"~#	c #244782",
"{#	c #050E24",
"]#	c #1A2C59",
"^#	c #7F685F",
"/#	c #BE8E6C",
"(#	c #494054",
"_#	c #1C2348",
":#	c #2F061D",
"<#	c #53142C",
"[#	c #280218",
"}#	c #2A5193",
"|#	c #132850",
"1#	c #81581F",
"2#	c #AC5D2F",
"3#	c #571924",
"4#	c #1E3A6F",
"5#	c #132951",
"6#	c #76421D",
"7#	c #B6582B",
"8#	c #0E0017",
"9#	c #1E3B71",
"0#	c #142A54",
"a#	c #081630",
"b#	c #030B1D",
"c#	c #0D213B",
"d#	c #684427",
"e#	c #88462C",
"f#	c #450F24",
"g#	c #22427E",
"h#	c #1F3C72",
"i#	c #081732",
"j#	c #2F0014",
"k#	c #B1512A",
"l#	c #29001B",
"m#	c #162E5A",
"n#	c #D3D7CF",
"o#	c #E3C393",
"p#	c #484059",
"q#	c #1D264C",
"r#	c #142B55",
"s#	c #081631",
"t#	c #0D1F3F",
"u#	c #294F91",
"v#	c #18254D",
"w#	c #79685B",
"x#	c #AD8467",
"y#	c #815E54",
"z#	c #181632",
"A#	c #142952",
"B#	c #030A1B",
"C#	c #020513",
"D#	c #091833",
"E#	c #23427D",
"F#	c #160E2A",
"G#	c #531A2E",
"H#	c #150720",
"I#	c #223F79",
"J#	c #1D3A6F",
"K#	c #020717",
"L#	c #1D396C",
"M#	c #22407A",
"N#	c #1C3568",
"O#	c #0D182F",
"P#	c #1D386D",
"Q#	c #102348",
"R#	c #01040F",
"S#	c #01030C",
"T#	c #203D75",
"U#	c #22427C",
"V#	c #203F78",
"W#	c #17305E",
"X#	c #020818",
"Y#	c #01030B",
"Z#	c #030A1D",
"`#	c #051123",
" $	c #0A1C33",
".$	c #09182E",
"+$	c #112846",
"@$	c #0D1F39",
"#$	c #000104",
"$$	c #030917",
"%$	c #030A18",
"&$	c #040C1C",
"*$	c #071429",
"=$	c #0B1B32",
"-$	c #122949",
";$	c #061224",
">$	c #040F20",
",$	c #030916",
"'$	c #000102",
")$	c #02050D",
"!$	c #030814",
"~$	c #09182F",
"{$	c #08152A",
"]$	c #051021",
"^$	c #020814",
"/$	c #030C1E",
"($	c #102448",
"_$	c #12284E",
":$	c #051224",
"<$	c #17305F",
"[$	c #1C386E",
"}$	c #1C396A",
"|$	c #254987",
"1$	c #325EB1",
"2$	c #315CAF",
"3$	c #305BAB",
"4$	c #2F58A6",
"5$	c #1D3A71",
"6$	c #183162",
"7$	c #172F5F",
"8$	c #162F5D",
"9$	c #142A55",
"0$	c #0C1E40",
"a$	c #050F25",
"b$	c #020614",
"c$	c #030B1C",
"d$	c #081934",
"e$	c #0F2346",
"f$	c #11284D",
"g$	c #12284F",
"h$	c #162F5E",
"i$	c #172F5E",
"j$	c #122950",
"k$	c #1A3767",
"l$	c #1F3E73",
"m$	c #23457F",
"n$	c #254986",
"o$	c #264B8A",
"p$	c #274D8D",
"q$	c #335EB2",
"r$	c #274C8A",
"s$	c #254985",
"t$	c #22447E",
"u$	c #09192F",
"v$	c #173060",
"w$	c #01040E",
"x$	c #030919",
"y$	c #081731",
"z$	c #0F2244",
"A$	c #152C56",
"B$	c #162E5B",
"C$	c #183160",
"D$	c #234680",
"E$	c #254885",
"F$	c #254A87",
"G$	c #274D8C",
"H$	c #112847",
"I$	c #122847",
"J$	c #305AAA",
"K$	c #284E8E",
"L$	c #274C8C",
"M$	c #152C58",
"N$	c #0F2347",
"O$	c #0E2042",
"P$	c #0E2041",
"Q$	c #0F2344",
"R$	c #030A1A",
"S$	c #020817",
"T$	c #0E1F41",
"U$	c #10244A",
"V$	c #132952",
"W$	c #142B54",
"X$	c #091B31",
"Y$	c #0A1B32",
"Z$	c #172E5B",
"`$	c #172F5C",
" %	c #061123",
".%	c #061124",
"+%	c #234483",
"@%	c #1C396B",
"#%	c #1A3666",
"$%	c #193462",
"%%	c #11254A",
"&%	c #102347",
"*%	c #0E2243",
"=%	c #010510",
"-%	c #050F23",
";%	c #0A1935",
">%	c #061325",
",%	c #061426",
"'%	c #132A51",
")%	c #132A50",
"!%	c #020510",
"~%	c #040D22",
"{%	c #0C1E3F",
"]%	c #030C1B",
"^%	c #010209",
"/%	c #010410",
"(%	c #0C1D3E",
"_%	c #020511",
":%	c #020512",
"<%	c #0C1D3D",
"[%	c #08152F",
"}%	c #020716",
"|%	c #0A1C39",
"1%	c #030817",
"2%	c #0C1D3C",
"3%	c #030819",
"4%	c #03091A",
"5%	c #030C1F",
"6%	c #020613",
"7%	c #061324",
"8%	c #11284E",
"9%	c #030816",
"0%	c #030815",
"a%	c #030818",
"b%	c #040D1C",
"c%	c #051121",
"d%	c #020714",
"e%	c #040F1F",
"f%	c #0A1A38",
"g%	c #020612",
"h%	c #030D1C",
"i%	c #030D1B",
"j%	c #051223",
"k%	c #020915",
"l%	c #01050C",
"m%	c #030B1A",
"n%	c #030A19",
"o%	c #041020",
"p%	c #030C1A",
"q%	c #030B18",
"r%	c #020813",
"s%	c #051020",
"t%	c #051124",
"u%	c #020916",
"v%	c #01040A",
"w%	c #010208",
"x%	c #010307",
"y%	c #020711",
"z%	c #02040E",
"A%	c #02040C",
"B%	c #02040D",
"      . . . + + @ # # $ % $ # & * * * * * * * * + + * + + = = - * * * + + . . . . * * * * * * * * * * * * * * * . . * . . = = - ",
"* * + @ ; > , ' ) ! ~ { ] ^ ! / ( _ : < < < , [ [ [ [ , < < } | 1 2 3 4 4 ; 5 5 5 5 5 5 5 5 5 # # # % 5 5 6 5 5 5 5 5 5 @ + = - ",
"* 7 8 ~ 9 0 a b c d e e f g h i j k l l m m n o p q n p r s s t u v w x y 2 z A B B B % { C ^ ^ ^ ^ C { ] D ] { ^ ~ ~ E 3 F G - ",
"H ~ q f I J K L M N O O O O P Q R S T U V W W X Y X Z U `  .....+.@.#.$.%.&.*.=.e e e e =.e e e e e e =.f f f f -.-.;.>.,.'.).!.",
"~.{.].^./.(._.:.<.<.<.<.<.<.<.:._.[.[.[._.[.[.[.(.[.[.[.}.}.|.|.1.2.3.4.5.6.7.O O O O O O O O O O O O O O O 7.O O 8.N N 9.0.a.b.",
"c.d.X e.f.g.g.g.h.g.g.g.g.g.g.g.g.i.i.i.g.g.g.g.g.g.g.g.g.h.j.j.k.l.m.n.o.o.<.<.p.p.p.<.<.<.<.<.<.<.p.p.p.<.<.<.<.<.<.<._.q.r.s.",
"3 d.t.<.g.g.g.g.g.i.g.g.g.g.g.g.i.g.g.g.h.g.g.g.g.g.g.g.g.h.h.j.i.i.i.g.g.g.g.h.g.g.g.h.h.g.g.g.g.g.h.g.g.g.g.g.g.g.g.g.f.u.v.'.",
"3 p L <.g.g.g.g.g.g.g.g.g.g.g.i.g.g.g.g.h.g.g.g.g.g.g.g.g.g.h.j.i.i.g.g.g.g.g.h.g.g.g.g.h.g.g.g.g.g.g.g.g.i.g.g.g.g.g.g.g.w.x.y.",
"z.l A.<.g.g.g.g.g.g.g.g.g.g.g.g.g.g.h.h.h.g.g.g.g.g.g.g.g.g.h.j.i.i.g.g.g.g.g.h.i.i.i.i.g.g.g.g.g.g.i.i.i.i.g.g.g.g.g.g.g.B.C.'.",
"2 l D.<.g.g.g.g.g.g.g.g.g.g.g.g.h.h.g.g.g.g.g.g.g.g.g.g.g.h.j.j.E.i.i.g.g.g.g.g.g.i.i.i.g.g.g.g.g.g.g.g.g.g.g.g.g.g.g.g.f.u.F.G.",
"c.p H.<.g.g.g.g.g.j.j.j.g.g.g.g.g.g.g.g.g.g.g.g.g.g.g.g.g.h.j.j.E.i.i.g.g.g.g.g.g.g.g.g.g.g.g.g.g.g.g.g.g.g.g.g.g.g.g.g.I.J.K.L.",
"~.d.M.<.g.g.g.j.j.h.h.h.g.g.g.g.h.g.g.g.h.g.g.g.g.g.g.h.h.h.j.j.E.i.i.g.g.g.g.g.g.g.h.h.h.g.g.g.g.g.g.g.h.j.h.h.g.g.g.h.N.O.P.s.",
"7 Q.K :.g.g.g.j.h.h.g.g.g.g.g.g.h.g.g.h.h.h.g.j.j.j.h.j.j.h.j.j.i.i.g.g.g.j.j.j.g.h.h.h.h.g.g.g.g.g.g.j.j.h.h.h.g.g.h.j.R.S.r.G ",
"; v T.U.h.g.j.h.g.g.g.h.h.h.h.h.h.h.h.h.h.h.h.j.j.j.j.j.j.j.j.j.i.i.h.h.j.j.j.g.h.h.h.h.h.h.h.h.h.h.h.j.h.h.h.h.h.h.j.j.R.V.W.= ",
"X.P.Y.Z.h.h.j.h.h.h.h.h.j.j.j.j.j.h.h.j.j.j.j.j.j.`. +j.j.j.j.j.h.h.j.j.j.j.h.h.h.h.h.h.j.j.j.j.j.h.h.j.j.j.j.h.h.j.j.j.Z..+++@+",
"!.y.Y.Z.j.j.j.j.j.j.j.j.j.j.j.j.j.j.j.j.j.j.j.j.j.#+$+%+j.j.j.j.j.j.j.j.j.j.j.j.j.j.j.j.j.j.j.j.j.j.j.j.j.j.j.j.j.j.j.j.Z.&+*+@+",
"% =+-+;+E.E.E.E.i.i.E.i.i.h.h.j.E.E.E.i.i.i.i.i.i.E.>+,+'+E.E.E.E.E.E.E.E.E.E.E.i.i.E.i.i.h.h.j.E.E.E.i.i.i.i.i.i.E.E.E.;+)+!+~+",
"% {+]+^+i.i.i.i.i.i.i.i.i.i.h.j.E.E.i.i.i.i.i.i.i.i./+(+n.i.i.E.E.E.E.i.i.i.i.i.i.i.i.i.i.i.h.j.E.E.i.i.i.i.i.i.i.i.i.i.^+M._+:+",
"5 <+Y [+i.i.i.i.i.i.i.i.g.h.h.j.E.i.i.i.i.g.g.g.g.g.}+|+1+i.2+3+^.4+5+i.i.i.i.i.i.i.i.i.g.h.h.j.E.i.i.i.i.g.g.g.g.g.g.g.[+6+7+8+",
"9+0+a+_.i.i.i.i.i.i.g.g.h.j.j.j.E.i.i.i.g.g.g.g.g.g.}+b+c+d+e+f+I.g+h+g.i.i.i.i.i.i.g.g.h.j.j.j.E.i.i.i.g.g.g.g.g.g.g.g._.i+j+k+",
"9+0+l+(.g.g.g.g.g.g.g.g.h.h.j.j.E.i.i.i.g.g.g.g.g.g.m+n+o+p+q+r+s+t+g.g.g.g.g.g.g.g.g.g.h.h.j.j.E.i.i.i.g.g.g.g.h.g.g.g._.K u+k+",
"9+v+a+[.g.g.g.g.g.g.g.g.g.h.j.j.E.i.i.i.g.g.g.g.h.h.o.w+x+y+z+A+B+C+D+E+F+g.g.g.g.g.g.g.g.h.j.j.E.i.i.i.g.g.g.g.g.i.g.g._.R u+G+",
"H+I+Z [.g.g.g.g.g.h.g.g.g.h.h.j.i.i.i.g.g.g.g.h.g.g.J+K+L+M+N+O+P+Q+Q R+o.g.g.g.g.g.g.g.g.h.h.j.i.i.i.g.g.g.g.g.g.g.g.g._.R b ; ",
". S+i+T+g.g.g.g.g.g.i.g.g.g.h.j.i.i.g.g.g.g.g.h.g.U+V+W+X+Y+Z+`+ @.@+@@@g.i.i.g.g.g.g.g.g.g.h.j.i.i.g.g.g.g.g.g.g.g.g.g._.R #@; ",
"; $@L :.g.g.g.g.g.g.g.g.g.g.h.j.i.i.g.g.g.g.g.g.i.%@&@*@=@-@;@>@,@'@)@!@g.i.g.h.g.g.g.g.g.g.h.j.i.i.g.g.g.g.g.g.g.g.g.g.T+~@#@; ",
"z.c M <.g.g.g.g.g.g.g.g.g.h.j.j.E.i.i.g.g.g.g.g.g.g.g.{@]@^@/@(@_@:@<@[@g.g.h.h.g.g.g.g.g.h.j.j.E.i.i.g.g.g.g.g.g.g.g.g._.R }@; ",
"< >.P <.g.g.g.g.g.g.g.g.g.h.j.j.E.i.i.g.g.g.g.g.g.g.I.|@1@2@3@4@5@6@7@8@g.g.g.g.g.g.g.g.g.h.j.j.E.i.i.g.g.g.g.g.g.g.g.g._.K 9@k+",
"& 0@8.<.g.g.g.g.g.g.g.h.h.h.j.j.E.i.i.g.g.g.g.g.g.g.g.<.a@b@c@d@e@f@g@g.g.g.g.g.g.g.g.h.h.h.j.j.E.i.i.g.g.g.g.g.g.g.g.g.[.U r @ ",
"& d N <.h.h.g.g.g.g.h.j.j.h.j.j.i.i.g.g.g.g.g.g.g.g.h.h@i@j@k@k@l@m@n@g.h.j.j.j.g.g.h.j.j.h.j.j.i.i.g.g.g.g.g.g.g.g.j.h.o@p@q@. ",
"t >.r@p.h.h.h.h.h.h.j.j.j.j.j.j.i.i.h.h.h.g.g.g.g.h.j.s@t@u@v@w@x@y@z@h.j.j.h.h.h.h.j.j.j.j.j.j.i.i.h.h.h.g.g.g.j.j.h.A@B@C@D@E@",
"= &+F@Z.j.j.j.h.h.j.j.j.j.j.j.j.h.h.j.j.h.h.h.h.h.h.j.h.G@H@I@J@K@L@M@j.j.h.h.h.h.j.j.j.j.j.j.j.h.h.j.j.h.h.h.j.j.h.h.N.h@K.G.!.",
"@+*+N@Z.j.j.j.j.j.j.j.j.j.j.j.j.j.j.j.j.j.j.j.j.j.j.j.j.O@P@Q@R@S@T@U@j.j.j.j.j.j.j.j.j.j.j.j.j.j.j.j.j.j.j.j.j.j.j.j.R.V@W@X@!.",
"z Y@Z@`@E.E.E.E.E.h.h.g.E.E.E.E.i.i.E.i.i.h.h.j.E.E.E.i. #.#+#@###$#%#E.E.E.E.E.E.E.E.E.E.E.E.E.i.i.E.i.i.h.h.j.E.E.E.&#*#=#-#6 ",
"' ;#>#[+i.i.i.E.h.g.g.g.i.i.i.i.i.i.i.i.i.i.h.j.E.E.i.i.i.l+,#'#)#!#i.i.i.i.i.E.E.E.E.i.i.i.i.i.i.i.i.i.i.i.h.j.E.E.i.&#~#f ] 5 ",
"{#u+R _.i.i.i.i.h.g.g.i.i.i.i.i.i.i.i.i.g.h.h.j.E.i.i.i.i.]#^#/#(#_#g.g.i.i.i.i.i.i.i.i.i.i.i.i.i.i.i.i.g.h.h.j.E.i.i.&#~#=.% 9+",
"; b R _.g.g.g.h.g.g.g.g.i.i.i.i.i.i.g.g.h.j.j.j.E.i.i.i.g.g.:#<#[#<.g.g.g.g.g.g.g.g.g.g.i.i.i.i.i.i.g.g.h.j.j.j.E.i.i.}#O |#A 9+",
"; #@R _.g.g.g.h.g.g.g.i.g.g.g.g.g.g.g.g.h.h.j.j.E.i.i.i.g.g.1#2#3#<.g.g.g.h.h.h.g.g.g.g.g.g.g.g.g.g.h.h.h.h.j.j.E.i.i.&#4#5#~.9+",
"; #@~@T+g.g.g.g.g.i.i.g.g.g.g.g.g.g.g.g.g.h.j.j.E.i.i.i.g.g.6#7#8#<.g.g.h.g.g.g.g.g.g.g.g.g.g.g.g.h.h.g.g.h.j.j.E.i.i.n.9#0#a#b#",
"; #@c#U.g.g.g.g.g.g.g.g.g.g.g.g.g.g.g.g.g.h.h.j.i.i.i.g.g.g.d#e#f#<.g.g.h.g.g.g.i.g.g.g.g.g.g.g.h.h.g.g.g.h.h.j.i.i.i.g#h#%.i#H+",
";  .R _.i.g.g.g.g.g.g.g.g.g.g.g.g.g.g.g.g.g.h.j.i.i.g.g.g.h.j#k#l#<.g.g.g.i.i.i.i.g.g.g.g.g.g.h.h.g.g.g.g.g.h.j.i.i.g.I.h#%._ H+",
"@ ..K _.i.g.g.g.g.g.g.g.g.g.g.g.g.g.g.g.g.g.h.j.i.i.g.g.g.m#n#o#p#q#g.g.g.g.g.g.g.g.g.g.g.g.g.h.g.g.g.g.g.g.h.j.i.i.g.o.9#r#s#b#",
"b#t#V u#g.g.g.g.g.g.g.g.g.g.g.g.g.g.g.g.g.h.j.j.E.i.i.g.g.v#w#x#y#z#g.g.g.g.g.g.g.g.g.g.g.g.g.h.g.g.g.g.g.h.j.j.E.i.i.o.6.A#2 B#",
"C#D#l+(.g.g.g.g.g.g.g.g.g.g.g.g.g.g.g.g.g.h.j.j.E.i.i.g.g.E#F#G#H#I#g.g.g.g.g.g.g.g.g.g.g.g.g.h.g.g.g.g.g.h.j.j.E.i.i.<.J#*.& K#",
"s.k+c L#<.f.g.g.g.g.j.j.j.g.g.g.g.g.g.h.h.h.j.j.E.i.i.g.g.g.M#N#O#j.j.g.g.g.g.g.g.g.j.j.j.g.h.h.i.g.g.h.h.h.j.j.E.i.i.o.P#Q#. R#",
"S#b#^ |#~@T#U#f.j.h.h.h.h.h.g.g.g.g.h.j.j.h.j.j.i.i.g.g.g.g.g.j.h.h.h.g.g.g.g.g.g.j.h.h.h.h.g.g.i.i.i.j.j.h.j.j.i.i.f.V#W#v+X#Y#",
"S#Z#a#`#&+ $r@.$Z.N.h.h.h.h.h.h.j.j.j.j.j.j.j.j.i.i.h.h.h.g.j.j.h.h.h.h.h.h.h.h.j.h.h.h.h.h.h.h.h.h.i.j.j.j.j.j.i.n.+$@$ .% K#Y#",
"#$G *+F.$$%$&$F.*$O.U.=$j.j.j.h.h.j.j.j.j.j.j.j.h.h.j.j.h.h.j.h.h.h.h.h.j.j.j.j.j.h.h.j.j.j.j.h.h.j.j.j.j.j.j.j.-$O.;$*+>$,$@+#$",
"'$- )$!$,$,$$$%$&$F.N@h@Z.=$j.j.j.j.j.j.j.j.j.j.j.j.j.j.j.j.j.j.j.j.j.j.j.j.j.j.j.j.j.j.j.j.j.j.j.j.j.j.j.R.Z.~${$]$*+,$^$G - '$",
"R#/$a ($_$:$:$$$<$Y@[$}$t.|$e.&#m.k.k.k.E.E.E.E.E.E.E.E.E.E.E.E.i.i.E.i.i.h.h.j.E.E.E.i.i.i.i.i.m.1$2$3$4$S.L x.5$6$7$8$9$0$a$b$",
"R#c$d$e$f$g$:$,$h$i$j$7+h k$l$m$n$o$p$e.^+&#n.1$1$q$q$m.m.m.m.m.m.m.m.l.i.i.h.j.E.E.i.i.m.n.^+e.r$s$t$V C@u$d $@v$i$h$f$e$! c$R#",
"w$x$y$z$S+:$:$,$h$g$g$g$k u+Q#;.A#A$B$C$t.D$E$F$4.o$r$3.3.3.3.3.3.3.G$p$B.H$I$|.J$K$L$4.E$M K W#M$5#d N$ .O$O$P$g$g$g$l Q$y$R$w$",
"s.S$3 v+`#,$,$,$h$g$g$g$a T$P$O$9@u+}@N$U$e V$W$X$Y$ $m##.#.#.#.#.#.Z$`$C. %.%.%+%@%#%$%e %%&%#@j+O$P$P$:$a a a g$a a r *%) X#s.",
").=%-%;%`#:$,$,$h$g$g$g$a a a a a :$:$:$P$O$O$j+>%u+b ;#b b b b b b b #@ .,%%$%$Y@'%)%j$O$P$P$T$T$a a a :$a a g$a a a r v+-%!%).",
").R#~%0+r :$,$,$h$g$g$g$a a a :$:$a a a :$a a :$T$T$T$g$T$T$:$:$T$T$T$T$T$:$,$,$h$g$g$g$a a a a a a a a a a g$a a a a r 0+. R#).",
"Y#R#. 0+{%:$:$,$g$g$g$a a a :$:$a a a a g$a a :$a g$g$g$a a :$a g$a a a a :$:$,$g$g$g$a a a a :$a a a a a a a a a a a s ]%L.s.^%",
"w$/%. 0+9 a :$,$g$g$a a a a :$a a a a g$g$a a a a a a a a :$a a g$a a a a a :$,$g$g$a a a a a a g$a a a a a a a a a :$(%a#b#_%^%",
"C#:%. ! 9 a :$,$g$g$a a a a a :$:$a g$g$a a a a a a a a a a a g$g$a a a a a :$,$g$g$a a a :$:$a a a a a a a a a a T$:$<%[%9+=%^%",
"}%}%@ D#9 :$,$,$h$g$g$a a a a a a g$g$a a a a a a a a a a a a a a a a a a :$,$,$h$g$g$a :$a a g$a a a T$T$T$T$T$T$T$T$d.|%+ S#@+",
"1%X#a$0+9 :$,$,$h$g$g$a a a a a a a a a a a a a a a a a a a a a a a a a a :$,$,$h$g$g$a :$a a g$T$T$T$T$T$T$T$T$T$T$T$2%~.B#w$w$",
"3%4%< D@`#:$,$,$h$g$g$a a a a a :$a a a a a a a ,$,$a a a a a a a a a :$:$:$,$,$h$g$g$a a g$g$a a ,$,$T$T$T$T$T$a a T$q@a#5%6%b$",
"4%b#]%t $$7%,$,$_$8%T$T$T$T$9%`#`#r r r r r r 0%s s s {%`#`#r S+S+T$:$,$,$:$,$,$g$g$T$T$T$T$T$T$T$:$:$T$T$T$T$T$T$$$;$r D@y.X#a%",
"= } a.W.b%*+$$,$d p c%]$]$^$d%e%P.f%f%P.P.g%'.b%h%i%h%b%r.D@P.e%>$]$0%,$,$,$,$,$_$_$:$j%`#r r 0%s s s s s `#s 0%0%`#>% .]$k%l%= ",
"G ).y.m%W.n%$$t o%e%y.g%'.G.p%q%%$%$%$%$E@G t ^$r%r%^$= G s.X@*+*+G.'.^$k%$$$$$$j%j%0%^$s%e%g%r.r.r.D@D@y.y.y.y.y.K.t%u%'.v%!.= ",
"!.b.G G.'.L.L.X@s.G G G = v%).b.w%w%w%w%w%| !.!.- - - !.!.x%x%x%).).= E@y%d%^$^$^$a.y.'.!%L.z%s.G G G G A%A%B%B%B%E@F B%).| - - "};
