/* XPM */
static char * V2_6_xpm[] = {
"64 64 626 2",
"  	c #051128",
". 	c #040D21",
"+ 	c #040E21",
"@ 	c #040E22",
"# 	c #06122B",
"$ 	c #06122C",
"% 	c #06132C",
"& 	c #06122A",
"* 	c #051129",
"= 	c #01040B",
"- 	c #010205",
"; 	c #050F24",
"> 	c #051126",
", 	c #061228",
"' 	c #06142C",
") 	c #07162F",
"! 	c #081833",
"~ 	c #091934",
"{ 	c #091A36",
"] 	c #0A1A36",
"^ 	c #091935",
"/ 	c #0A1B3A",
"( 	c #091836",
"_ 	c #081733",
": 	c #081632",
"< 	c #061229",
"[ 	c #051228",
"} 	c #02060F",
"| 	c #010207",
"1 	c #071530",
"2 	c #07152F",
"3 	c #051026",
"4 	c #051025",
"5 	c #040F23",
"6 	c #040F24",
"7 	c #051024",
"8 	c #06132A",
"9 	c #0C1E3E",
"0 	c #0B1B3A",
"a 	c #0D1F41",
"b 	c #0F2144",
"c 	c #102449",
"d 	c #11264C",
"e 	c #12274E",
"f 	c #18325F",
"g 	c #17315E",
"h 	c #162F5A",
"i 	c #152D56",
"j 	c #132A52",
"k 	c #12294F",
"l 	c #11274D",
"m 	c #11274C",
"n 	c #11274B",
"o 	c #11264A",
"p 	c #11264B",
"q 	c #10264A",
"r 	c #0D1E3F",
"s 	c #051122",
"t 	c #020815",
"u 	c #142B56",
"v 	c #0F2345",
"w 	c #0E2142",
"x 	c #0D2040",
"y 	c #0C1E3D",
"z 	c #07142D",
"A 	c #07132C",
"B 	c #06132B",
"C 	c #091A35",
"D 	c #0A1A37",
"E 	c #081832",
"F 	c #01050F",
"G 	c #01040C",
"H 	c #06132D",
"I 	c #162D59",
"J 	c #183261",
"K 	c #1A3465",
"L 	c #1B3668",
"M 	c #1C376B",
"N 	c #1C386C",
"O 	c #1D396D",
"P 	c #1C386B",
"Q 	c #1B3669",
"R 	c #1A3566",
"S 	c #193364",
"T 	c #193363",
"U 	c #193262",
"V 	c #204076",
"W 	c #1F3F75",
"X 	c #1F3F74",
"Y 	c #1F3E74",
"Z 	c #193261",
"` 	c #0C1F39",
" .	c #061326",
"..	c #061225",
"+.	c #244687",
"@.	c #1D3B6F",
"#.	c #1C3A6C",
"$.	c #1B3869",
"%.	c #152B55",
"&.	c #142A53",
"*.	c #132851",
"=.	c #12274F",
"-.	c #17315D",
";.	c #12264D",
">.	c #11254B",
",.	c #061427",
"'.	c #020611",
").	c #010309",
"!.	c #010206",
"~.	c #07142E",
"{.	c #0D2041",
"].	c #1B3768",
"^.	c #234681",
"/.	c #203E76",
"(.	c #213F79",
"_.	c #21407A",
":.	c #22417B",
"<.	c #22417C",
"[.	c #214079",
"}.	c #122947",
"|.	c #0A1930",
"1.	c #3059A9",
"2.	c #284D8D",
"3.	c #274C8B",
"4.	c #264B89",
"5.	c #1E3B72",
"6.	c #1E3A70",
"7.	c #1D396E",
"8.	c #1D386C",
"9.	c #0D213C",
"0.	c #091A31",
"a.	c #020713",
"b.	c #010308",
"c.	c #07142F",
"d.	c #102549",
"e.	c #284E8F",
"f.	c #23437E",
"g.	c #23437F",
"h.	c #132B4B",
"i.	c #2B5397",
"j.	c #0B1B33",
"k.	c #335FB2",
"l.	c #2B5396",
"m.	c #2B5296",
"n.	c #2A5295",
"o.	c #22427D",
"p.	c #122A49",
"q.	c #0F2440",
"r.	c #040D1D",
"s.	c #01040D",
"t.	c #21427A",
"u.	c #112745",
"v.	c #0B1D34",
"w.	c #213F78",
"x.	c #0B1D36",
"y.	c #020712",
"z.	c #051127",
"A.	c #1C3769",
"B.	c #203F77",
"C.	c #0B1D35",
"D.	c #22447D",
"E.	c #335FB3",
"F.	c #051022",
"G.	c #020610",
"H.	c #22437C",
"I.	c #23427E",
"J.	c #102744",
"K.	c #050F20",
"L.	c #02050F",
"M.	c #21427B",
"N.	c #132A4A",
"O.	c #102643",
"P.	c #040E1E",
"Q.	c #0F2446",
"R.	c #0B1A32",
"S.	c #0F2541",
"T.	c #0D203A",
"U.	c #122948",
"V.	c #08162B",
"W.	c #040C1B",
"X.	c #01050D",
"Y.	c #071326",
"Z.	c #0A1A31",
"`.	c #081529",
" +	c #040C1A",
".+	c #01030A",
"++	c #561E2F",
"@+	c #451526",
"#+	c #884B2C",
"$+	c #AC3C26",
"%+	c #071529",
"&+	c #030B19",
"*+	c #122852",
"=+	c #264A8E",
"-+	c #315CAD",
";+	c #5E5DAB",
">+	c #8C5A9B",
",+	c #784F90",
"'+	c #791E29",
")+	c #3A5CAC",
"!+	c #3F5FB1",
"~+	c #284D93",
"{+	c #193466",
"]+	c #0A1938",
"^+	c #122751",
"/+	c #264A8D",
"(+	c #295092",
"_+	c #1D3C71",
":+	c #C23526",
"<+	c #CF372B",
"[+	c #0C1E44",
"}+	c #CE5761",
"|+	c #8F6B9D",
"1+	c #142B53",
"2+	c #091937",
"3+	c #0D2141",
"4+	c #295091",
"5+	c #6D385F",
"6+	c #C56832",
"7+	c #17315F",
"8+	c #D84628",
"9+	c #EC500F",
"0+	c #1C3A6E",
"a+	c #193464",
"b+	c #264A88",
"c+	c #214279",
"d+	c #132B53",
"e+	c #07142C",
"f+	c #030A1C",
"g+	c #091834",
"h+	c #18315F",
"i+	c #403461",
"j+	c #263E77",
"k+	c #31264D",
"l+	c #DE5625",
"m+	c #F05D0F",
"n+	c #92232A",
"o+	c #223F78",
"p+	c #2A437F",
"q+	c #D87651",
"r+	c #1A3466",
"s+	c #0E2143",
"t+	c #040E23",
"u+	c #17305D",
"v+	c #A92928",
"w+	c #F2600D",
"x+	c #FF8300",
"y+	c #D65718",
"z+	c #B63616",
"A+	c #602849",
"B+	c #5F3459",
"C+	c #463564",
"D+	c #0E2144",
"E+	c #0A1936",
"F+	c #2F396D",
"G+	c #B6291E",
"H+	c #FFA263",
"I+	c #FEEAD7",
"J+	c #FFBD5A",
"K+	c #FD8203",
"L+	c #D94427",
"M+	c #0F2247",
"N+	c #040E24",
"O+	c #030B1E",
"P+	c #0B1C3B",
"Q+	c #521426",
"R+	c #EEBEB3",
"S+	c #FEF7E7",
"T+	c #FEF8E9",
"U+	c #FEF6E5",
"V+	c #FFBF47",
"W+	c #F06112",
"X+	c #9F2A30",
"Y+	c #203E77",
"Z+	c #0D1F40",
"`+	c #21407B",
" @	c #17305F",
".@	c #CC362B",
"+@	c #F9B39B",
"@@	c #FEEDCC",
"#@	c #FEF9ED",
"$@	c #FEF9EE",
"%@	c #FFDDA2",
"&@	c #F98207",
"*@	c #C83724",
"=@	c #40315E",
"-@	c #826188",
";@	c #3D5595",
">@	c #0F2245",
",@	c #0F2246",
"'@	c #564B7A",
")@	c #DD4517",
"!@	c #F8A72B",
"~@	c #FFDB8B",
"{@	c #FEF1D8",
"]@	c #FFA003",
"^@	c #F27116",
"/@	c #5D1623",
"(@	c #355696",
"_@	c #27437F",
":@	c #1B3567",
"<@	c #995E6B",
"[@	c #451228",
"}@	c #F07018",
"|@	c #FFD35F",
"1@	c #FEF5E2",
"2@	c #FEEDCD",
"3@	c #FFC72F",
"4@	c #FF8500",
"5@	c #DA4411",
"6@	c #463460",
"7@	c #0F2145",
"8@	c #1B366A",
"9@	c #B22C2A",
"0@	c #E3441E",
"a@	c #FF9D06",
"b@	c #FEF3DB",
"c@	c #FEF5DF",
"d@	c #FAD6C6",
"e@	c #EB5801",
"f@	c #9B2830",
"g@	c #203F78",
"h@	c #0E2043",
"i@	c #11264D",
"j@	c #2B3A6F",
"k@	c #B22E26",
"l@	c #F2851D",
"m@	c #FCD16B",
"n@	c #F68B4B",
"o@	c #C83A2D",
"p@	c #59121D",
"q@	c #09172D",
"r@	c #8E755F",
"s@	c #B2AF92",
"t@	c #AFB19E",
"u@	c #B0B19E",
"v@	c #AEAB8D",
"w@	c #ACA072",
"x@	c #574A5E",
"y@	c #18305E",
"z@	c #0C1C3C",
"A@	c #0E233E",
"B@	c #0A1328",
"C@	c #524553",
"D@	c #A0826F",
"E@	c #E7DDAC",
"F@	c #C2A78D",
"G@	c #D1B98A",
"H@	c #685E5D",
"I@	c #332735",
"J@	c #132B4A",
"K@	c #112744",
"L@	c #0A1C34",
"M@	c #040E1D",
"N@	c #01050E",
"O@	c #0E223E",
"P@	c #1E061D",
"Q@	c #27001C",
"R@	c #90352A",
"S@	c #581629",
"T@	c #852F2B",
"U@	c #260119",
"V@	c #30081F",
"W@	c #071428",
"X@	c #290A1C",
"Y@	c #9B3E27",
"Z@	c #D78B34",
"`@	c #994B2A",
" #	c #BA702C",
".#	c #73322F",
"+#	c #2F081F",
"@#	c #08172C",
"##	c #050E1F",
"$#	c #02050E",
"%#	c #183263",
"&#	c #284C92",
"*#	c #315BAD",
"=#	c #274987",
"-#	c #451129",
";#	c #5A2922",
">#	c #D29C50",
",#	c #A96C27",
"'#	c #4F162D",
")#	c #28498E",
"!#	c #2A5194",
"~#	c #244783",
"{#	c #183361",
"]#	c #0A1B38",
"^#	c #132B52",
"/#	c #214179",
"(#	c #AFA179",
"_#	c #534345",
":#	c #7E6051",
"<#	c #191E3E",
"[#	c #244782",
"}#	c #050E24",
"|#	c #1A2C59",
"1#	c #7F685F",
"2#	c #BE8E6C",
"3#	c #494054",
"4#	c #1C2348",
"5#	c #2F061D",
"6#	c #53142C",
"7#	c #280218",
"8#	c #2A5193",
"9#	c #132850",
"0#	c #81581F",
"a#	c #AC5D2F",
"b#	c #571924",
"c#	c #1E3A6F",
"d#	c #132951",
"e#	c #76421D",
"f#	c #B6582B",
"g#	c #0E0017",
"h#	c #1E3B71",
"i#	c #142A54",
"j#	c #081630",
"k#	c #030B1D",
"l#	c #0D213B",
"m#	c #684427",
"n#	c #88462C",
"o#	c #450F24",
"p#	c #22427E",
"q#	c #1F3C72",
"r#	c #081732",
"s#	c #2F0014",
"t#	c #B1512A",
"u#	c #29001B",
"v#	c #162E5A",
"w#	c #D3D7CF",
"x#	c #E3C393",
"y#	c #484059",
"z#	c #1D264C",
"A#	c #142B55",
"B#	c #081631",
"C#	c #0D1F3F",
"D#	c #294F91",
"E#	c #18254D",
"F#	c #79685B",
"G#	c #AD8467",
"H#	c #815E54",
"I#	c #181632",
"J#	c #142952",
"K#	c #030A1B",
"L#	c #020513",
"M#	c #091833",
"N#	c #23427D",
"O#	c #160E2A",
"P#	c #531A2E",
"Q#	c #150720",
"R#	c #223F79",
"S#	c #1D3A6F",
"T#	c #020717",
"U#	c #1D396C",
"V#	c #22407A",
"W#	c #1C3568",
"X#	c #0D182F",
"Y#	c #1D386D",
"Z#	c #102348",
"`#	c #01040F",
" $	c #01030C",
".$	c #203D75",
"+$	c #22427C",
"@$	c #17305E",
"#$	c #020818",
"$$	c #01030B",
"%$	c #030A1D",
"&$	c #051123",
"*$	c #0A1C33",
"=$	c #09182E",
"-$	c #112846",
";$	c #0D1F39",
">$	c #000104",
",$	c #030917",
"'$	c #030A18",
")$	c #040C1C",
"!$	c #071429",
"~$	c #0B1B32",
"{$	c #122949",
"]$	c #061224",
"^$	c #040F20",
"/$	c #030916",
"($	c #000102",
"_$	c #02050D",
":$	c #030814",
"<$	c #09182F",
"[$	c #08152A",
"}$	c #051021",
"|$	c #020814",
"1$	c #030C1E",
"2$	c #102448",
"3$	c #12284E",
"4$	c #051224",
"5$	c #1C386E",
"6$	c #1C396A",
"7$	c #254987",
"8$	c #325EB1",
"9$	c #315CAF",
"0$	c #305BAB",
"a$	c #2F58A6",
"b$	c #1D3A71",
"c$	c #183162",
"d$	c #172F5F",
"e$	c #162F5D",
"f$	c #142A55",
"g$	c #0C1E40",
"h$	c #050F25",
"i$	c #020614",
"j$	c #030B1C",
"k$	c #081934",
"l$	c #0F2346",
"m$	c #11284D",
"n$	c #12284F",
"o$	c #162F5E",
"p$	c #172F5E",
"q$	c #122950",
"r$	c #1A3767",
"s$	c #1F3E73",
"t$	c #23457F",
"u$	c #254986",
"v$	c #264B8A",
"w$	c #274D8D",
"x$	c #335EB2",
"y$	c #274C8A",
"z$	c #254985",
"A$	c #22447E",
"B$	c #09192F",
"C$	c #173060",
"D$	c #01040E",
"E$	c #030919",
"F$	c #081731",
"G$	c #0F2244",
"H$	c #152C56",
"I$	c #162E5B",
"J$	c #183160",
"K$	c #234680",
"L$	c #254885",
"M$	c #254A87",
"N$	c #274D8C",
"O$	c #112847",
"P$	c #122847",
"Q$	c #305AAA",
"R$	c #284E8E",
"S$	c #274C8C",
"T$	c #152C58",
"U$	c #0F2347",
"V$	c #0E2042",
"W$	c #0E2041",
"X$	c #0F2344",
"Y$	c #030A1A",
"Z$	c #020817",
"`$	c #0E1F41",
" %	c #10244A",
".%	c #132952",
"+%	c #142B54",
"@%	c #091B31",
"#%	c #0A1B32",
"$%	c #172E5B",
"%%	c #172F5C",
"&%	c #061123",
"*%	c #061124",
"=%	c #234483",
"-%	c #1C396B",
";%	c #1A3666",
">%	c #193462",
",%	c #11254A",
"'%	c #102347",
")%	c #0E2243",
"!%	c #010510",
"~%	c #050F23",
"{%	c #0A1935",
"]%	c #061325",
"^%	c #061426",
"/%	c #132A51",
"(%	c #132A50",
"_%	c #020510",
":%	c #040D22",
"<%	c #0C1E3F",
"[%	c #030C1B",
"}%	c #010209",
"|%	c #010410",
"1%	c #0C1D3E",
"2%	c #020511",
"3%	c #020512",
"4%	c #0C1D3D",
"5%	c #08152F",
"6%	c #020716",
"7%	c #0A1C39",
"8%	c #030817",
"9%	c #0C1D3C",
"0%	c #030819",
"a%	c #03091A",
"b%	c #030C1F",
"c%	c #020613",
"d%	c #061324",
"e%	c #11284E",
"f%	c #030816",
"g%	c #030815",
"h%	c #030818",
"i%	c #040D1C",
"j%	c #051121",
"k%	c #020714",
"l%	c #040F1F",
"m%	c #0A1A38",
"n%	c #020612",
"o%	c #030D1C",
"p%	c #030D1B",
"q%	c #051223",
"r%	c #020915",
"s%	c #01050C",
"t%	c #030B1A",
"u%	c #030A19",
"v%	c #041020",
"w%	c #030C1A",
"x%	c #030B18",
"y%	c #020813",
"z%	c #051020",
"A%	c #051124",
"B%	c #020916",
"C%	c #01040A",
"D%	c #010208",
"E%	c #010307",
"F%	c #020711",
"G%	c #02040E",
"H%	c #02040C",
"I%	c #02040D",
"      . . . + + @ # # $ % $ # & * * * * * * * * + + * + + = = - * * * + + . . . . * * * * * * * * * * * * * * * . . * . . = = - ",
"* * + @ ; > , ' ) ! ~ { ] ^ ! / ( _ : < < < , [ [ [ [ , < < } | 1 2 3 4 4 ; 5 5 5 5 5 5 5 5 5 # # # % 5 5 6 5 5 5 5 5 5 @ + = - ",
"* 7 8 ~ 9 0 a b c d e e f g h i j k l l m m n o p q n p r s s t u v w x y 2 z A B B B % { C ^ ^ ^ ^ C { ] D ] { ^ ~ ~ E 3 F G - ",
"H ~ q f I J K L M N O O O O P Q R S T U V W W X Y X Z U `  .....+.@.#.$.%.&.*.=.e e e e =.e e e e e e =.f f f f -.-.;.>.,.'.).!.",
"~.{.].^./.(._.:.<.<.<.<.<.<.<.:._.[.[.[._.[.[.[.(.[.[.[.}.}.|.|.1.2.3.4.5.6.7.O O O O O O O O O O O O O O O 7.O O 8.N N 9.0.a.b.",
"c.d.X e.f.g.g.g.h.g.g.g.g.g.g.g.g.i.i.i.g.g.g.g.g.g.g.g.g.h.j.j.k.l.m.n.o.o.<.<.p.p.p.<.<.<.<.<.<.<.p.p.p.<.<.<.<.<.<.<._.q.r.s.",
"3 d.t.<.g.g.g.g.g.i.g.g.g.g.g.g.i.g.g.g.h.g.g.g.g.g.g.g.g.h.h.j.i.i.i.g.g.g.g.h.g.g.g.h.h.g.g.g.g.g.h.g.g.g.g.g.g.g.g.g.f.u.v.'.",
"3 p L <.g.g.g.g.g.g.g.g.g.g.g.i.g.g.g.g.h.g.g.g.g.g.g.g.g.g.h.j.i.i.g.g.g.g.g.h.g.g.g.g.h.g.g.g.g.g.g.g.g.i.g.g.g.g.g.g.g.w.x.y.",
"z.l A.<.g.g.g.g.g.g.g.g.g.g.g.g.g.g.h.h.h.g.g.g.g.g.g.g.g.g.h.j.i.i.g.g.g.g.g.h.i.i.i.i.g.g.g.g.g.g.i.i.i.i.g.g.g.g.g.g.g.B.C.'.",
"2 l D.<.g.g.g.g.g.g.g.g.g.g.g.g.h.h.g.g.g.g.g.g.g.g.g.g.g.h.j.j.E.i.i.g.g.g.g.g.g.i.i.i.g.g.g.g.g.g.g.g.g.g.g.g.g.g.g.g.f.u.F.G.",
"c.p H.<.g.g.g.g.g.j.j.j.g.g.g.g.g.g.g.g.g.g.g.g.g.g.g.g.g.h.j.j.E.i.i.g.g.g.g.g.g.g.g.g.g.g.g.g.g.g.g.g.g.g.g.g.g.g.g.g.I.J.K.L.",
"~.d.M.<.g.g.g.j.j.h.h.h.g.g.g.g.h.g.g.g.h.g.g.g.g.g.g.h.h.h.j.j.E.i.i.g.g.g.g.g.g.g.h.h.h.g.g.g.g.g.g.g.h.j.h.h.g.g.g.h.N.O.P.s.",
"7 Q.K :.g.g.g.j.h.h.g.g.g.g.g.g.h.g.g.h.h.h.g.j.j.j.h.j.j.h.j.j.i.i.g.g.g.j.j.j.g.h.h.h.h.g.g.g.g.g.g.j.j.h.h.h.g.g.h.j.R.S.r.G ",
"; v T.U.h.g.j.h.g.g.g.h.h.h.h.h.h.h.h.h.h.h.h.j.j.j.j.j.j.j.j.j.i.i.h.h.j.j.j.g.h.h.h.h.h.h.h.h.h.h.h.j.h.h.h.h.h.h.j.j.R.V.W.= ",
"X.P.Y.Z.h.h.j.h.h.h.h.h.j.j.j.j.j.h.h.j.j.j.j.j.j.j.j.j.j.j.j.j.h.h.j.j.j.j.h.h.h.h.h.h.j.j.j.j.j.h.h.j.j.j.j.h.h.j.j.j.Z.`. +.+",
"!.y.Y.Z.j.j.j.j.j.j.j.j.j.j.j.j.j.j.j.j.j.j.j.j.j.j.j.j.j.j.++@+#+$+j.j.j.j.j.j.j.j.j.j.j.j.j.j.j.j.j.j.j.j.j.j.j.j.j.j.Z.%+&+.+",
"% *+=+-+E.E.E.E.i.i.E.i.i.h.h.j.E.E.E.i.i.i.i.i.i.E.E.E.;+>+,+'+)+!+E.E.E.E.E.E.i.i.E.i.i.h.h.j.E.E.E.i.i.i.i.i.i.E.E.E.-+~+{+]+",
"% ^+/+(+i.i.i.i.i.i.i.i.i.i.h.j.E.E.i.i.i.i.i.i.i.i.i.i.i._+:+<+[+}+|+i.i.i.i.i.i.i.i.i.i.i.h.j.E.E.i.i.i.i.i.i.i.i.i.i.(+M.1+2+",
"5 3+Y 4+i.i.i.i.i.i.i.i.g.h.h.j.E.i.i.i.i.g.g.g.g.g.g.5+6+7+8+9+0+a+b+i.i.i.i.i.i.i.i.i.g.h.h.j.E.i.i.i.i.g.g.g.g.g.g.g.4+c+d+e+",
"f+g+h+_.i.i.i.i.i.i.g.g.h.j.j.j.E.i.i.i.g.g.g.g.g.g.g.i+j+k+l+m+n+o+I.p+q+i.i.i.i.i.g.g.h.j.j.j.E.i.i.i.g.g.g.g.g.g.g.g._.r+s+t+",
"f+g+u+(.g.g.g.g.g.g.g.g.h.h.j.j.E.i.i.i.g.g.g.g.g.g.g.g.w.v+w+x+y+z+A+B+C+g.g.g.g.g.g.g.h.h.j.j.E.i.i.i.g.g.g.g.h.g.g.g._.K D+t+",
"f+E+h+[.g.g.g.g.g.g.g.g.g.h.j.j.E.i.i.i.g.g.g.g.h.h.g.g.F+G+H+I+J+K+L+M+g.g.g.g.g.g.g.g.g.h.j.j.E.i.i.i.g.g.g.g.g.i.g.g._.R D+N+",
"O+P+Z [.g.g.g.g.g.h.g.g.g.h.h.j.i.i.i.g.g.g.g.h.g.g.i.g.Q+R+S+T+U+V+W+X+Y+g.g.g.g.g.g.g.g.h.h.j.i.i.i.g.g.g.g.g.g.g.g.g._.R b ; ",
". Z+r+`+g.g.g.g.g.g.i.g.g.g.h.j.i.i.g.g.g.g.g.h.g.g.i. @.@+@@@#@$@%@&@*@=@-@;@g.g.g.g.g.g.g.h.j.i.i.g.g.g.g.g.g.g.g.g.g._.R >@; ",
"; ,@L :.g.g.g.g.g.g.g.g.g.g.h.j.i.i.g.g.g.g.g.g.i.i.'@S )@!@~@#@#@{@]@^@/@(@_@h.g.g.g.g.g.g.h.j.i.i.g.g.g.g.g.g.g.g.g.g.`+:@>@; ",
"z.c M <.g.g.g.g.g.g.g.g.g.h.j.j.E.i.i.g.g.g.g.g.g.g.<@g.[@}@|@1@2@3@4@5@6@g.h.h.g.g.g.g.g.h.j.j.E.i.i.g.g.g.g.g.g.g.g.g._.R 7@; ",
"< >.P <.g.g.g.g.g.g.g.g.g.h.j.j.E.i.i.g.g.g.g.g.g.g.g.8@9@0@a@b@c@d@e@f@g@g.g.g.g.g.g.g.g.h.j.j.E.i.i.g.g.g.g.g.g.g.g.g._.K h@t+",
"& i@8.<.g.g.g.g.g.g.g.h.h.h.j.j.E.i.i.g.g.g.g.g.g.g.g.g.j@k@l@m@n@o@p@g@g.g.g.g.g.g.g.h.h.h.j.j.E.i.i.g.g.g.g.g.g.g.g.g.[.U r @ ",
"& d N <.h.h.g.g.g.g.h.j.j.h.j.j.i.i.g.g.g.g.g.g.g.g.h.q@r@s@t@u@v@w@x@g.h.j.j.j.g.g.h.j.j.h.j.j.i.i.g.g.g.g.g.g.g.g.j.h.Y+y@z@. ",
"t >.A@p.h.h.h.h.h.h.j.j.j.j.j.j.i.i.h.h.h.g.g.g.g.h.j.B@C@D@E@F@G@H@I@h.j.j.h.h.h.h.j.j.j.j.j.j.i.i.h.h.h.g.g.g.j.j.h.J@K@L@M@N@",
"= %+O@Z.j.j.j.h.h.j.j.j.j.j.j.j.h.h.j.j.h.h.h.h.h.h.j.h.P@Q@R@S@T@U@V@j.j.h.h.h.h.j.j.j.j.j.j.j.h.h.j.j.h.h.h.j.j.h.h.N.q@K.G.!.",
".+&+W@Z.j.j.j.j.j.j.j.j.j.j.j.j.j.j.j.j.j.j.j.j.j.j.j.j.X@Y@Z@`@ #.#+#j.j.j.j.j.j.j.j.j.j.j.j.j.j.j.j.j.j.j.j.j.j.j.j.R.@###$#!.",
"z %#&#*#E.E.E.E.E.h.h.g.E.E.E.E.i.i.E.i.i.h.h.j.E.E.E.i.=#-#;#>#,#'#)#E.E.E.E.E.E.E.E.E.E.E.E.E.i.i.E.i.i.h.h.j.E.E.E.!#~#{#]#6 ",
"' ^#/#4+i.i.i.E.h.g.g.g.i.i.i.i.i.i.i.i.i.i.h.j.E.E.i.i.i.u+(#_#:#<#i.i.i.i.i.E.E.E.E.i.i.i.i.i.i.i.i.i.i.i.h.j.E.E.i.!#[#f ] 5 ",
"}#D+R _.i.i.i.i.h.g.g.i.i.i.i.i.i.i.i.i.g.h.h.j.E.i.i.i.i.|#1#2#3#4#g.g.i.i.i.i.i.i.i.i.i.i.i.i.i.i.i.i.g.h.h.j.E.i.i.!#[#=.% f+",
"; b R _.g.g.g.h.g.g.g.g.i.i.i.i.i.i.g.g.h.j.j.j.E.i.i.i.g.g.5#6#7#<.g.g.g.g.g.g.g.g.g.g.i.i.i.i.i.i.g.g.h.j.j.j.E.i.i.8#O 9#A f+",
"; >@R _.g.g.g.h.g.g.g.i.g.g.g.g.g.g.g.g.h.h.j.j.E.i.i.i.g.g.0#a#b#<.g.g.g.h.h.h.g.g.g.g.g.g.g.g.g.g.h.h.h.h.j.j.E.i.i.!#c#d#~.f+",
"; >@:@`+g.g.g.g.g.i.i.g.g.g.g.g.g.g.g.g.g.h.j.j.E.i.i.i.g.g.e#f#g#<.g.g.h.g.g.g.g.g.g.g.g.g.g.g.g.h.h.g.g.h.j.j.E.i.i.n.h#i#j#k#",
"; >@l#U.g.g.g.g.g.g.g.g.g.g.g.g.g.g.g.g.g.h.h.j.i.i.i.g.g.g.m#n#o#<.g.g.h.g.g.g.i.g.g.g.g.g.g.g.h.h.g.g.g.h.h.j.i.i.i.p#q#%.r#O+",
";  .R _.i.g.g.g.g.g.g.g.g.g.g.g.g.g.g.g.g.g.h.j.i.i.g.g.g.h.s#t#u#<.g.g.g.i.i.i.i.g.g.g.g.g.g.h.h.g.g.g.g.g.h.j.i.i.g.I.q#%._ O+",
"@ ..K _.i.g.g.g.g.g.g.g.g.g.g.g.g.g.g.g.g.g.h.j.i.i.g.g.g.v#w#x#y#z#g.g.g.g.g.g.g.g.g.g.g.g.g.h.g.g.g.g.g.g.h.j.i.i.g.o.h#A#B#k#",
"k#C#V D#g.g.g.g.g.g.g.g.g.g.g.g.g.g.g.g.g.h.j.j.E.i.i.g.g.E#F#G#H#I#g.g.g.g.g.g.g.g.g.g.g.g.g.h.g.g.g.g.g.h.j.j.E.i.i.o.6.J#2 K#",
"L#M#u+(.g.g.g.g.g.g.g.g.g.g.g.g.g.g.g.g.g.h.j.j.E.i.i.g.g.N#O#P#Q#R#g.g.g.g.g.g.g.g.g.g.g.g.g.h.g.g.g.g.g.h.j.j.E.i.i.<.S#*.& T#",
"s.t+c U#<.f.g.g.g.g.j.j.j.g.g.g.g.g.g.h.h.h.j.j.E.i.i.g.g.g.V#W#X#j.j.g.g.g.g.g.g.g.j.j.j.g.h.h.i.g.g.h.h.h.j.j.E.i.i.o.Y#Z#. `#",
" $k#^ 9#:@.$+$f.j.h.h.h.h.h.g.g.g.g.h.j.j.h.j.j.i.i.g.g.g.g.g.j.h.h.h.g.g.g.g.g.g.j.h.h.h.h.g.g.i.i.i.j.j.h.j.j.i.i.f.g@@$E+#$$$",
" $%$j#&$%+*$A@=$Z.N.h.h.h.h.h.h.j.j.j.j.j.j.j.j.i.i.h.h.h.g.j.j.h.h.h.h.h.h.h.h.j.h.h.h.h.h.h.h.h.h.i.j.j.j.j.j.i.n.-$;$ .% T#$$",
">$G &+F.,$'$)$F.!$O.U.~$j.j.j.h.h.j.j.j.j.j.j.j.h.h.j.j.h.h.j.h.h.h.h.h.j.j.j.j.j.h.h.j.j.j.j.h.h.j.j.j.j.j.j.j.{$O.]$&+^$/$.+>$",
"($- _$:$/$/$,$'$)$F.W@q@Z.~$j.j.j.j.j.j.j.j.j.j.j.j.j.j.j.j.j.j.j.j.j.j.j.j.j.j.j.j.j.j.j.j.j.j.j.j.j.j.j.R.Z.<$[$}$&+/$|$G - ($",
"`#1$a 2$3$4$4$,$ @%#5$6$t.7$e.!#m.k.k.k.E.E.E.E.E.E.E.E.E.E.E.E.i.i.E.i.i.h.h.j.E.E.E.i.i.i.i.i.m.8$9$0$a$S.L x.b$c$d$e$f$g$h$i$",
"`#j$k$l$m$n$4$/$o$p$q$d+h r$s$t$u$v$w$e.(+!#n.8$8$x$x$m.m.m.m.m.m.m.m.l.i.i.h.j.E.E.i.i.m.n.(+e.y$z$A$V L@B$d ,@C$p$o$m$l$! j$`#",
"D$E$F$G$Z+4$4$/$o$n$n$n$k D+Z#;.J#H$I$J$t.K$L$M$4.v$y$3.3.3.3.3.3.3.N$w$B.O$P$|.Q$R$S$4.L$M K @$T$d#d U$ .V$V$W$n$n$n$l X$F$Y$D$",
"s.Z$3 E+&$/$/$/$o$n$n$n$a `$W$V$h@D+7@U$ %e .%+%@%#%*$v##.#.#.#.#.#.$%%%C.&%*%*%=%-%;%>%e ,%'%>@s+V$W$W$4$a a a n$a a r )%) #$s.",
").!%~%{%&$4$/$/$o$n$n$n$a a a a a 4$4$4$W$V$V$s+]%D+b ^#b b b b b b b >@ .^%'$'$%#/%(%q$V$W$W$`$`$a a a 4$a a n$a a a r E+~%_%).",
").`#:%g+r 4$/$/$o$n$n$n$a a a 4$4$a a a 4$a a 4$`$`$`$n$`$`$4$4$`$`$`$`$`$4$/$/$o$n$n$n$a a a a a a a a a a n$a a a a r g+. `#).",
"$$`#. g+<%4$4$/$n$n$n$a a a 4$4$a a a a n$a a 4$a n$n$n$a a 4$a n$a a a a 4$4$/$n$n$n$a a a a 4$a a a a a a a a a a a s [%L.s.}%",
"D$|%. g+9 a 4$/$n$n$a a a a 4$a a a a n$n$a a a a a a a a 4$a a n$a a a a a 4$/$n$n$a a a a a a n$a a a a a a a a a 4$1%j#k#2%}%",
"L#3%. ! 9 a 4$/$n$n$a a a a a 4$4$a n$n$a a a a a a a a a a a n$n$a a a a a 4$/$n$n$a a a 4$4$a a a a a a a a a a `$4$4%5%f+!%}%",
"6%6%@ M#9 4$/$/$o$n$n$a a a a a a n$n$a a a a a a a a a a a a a a a a a a 4$/$/$o$n$n$a 4$a a n$a a a `$`$`$`$`$`$`$`$d.7%+  $.+",
"8%#$h$g+9 4$/$/$o$n$n$a a a a a a a a a a a a a a a a a a a a a a a a a a 4$/$/$o$n$n$a 4$a a n$`$`$`$`$`$`$`$`$`$`$`$9%~.K#D$D$",
"0%a%< M@&$4$/$/$o$n$n$a a a a a 4$a a a a a a a /$/$a a a a a a a a a 4$4$4$/$/$o$n$n$a a n$n$a a /$/$`$`$`$`$`$a a `$z@j#b%c%i$",
"a%k#[%t ,$d%/$/$3$e%`$`$`$`$f%&$&$r r r r r r g%s s s <%&$&$r Z+Z+`$4$/$/$4$/$/$n$n$`$`$`$`$`$`$`$4$4$`$`$`$`$`$`$,$]$r M@y.#$h%",
"= } a.W.i%&+,$/$d p j%}$}$|$k%l%P.m%m%P.P.n%'.i%o%p%o%i%r.M@P.l%^$}$g%/$/$/$/$/$3$3$4$q%&$r r g%s s s s s &$s g%g%&$]% .}$r%s%= ",
"G ).y.t%W.u%,$t v%l%y.n%'.G.w%x%'$'$'$'$N@G t |$y%y%|$= G s.$#&+&+G.'.|$r%,$,$,$q%q%g%|$z%l%n%r.r.r.M@M@y.y.y.y.y.K.A%B%'.C%!.= ",
"!.b.G G.'.L.L.$#s.G G G = C%).b.D%D%D%D%D%| !.!.- - - !.!.E%E%E%).).= N@F%k%|$|$|$a.y.'._%L.G%s.G G G G H%H%I%I%I%N@F I%).| - - "};
