/* XPM */
static char *_f5ea710c5f94f5af26a47814a6ef64btnipDZG133H9HztE[] = {
/* columns rows colors chars-per-pixel */
"64 64 186 2 ",
"   c #000000",
".  c #0A0B0B",
"X  c #020614",
"o  c #070C11",
"O  c #090E13",
"+  c #040E1E",
"@  c #0E151B",
"#  c #131414",
"$  c #161817",
"%  c #10171E",
"&  c #1A1C1B",
"*  c #1E201F",
"=  c #07162A",
"-  c #161D25",
";  c #191F26",
":  c #171F2E",
">  c #091733",
",  c #0B1B33",
"<  c #0C1C3A",
"1  c #101E35",
"2  c #1D2124",
"3  c #172129",
"4  c #1B242C",
"5  c #1C2734",
"6  c #1E2932",
"7  c #19263B",
"8  c #242626",
"9  c #262928",
"0  c #292C2B",
"q  c #2D302F",
"w  c #222C36",
"e  c #222E39",
"r  c #2D3032",
"t  c #24313C",
"y  c #2B353E",
"u  c #333635",
"i  c #353837",
"p  c #37393B",
"a  c #3B3F3E",
"s  c #0F2446",
"d  c #1D2740",
"f  c #1E2943",
"g  c #102449",
"h  c #132B4B",
"j  c #192B49",
"k  c #142A53",
"l  c #1E3358",
"z  c #212C43",
"x  c #273540",
"c  c #283642",
"v  c #2B3844",
"b  c #23334D",
"n  c #283649",
"m  c #2D3B48",
"M  c #3D3F41",
"N  c #313E4A",
"B  c #273A58",
"V  c #1D3667",
"C  c #1D3A6D",
"Z  c #1E3A70",
"A  c #253C63",
"S  c #293F65",
"D  c #243E6D",
"F  c #283F6A",
"G  c #213E75",
"H  c #3D4144",
"J  c #33414E",
"K  c #354453",
"L  c #3A4654",
"P  c #374857",
"I  c #394957",
"U  c #34465F",
"Y  c #374958",
"T  c #3A4C5C",
"R  c #3E505F",
"E  c #2A426B",
"W  c #394D61",
"Q  c #384F6C",
"!  c #3F5162",
"~  c #3E536C",
"^  c #254276",
"/  c #284173",
"(  c #23437F",
")  c #29467A",
"_  c #2D497D",
"`  c #344D72",
"'  c #355078",
"]  c #3A537B",
"[  c #424546",
"{  c #444749",
"}  c #474A4C",
"|  c #494B4D",
" . c #4C4E51",
".. c #484F58",
"X. c #4E5153",
"o. c #43515E",
"O. c #515456",
"+. c #545759",
"@. c #565A5C",
"#. c #595C5E",
"$. c #425464",
"%. c #495765",
"&. c #4B5867",
"*. c #445769",
"=. c #45596B",
"-. c #485B6D",
";. c #535D65",
":. c #5A5E62",
">. c #525E6E",
",. c #465B72",
"<. c #485D70",
"1. c #405A7F",
"2. c #5D6163",
"3. c #4C6275",
"4. c #4E6578",
"5. c #516679",
"6. c #52697D",
"7. c #5A6A78",
"8. c #616567",
"9. c #636769",
"0. c #666A6C",
"q. c #686B6F",
"w. c #656B73",
"e. c #6B6E71",
"r. c #6C7073",
"t. c #707577",
"y. c #717578",
"u. c #74787C",
"i. c #787C7F",
"p. c #2D4A82",
"a. c #274B89",
"s. c #3B5381",
"d. c #2B5397",
"f. c #325797",
"g. c #3D5D99",
"h. c #325CAD",
"j. c #335FB3",
"k. c #49658B",
"l. c #4A668A",
"z. c #546D81",
"x. c #596F83",
"c. c #567185",
"v. c #5A7285",
"b. c #5A748A",
"n. c #5C788E",
"m. c #4C6995",
"M. c #506D91",
"N. c #7A7E82",
"B. c #637D93",
"V. c #7D8185",
"C. c #678097",
"Z. c #688095",
"A. c #7E8893",
"S. c #818689",
"D. c #868B8E",
"F. c #8A8F92",
"G. c #8D9296",
"H. c #8F9498",
"J. c #909497",
"K. c #92969B",
"L. c #95999D",
"P. c #989B9F",
"I. c #979CA0",
"U. c #999DA2",
"Y. c #9EA2A7",
"T. c #9FA3A8",
"R. c #A1A6AB",
"E. c #A5A9AE",
"W. c #A7ABB1",
"Q. c #AAADB3",
"!. c #AEB1B5",
"~. c #AFB2B8",
"^. c #B0B3B7",
"/. c #B2B5BB",
"(. c #B2B5BC",
"). c #B5B9BE",
"_. c #B8BBBF",
"`. c #BABDC2",
"'. c #C1C4CA",
"]. c #C6C8CC",
"[. c #C9CBCE",
"{. c #CED0D4",
"}. c #D1D2D7",
"|. c #D5D7DA",
" X c #DADBDF",
".X c #DDDEE2",
/* pixels */
"j.j.j.d.d.d.d.d.d.j.j.j.j.j.j.j.j.j.j.j.j.j.j.j.d.d.j.d.d.h h , j.j.j.d.d.d.d.d.d.j.j.j.j.j.j.j.j.j.j.j.j.j.j.j.d.d.j.d.d.h h , ",
"j.j.d.d.d.d.d.d.d.d.d.d.d.d.d.j.j.j.j.d.d.a.p.^ E l.1.1.1.1.! W m.m.l.M.l.l.] A E l S C d.d.d.j.j.j.j.d.d.d.d.d.d.d.d.d.d.d.h , ",
"j.d.d.d.d.( ( ( ( ( ( ( d.d.d.d.d.f.) Q T ! 6.3.-.T <.<.<.<.<.<.<.c m <.6 m I <.<.*.6.W ' ` 1.g.d.d.d.d.d.d.d.d.d.d.d.d.( h h , ",
"j.d.d.d.( ( ( ( ( ( ( ( ( ( ( ) ` <.6.n.n.b.3.6.c 6 <.<.<.<.<.<.<.=.v I T <.<.I % n.n.n.n.z.m S ( ( ( ( d.d.d.d.d.d.( ( h , , , ",
"j.d.d.d.( ( ( ( ( ( ( ( ( E > $.b.n.n.n.n.v $.b.z.O K <.<.<.<.<.<.<.=.<.<.<.T % 3.n.n.n.Y K c.T k Z ( ( ( ( ( ( ( ( ( ( h h , , ",
"j.d.d.d.( ( ( ( h ( ( G ~ <.T - z.n.n.n.o.P z.b.n.z.x =.<.$.$.<.<.<.3.=.c =.I c z.n.4.c c n.n.n.n.n.=.7 h ( ( ( ( ( ( ( ( h , , ",
"d.d.d.( ( ( ( ( ( d.F ! <.<.<.T =.n.n.n.n.c.T 6.n.c.m v I % e I T ! 5.T =.J T n.n.n.n.n.n.n.n.n.n.<.! ! ,.^ ( ( ( ( ( ( ( h h , ",
"d.d.( ( ( ( ( ( s.W <.<.<.<.<.<.6 *.n.n.n.n.n.n.n.n.b.L   T $.I I 3 T $.<.6 6.n.n.n.n.n.*.n.n.n.*.- ! <.<.=.F ( ( ( ( ( ( ( h , ",
"d.d.( ( ( ( ( D T <.<.<.<.<.<.<.$.@ *.C.T c c c c n.n.v.t <.<.<.<.$.*.<.v z.n.n.n.n.4.c 4.n.n.*.@ $.T T <.<.I g ( ( ( ( ( ( h , ",
"j.d.d.( ( ( D T <.<.<.<.<.<.<.<.<.$.4 w z.n.n.n.n.n.n.n.Y 6 <.<.<.<.3.6.P n.n.n.I c *.n.n.n.3.- $.<.<.<.<.<.T 6 ~ _ ( ( ( h , , ",
"j.d.d.( ( C m <.<.<.<.<.<.<.<.<.T %.:.#.#.#.#.#.#.#.#.#.#.#.#.#.#.#.#.#.#.#.#.#.#.#.#.#.#.#.} m $.<.$.$.<.<.<.<.<.$.V ( ( h , , ",
"j.d.d.( / ! 4 ! <.<.<.<.<.<.5.;.2.i.G.H.H.U.[.H.H.H.H.H.H.H.H.Y.).U.H.H.H.H.H.H.H./.Q.H.H.H.D.y.H T I I <.<.<.<.<.$.% b h h , , ",
"d.d.( ] X b.z.T 6 <.<.<.<.J } S.H.H.H.H.H.D.(.R.H.H.H.H.H.H.H.F./.T.H.H.H.H.H.H.S././.U.H.H.H.H.H.S.O.P <.<.<.<.<.r P m , h , , ",
"d.d.h 7 z.K c.n.Y 4 *.<.I   +.2.2.2.2.2.2.#.[ 2.2.2.2.2.2.2.2.O.a +.2.2.2.2.2.2.2.a { 2.2.2.2.2.2.2.p w <.<.=.c & P =.4.n , , , ",
"h h , <.n.c.$.z.n.K e P o 8 p p p p { F.F.N.# p p p 8 N.F.F.2.p p p p u r.F.F.{ p p p 8 q.F.F.#.p p a 9 N =.v m T =.3.n.b.1 , , ",
", , e z.n.n.z.z.n.b.I p } 8 a a a a } H.H.S.# a a a 8 S.H.H.9.a a a a i i.H.H.} a a a 8 r.H.H.2.a a a 0 0.v m z.n.4.n.n.n.5 , , ",
"j.j.] n.n.n.n.n.n.n.H V.2.8 a a a a } H.H.S.# a a a 8 S.H.H.9.a a a a i i.H.H.} a a a 8 r.H.H.2.a a a 9 F.8.7.n.n.n.n.n.n.l.j.j.",
"j.h.n.n.n.x.y -.c.v.2.H.2.8 a a a a } H.H.S.# a a a 8 S.H.H.9.a a a a i i.H.H.} a a a 8 r.H.H.2.a a a 9 G.S.  n.c.c.c.b.n.z.( j.",
"d._ n.n.n.n.n.-.K o.N.H.2.8 a a a a } H.H.S.# a a a 8 S.H.H.9.a a a a i i.H.H.} a a a 8 r.H.H.2.a a a 0 G.G.+.A.T K K 4.n.c.B d.",
"( l =.=.=.=.=.=.&.[ G.H.2.8 a a a a } H.H.S.# a a a 8 S.H.H.9.a a a a i u.H.H.} a a a 8 r.H.H.2.a a a 0 G.H.e.  R =.=.=.=.=.U ( ",
"p.X               [ G.H.2.8 a a a a } H.H.S.# a a a 8 S.H.H.9.a a a a i u.H.H.} a a a 8 e.H.H.2.a a a 9 G.H.G.              < ( ",
"%.z.z.P . . . $.6.{ 2.2.2.2.2.2.2.2.2.2.2.2.2.2.2.2.2.2.2.2.2.2.2.2.2.2.2.2.2.2.2.2.2.2.2.2.2.2.2.2.q.2.2.2.2.P z.z.z.z.z.z.z.U ",
"%.  3 c z.n.n.*.<.e.H.H.Y.].).H.H.H.H.H.H.U.}.T.H.H.H.H.H.H.H.K.|.!.H.H.H.H.H.H.H.].|.P.H.H.H.H.H.H._.[.H.H.H.K t c c c c t z.P ",
"K %.3.n.n.n.n.n.$.e.H.H.V.Y.P.H.H.H.H.H.H.D.Q.H.H.H.H.H.H.H.H.N.W.Y.H.H.H.H.H.H.H.Y.W.H.H.H.H.H.H.F.F.U.H.H.H.v R n.n.n.n.P     ",
"&.B.n.n.n.n.n.n.b.{ 2.2.2.2.2.2.2.2.2.2.2.2.2.2.2.2.2.2.2.2.2.2.2.2.2.2.2.2.2.2.2.2.2.2.2.2.2.2.2.2.2.2.2.2.2.$.n.n.n.n.n.b.<.m ",
"%.n.n.n.n.n.n.n.b.e.H.H.2.8 a a a a } H.H.S.# a a a 8 S.H.H.9.a a a a i i.H.H.} a a a 8 e.H.H.2.a a a 0 G.H.H.T n.n.n.n.n.n.n.T ",
"%.z.z.z.z.z.z.z.5.e.H.H.2.8 a a a a } H.H.S.# a a a 8 S.H.H.9.a a a a i u.H.H.} a a a 8 r.H.H.2.a a a 0 G.H.H.K z.z.z.z.z.z.z.P ",
">.                e.H.H.2.8 a a a a } H.H.S.# a a a 8 S.H.H.9.a a a a i u.H.H.} a a a 8 r.H.H.2.a a a 9 G.H.H.                  ",
">.I I I =.  e I P e.H.H.2.8 a a a a } H.H.S.# a a a 8 S.H.H.9.a a a a i u.H.H.} a a a 8 r.H.H.2.a a a 0 G.H.H.e I T I v I I I e ",
"..<.<.6.I =.=.6 4.e.H.H.2.8 a a a a } H.H.S.# a a a 8 S.H.H.9.a a a a i u.H.H.} a a a 8 r.H.H.2.a a a 0 G.H.H.m <.w 6 - $.<.<.m ",
"w.<.=.x 4 <.<.<.=.e.H.H.2.8 a a a a } H.H.S.# a a a 8 S.H.H.9.a a a a i u.H.H.} a a a 8 r.H.H.2.a a a 0 G.H.H.% 6 <.<.K O <.<.m ",
"$.<.! 4 J <.<.<.=.e.H.H.2.8 a a a a } H.H.S.# a a a 8 S.H.H.9.a a a a i u.H.H.} a a a 8 r.H.H.2.a a a 0 G.H.H.m <.<.<.4.e T <.m ",
"$.<.<.! I <.<.<.=.+.y.y.| & q q q q p y.y.0.. q q q & q.y.y.X.q q q q 0 :.y.y.p q q q & +.y.y.| q q q 2 t.y.y.m <.3.<.=.! T <.m ",
"$.<.<.<.<.<.<.<.=.2.S.S.S.S.S.S.S.S.S.S.S.S.S.S.S.S.S.S.S.S.S.S.S.S.S.S.S.S.S.S.S.S.S.S.S.S.S.S.S.S.S.S.S.S.S.m <.<.<.=.<.<.<.m ",
"o.$.$.$.$.$.$.$.! e.H.H.U.{.^.H.H.H.H.H.H.U..XU.H.H.H.H.H.H.H.K. X^.H.H.H.H.H.H.H.{. XL.H.H.H.H.H.H.{.[.H.H.H.c $.$.$.$.$.$.$.c ",
"K T T T T T T T I e.H.H.D.T.L.H.H.H.H.H.H.F.R.H.H.H.H.H.H.H.H.D.K.I.H.H.H.H.H.H.H.G.Y.L.H.H.H.H.H.G.P.U.H.H.H.t T T T T T T T t ",
"L n.n.3.c.n.n.n.b.[ #.#.p # 8 8 8 8 0 #.#.X.. 8 8 8 # O.#.#.M 8 8 8 8 * } #.#.0 8 8 8 # [ #.#.p 8 8 8 $ #.#.#.T n.n.n.n.n.n.n.T ",
"K J v =.b.B.B.n.b.e.H.H.2.8 a a a a } H.H.S.# a a a 8 S.H.H.9.a a a a i i.H.H.} a a a 8 r.H.H.2.a a a 0 G.H.H.T n.n.4.v v I n.T ",
"K n.b.n.n.n.n.n.b.e.H.H.2.8 a a a a } H.H.S.# a a a 8 S.H.H.9.a a a a i i.H.H.} a a a 8 r.H.H.2.a a a 0 G.H.H.T n.n.n.b.b.z.y 3 ",
"n n.n.n.n.n.n.n.b.e.H.H.2.8 a a a a } H.H.S.# a a a 8 S.H.H.9.a a a a i i.H.H.} a a a 8 r.H.H.2.a a a 0 G.H.H.T n.n.n.n.n.n.n.T ",
"f n.n.n.n.n.n.n.b.e.H.H.2.8 a a a a } H.H.S.# a a a 8 S.H.H.9.a a a a i i.H.H.} a a a 8 r.H.H.2.a a a 0 G.H.H.T n.n.n.n.n.n.n.T ",
"7 n.n.n.n.n.n.n.b.e.H.H.2.8 a a a a } H.H.S.# a a a 8 S.H.H.9.a a a a i i.H.H.} a a a 8 r.H.H.2.a a a 0 G.H.H.T n.n.n.n.n.n.n.T ",
"< y y y y y y y y e.H.H.2.8 a a a a } H.H.S.# a a a 8 S.H.H.9.a a a a i u.H.H.} a a a 8 r.H.H.2.a a a 9 G.H.H.; y y y y y y y 3 ",
"< <.<.<.<.<.<.<.=.8.D.D.q.O.#.#.#.#.2.D.D.N.X.#.#.#.O.V.D.D.e.#.#.#.#.@.u.D.D.2.#.#.#.O.r.D.D.q.#.#.#.O.D.D.D.m <.<.<.<.<.<.<.m ",
"< <.<.<.<.<.<.<.=.q.F.F.F.).U.F.F.F.F.F.F.K.~.G.F.F.F.F.F.F.F.F.E.G.F.F.F.F.F.F.F.W.U.G.F.F.F.F.F.F.W.E.F.F.F.m <.<.<.<.<.<.<.m ",
"< K <.<.<.<.<.<.=.e.H.H.D.E.W.H.H.H.H.H.H.S.E.Y.H.H.H.H.H.H.H.F.`.T.H.H.H.H.H.H.D.!.`.U.H.H.H.H.H.F.K.W.H.H.H.m <.<.<.<.<.<.<.m ",
"+ T 6 6 6.$.6 T =.@.N.N.u.y.N.N.N.N.N.N.N.y.y.N.N.N.N.N.N.N.N.i.N.N.N.N.N.N.N.N.N.u.N.N.N.N.N.N.N.N.t.i.N.N.N.m x.<.<.<.<.6.6 % ",
"2 <.<.<.v v <.<.=.| 8.8.H # 8 8 8 8 r 8.8.#.. 8 8 8 # #.8.8.[ 8 8 8 8 2 X.8.8.r 8 8 8 # | 8.8.H 8 8 8 $ 8.8.8.m <.6.e e 6 <.<.m ",
"b <.<.<.<.<.<.<.=.e.H.H.2.8 a a a a } H.H.S.# a a a 8 S.H.H.9.a a a a i u.H.H.} a a a 8 r.H.H.2.a a a 0 G.H.H.m <.<.4.4.<.<.<.m ",
"j <.<.<.<.<.<.<.=.e.H.H.2.8 a a a a } H.H.S.# a a a 8 S.H.H.9.a a a a i u.H.H.} a a a 8 r.H.H.2.a a a 0 G.H.H.m <.<.<.<.<.<.<.m ",
"s 6 6 6 6 6 6 6 6 e.H.H.2.8 a a a a } H.H.S.# a a a 8 S.H.H.9.a a a a i u.H.H.} a a a 8 r.H.H.2.a a a 9 G.H.H.% 6 6 6 6 6 6 6 % ",
"b n.n.n.n.B.n.n.b.e.H.H.2.8 a a a a } H.H.S.# a a a 8 S.H.H.9.a a a a i i.H.H.} a a a 8 r.H.H.2.a a a 0 G.H.H.T n.n.n.n.n.n.n.T ",
"z n.n.n.n.Z.n.n.b.e.H.H.2.8 a a a a } H.H.S.# a a a 8 S.H.H.9.a a a a i i.H.H.} a a a 8 r.H.H.2.a a a 0 G.H.H.T n.n.z.z.n.n.n.T ",
"z T T 6.*.n.n.n.b.e.H.H.2.8 a a a a } H.H.S.# a a a 8 S.H.H.9.a a a a i i.H.H.} a a a 8 r.H.H.2.a a a 0 G.H.H.T n.n.z.z.n.n.n.T ",
"f z.z.$.4.n.n.n.b.} 2.2.M # 9 9 9 9 r 2.2.@.. 9 9 9 # #.2.2.[ 9 9 9 9 8  .2.2.r 9 9 9 $ } 2.2.M 9 9 9 & 2.2.2.T n.n.n.*.c Y 4.3 ",
"d n.n.n.n.n.n.n.b.a S.S.S.P.G.S.S.S.S.S.S.D.U.D.S.S.S.S.S.S.S.D.P.F.S.S.S.S.S.S.S.K.P.S.S.S.S.S.S.S.J.P.S.S.S.T n.n.n.n.I n.n.T ",
"d n.n.n.n.n.n.n.b.[ G.H.D.}.`.H.H.H.H.H.H.P. XE.H.H.H.H.H.H.H.P.}.`.H.H.H.H.H.H.H.'.|.I.H.H.H.H.H.G.`.}.H.H.H.T n.n.n.n.n.n.n.T ",
"d T T T T T T T I H D.D.S.S.G.D.D.D.D.D.D.S.D.G.D.D.D.D.D.D.D.V.i.F.D.D.D.D.D.D.D.i.S.G.D.D.D.D.D.D.D.K.D.D.D.t T T T T T T T t ",
"f $.$.$.$.$.$.$.T { 2.2.a # 8 8 8 8 0 2.2.+.. 8 8 8 # @.2.2.H 8 8 8 8 2  .2.2.0 8 8 8 # } 2.2.a 8 8 8 $ 2.2.2.y $.$.$.$.$.$.$.y ",
"z <.<.<.=.=.<.<.=.e.H.H.2.8 a a a a } H.H.S.# a a a 8 S.H.H.9.a a a a i u.H.H.} a a a 8 r.H.H.2.a a a 0 G.H.H.m <.<.=.=.<.<.<.m ",
"f <.<.<.6 P 6.=.=.e.H.H.2.8 a a a a } H.H.S.# a a a 8 S.H.H.9.a a a a i u.H.H.} a a a 8 r.H.H.2.a a a 0 G.H.H.m <.3.I I =.<.<.m ",
": <.<.! K 3.<.$.4.e.H.H.2.8 a a a a } H.H.S.# a a a 8 S.H.H.9.a a a a i u.H.H.} a a a 8 r.H.H.2.a a a 0 G.H.H.K T 5.$.K N <.<.m ",
"= <.<.! =.<.<.<.3.e.H.H.2.8 a a a a } H.H.S.# a a a 8 S.H.H.9.a a a a i u.H.H.} a a a 8 r.H.H.2.a a a 0 G.H.H.K ! <.<.! -.<.<.m ",
"+ <.<.<.<.<.<.<.=.e.H.H.2.8 a a a a } H.H.S.# a a a 8 S.H.H.9.a a a a i u.H.H.} a a a 8 r.H.H.2.a a a 0 G.H.H.m <.<.<.<.3.<.<.m "
};
