/* XPM */
static char * 1_xpm[] = {
"64 64 170 2",
"  	c #051128",
". 	c #040D21",
"+ 	c #01040B",
"@ 	c #010205",
"# 	c #030B1D",
"$ 	c #040B1B",
"% 	c #030917",
"& 	c #040914",
"* 	c #0B131D",
"= 	c #080F1A",
"- 	c #080D12",
"; 	c #060C11",
"> 	c #0B1420",
", 	c #0C151F",
"' 	c #070D19",
") 	c #030712",
"! 	c #02050F",
"~ 	c #040812",
"{ 	c #020715",
"] 	c #03091A",
"^ 	c #050E21",
"/ 	c #040A18",
"( 	c #060C14",
"_ 	c #070B10",
": 	c #0D1419",
"< 	c #0B1217",
"[ 	c #0A1015",
"} 	c #0A1016",
"| 	c #030609",
"1 	c #04070A",
"2 	c #020405",
"3 	c #060B0E",
"4 	c #090E14",
"5 	c #060C18",
"6 	c #050C16",
"7 	c #071021",
"8 	c #10181E",
"9 	c #0F171D",
"0 	c #090F14",
"a 	c #040609",
"b 	c #010102",
"c 	c #0E151A",
"d 	c #000105",
"e 	c #090E12",
"f 	c #000101",
"g 	c #06090D",
"h 	c #060B0F",
"i 	c #0E161B",
"j 	c #01040D",
"k 	c #020716",
"l 	c #020817",
"m 	c #080D14",
"n 	c #010203",
"o 	c #090D10",
"p 	c #060A0E",
"q 	c #030608",
"r 	c #0C1218",
"s 	c #020307",
"t 	c #030814",
"u 	c #030406",
"v 	c #0D1318",
"w 	c #05080C",
"x 	c #070D1A",
"y 	c #070A0E",
"z 	c #000000",
"A 	c #010204",
"B 	c #030815",
"C 	c #131A21",
"D 	c #0F161B",
"E 	c #030507",
"F 	c #01030B",
"G 	c #020304",
"H 	c #040B19",
"I 	c #0B0E12",
"J 	c #0F1012",
"K 	c #0F1010",
"L 	c #0A0B0B",
"M 	c #020613",
"N 	c #030816",
"O 	c #0D1012",
"P 	c #101112",
"Q 	c #18191A",
"R 	c #1E1F20",
"S 	c #1E2021",
"T 	c #212224",
"U 	c #2F2F30",
"V 	c #232425",
"W 	c #292A2C",
"X 	c #28292B",
"Y 	c #262728",
"Z 	c #1C1D1E",
"` 	c #161718",
" .	c #070809",
"..	c #03050C",
"+.	c #000001",
"@.	c #1A1C1D",
"#.	c #232526",
"$.	c #1D1E1F",
"%.	c #0D0E0E",
"&.	c #040505",
"*.	c #0E0E0F",
"=.	c #09090A",
"-.	c #070808",
";.	c #090A0B",
">.	c #060607",
",.	c #020202",
"'.	c #03060B",
").	c #030303",
"!.	c #18191B",
"~.	c #010101",
"{.	c #050606",
"].	c #141616",
"^.	c #131415",
"/.	c #030403",
"(.	c #05080B",
"_.	c #010206",
":.	c #121314",
"<.	c #060606",
"[.	c #040404",
"}.	c #131414",
"|.	c #020305",
"1.	c #191A1B",
"2.	c #111213",
"3.	c #0F1418",
"4.	c #051027",
"5.	c #0F151B",
"6.	c #040608",
"7.	c #191C1F",
"8.	c #03070F",
"9.	c #0B0F13",
"0.	c #171819",
"a.	c #141516",
"b.	c #080C11",
"c.	c #050A11",
"d.	c #010207",
"e.	c #2E2E2F",
"f.	c #313133",
"g.	c #1F2022",
"h.	c #323333",
"i.	c #272829",
"j.	c #212223",
"k.	c #2A2B2C",
"l.	c #252628",
"m.	c #12191F",
"n.	c #0D1015",
"o.	c #0A0C0F",
"p.	c #121416",
"q.	c #0B0B0C",
"r.	c #040504",
"s.	c #0C0D0D",
"t.	c #020203",
"u.	c #303132",
"v.	c #28282A",
"w.	c #343536",
"x.	c #333435",
"y.	c #202122",
"z.	c #020409",
"A.	c #0E0F10",
"B.	c #27282A",
"C.	c #242627",
"D.	c #2A2B2D",
"E.	c #000102",
"F.	c #02040B",
"G.	c #01030A",
"H.	c #131A20",
"I.	c #0B0C0D",
"J.	c #020308",
"K.	c #1F2021",
"L.	c #2C2D2F",
"M.	c #000104",
"      . . . . . .                               . .   . . + + @       . . . . . .                               . .   . . + + @ ",
"    . . . . . . . . . . . . .         . . # $ % & * = = = = - ; > > * , * * ' ) & ! ~ { . . .         . . . . . . . . . . . + @ ",
"  . . . . ] ] ] ] ] ] ] . . . . . ^ / ( _ - : < [ _ } } } } } } } | 1 } 2 1 3 } } 4 : ; 5 6 = 7 . . . . . . . . . . . . ] + + @ ",
"  . . . ] ] ] ] ] ] ] ] ] ] ] / 6 } : 8 8 9 < : | 2 } } } } } } } 0 a 3 _ } } 3 b 8 8 8 8 c 1 ~ ] ] ] ] . . . . . . ] ] + @ @ @ ",
"  . . . ] ] ] ] ] ] ] ] ] & d e 9 8 8 8 8 a e 9 c f g } } } } } } } 0 } } } _ b < 8 8 8 h g i _ j k ] ] ] ] ] ] ] ] ] ] + + @ @ ",
"  . . . ] ] ] ] + ] ] l m } _ n c 8 8 8 o p c 9 8 c q 0 } e e } } } < 0 | 0 3 | c 8 r | | 8 8 8 8 8 0 s + ] ] ] ] ] ] ] ] + @ @ ",
". . . ] ] ] ] ] ] . t - } } } _ 0 8 8 8 8 i _ : 8 i 1 a 3 b u 3 _ - v _ 0 w _ 8 8 8 8 8 8 8 8 8 8 } - - } % ] ] ] ] ] ] ] + + @ ",
". . ] ] ] ] ] ] x ; } } } } } } 2 4 8 8 8 8 8 8 8 8 9 y z _ e 3 3 A _ e } 2 : 8 8 8 8 8 4 8 8 8 4 n - } } 0 t ] ] ] ] ] ] ] + @ ",
". . ] ] ] ] ] B _ } } } } } } } e b 4 C _ | | | | 8 8 D E } } } } e 4 } a c 8 8 8 8 r | r 8 8 4 b e _ _ } } 3 F ] ] ] ] ] ] + @ ",
"  . . ] ] ] B _ } } } } } } } } } e G u c 8 8 8 8 8 8 8 h 2 } } } } < : p 8 8 8 3 | 4 8 8 8 < n e } } } } } _ 2 m H ] ] ] + @ @ ",
"  . . ] ] { 1 } } } } } } } } } _ I J K K K K K K K K K K K K K K K K K K K K K K K K K K K L 1 e } e e } } } } } e M ] ] + @ @ ",
"  . . ] N - G - } } } } } } v O P Q R S S T U S S S S S S S S V W T S S S S S S S X Y S S S Z `  ._ 3 3 } } } } } e b ..+ + @ @ ",
". . ] ' +.9 c _ 2 } } } } w L @.S S S S S Z X #.S S S S S S S $.X V S S S S S S @.X X T S S S S S @.%.p } } } } } &.p 1 @ + @ @ ",
". . + s c g i 8 h G 4 } 3 z *.P P P P P P K =.P P P P P P P P %.-.*.P P P P P P P -.;.P P P P P P P >.u } } 0 | ,.p 0 r '.@ @ @ ",
"+ + @ } 8 i e c 8 g u p f ).>.>.>.>.;.$.$.!.~.>.>.>.).!.$.$.P >.>.>.>.{.].$.$.;.>.>.>.).^.$.$.K >.>.-./.(.0 a 1 _ 0 < 8 9 _.@ @ ",
"@ @ u c 8 8 c c 8 9 3 >.L ).-.-.-.-.L S S @.~.-.-.-.).@.S S :.-.-.-.-.<.Q S S L -.-.-.).].S S P -.-.-.[.}.a 1 c 8 r 8 8 8 |.@ @ ",
"    ' 8 8 8 8 8 8 8  .1.P ).-.-.-.-.L S S @.~.-.-.-.).@.S S :.-.-.-.-.<.Q S S L -.-.-.).].S S P -.-.-./.$.2.3.8 8 8 8 8 8 *     ",
"  4.8 8 8 5.6.[ i D P S P ).-.-.-.-.L S S @.~.-.-.-.).@.S S :.-.-.-.-.<.Q S S L -.-.-.).].S S P -.-.-./.R @.z 8 i i i 9 8 c ]   ",
". H 8 8 8 8 8 [ g o !.S P ).-.-.-.-.L S S @.~.-.-.-.).@.S S :.-.-.-.-.<.Q S S L -.-.-.).].S S P -.-.-.[.R R *.7._ g g r 8 i 8.. ",
"] ! 0 0 0 0 0 0 9.=.R S P ).-.-.-.-.L S S @.~.-.-.-.).@.S S :.-.-.-.-.<.0.S S L -.-.-.).].S S P -.-.-.[.R S a.z b.0 0 0 0 0 c.] ",
"$ +.z z z z z z z =.R S P ).-.-.-.-.L S S @.~.-.-.-.).@.S S :.-.-.-.-.<.0.S S L -.-.-.).a.S S P -.-.-./.R S R z z z z z z z d.] ",
"I c c p ~.~.~.e : ;.P P P P P P P P P P P P P P P P P P P P P P P P P P P P P P P P P P P P P P P P ^.P P P P p c c c c c c c c.",
"I z A | c 8 8 4 } a.S S V e.W S S S S S S T f.V S S S S S S S g.h.i.S S S S S S S e.h.j.S S S S S S k.U S S S g E | | | | E c p ",
"g I < 8 8 8 8 8 e a.S S 1.V j.S S S S S S Z Y S S S S S S S S !.l.V S S S S S S S V l.S S S S S S $.$.T S S S a b.8 8 8 8 p z z ",
"9.m.8 8 8 8 8 8 9 ;.P P P P P P P P P P P P P P P P P P P P P P P P P P P P P P P P P P P P P P P P P P P P P e 8 8 8 8 8 9 } 1 ",
"I 8 8 8 8 8 8 8 9 a.S S P ).-.-.-.-.L S S @.~.-.-.-.).@.S S :.-.-.-.-.<.Q S S L -.-.-.).a.S S P -.-.-.[.R S S _ 8 8 8 8 8 8 8 _ ",
"I c c c c c c c v a.S S P ).-.-.-.-.L S S @.~.-.-.-.).@.S S :.-.-.-.-.<.0.S S L -.-.-.).].S S P -.-.-.[.R S S g c c c c c c c p ",
"n.z z z z z z z z a.S S P ).-.-.-.-.L S S @.~.-.-.-.).@.S S :.-.-.-.-.<.0.S S L -.-.-.).].S S P -.-.-./.R S S z z z z z z z z z ",
"n.3 3 3 0 z u 3 p a.S S P ).-.-.-.-.L S S @.~.-.-.-.).@.S S :.-.-.-.-.<.0.S S L -.-.-.).].S S P -.-.-.[.R S S u 3 _ 3 a 3 3 3 u ",
"o.} } : 3 0 0 2 r a.S S P ).-.-.-.-.L S S @.~.-.-.-.).@.S S :.-.-.-.-.<.0.S S L -.-.-.).].S S P -.-.-.[.R S S 1 } u 2 n e } } 1 ",
"p.} 0 q G } } } 0 a.S S P ).-.-.-.-.L S S @.~.-.-.-.).@.S S :.-.-.-.-.<.0.S S L -.-.-.).].S S P -.-.-.[.R S S b 2 } } g f } } 1 ",
"e } - G w } } } 0 a.S S P ).-.-.-.-.L S S @.~.-.-.-.).@.S S :.-.-.-.-.<.0.S S L -.-.-.).].S S P -.-.-.[.R S S 1 } } } r u _ } 1 ",
"e } } - 3 } } } 0 *.` ` q.,.r.r.r.r.>.` ` }.~.r.r.r.,.^.` ` s.r.r.r.r.[.J ` ` >.r.r.r.,.*.` ` q.r.r.r.t.` ` ` 1 } < } 0 - _ } 1 ",
"e } } } } } } } 0 P @.@.@.@.@.@.@.@.@.@.@.@.@.@.@.@.@.@.@.@.@.@.@.@.@.@.@.@.@.@.@.@.@.@.@.@.@.@.@.@.@.@.@.@.@.1 } } } 0 } } } 1 ",
"o e e e e e e e - a.S S T u.v.S S S S S S T w.T S S S S S S S g.x.v.S S S S S S S u.x.y.S S S S S S u.U S S S | e e e e e e e | ",
"g _ _ _ _ _ _ _ 3 a.S S Z V y.S S S S S S $.#.S S S S S S S S Z g.j.S S S S S S S R V y.S S S S S R j.T S S S E _ _ _ _ _ _ _ E ",
"y 8 8 < i 8 8 8 9 =.K K >.~.).).).).[.K K s.~.).).).~.%.K K -.).).).).,.L K K [.).).).~.=.K K >.).).).~.K K K _ 8 8 8 8 8 8 8 _ ",
"g w a 0 9 m.m.8 9 a.S S P ).-.-.-.-.L S S @.~.-.-.-.).@.S S :.-.-.-.-.<.Q S S L -.-.-.).].S S P -.-.-.[.R S S _ 8 8 r a a 3 8 _ ",
"g 8 9 8 8 8 8 8 9 a.S S P ).-.-.-.-.L S S @.~.-.-.-.).@.S S :.-.-.-.-.<.Q S S L -.-.-.).].S S P -.-.-.[.R S S _ 8 8 8 9 9 c 6.A ",
"'.8 8 8 8 8 8 8 9 a.S S P ).-.-.-.-.L S S @.~.-.-.-.).@.S S :.-.-.-.-.<.Q S S L -.-.-.).].S S P -.-.-.[.R S S _ 8 8 8 8 8 8 8 _ ",
"z.8 8 8 8 8 8 8 9 a.S S P ).-.-.-.-.L S S @.~.-.-.-.).@.S S :.-.-.-.-.<.Q S S L -.-.-.).].S S P -.-.-.[.R S S _ 8 8 8 8 8 8 8 _ ",
"s 8 8 8 8 8 8 8 9 a.S S P ).-.-.-.-.L S S @.~.-.-.-.).@.S S :.-.-.-.-.<.Q S S L -.-.-.).].S S P -.-.-.[.R S S _ 8 8 8 8 8 8 8 _ ",
"d.6.6.6.6.6.6.6.6.a.S S P ).-.-.-.-.L S S @.~.-.-.-.).@.S S :.-.-.-.-.<.0.S S L -.-.-.).].S S P -.-.-./.R S S t.6.6.6.6.6.6.6.A ",
"d.} } } } } } } 0 2.Z Z ^.%.K K K K P Z Z !.s.K K K %.1.Z Z a.K K K K A.0.Z Z P K K K %.].Z Z ^.K K K %.Z Z Z 1 } } } } } } } 1 ",
"d.} } } } } } } 0 ^.$.$.$.W T $.$.$.$.$.$.g.B.R $.$.$.$.$.$.$.$.C.R $.$.$.$.$.$.$.l.T R $.$.$.$.$.$.l.C.$.$.$.1 } } } } } } } 1 ",
"d.g } } } } } } 0 a.S S Z C.l.S S S S S S @.C.V S S S S S S S $.D.V S S S S S S Z i.D.T S S S S S $.g.l.S S S 1 } } } } } } } 1 ",
"E._ 2 2 : e 2 _ 0 A.!.!.0.` !.!.!.!.!.!.!.` ` !.!.!.!.!.!.!.!.Q !.!.!.!.!.!.!.!.!.0.!.!.!.!.!.!.!.!.` Q !.!.!.1 5.} } } } : 2 b ",
"t.} } } a a } } 0 q.2.2. .~.).).).).&.2.2.K ~.).).).~.K 2.2.=.).).).).t.s.2.2.&.).).).~.q.2.2. .).).).~.2.2.2.1 } : u u 2 } } 1 ",
"..} } } } } } } 0 a.S S P ).-.-.-.-.L S S @.~.-.-.-.).@.S S :.-.-.-.-.<.0.S S L -.-.-.).].S S P -.-.-.[.R S S 1 } } r r } } } 1 ",
"F.} } } } } } } 0 a.S S P ).-.-.-.-.L S S @.~.-.-.-.).@.S S :.-.-.-.-.<.0.S S L -.-.-.).].S S P -.-.-.[.R S S 1 } } } } } } } 1 ",
"G.2 2 2 2 2 2 2 2 a.S S P ).-.-.-.-.L S S @.~.-.-.-.).@.S S :.-.-.-.-.<.0.S S L -.-.-.).].S S P -.-.-./.R S S b 2 2 2 2 2 2 2 b ",
"..8 8 8 8 m.8 8 9 a.S S P ).-.-.-.-.L S S @.~.-.-.-.).@.S S :.-.-.-.-.<.Q S S L -.-.-.).].S S P -.-.-.[.R S S _ 8 8 8 8 8 8 8 _ ",
"z.8 8 8 8 H.8 8 9 a.S S P ).-.-.-.-.L S S @.~.-.-.-.).@.S S :.-.-.-.-.<.Q S S L -.-.-.).].S S P -.-.-.[.R S S _ 8 8 c c 8 8 8 _ ",
"z._ _ : 4 8 8 8 9 a.S S P ).-.-.-.-.L S S @.~.-.-.-.).@.S S :.-.-.-.-.<.Q S S L -.-.-.).].S S P -.-.-.[.R S S _ 8 8 c c 8 8 8 _ ",
"z.c c e r 8 8 8 9 L P P -.~././././.&.P P A.~./././.~.K P P =././././.).I.P P &./././.~.L P P -./././.,.P P P _ 8 8 8 4 | h r A ",
"J.8 8 8 8 8 8 8 9 -.@.@.@.j.R @.@.@.@.@.@.Z T Z @.@.@.@.@.@.@.Z j.$.@.@.@.@.@.@.@.g.j.@.@.@.@.@.@.@.K.j.@.@.@._ 8 8 8 8 3 8 8 _ ",
"J.8 8 8 8 8 8 8 9 =.R S Z f.D.S S S S S S j.x.C.S S S S S S S j.f.D.S S S S S S S L.h.j.S S S S S R D.f.S S S _ 8 8 8 8 8 8 8 _ ",
"J._ _ _ _ _ _ _ 3  .Z Z @.@.R Z Z Z Z Z Z @.Z R Z Z Z Z Z Z Z 1.Q $.Z Z Z Z Z Z Z Q @.R Z Z Z Z Z Z Z g.Z Z Z E _ _ _ _ _ _ _ E ",
"z.e e e e e e e _ ;.P P -.~.).).).).[.P P *.~.).).).~.A.P P  .).).).).t.I.P P [.).).).~.L P P -.).).).~.P P P 6.e e e e e e e 6.",
"z.} } } 0 0 } } 0 a.S S P ).-.-.-.-.L S S @.~.-.-.-.).@.S S :.-.-.-.-.<.0.S S L -.-.-.).].S S P -.-.-.[.R S S 1 } } 0 0 } } } 1 ",
"z.} } } 2 p : 0 0 a.S S P ).-.-.-.-.L S S @.~.-.-.-.).@.S S :.-.-.-.-.<.0.S S L -.-.-.).].S S P -.-.-.[.R S S 1 } < 3 3 0 } } 1 ",
"A } } - g < } e r a.S S P ).-.-.-.-.L S S @.~.-.-.-.).@.S S :.-.-.-.-.<.0.S S L -.-.-.).].S S P -.-.-.[.R S S g _ v e g (.} } 1 ",
"M.} } - 0 } } } < a.S S P ).-.-.-.-.L S S @.~.-.-.-.).@.S S :.-.-.-.-.<.0.S S L -.-.-.).].S S P -.-.-.[.R S S g - } } - [ } } 1 ",
"E.} } } } } } } 0 a.S S P ).-.-.-.-.L S S @.~.-.-.-.).@.S S :.-.-.-.-.<.0.S S L -.-.-.).].S S P -.-.-.[.R S S 1 } } } } < } } 1 "};
