/* XPM */
static char * 2_xpm[] = {
"64 64 168 2",
"  	c #051128",
". 	c #040D21",
"+ 	c #01040B",
"@ 	c #010205",
"# 	c #030B1D",
"$ 	c #040B1B",
"% 	c #030917",
"& 	c #040914",
"* 	c #0B131D",
"= 	c #080F1A",
"- 	c #080D12",
"; 	c #060C11",
"> 	c #0B1420",
", 	c #0C151F",
"' 	c #070D19",
") 	c #030712",
"! 	c #02050F",
"~ 	c #040812",
"{ 	c #020715",
"] 	c #03091A",
"^ 	c #050E21",
"/ 	c #040A18",
"( 	c #060C14",
"_ 	c #070B10",
": 	c #0D1419",
"< 	c #0B1217",
"[ 	c #0A1015",
"} 	c #0A1016",
"| 	c #030609",
"1 	c #04070A",
"2 	c #020405",
"3 	c #060B0E",
"4 	c #090E14",
"5 	c #060C18",
"6 	c #050C16",
"7 	c #071021",
"8 	c #10181E",
"9 	c #0F171D",
"0 	c #090F14",
"a 	c #040609",
"b 	c #010102",
"c 	c #0E151A",
"d 	c #000105",
"e 	c #090E12",
"f 	c #000101",
"g 	c #06090D",
"h 	c #060B0F",
"i 	c #0E161B",
"j 	c #01040D",
"k 	c #020716",
"l 	c #020817",
"m 	c #080D14",
"n 	c #010203",
"o 	c #090D10",
"p 	c #060A0E",
"q 	c #030608",
"r 	c #0C1218",
"s 	c #020307",
"t 	c #030814",
"u 	c #030406",
"v 	c #0D1318",
"w 	c #05080C",
"x 	c #070D1A",
"y 	c #070A0E",
"z 	c #00000000",
"A 	c #010204",
"B 	c #030815",
"C 	c #131A21",
"D 	c #0F161B",
"E 	c #030507",
"F 	c #01030B",
"G 	c #020304",
"H 	c #040B19",
"I 	c #0B0E12",
"J 	c #0F1012",
"K 	c #0F1010",
"L 	c #0A0B0B",
"M 	c #020613",
"N 	c #030816",
"O 	c #0D1012",
"P 	c #101112",
"Q 	c #18191A",
"R 	c #1E1F20",
"S 	c #1E2021",
"T 	c #212224",
"U 	c #2F2F30",
"V 	c #232425",
"W 	c #292A2C",
"X 	c #28292B",
"Y 	c #262728",
"Z 	c #1B1D1E",
"` 	c #161718",
" .	c #070809",
"..	c #03050C",
"+.	c #000001",
"@.	c #232526",
"#.	c #1D1E1F",
"$.	c #1A1C1D",
"%.	c #0D0E0E",
"&.	c #040505",
"*.	c #0E0E0F",
"=.	c #0E0F10",
"-.	c #09090A",
";.	c #070808",
">.	c #090A0B",
",.	c #060607",
"'.	c #020202",
").	c #03060B",
"!.	c #030303",
"~.	c #18191B",
"{.	c #010101",
"].	c #050606",
"^.	c #141616",
"/.	c #131415",
"(.	c #030403",
"_.	c #05080B",
":.	c #010206",
"<.	c #121314",
"[.	c #060606",
"}.	c #171819",
"|.	c #040404",
"1.	c #131414",
"2.	c #020305",
"3.	c #191B1B",
"4.	c #111213",
"5.	c #0F1418",
"6.	c #0B121D",
"7.	c #051027",
"8.	c #0F151B",
"9.	c #040608",
"0.	c #191C1F",
"a.	c #03070F",
"b.	c #0B0F13",
"c.	c #141516",
"d.	c #080C11",
"e.	c #050A11",
"f.	c #010207",
"g.	c #2E2E2F",
"h.	c #313132",
"i.	c #1F2022",
"j.	c #323333",
"k.	c #272829",
"l.	c #202122",
"m.	c #2A2B2C",
"n.	c #252628",
"o.	c #12191F",
"p.	c #0D1015",
"q.	c #0A0C0F",
"r.	c #121416",
"s.	c #0B0B0C",
"t.	c #040504",
"u.	c #0C0D0D",
"v.	c #020203",
"w.	c #303132",
"x.	c #28282A",
"y.	c #343536",
"z.	c #343435",
"A.	c #212223",
"B.	c #020409",
"C.	c #27282A",
"D.	c #242627",
"E.	c #2B2C2D",
"F.	c #000102",
"G.	c #02040B",
"H.	c #01030A",
"I.	c #131A20",
"J.	c #020308",
"K.	c #000104",
"      . . . . . .                               . .   . . + + @       . . . . . .                               . .   . . + + @ ",
"    . . . . . . . . . . . . .         . . # $ % & * = = = = - ; > > * , * * ' ) & ! ~ { . . .         . . . . . . . . . . . + @ ",
"  . . . . ] ] ] ] ] ] ] . . . . . ^ / ( _ - : < [ _ } } } } } } } | 1 } 2 1 3 } } 4 : ; 5 6 = 7 . . . . . . . . . . . . ] + + @ ",
"  . . . ] ] ] ] ] ] ] ] ] ] ] / 6 } : 8 8 9 < : | 2 } } } } } } } 0 a 3 _ } } 3 b 8 8 8 8 c 1 ~ ] ] ] ] . . . . . . ] ] + @ @ @ ",
"  . . . ] ] ] ] ] ] ] ] ] & d e 9 8 8 8 8 a e 9 c f g } } } } } } } 0 } } } _ b < 8 8 8 h g i _ j k ] ] ] ] ] ] ] ] ] ] + + @ @ ",
"  . . . ] ] ] ] + ] ] l m } _ n c 8 8 8 o p c 9 8 c q 0 } e e } } } < 0 | 0 3 | c 8 r | | 8 8 8 8 8 0 s + ] ] ] ] ] ] ] ] + @ @ ",
". . . ] ] ] ] ] ] . t - } } } _ 0 8 8 8 8 i _ : 8 i 1 a 3 b u 3 _ - v _ 0 w _ 8 8 8 8 8 8 8 8 8 8 } - - } % ] ] ] ] ] ] ] + + @ ",
". . ] ] ] ] ] ] x ; } } } } } } 2 4 8 8 8 8 8 8 8 8 9 y z _ e 3 3 A _ e } 2 : 8 8 8 8 8 4 8 8 8 4 n - } } 0 t ] ] ] ] ] ] ] + @ ",
". . ] ] ] ] ] B _ } } } } } } } e b 4 C _ | | | | 8 8 D E } } } } e 4 } a c 8 8 8 8 r | r 8 8 4 b e _ _ } } 3 F ] ] ] ] ] ] + @ ",
"  . . ] ] ] B _ } } } } } } } } } e G u c 8 8 8 8 8 8 8 h 2 } } } } < : p 8 8 8 3 | 4 8 8 8 < n e } } } } } _ 2 m H ] ] ] + @ @ ",
"  . . ] ] { 1 } } } } } } } } } _ I J K K K K K K K K K K K K K K K K K K K K K K K K K K K L 1 e } e e } } } } } e M ] ] + @ @ ",
"  . . ] N - G - } } } } } } v O P Q R S S T U S S S S S S S S V W T S S S S S S S X Y S S S Z `  ._ 3 3 } } } } } e b ..+ + @ @ ",
". . ] ' +.9 c _ 2 } } } } w L Z S S S S S Z X @.S S S S S S S #.X V S S S S S S $.X X T S S S S S Z %.p } } } } } &.p 1 @ + @ @ ",
". . + s c g i 8 h G 4 } 3 z *.P P P P P P =.-.P P P P P P P P %.;.*.P P P P P P P ;.>.P P P P P P P ,.u } } 0 | '.p 0 r ).@ @ @ ",
"+ + @ } 8 i e c 8 g u p f !.,.,.,.,.>.#.#.~.{.,.,.,.!.~.#.#.P ,.,.,.,.].^.#.#.>.,.,.,.!./.#.#.K ,.,.,.(._.0 a 1 _ 0 < 8 9 :.@ @ ",
"@ @ u c 8 8 c c 8 9 3 ,.L !.;.;.;.;.L S S $.{.;.;.;.!.$.S S <.;.;.;.;.[.}.S S L ;.;.;.!.^.S S P ;.;.;.|.1.a 1 c 8 r 8 8 8 2.@ @ ",
"    ' 8 8 8 8 8 8 8  .3.P !.;.;.;.;.L S S $.{.;.;.;.!.$.S S <.;.;.;.;.[.}.S S L ;.;.;.!.^.S S P ;.;.;.(.#.4.5.8 8 8 8 8 8 6.    ",
"  7.8 8 8 8.9.[ i D P S P !.;.;.;.;.L S S $.{.;.;.;.!.$.S S <.;.;.;.;.[.}.S S L ;.;.;.!.^.S S P ;.;.;.(.R $.z 8 i i i 9 8 c ]   ",
". H 8 8 8 8 8 [ g o ~.S P !.;.;.;.;.L S S $.{.;.;.;.!.$.S S <.;.;.;.;.[.}.S S L ;.;.;.!.^.S S P ;.;.;.|.R R *.0._ g g r 8 i a.. ",
"] ! 0 0 0 0 0 0 b.-.R S P !.;.;.;.;.L S S $.{.;.;.;.!.$.S S <.;.;.;.;.[.}.S S L ;.;.;.!.^.S S P ;.;.;.|.R S c.z d.0 0 0 0 0 e.] ",
"$ +.z z z z z z z -.R S P !.;.;.;.;.L S S $.{.;.;.;.!.$.S S <.;.;.;.;.[.}.S S L ;.;.;.!.c.S S P ;.;.;.(.R S R z z z z z z z f.] ",
"I c c p {.{.{.e : >.P P P P P P P P P P P P P P P P P P P P P P P P P P P P P P P P P P P P P P P P /.P P P P p c c c c c c c e.",
"I z A | c 8 8 4 } c.S S V g.W S S S S S S T h.V S S S S S S S i.j.k.S S S S S S S g.j.l.S S S S S S m.U S S S g E | | | | E c p ",
"g I < 8 8 8 8 8 e c.S S 3.V l.S S S S S S Z Y S S S S S S S S ~.n.V S S S S S S S V Y S S S S S S #.#.T S S S a d.8 8 8 8 p z z ",
"b.o.8 8 8 8 8 8 9 >.P P P P P P P P P P P P P P P P P P P P P P P P P P P P P P P P P P P P P P P P P P P P P e 8 8 8 8 8 9 } 1 ",
"I 8 8 8 8 8 8 8 9 c.S S P !.;.;.;.;.L S S $.{.;.;.;.!.$.S S <.;.;.;.;.[.}.S S L ;.;.;.!.c.S S P ;.;.;.|.R S S _ 8 8 8 8 8 8 8 _ ",
"I c c c c c c c v c.S S P !.;.;.;.;.L S S $.{.;.;.;.!.$.S S <.;.;.;.;.[.}.S S L ;.;.;.!.^.S S P ;.;.;.|.R S S g c c c c c c c p ",
"p.z z z z z z z z c.S S P !.;.;.;.;.L S S $.{.;.;.;.!.$.S S <.;.;.;.;.[.}.S S L ;.;.;.!.^.S S P ;.;.;.(.R S S z z z z z z z z z ",
"p.3 3 3 0 z u 3 p c.S S P !.;.;.;.;.L S S $.{.;.;.;.!.$.S S <.;.;.;.;.[.}.S S L ;.;.;.!.^.S S P ;.;.;.|.R S S u 3 _ 3 a 3 3 3 u ",
"q.} } : 3 0 0 2 r c.S S P !.;.;.;.;.L S S $.{.;.;.;.!.$.S S <.;.;.;.;.[.}.S S L ;.;.;.!.^.S S P ;.;.;.|.R S S 1 } u 2 n e } } 1 ",
"r.} 0 q G } } } 0 c.S S P !.;.;.;.;.L S S $.{.;.;.;.!.$.S S <.;.;.;.;.[.}.S S L ;.;.;.!.^.S S P ;.;.;.|.R S S b 2 } } g f } } 1 ",
"e } - G w } } } 0 c.S S P !.;.;.;.;.L S S $.{.;.;.;.!.$.S S <.;.;.;.;.[.}.S S L ;.;.;.!.^.S S P ;.;.;.|.R S S 1 } } } r u _ } 1 ",
"e } } - 3 } } } 0 *.` ` s.'.t.t.t.t.,.` ` 1.{.t.t.t.'./.` ` u.t.t.t.t.|.J ` ` ,.t.t.t.'.*.` ` s.t.t.t.v.` ` ` 1 } < } 0 - _ } 1 ",
"e } } } } } } } 0 P $.$.$.$.$.$.$.$.$.$.$.$.$.$.$.$.$.$.$.$.$.$.$.$.$.$.$.$.$.$.$.$.$.$.$.$.$.$.$.$.$.$.$.$.$.1 } } } 0 } } } 1 ",
"o e e e e e e e - c.S S T w.x.S S S S S S T y.T S S S S S S S i.z.x.S S S S S S S w.z.i.S S S S S S w.U S S S | e e e e e e e | ",
"g _ _ _ _ _ _ _ 3 c.S S Z V i.S S S S S S #.@.S S S S S S S S Z i.A.S S S S S S S R V i.S S S S S R l.T S S S E _ _ _ _ _ _ _ E ",
"y 8 8 < i 8 8 8 9 -.K K ,.{.!.!.!.!.|.K K u.{.!.!.!.{.%.K K ;.!.!.!.!.'.L K K |.!.!.!.{.-.K K ,.!.!.!.b K K K _ 8 8 8 8 8 8 8 _ ",
"g w a 0 9 o.o.8 9 c.S S P !.;.;.;.;.L S S $.{.;.;.;.!.$.S S <.;.;.;.;.[.}.S S L ;.;.;.!.^.S S P ;.;.;.|.R S S _ 8 8 r a a 3 8 _ ",
"g 8 9 8 8 8 8 8 9 c.S S P !.;.;.;.;.L S S $.{.;.;.;.!.$.S S <.;.;.;.;.[.}.S S L ;.;.;.!.^.S S P ;.;.;.|.R S S _ 8 8 8 9 9 c 9.v.",
").8 8 8 8 8 8 8 9 c.S S P !.;.;.;.;.L S S $.{.;.;.;.!.$.S S <.;.;.;.;.[.}.S S L ;.;.;.!.^.S S P ;.;.;.|.R S S _ 8 8 8 8 8 8 8 _ ",
"B.8 8 8 8 8 8 8 9 c.S S P !.;.;.;.;.L S S $.{.;.;.;.!.$.S S <.;.;.;.;.[.}.S S L ;.;.;.!.^.S S P ;.;.;.|.R S S _ 8 8 8 8 8 8 8 _ ",
"s 8 8 8 8 8 8 8 9 c.S S P !.;.;.;.;.L S S $.{.;.;.;.!.$.S S <.;.;.;.;.[.}.S S L ;.;.;.!.^.S S P ;.;.;.|.R S S _ 8 8 8 8 8 8 8 _ ",
"f.9.9.9.9.9.9.9.9.c.S S P !.;.;.;.;.L S S $.{.;.;.;.!.$.S S <.;.;.;.;.[.}.S S L ;.;.;.!.^.S S P ;.;.;.(.R S S v.9.9.9.9.9.9.9.v.",
"f.} } } } } } } 0 4.Z Z /.%.K K K K P Z Z ~.u.=.K K %.3.Z Z c.K K K K =.}.Z Z P K K K %.^.Z Z /.K K K %.Z Z Z 1 } } } } } } } 1 ",
"f.} } } } } } } 0 /.#.#.#.W T #.#.#.#.#.#.i.C.R #.#.#.#.#.#.#.#.D.R #.#.#.#.#.#.#.Y T R #.#.#.#.#.#.n.D.#.#.#.1 } } } } } } } 1 ",
"f.g } } } } } } 0 c.S S Z D.Y S S S S S S $.D.V S S S S S S S #.E.V S S S S S S Z k.E.T S S S S S #.i.Y S S S 1 } } } } } } } 1 ",
"F._ 2 2 : e 2 _ 0 =.~.~.}.` ~.~.~.~.~.~.~.` ` ~.~.~.~.~.~.~.~.}.~.~.~.~.~.~.~.~.~.}.~.~.~.~.~.~.~.~.` }.~.~.~.1 8.} } } } : 2 b ",
"v.} } } a a } } 0 s.4.4. .{.!.!.!.!.&.4.4.=.{.!.!.!.{.K 4.4.-.!.!.!.!.v.u.4.4.&.!.!.!.{.s.4.4. .!.!.!.b 4.4.4.1 } : u u 2 } } 1 ",
"..} } } } } } } 0 c.S S P !.;.;.;.;.L S S $.{.;.;.;.!.$.S S <.;.;.;.;.[.}.S S L ;.;.;.!.^.S S P ;.;.;.|.R S S 1 } } r r } } } 1 ",
"G.} } } } } } } 0 c.S S P !.;.;.;.;.L S S $.{.;.;.;.!.$.S S <.;.;.;.;.[.}.S S L ;.;.;.!.^.S S P ;.;.;.|.R S S 1 } } } } } } } 1 ",
"H.2 2 2 2 2 2 2 2 c.S S P !.;.;.;.;.L S S $.{.;.;.;.!.$.S S <.;.;.;.;.[.}.S S L ;.;.;.!.^.S S P ;.;.;.(.R S S b 2 2 2 2 2 2 2 b ",
"..8 8 8 8 o.8 8 9 c.S S P !.;.;.;.;.L S S $.{.;.;.;.!.$.S S <.;.;.;.;.[.}.S S L ;.;.;.!.^.S S P ;.;.;.|.R S S _ 8 8 8 8 8 8 8 _ ",
"B.8 8 8 8 I.8 8 9 c.S S P !.;.;.;.;.L S S $.{.;.;.;.!.$.S S <.;.;.;.;.[.}.S S L ;.;.;.!.^.S S P ;.;.;.|.R S S _ 8 8 c c 8 8 8 _ ",
"B._ _ : 4 8 8 8 9 c.S S P !.;.;.;.;.L S S $.{.;.;.;.!.$.S S <.;.;.;.;.[.}.S S L ;.;.;.!.^.S S P ;.;.;.|.R S S _ 8 8 c c 8 8 8 _ ",
"B.c c e r 8 8 8 9 z z z z z z z z z z z z z z z z z z z z z z z z z z z z z z z z z z z z z z z z z z z z z z _ 8 8 8 4 | h r A ",
"J.8 8 8 8 8 8 8 9 z z z z z z z z z z z z z z z z z z z z z z z z z z z z z z z z z z z z z z z z z z z z z z _ 8 8 8 8 3 8 8 _ ",
"J.8 8 8 8 8 8 8 9 z z z z z z z z z z z z z z z z z z z z z z z z z z z z z z z z z z z z z z z z z z z z z z _ 8 8 8 8 8 8 8 _ ",
"J._ _ _ _ _ _ _ 3 z z z z z z z z z z z z z z z z z z z z z z z z z z z z z z z z z z z z z z z z z z z z z z E _ _ _ _ _ _ _ E ",
"B.e e e e e e e _ z z z z z z z z z z z z z z z z z z z z z z z z z z z z z z z z z z z z z z z z z z z z z z 9.e e e e e e e 9.",
"B.} } } 0 0 } } 0 z z z z z z z z z z z z z z z z z z z z z z z z z z z z z z z z z z z z z z z z z z z z z z 1 } } 0 0 } } } 1 ",
"B.} } } 2 p : 0 0 z z z z z z z z z z z z z z z z z z z z z z z z z z z z z z z z z z z z z z z z z z z z z z 1 } < 3 3 0 } } 1 ",
"A } } - g < } e r z z z z z z z z z z z z z z z z z z z z z z z z z z z z z z z z z z z z z z z z z z z z z z g _ v e g _.} } 1 ",
"K.} } - 0 } } } < z z z z z z z z z z z z z z z z z z z z z z z z z z z z z z z z z z z z z z z z z z z z z z g - } } - [ } } 1 ",
"F.} } } } } } } 0 z z z z z z z z z z z z z z z z z z z z z z z z z z z z z z z z z z z z z z z z z z z z z z 1 } } } } < } } 1 "};
