/* XPM */
static char *_e8395ac961f42fea82faf64d37344e650jP6RqSRSCTRs5b[] = {
/* columns rows colors chars-per-pixel */
"64 64 183 2 ",
"   c #00000000",
".  c #000000",
"X  c #0A0B0C",
"o  c #020614",
"O  c #090E13",
"+  c #040E1E",
"@  c #070C11",
"#  c #0E151B",
"$  c #131413",
"%  c #10171E",
"&  c #15181B",
"*  c #1A1D1B",
"=  c #1E201F",
"-  c #07162A",
";  c #161D25",
":  c #191F26",
">  c #171F2E",
",  c #0B1B33",
"<  c #0C1C3A",
"1  c #091733",
"2  c #101E35",
"3  c #1C2124",
"4  c #172129",
"5  c #1B242C",
"6  c #1C2734",
"7  c #1E2932",
"8  c #19263B",
"9  c #242626",
"0  c #262928",
"q  c #292B2B",
"w  c #2D302F",
"e  c #222C36",
"r  c #222E39",
"t  c #2C3033",
"y  c #24313C",
"u  c #2B353E",
"i  c #353837",
"p  c #37393B",
"a  c #3B3F3E",
"s  c #333635",
"d  c #0F2446",
"f  c #1D2740",
"g  c #1E2943",
"h  c #102449",
"j  c #132B4B",
"k  c #192B49",
"l  c #142A53",
"z  c #1E3358",
"x  c #212C43",
"c  c #273540",
"v  c #283642",
"b  c #2B3844",
"n  c #23334D",
"m  c #283649",
"M  c #2D3B48",
"N  c #313E4A",
"B  c #3C3E40",
"V  c #273A58",
"C  c #1D3A6D",
"Z  c #1D3667",
"A  c #1E3A70",
"S  c #293F65",
"D  c #243E6D",
"F  c #283F6A",
"G  c #253C63",
"H  c #213E75",
"J  c #3C4145",
"K  c #33414E",
"L  c #354453",
"P  c #3A4654",
"I  c #374857",
"U  c #394957",
"Y  c #34465F",
"T  c #374958",
"R  c #3A4C5C",
"E  c #3E505F",
"W  c #2A426B",
"Q  c #394D61",
"!  c #384F6C",
"~  c #3F5162",
"^  c #3E536C",
"/  c #254276",
"(  c #23437F",
")  c #29467A",
"_  c #2D497D",
"`  c #284173",
"'  c #344D72",
"]  c #355078",
"[  c #3A537B",
"{  c #424546",
"}  c #444749",
"|  c #474A4C",
" . c #494B4D",
".. c #484F58",
"X. c #4E5153",
"o. c #43515E",
"O. c #515456",
"+. c #545759",
"@. c #565A5C",
"#. c #595C5E",
"$. c #425464",
"%. c #495765",
"&. c #4B5867",
"*. c #445769",
"=. c #45596B",
"-. c #485B6D",
";. c #5A5E62",
":. c #525E6E",
">. c #535D65",
",. c #465B72",
"<. c #485D70",
"1. c #405A7F",
"2. c #5D6163",
"3. c #4C6275",
"4. c #4E6578",
"5. c #516679",
"6. c #52697D",
"7. c #5A6A78",
"8. c #616567",
"9. c #636769",
"0. c #666A6C",
"q. c #686B6F",
"w. c #6B6E72",
"e. c #656B73",
"r. c #6C7073",
"t. c #707577",
"y. c #717578",
"u. c #74787C",
"i. c #787C7F",
"p. c #2D4A82",
"a. c #274B89",
"s. c #3B5381",
"d. c #2B5397",
"f. c #325797",
"g. c #3D5D99",
"h. c #325CAD",
"j. c #335FB3",
"k. c #4A668A",
"l. c #49658B",
"z. c #546D81",
"x. c #596F83",
"c. c #567185",
"v. c #5A7285",
"b. c #5A748A",
"n. c #5C788E",
"m. c #4C6995",
"M. c #506D91",
"N. c #7A7E82",
"B. c #637D93",
"V. c #7D8285",
"C. c #678097",
"Z. c #688095",
"A. c #7E8893",
"S. c #818689",
"D. c #84898D",
"F. c #8A8E92",
"G. c #8E9296",
"H. c #8F9498",
"J. c #93969B",
"K. c #94999D",
"L. c #979CA0",
"P. c #999DA2",
"I. c #9EA2A7",
"U. c #9FA3A8",
"Y. c #A1A6AB",
"T. c #A5A9AE",
"R. c #A7ABB1",
"E. c #AAADB3",
"W. c #AEB1B5",
"Q. c #AFB2B8",
"!. c #B0B3B7",
"~. c #B2B5BB",
"^. c #B2B5BC",
"/. c #B5B9BE",
"(. c #B8BBBF",
"). c #BCBEC3",
"_. c #C6C8CC",
"`. c #C9CBCE",
"'. c #CED0D4",
"]. c #D5D7D9",
"[. c #DBDCDF",
"{. c #D2D3D6",
"}. c #DDDEE2",
/* pixels */
"j.j.j.d.d.d.d.d.d.j.j.j.j.j.j.j.j.j.j.j.j.j.j.j.d.d.j.d.d.j j , j.j.j.d.d.d.d.d.d.j.j.j.j.j.j.j.j.j.j.j.j.j.j.j.d.d.j.d.d.j j , ",
"j.j.d.d.d.d.d.d.d.d.d.d.d.d.d.j.j.j.j.d.d.a.p./ W k.1.1.1.1.~ Q m.m.k.M.k.k.[ G W z S C d.d.d.j.j.j.j.d.d.d.d.d.d.d.d.d.d.d.j , ",
"j.d.d.d.d.( ( ( ( ( ( ( d.d.d.d.d.f.) ! R ~ 6.3.-.R <.<.<.<.<.<.<.v M <.7 M U <.<.*.6.Q ] ' 1.g.d.d.d.d.d.d.d.d.d.d.d.d.( j j , ",
"j.d.d.d.( ( ( ( ( ( ( ( ( ( ( ) ' <.6.n.n.b.3.6.v 7 <.<.<.<.<.<.<.=.b U R <.<.U % n.n.n.n.z.M S ( ( ( ( d.d.d.d.d.d.( ( j , , , ",
"j.d.d.d.( ( ( ( ( ( ( ( ( W 1 $.b.n.n.n.n.b $.b.z.O L <.<.<.<.<.<.<.=.<.<.<.R % 3.n.n.n.T L c.R l A ( ( ( ( ( ( ( ( ( ( j j , , ",
"j.d.d.d.( ( ( ( j ( ( H ^ <.R ; z.n.n.n.o.I z.b.n.z.c =.<.$.$.<.<.<.3.=.v =.U v z.n.4.v v n.n.n.n.n.=.8 j ( ( ( ( ( ( ( ( j , , ",
"d.d.d.( ( ( ( ( ( d.F ~ <.<.<.R =.n.n.n.n.c.R 6.n.c.M b U % r U R ~ 5.R =.K R n.n.n.n.n.n.n.n.n.n.<.~ ~ ,./ ( ( ( ( ( ( ( j j , ",
"d.d.( ( ( ( ( ( s.Q <.<.<.<.<.<.7 *.n.n.n.n.n.n.n.n.b.P . R $.U U 4 R $.<.7 6.n.n.n.n.n.*.n.n.n.*.; ~ <.<.=.F ( ( ( ( ( ( ( j , ",
"d.d.( ( ( ( ( D R <.<.<.<.<.<.<.$.# *.C.R v v v v n.n.v.y <.<.<.<.$.*.<.b z.n.n.n.n.4.v 4.n.n.*.# $.R R <.<.U h ( ( ( ( ( ( j , ",
"j.d.d.( ( ( D R <.<.<.<.<.<.<.<.<.$.5 e z.n.n.n.n.n.n.n.T 7 <.<.<.<.3.6.I n.n.n.U v *.n.n.n.3.; $.<.<.<.<.<.R 7 ^ _ ( ( ( j , , ",
"j.d.d.( ( C M <.<.<.<.<.<.<.<.<.R %.;.#.#.#.#.#.#.#.#.#.#.#.#.#.#.#.#.#.#.#.#.#.#.#.#.#.#.#.| M $.<.$.$.<.<.<.<.<.$.Z ( ( j , , ",
"j.d.d.( ` ~ 5 ~ <.<.<.<.<.<.5.>.2.i.G.H.H.P.`.H.H.H.H.H.H.H.H.I./.P.H.H.H.H.H.H.H.~.E.H.H.H.D.y.J R U U <.<.<.<.<.$.% n j j , , ",
"d.d.( [ o b.z.R 7 <.<.<.<.K | D.H.H.H.H.H.D.^.Y.H.H.H.H.H.H.H.F.~.U.H.H.H.H.H.H.S.~.~.P.H.H.H.H.H.D.O.I <.<.<.<.<.t I M , j , , ",
"d.d.j 8 z.L c.n.T 5 *.<.U . +.2.2.2.2.2.2.@.{ 2.2.2.2.2.2.2.2.O.a +.2.2.2.2.2.2.2.a } 2.2.2.2.2.2.2.p e <.<.=.v * I =.4.m , , , ",
"j j , <.n.c.$.z.n.L r I @ 9 p p p p } F.F.N.$ p p p 9 N.F.F.2.p p p p s r.F.F.} p p p 9 q.F.F.#.p p p 0 N =.b M R =.3.n.b.2 , , ",
", , r z.n.n.z.z.n.b.U p | 9 a a a a | H.H.S.$ a a a 9 S.H.H.9.a a a a i u.H.H.| a a a 9 r.H.H.2.a a a q 0.b M z.n.4.n.n.n.6 , , ",
"j.j.[ n.n.n.n.n.n.n.J V.2.9 a a a a | H.H.S.$ a a a 9 S.H.H.9.a a a a i u.H.H.| a a a 9 r.H.H.2.a a a 0 F.8.7.n.n.n.n.n.n.l.j.j.",
"j.h.n.n.n.x.u -.c.v.2.H.2.9 a a a a | H.H.S.$ a a a 9 S.H.H.9.a a a a i u.H.H.| a a a 9 r.H.H.2.a a a 0 G.S.. n.c.c.c.b.n.z.( j.",
"d._ n.n.n.n.n.-.L o.N.H.2.9 a a a a | H.H.S.$ a a a 9 S.H.H.9.a a a a i u.H.H.| a a a 9 r.H.H.2.a a a q G.G.+.A.R L L 4.n.c.V d.",
"( z =.=.=.=.=.=.&.{ G.H.2.9 a a a a | H.H.S.$ a a a 9 S.H.H.9.a a a a i u.H.H.| a a a 9 r.H.H.2.a a a q G.H.w.. E =.=.=.=.=.Y ( ",
"p.o . . . . . . . { G.H.2.9 a a a a | H.H.S.$ a a a 9 S.H.H.9.a a a a i u.H.H.| a a a 9 w.H.H.2.a a a 0 G.H.G.. . . . . . . < ( ",
"%.z.z.I X X X $.6.} 2.2.2.2.2.2.2.2.2.2.2.2.2.2.2.2.2.2.2.2.2.2.2.2.2.2.2.2.2.2.2.2.2.2.2.2.2.2.2.2.q.2.2.2.2.I z.z.z.z.z.z.z.Y ",
"%.. 4 v z.n.n.*.<.w.H.H.I._./.H.H.H.H.H.H.P.{.U.H.H.H.H.H.H.H.J.].W.H.H.H.H.H.H.H._.].K.H.H.H.H.H.H.(.`.H.H.H.L y v v v v y z.I ",
"L %.3.n.n.n.n.n.$.w.H.H.V.I.K.H.H.H.H.H.H.D.E.H.H.H.H.H.H.H.H.N.R.I.H.H.H.H.H.H.H.I.E.H.H.H.H.H.H.F.F.P.H.H.H.b E n.n.n.n.I . . ",
"&.B.n.n.n.n.n.n.b.} 2.2.2.2.2.2.2.2.2.2.2.2.2.2.2.2.2.2.2.2.2.2.2.2.2.2.2.2.2.2.2.2.2.2.2.2.2.2.2.2.2.2.2.2.2.$.n.n.n.n.n.b.<.M ",
"%.n.n.n.n.n.n.n.b.w.H.H.2.9 a a a a | H.H.S.$ a a a 9 S.H.H.9.a a a a i u.H.H.| a a a 9 w.H.H.2.a a a q G.H.H.R n.n.n.n.n.n.n.R ",
"%.z.z.z.z.z.z.z.5.w.H.H.2.9 a a a a | H.H.S.$ a a a 9 S.H.H.9.a a a a i u.H.H.| a a a 9 r.H.H.2.a a a q G.H.H.L z.z.z.z.z.z.z.I ",
":.. . . . . . . . w.H.H.2.9 a a a a | H.H.S.$ a a a 9 S.H.H.9.a a a a i u.H.H.| a a a 9 r.H.H.2.a a a 0 G.H.H.. . . . . . . . . ",
":.U U U =.. r U I w.H.H.2.9 a a a a | H.H.S.$ a a a 9 S.H.H.9.a a a a i u.H.H.| a a a 9 r.H.H.2.a a a q G.H.H.r U R U b U U U r ",
"..<.<.6.U =.=.7 4.w.H.H.2.9 a a a a | H.H.S.$ a a a 9 S.H.H.9.a a a a i u.H.H.| a a a 9 r.H.H.2.a a a q G.H.H.M <.e 7 ; $.<.<.M ",
"e.<.=.c 5 <.<.<.=.w.H.H.2.9 a a a a | H.H.S.$ a a a 9 S.H.H.9.a a a a i u.H.H.| a a a 9 r.H.H.2.a a a q G.H.H.% 7 <.<.L O <.<.M ",
"$.<.~ 5 K <.<.<.=.w.H.H.2.9 a a a a | H.H.S.$ a a a 9 S.H.H.9.a a a a i u.H.H.| a a a 9 r.H.H.2.a a a q G.H.H.M <.<.<.4.r R <.M ",
"$.<.<.~ U <.<.<.=.+.y.y. .* w w w w p y.y.0.X w w w * q.y.y.X.w w w w q ;.y.y.p w w w * +.y.y. .w w w 3 t.y.y.M <.3.<.=.~ R <.M ",
"$.<.<.<.<.<.<.<.=.2.S.S.S.S.S.S.S.S.S.S.S.S.S.S.S.S.S.S.S.S.S.S.S.S.S.S.S.S.S.S.S.S.S.S.S.S.S.S.S.S.S.S.S.S.S.M <.<.<.=.<.<.<.M ",
"o.$.$.$.$.$.$.$.~ w.H.H.P.'.!.H.H.H.H.H.H.P.}.P.H.H.H.H.H.H.H.J.[.!.H.H.H.H.H.H.H.'.[.J.H.H.H.H.H.H.'.`.H.H.H.v $.$.$.$.$.$.$.v ",
"L R R R R R R R U w.H.H.D.U.J.H.H.H.H.H.H.F.Y.H.H.H.H.H.H.H.H.D.J.L.H.H.H.H.H.H.H.G.I.J.H.H.H.H.H.G.K.P.H.H.H.y R R R R R R R y ",
"P n.n.3.c.n.n.n.b.{ #.#.p $ 9 9 9 9 q #.#.X.X 9 9 9 $ O.#.#.B 9 9 9 9 = | #.#.q 9 9 9 $ { #.#.p 9 9 9 & #.#.#.R n.n.n.n.n.n.n.R ",
"L K b =.b.B.B.n.b.w.H.H.2.9 a a a a | H.H.S.$ a a a 9 S.H.H.9.a a a a i u.H.H.| a a a 9 r.H.H.2.a a a q G.H.H.R n.n.4.b b U n.R ",
"L n.b.n.n.n.n.n.b.w.H.H.2.9 a a a a | H.H.S.$ a a a 9 S.H.H.9.a a a a i u.H.H.| a a a 9 r.H.H.2.a a a q G.H.H.R n.n.n.b.b.z.u 3 ",
"m n.n.n.n.n.n.n.b.w.H.H.2.9 a a a a | H.H.S.$ a a a 9 S.H.H.9.a a a a i u.H.H.| a a a 9 r.H.H.2.a a a q G.H.H.R n.n.n.n.n.n.n.R ",
"g n.n.n.n.n.n.n.b.w.H.H.2.9 a a a a | H.H.S.$ a a a 9 S.H.H.9.a a a a i u.H.H.| a a a 9 r.H.H.2.a a a q G.H.H.R n.n.n.n.n.n.n.R ",
"8 n.n.n.n.n.n.n.b.w.H.H.2.9 a a a a | H.H.S.$ a a a 9 S.H.H.9.a a a a i u.H.H.| a a a 9 r.H.H.2.a a a q G.H.H.R n.n.n.n.n.n.n.R ",
"< u u u u u u u u w.H.H.2.9 a a a a | H.H.S.$ a a a 9 S.H.H.9.a a a a i u.H.H.| a a a 9 r.H.H.2.a a a 0 G.H.H.: u u u u u u u 3 ",
"< <.<.<.<.<.<.<.=.8.D.D.q.O.#.#.#.#.2.D.D.N.X.@.#.#.O.V.D.D.w.#.#.#.#.@.u.D.D.2.#.#.#.O.r.D.D.q.#.#.#.O.D.D.D.M <.<.<.<.<.<.<.M ",
"< <.<.<.<.<.<.<.=.q.F.F.F./.P.F.F.F.F.F.F.J.Q.G.F.F.F.F.F.F.F.F.T.G.F.F.F.F.F.F.F.E.P.G.F.F.F.F.F.F.R.T.F.F.F.M <.<.<.<.<.<.<.M ",
"< L <.<.<.<.<.<.=.w.H.H.D.T.E.H.H.H.H.H.H.S.T.I.H.H.H.H.H.H.H.F.).U.H.H.H.H.H.H.D.W.).P.H.H.H.H.H.F.J.E.H.H.H.M <.<.<.<.<.<.<.M ",
"+ R 7 7 6.$.7 R =.@.N.N.u.y.N.N.N.N.N.N.N.y.y.N.N.N.N.N.N.N.N.u.N.N.N.N.N.N.N.N.N.u.N.N.N.N.N.N.N.N.t.u.N.N.N.M x.<.<.<.<.6.7 % ",
"3 <.<.<.b b <.<.=. .8.8.J $ 9 9 9 9 t 8.8.@.X 9 9 9 $ #.8.8.{ 9 9 9 9 3 X.8.8.t 9 9 9 $  .8.8.J 9 9 9 & 8.8.8.M <.6.r r 7 <.<.M ",
"n <.<.<.<.<.<.<.=.w.H.H.2.9 a a a a | H.H.S.$ a a a 9 S.H.H.9.a a a a i u.H.H.| a a a 9 r.H.H.2.a a a q G.H.H.M <.<.4.4.<.<.<.M ",
"k <.<.<.<.<.<.<.=.w.H.H.2.9 a a a a | H.H.S.$ a a a 9 S.H.H.9.a a a a i u.H.H.| a a a 9 r.H.H.2.a a a q G.H.H.M <.<.<.<.<.<.<.M ",
"d 7 7 7 7 7 7 7 7 w.H.H.2.9 a a a a | H.H.S.$ a a a 9 S.H.H.9.a a a a i u.H.H.| a a a 9 r.H.H.2.a a a 0 G.H.H.% 7 7 7 7 7 7 7 % ",
"n n.n.n.n.B.n.n.b.w.H.H.2.9 a a a a | H.H.S.$ a a a 9 S.H.H.9.a a a a i u.H.H.| a a a 9 r.H.H.2.a a a q G.H.H.R n.n.n.n.n.n.n.R ",
"x n.n.n.n.Z.n.n.b.w.H.H.2.9 a a a a | H.H.S.$ a a a 9 S.H.H.9.a a a a i u.H.H.| a a a 9 r.H.H.2.a a a q G.H.H.R n.n.z.z.n.n.n.R ",
"x R R 6.*.n.n.n.b.w.H.H.2.9 a a a a | H.H.S.$ a a a 9 S.H.H.9.a a a a i u.H.H.| a a a 9 r.H.H.2.a a a q G.H.H.R n.n.z.z.n.n.n.R ",
"g z.z.$.4.n.n.n.b.                                                                                            R n.n.n.*.v T 4.4 ",
"f n.n.n.n.n.n.n.b.                                                                                            R n.n.n.n.U n.n.R ",
"f n.n.n.n.n.n.n.b.                                                                                            R n.n.n.n.n.n.n.R ",
"f R R R R R R R U                                                                                             y R R R R R R R y ",
"g $.$.$.$.$.$.$.R                                                                                             u $.$.$.$.$.$.$.u ",
"x <.<.<.=.=.<.<.=.                                                                                            M <.<.=.=.<.<.<.M ",
"g <.<.<.7 I 6.=.=.                                                                                            M <.3.U U =.<.<.M ",
"> <.<.~ L 3.<.$.4.                                                                                            L R 5.$.L N <.<.M ",
"- <.<.~ =.<.<.<.3.                                                                                            L ~ <.<.~ -.<.<.M ",
"+ <.<.<.<.<.<.<.=.                                                                                            M <.<.<.<.3.<.<.M "
};
