/* XPM */
static char *_9a6579f18b4456386571607f1b0e530UO9xy4QsynaZ7IlV[] = {
/* columns rows colors chars-per-pixel */
"64 64 182 2 ",
"   c None",
".  c #000000",
"X  c #0B0B0C",
"o  c #020614",
"O  c #090E13",
"+  c #040E1E",
"@  c #070C11",
"#  c #0E151B",
"$  c #131313",
"%  c #10171E",
"&  c #14181C",
"*  c #1A1D1B",
"=  c #1E201F",
"-  c #07162A",
";  c #161D25",
":  c #191F26",
">  c #171F2E",
",  c #091733",
"<  c #0B1B33",
"1  c #0C1C3A",
"2  c #101E35",
"3  c #1B2125",
"4  c #172129",
"5  c #1B242C",
"6  c #1C2734",
"7  c #1E2932",
"8  c #1C2938",
"9  c #18253D",
"0  c #232625",
"q  c #272928",
"w  c #292B2B",
"e  c #2D302F",
"r  c #222C36",
"t  c #222E39",
"y  c #283136",
"u  c #24313C",
"i  c #2B353E",
"p  c #353837",
"a  c #37393B",
"s  c #3B3F3E",
"d  c #333635",
"f  c #0F2446",
"g  c #1D2740",
"h  c #1E2943",
"j  c #102449",
"k  c #132B4B",
"l  c #192B49",
"z  c #142A53",
"x  c #1F3152",
"c  c #1D355E",
"v  c #212C43",
"b  c #273540",
"n  c #283642",
"m  c #2B3844",
"M  c #23334D",
"N  c #283649",
"B  c #2D3B48",
"V  c #3C3E40",
"C  c #313E4A",
"Z  c #273A58",
"A  c #1D3A6D",
"S  c #1D3667",
"D  c #1E3A70",
"F  c #293F65",
"G  c #243E6D",
"H  c #283F6A",
"J  c #253C63",
"K  c #213E75",
"L  c #394147",
"P  c #33414E",
"I  c #354453",
"U  c #3A4654",
"Y  c #374857",
"T  c #394957",
"R  c #34465F",
"E  c #374958",
"W  c #3A4C5C",
"Q  c #3E505F",
"!  c #2A426B",
"~  c #394D61",
"^  c #384F6C",
"/  c #3F5162",
"(  c #3E536C",
")  c #254276",
"_  c #284173",
"`  c #23437F",
"'  c #29467A",
"]  c #2D497D",
"[  c #344D72",
"{  c #355078",
"}  c #3A537B",
"|  c #424546",
" . c #444749",
".. c #474A4C",
"X. c #494B4E",
"o. c #484F58",
"O. c #4E5153",
"+. c #43515E",
"@. c #515456",
"#. c #545759",
"$. c #595C5F",
"%. c #575B5D",
"&. c #425464",
"*. c #495765",
"=. c #4B5867",
"-. c #445769",
";. c #45596B",
":. c #485B6D",
">. c #5A5E62",
",. c #525E6E",
"<. c #535D65",
"1. c #465B72",
"2. c #485D70",
"3. c #405A7F",
"4. c #5D6163",
"5. c #4C6275",
"6. c #4E6578",
"7. c #516679",
"8. c #52697D",
"9. c #5A6A78",
"0. c #616567",
"q. c #636769",
"w. c #666A6C",
"e. c #686B6F",
"r. c #6B6E72",
"t. c #656B73",
"y. c #6C7073",
"u. c #707477",
"i. c #717578",
"p. c #74787C",
"a. c #787C7F",
"s. c #2D4A82",
"d. c #274B89",
"f. c #3B5381",
"g. c #2B5397",
"h. c #325797",
"j. c #3D5D99",
"k. c #325CAD",
"l. c #335FB3",
"z. c #4A668A",
"x. c #49658B",
"c. c #546D81",
"v. c #596F83",
"b. c #567185",
"n. c #5A7285",
"m. c #5A748A",
"M. c #5C788E",
"N. c #4C6995",
"B. c #506D91",
"V. c #7A7E82",
"C. c #637D93",
"Z. c #7E8285",
"A. c #678097",
"S. c #688095",
"D. c #7E8893",
"F. c #818589",
"G. c #858A8D",
"H. c #898E91",
"J. c #8E9296",
"K. c #8F9498",
"L. c #93979C",
"P. c #94999D",
"I. c #979CA0",
"U. c #9A9EA3",
"Y. c #9EA2A7",
"T. c #9FA3A8",
"R. c #A1A6AB",
"E. c #A7ABB1",
"W. c #ABAEB4",
"Q. c #ADB0B4",
"!. c #B0B3B7",
"~. c #B2B5BB",
"^. c #B2B5BC",
"/. c #B5B9BD",
"(. c #B8BBBF",
"). c #C6C8CC",
"_. c #C9CBCE",
"`. c #CED0D4",
"'. c #D5D7D9",
"]. c #DBDCDF",
"[. c #D2D3D6",
"{. c #DDDEE2",
/* pixels */
"l.l.l.g.g.g.g.g.g.l.l.l.l.l.l.l.l.l.l.l.l.l.l.l.g.g.l.g.g.k k < l.l.l.g.g.g.g.g.g.l.l.l.l.l.l.l.l.l.l.l.l.l.l.l.g.g.l.g.g.k k < ",
"l.l.g.g.g.g.g.g.g.g.g.g.g.g.g.l.l.l.l.g.g.d.s.) ! z.3.3.3.3./ ~ N.N.z.B.z.z.} J ! c F A g.g.g.l.l.l.l.g.g.g.g.g.g.g.g.g.g.g.k < ",
"l.g.g.g.g.` ` ` ` ` ` ` g.g.g.g.g.h.' ^ W / 8.5.:.W 2.2.2.2.2.2.2.n B 2.7 B T 2.2.-.8.~ { [ 3.j.g.g.g.g.g.g.g.g.g.g.g.g.` k k < ",
"l.g.g.g.` ` ` ` ` ` ` ` ` ` ` ' [ 2.8.M.M.m.5.8.n 7 2.2.2.2.2.2.2.;.m T W 2.2.T % M.M.M.M.c.B F ` ` ` ` g.g.g.g.g.g.` ` k < < < ",
"l.g.g.g.` ` ` ` ` ` ` ` ` ! , &.m.M.M.M.M.m &.m.c.O I 2.2.2.2.2.2.2.;.2.2.2.W % 5.M.M.M.E I b.W z D ` ` ` ` ` ` ` ` ` ` k k < < ",
"l.g.g.g.` ` ` ` k ` ` K ( 2.W ; c.M.M.M.+.Y c.m.M.c.b ;.2.&.&.2.2.2.5.;.n ;.T n c.M.6.n n M.M.M.M.M.;.9 k ` ` ` ` ` ` ` ` k < < ",
"g.g.g.` ` ` ` ` ` g.H / 2.2.2.W ;.M.M.M.M.b.W 8.M.b.B m T % t T W / 7.W ;.P W M.M.M.M.M.M.M.M.M.M.2./ / 1.) ` ` ` ` ` ` ` k k < ",
"g.g.` ` ` ` ` ` f.~ 2.2.2.2.2.2.7 -.M.M.M.M.M.M.M.M.m.U . W &.T T 4 W &.2.7 8.M.M.M.M.M.-.M.M.M.-.; / 2.2.;.H ` ` ` ` ` ` ` k < ",
"g.g.` ` ` ` ` G W 2.2.2.2.2.2.2.&.# -.A.W n n n n M.M.n.u 2.2.2.2.&.-.2.m c.M.M.M.M.6.n 6.M.M.-.# &.W W 2.2.T j ` ` ` ` ` ` k < ",
"l.g.g.` ` ` G W 2.2.2.2.2.2.2.2.2.&.5 r c.M.M.M.M.M.M.M.E 7 2.2.2.2.5.8.Y M.M.M.T n -.M.M.M.5.; &.2.2.2.2.2.W 7 ( ] ` ` ` k < < ",
"l.g.g.` ` A B 2.2.2.2.2.2.2.2.2.W *.>.$.$.$.$.$.$.$.$.$.$.$.$.$.$.$.$.$.$.$.$.$.$.$.$.$.$.$...B &.2.&.&.2.2.2.2.2.&.S ` ` k < < ",
"l.g.g.` _ / 5 / 2.2.2.2.2.2.7.<.4.a.J.K.K.I._.K.K.K.K.K.K.K.K.Y./.I.K.K.K.K.K.K.K.~.W.K.K.K.G.i.L W T T 2.2.2.2.2.&.% M k k < < ",
"g.g.` } o m.c.W 7 2.2.2.2.P ..G.K.K.K.K.K.G.^.R.K.K.K.K.K.K.K.H.~.T.K.K.K.K.K.K.F.~.~.U.K.K.K.K.K.F.@.Y 2.2.2.2.2.y Y B < k < < ",
"g.g.k 8 c.I b.M.E 5 -.2.T . #.4.4.4.4.4.4.%.| 4.4.4.4.4.4.4.4.@.s #.4.4.4.4.4.4.4.s  .4.4.4.4.4.4.4.a r 2.2.;.n * Y ;.6.N < < < ",
"k k < 2.M.b.&.c.M.I t Y @ 0 a a a a  .H.H.V.$ a a a 0 V.H.H.4.a a a a d y.H.H. .a a a 0 e.H.H.$.a a a q C ;.m B W ;.5.M.m.2 < < ",
"< < t c.M.M.c.c.M.m.T a ..0 s s s s ..K.K.F.$ s s s 0 F.K.K.q.s s s s p p.K.K...s s s 0 y.K.K.4.s s s w w.m B c.M.6.M.M.M.8 < < ",
"l.l.} M.M.M.M.M.M.M.L Z.4.0 s s s s ..K.K.F.$ s s s 0 F.K.K.q.s s s s p p.K.K...s s s 0 y.K.K.4.s s s q H.0.9.M.M.M.M.M.M.x.l.l.",
"l.k.M.M.M.v.i :.b.n.4.K.4.0 s s s s ..K.K.F.$ s s s 0 F.K.K.q.s s s s p p.K.K...s s s 0 y.K.K.4.s s s q J.F.. M.b.b.b.m.M.c.` l.",
"g.] M.M.M.M.M.:.I +.V.K.4.0 s s s s ..K.K.F.$ s s s 0 F.K.K.q.s s s s p p.K.K...s s s 0 y.K.K.4.s s s w J.J.#.D.W I I 6.M.b.Z g.",
"` x ;.;.;.;.;.;.=.| J.K.4.0 s s s s ..K.K.F.$ s s s 0 F.K.K.q.s s s s p p.K.K...s s s 0 y.K.K.4.s s s w J.K.r.. Q ;.;.;.;.;.R ` ",
"s.o . . . . . . . | J.K.4.0 s s s s ..K.K.F.$ s s s 0 F.K.K.q.s s s s p p.K.K...s s s 0 r.K.K.4.s s s q J.K.J.. . . . . . . 1 ` ",
"*.c.c.Y X X X &.8. .4.4.4.4.4.4.4.4.4.4.4.4.4.4.4.4.4.4.4.4.4.4.4.4.4.4.4.4.4.4.4.4.4.4.4.4.4.4.4.4.e.4.4.4.4.Y c.c.c.c.c.c.c.R ",
"*.. 4 n c.M.M.-.2.r.K.K.Y.)./.K.K.K.K.K.K.I.[.T.K.K.K.K.K.K.K.L.'.Q.K.K.K.K.K.K.K.).'.P.K.K.K.K.K.K.(._.K.K.K.I u n n n n u c.Y ",
"I *.5.M.M.M.M.M.&.r.K.K.Z.Y.P.K.K.K.K.K.K.G.W.K.K.K.K.K.K.K.K.V.E.Y.K.K.K.K.K.K.K.Y.W.K.K.K.K.K.K.H.H.U.K.K.K.m Q M.M.M.M.Y . . ",
"=.C.M.M.M.M.M.M.m. .4.4.4.4.4.4.4.4.4.4.4.4.4.4.4.4.4.4.4.4.4.4.4.4.4.4.4.4.4.4.4.4.4.4.4.4.4.4.4.4.4.4.4.4.4.&.M.M.M.M.M.m.2.B ",
"*.M.M.M.M.M.M.M.m.r.K.K.4.0 s s s s ..K.K.F.$ s s s 0 F.K.K.q.s s s s p p.K.K...s s s 0 r.K.K.4.s s s w J.K.K.W M.M.M.M.M.M.M.W ",
"*.c.c.c.c.c.c.c.7.r.K.K.4.0 s s s s ..K.K.F.$ s s s 0 F.K.K.q.s s s s p p.K.K...s s s 0 y.K.K.4.s s s w J.K.K.I c.c.c.c.c.c.c.Y ",
",.. . . . . . . . r.K.K.4.0 s s s s ..K.K.F.$ s s s 0 F.K.K.q.s s s s p p.K.K...s s s 0 y.K.K.4.s s s q J.K.K.. . . . . . . . . ",
",.T T T ;.. t T Y r.K.K.4.0 s s s s ..K.K.F.$ s s s 0 F.K.K.q.s s s s p p.K.K...s s s 0 y.K.K.4.s s s w J.K.K.t T W T m T T T t ",
"o.2.2.8.T ;.;.7 6.r.K.K.4.0 s s s s ..K.K.F.$ s s s 0 F.K.K.q.s s s s p p.K.K...s s s 0 y.K.K.4.s s s w J.K.K.B 2.r 7 ; &.2.2.B ",
"t.2.;.b 5 2.2.2.;.r.K.K.4.0 s s s s ..K.K.F.$ s s s 0 F.K.K.q.s s s s p p.K.K...s s s 0 y.K.K.4.s s s w J.K.K.% 7 2.2.I O 2.2.B ",
"&.2./ 5 P 2.2.2.;.r.K.K.4.0 s s s s ..K.K.F.$ s s s 0 F.K.K.q.s s s s p p.K.K...s s s 0 y.K.K.4.s s s w J.K.K.B 2.2.2.6.t W 2.B ",
"&.2.2./ T 2.2.2.;.#.i.i.X.* e e e e a i.i.w.X e e e * e.i.i.O.e e e e w >.i.i.a e e e * #.i.i.X.e e e 3 u.i.i.B 2.5.2.;./ W 2.B ",
"&.2.2.2.2.2.2.2.;.4.F.F.F.F.F.F.F.F.F.F.F.F.F.F.F.F.F.F.F.F.F.F.F.F.F.F.F.F.F.F.F.F.F.F.F.F.F.F.F.F.F.F.F.F.F.B 2.2.2.;.2.2.2.B ",
"+.&.&.&.&.&.&.&./ r.K.K.I.`.!.K.K.K.K.K.K.I.{.U.K.K.K.K.K.K.K.L.].!.K.K.K.K.K.K.K.`.].L.K.K.K.K.K.K.`._.K.K.K.n &.&.&.&.&.&.&.n ",
"I W W W W W W W T r.K.K.G.T.L.K.K.K.K.K.K.H.R.K.K.K.K.K.K.K.K.G.L.I.K.K.K.K.K.K.K.J.Y.L.K.K.K.K.K.J.P.I.K.K.K.u W W W W W W W u ",
"U M.M.5.b.M.M.M.m.| $.$.a $ 0 0 0 0 w $.$.O.X 0 0 0 $ @.$.$.V 0 0 0 0 = ..$.$.w 0 0 0 $ | $.$.a 0 0 0 & $.$.$.W M.M.M.M.M.M.M.W ",
"I P m ;.m.C.C.M.m.r.K.K.4.0 s s s s ..K.K.F.$ s s s 0 F.K.K.q.s s s s p p.K.K...s s s 0 y.K.K.4.s s s w J.K.K.W M.M.6.m m T M.W ",
"I M.m.M.M.M.M.M.m.r.K.K.4.0 s s s s ..K.K.F.$ s s s 0 F.K.K.q.s s s s p p.K.K...s s s 0 y.K.K.4.s s s w J.K.K.W M.M.M.m.m.c.i 3 ",
"N M.M.M.M.M.M.M.m.r.K.K.4.0 s s s s ..K.K.F.$ s s s 0 F.K.K.q.s s s s p p.K.K...s s s 0 y.K.K.4.s s s w J.K.K.W M.M.M.M.M.M.M.W ",
"h M.M.M.M.M.M.M.m.r.K.K.4.0 s s s s ..K.K.F.$ s s s 0 F.K.K.q.s s s s p p.K.K...s s s 0 y.K.K.4.s s s w J.K.K.W M.M.M.M.M.M.M.W ",
"9 M.M.M.M.M.M.M.m.r.K.K.4.0 s s s s ..K.K.F.$ s s s 0 F.K.K.q.s s s s p p.K.K...s s s 0 y.K.K.4.s s s w J.K.K.W M.M.M.M.M.M.M.W ",
"1 i i i i i i i i r.K.K.4.0 s s s s ..K.K.F.$ s s s 0 F.K.K.q.s s s s p p.K.K...s s s 0 y.K.K.4.s s s q J.K.K.: i i i i i i i 3 ",
"1 2.2.2.2.2.2.2.;.                                                                                            B 2.2.2.2.2.2.2.B ",
"1 2.2.2.2.2.2.2.;.                                                                                            B 2.2.2.2.2.2.2.B ",
"1 I 2.2.2.2.2.2.;.                                                                                            B 2.2.2.2.2.2.2.B ",
"+ W 7 7 8.&.7 W ;.                                                                                            B v.2.2.2.2.8.7 % ",
"3 2.2.2.m m 2.2.;.                                                                                            B 2.8.t t 7 2.2.B ",
"M 2.2.2.2.2.2.2.;.                                                                                            B 2.2.6.6.2.2.2.B ",
"l 2.2.2.2.2.2.2.;.                                                                                            B 2.2.2.2.2.2.2.B ",
"f 7 7 7 7 7 7 7 7                                                                                             % 7 7 7 7 7 7 7 % ",
"M M.M.M.M.C.M.M.m.                                                                                            W M.M.M.M.M.M.M.W ",
"v M.M.M.M.S.M.M.m.                                                                                            W M.M.c.c.M.M.M.W ",
"v W W 8.-.M.M.M.m.                                                                                            W M.M.c.c.M.M.M.W ",
"h c.c.&.6.M.M.M.m.                                                                                            W M.M.M.-.n E 6.4 ",
"g M.M.M.M.M.M.M.m.                                                                                            W M.M.M.M.T M.M.W ",
"g M.M.M.M.M.M.M.m.                                                                                            W M.M.M.M.M.M.M.W ",
"g W W W W W W W T                                                                                             u W W W W W W W u ",
"h &.&.&.&.&.&.&.W                                                                                             i &.&.&.&.&.&.&.i ",
"v 2.2.2.;.;.2.2.;.                                                                                            B 2.2.;.;.2.2.2.B ",
"h 2.2.2.7 Y 8.;.;.                                                                                            B 2.5.T T ;.2.2.B ",
"> 2.2./ I 5.2.&.6.                                                                                            I W 7.&.I C 2.2.B ",
"- 2.2./ ;.2.2.2.5.                                                                                            I / 2.2./ :.2.2.B ",
"+ 2.2.2.2.2.2.2.;.                                                                                            B 2.2.2.2.5.2.2.B "
};
