/* XPM */
static char * 3_xpm[] = {
"64 64 166 2",
"  	c #051128",
". 	c #040D21",
"+ 	c #01040B",
"@ 	c #010205",
"# 	c #030B1D",
"$ 	c #040B1B",
"% 	c #030917",
"& 	c #040914",
"* 	c #0B131D",
"= 	c #080F1A",
"- 	c #080D12",
"; 	c #060C11",
"> 	c #0B1420",
", 	c #0C151F",
"' 	c #070D19",
") 	c #030712",
"! 	c #020610",
"~ 	c #040812",
"{ 	c #020715",
"] 	c #03091A",
"^ 	c #050E21",
"/ 	c #040A18",
"( 	c #060C14",
"_ 	c #070B10",
": 	c #0D1419",
"< 	c #0B1217",
"[ 	c #0A1015",
"} 	c #0A1016",
"| 	c #030609",
"1 	c #04070A",
"2 	c #020405",
"3 	c #060B0E",
"4 	c #090E14",
"5 	c #060C18",
"6 	c #050C16",
"7 	c #071021",
"8 	c #10181E",
"9 	c #0F171D",
"0 	c #090F14",
"a 	c #040609",
"b 	c #010102",
"c 	c #0E151A",
"d 	c #000105",
"e 	c #090E12",
"f 	c #000101",
"g 	c #06090D",
"h 	c #060B0F",
"i 	c #0E161B",
"j 	c #01040D",
"k 	c #020716",
"l 	c #020817",
"m 	c #080D14",
"n 	c #010203",
"o 	c #090D10",
"p 	c #060A0E",
"q 	c #030608",
"r 	c #0C1218",
"s 	c #010307",
"t 	c #030814",
"u 	c #030406",
"v 	c #0D1318",
"w 	c #05080C",
"x 	c #070D1A",
"y 	c #070A0E",
"z 	c #00000000",
"A 	c #010204",
"B 	c #030815",
"C 	c #131A21",
"D 	c #0F161B",
"E 	c #030507",
"F 	c #01030B",
"G 	c #020304",
"H 	c #040B19",
"I 	c #0B0E12",
"J 	c #0F1012",
"K 	c #0F1011",
"L 	c #0A0B0B",
"M 	c #020613",
"N 	c #030816",
"O 	c #0D1012",
"P 	c #101112",
"Q 	c #18191A",
"R 	c #1E1F20",
"S 	c #1E2021",
"T 	c #212223",
"U 	c #2F2F30",
"V 	c #232425",
"W 	c #292A2B",
"X 	c #28292B",
"Y 	c #262729",
"Z 	c #1B1D1E",
"` 	c #161718",
" .	c #06080A",
"..	c #03050C",
"+.	c #000001",
"@.	c #232526",
"#.	c #1D1E1F",
"$.	c #1A1B1D",
"%.	c #212324",
"&.	c #0D0E0E",
"*.	c #030506",
"=.	c #020406",
"-.	c #0E0E0F",
";.	c #0E1010",
">.	c #09090A",
",.	c #070808",
"'.	c #090A0B",
").	c #060607",
"!.	c #020202",
"~.	c #03060B",
"{.	c #030303",
"].	c #18191B",
"^.	c #010101",
"/.	c #050606",
"(.	c #141616",
"_.	c #131415",
":.	c #030403",
"<.	c #05080B",
"[.	c #010206",
"}.	c #121314",
"|.	c #060606",
"1.	c #171819",
"2.	c #040404",
"3.	c #131414",
"4.	c #191B1B",
"5.	c #111213",
"6.	c #0F1418",
"7.	c #0B121D",
"8.	c #051027",
"9.	c #0F151B",
"0.	c #040608",
"a.	c #191C1F",
"b.	c #03070F",
"c.	c #02050D",
"d.	c #0B0F13",
"e.	c #141516",
"f.	c #080C11",
"g.	c #050A11",
"h.	c #010207",
"i.	c #2E2E2F",
"j.	c #313132",
"k.	c #1F2122",
"l.	c #323333",
"m.	c #272829",
"n.	c #202122",
"o.	c #2A2B2C",
"p.	c #252628",
"q.	c #12191F",
"r.	c #0D1015",
"s.	c #0A0C0F",
"t.	c #121416",
"u.	c #0B0B0C",
"v.	c #040504",
"w.	c #0C0D0D",
"x.	c #020203",
"y.	c #303132",
"z.	c #28282A",
"A.	c #343536",
"B.	c #343435",
"C.	c #020409",
"D.	c #000102",
"E.	c #02040B",
"F.	c #01030A",
"G.	c #131A20",
"H.	c #020308",
"I.	c #000104",
"      . . . . . .                               . .   . . + + @       . . . . . .                               . .   . . + + @ ",
"    . . . . . . . . . . . . .         . . # $ % & * = = = = - ; > > * , * * ' ) & ! ~ { . . .         . . . . . . . . . . . + @ ",
"  . . . . ] ] ] ] ] ] ] . . . . . ^ / ( _ - : < [ _ } } } } } } } | 1 } 2 1 3 } } 4 : ; 5 6 = 7 . . . . . . . . . . . . ] + + @ ",
"  . . . ] ] ] ] ] ] ] ] ] ] ] / 6 } : 8 8 9 < : | 2 } } } } } } } 0 a 3 _ } } 3 b 8 8 8 8 c 1 ~ ] ] ] ] . . . . . . ] ] + @ @ @ ",
"  . . . ] ] ] ] ] ] ] ] ] & d e 9 8 8 8 8 a e 9 c f g } } } } } } } 0 } } } _ b < 8 8 8 h g i _ j k ] ] ] ] ] ] ] ] ] ] + + @ @ ",
"  . . . ] ] ] ] + ] ] l m } _ n c 8 8 8 o p c 9 8 c q 0 } e e } } } < 0 | 0 3 | c 8 r | | 8 8 8 8 8 0 s + ] ] ] ] ] ] ] ] + @ @ ",
". . . ] ] ] ] ] ] . t - } } } _ 0 8 8 8 8 i _ : 8 i 1 a 3 b u 3 _ - v _ 0 w _ 8 8 8 8 8 8 8 8 8 8 } - - } % ] ] ] ] ] ] ] + + @ ",
". . ] ] ] ] ] ] x ; } } } } } } 2 4 8 8 8 8 8 8 8 8 9 y z _ e 3 3 A _ e } 2 : 8 8 8 8 8 4 8 8 8 4 n - } } 0 t ] ] ] ] ] ] ] + @ ",
". . ] ] ] ] ] B _ } } } } } } } e b 4 C _ | | | | 8 8 D E } } } } e 4 } a c 8 8 8 8 r | r 8 8 4 b e _ _ } } 3 F ] ] ] ] ] ] + @ ",
"  . . ] ] ] B _ } } } } } } } } } e G u c 8 8 8 8 8 8 8 h 2 } } } } < : p 8 8 8 3 | 4 8 8 8 < n e } } } } } _ 2 m H ] ] ] + @ @ ",
"  . . ] ] { 1 } } } } } } } } } _ I J K K K K K K K K K K K K K K K K K K K K K K K K K K K L 1 e } e e } } } } } e M ] ] + @ @ ",
"  . . ] N - G - } } } } } } v O P Q R S S T U S S S S S S S S V W T S S S S S S S X Y S S S Z `  ._ 3 3 } } } } } e b ..+ + @ @ ",
". . ] ' +.9 c _ 2 } } } } w L Z S S S S S Z X @.S S S S S S S #.X V S S S S S S $.X X %.S S S S S $.&.p } } } } } *.p 1 @ + @ @ ",
". . + =.c g i 8 h G 4 } 3 z -.P P P P P P ;.>.P P P P P P P P &.,.-.P P P P P P P ,.'.P P P P P P P ).u } } 0 | !.p 0 r ~.@ @ @ ",
"+ + @ } 8 i e c 8 g u p f {.).).).).'.#.#.].^.).).).{.].#.#.P ).).).)./.(.#.#.'.).).).{._.#.#.K ).).).:.<.0 a 1 _ 0 < 8 9 [.@ @ ",
"@ @ u c 8 8 c c 8 9 3 ).L {.,.,.,.,.L S S $.^.,.,.,.{.$.S S }.,.,.,.,.|.1.S S L ,.,.,.{.(.S S P ,.,.,.2.3.a 1 c 8 r 8 8 8 =.@ @ ",
"    ' 8 8 8 8 8 8 8  .4.P {.,.,.,.,.L S S $.^.,.,.,.{.$.S S }.,.,.,.,.|.1.S S L ,.,.,.{.(.S S P ,.,.,.:.#.5.6.8 8 8 8 8 8 7.    ",
"  8.8 8 8 9.0.[ i D P S P {.,.,.,.,.L S S $.^.,.,.,.{.$.S S }.,.,.,.,.|.1.S S L ,.,.,.{.(.S S P ,.,.,.:.R $.z 8 i i i 9 8 c ]   ",
". H 8 8 8 8 8 [ g o ].S P {.,.,.,.,.L S S $.^.,.,.,.{.$.S S }.,.,.,.,.|.1.S S L ,.,.,.{.(.S S P ,.,.,.2.R R -.a._ g g r 8 i b.. ",
"] c.0 0 0 0 0 0 d.>.R S P {.,.,.,.,.L S S $.^.,.,.,.{.$.S S }.,.,.,.,.|.1.S S L ,.,.,.{.(.S S P ,.,.,.2.R S e.z f.0 0 0 0 0 g.] ",
"$ +.z z z z z z z >.R S P {.,.,.,.,.L S S $.^.,.,.,.{.$.S S }.,.,.,.,.|.1.S S L ,.,.,.{.e.S S P ,.,.,.:.R S R z z z z z z z h.] ",
"I c c p ^.^.^.e : '.P P P P P P P P P P P P P P P P P P P P P P P P P P P P P P P P P P P P P P P P _.P P P P p c c c c c c c g.",
"I z A | c 8 8 4 } e.S S V i.W S S S S S S T j.V S S S S S S S k.l.m.S S S S S S S i.l.n.S S S S S S o.U S S S g E | | | | E c p ",
"g I < 8 8 8 8 8 e e.S S 4.V n.S S S S S S Z Y S S S S S S S S ].p.V S S S S S S S V Y S S S S S S #.#.%.S S S a f.8 8 8 8 p z z ",
"d.q.8 8 8 8 8 8 9 '.P P P P P P P P P P P P P P P P P P P P P P P P P P P P P P P P P P P P P P P P P P P P P e 8 8 8 8 8 9 } 1 ",
"I 8 8 8 8 8 8 8 9 e.S S P {.,.,.,.,.L S S $.^.,.,.,.{.$.S S }.,.,.,.,.|.1.S S L ,.,.,.{.e.S S P ,.,.,.2.R S S _ 8 8 8 8 8 8 8 _ ",
"I c c c c c c c v e.S S P {.,.,.,.,.L S S $.^.,.,.,.{.$.S S }.,.,.,.,.|.1.S S L ,.,.,.{.(.S S P ,.,.,.2.R S S g c c c c c c c p ",
"r.z z z z z z z z e.S S P {.,.,.,.,.L S S $.^.,.,.,.{.$.S S }.,.,.,.,.|.1.S S L ,.,.,.{.(.S S P ,.,.,.:.R S S z z z z z z z z z ",
"r.3 3 3 0 z u 3 p e.S S P {.,.,.,.,.L S S $.^.,.,.,.{.$.S S }.,.,.,.,.|.1.S S L ,.,.,.{.(.S S P ,.,.,.2.R S S u 3 _ 3 a 3 3 3 u ",
"s.} } : 3 0 0 2 r e.S S P {.,.,.,.,.L S S $.^.,.,.,.{.$.S S }.,.,.,.,.|.1.S S L ,.,.,.{.(.S S P ,.,.,.2.R S S 1 } u 2 n e } } 1 ",
"t.} 0 q G } } } 0 e.S S P {.,.,.,.,.L S S $.^.,.,.,.{.$.S S }.,.,.,.,.|.1.S S L ,.,.,.{.(.S S P ,.,.,.2.R S S b 2 } } g f } } 1 ",
"e } - G w } } } 0 e.S S P {.,.,.,.,.L S S $.^.,.,.,.{.$.S S }.,.,.,.,.|.1.S S L ,.,.,.{.(.S S P ,.,.,.2.R S S 1 } } } r u _ } 1 ",
"e } } - 3 } } } 0 -.` ` u.!.v.v.v.v.).` ` 3.^.v.v.v.!._.` ` w.v.v.v.v.2.J ` ` ).v.v.v.!.-.` ` u.v.v.v.x.` ` ` 1 } < } 0 - _ } 1 ",
"e } } } } } } } 0 P $.$.$.$.$.$.$.$.$.$.$.$.$.$.$.$.$.$.$.$.$.$.$.$.$.$.$.$.$.$.$.$.$.$.$.$.$.$.$.$.$.$.$.$.$.1 } } } 0 } } } 1 ",
"o e e e e e e e - e.S S T y.z.S S S S S S T A.%.S S S S S S S k.B.z.S S S S S S S y.B.k.S S S S S S y.U S S S | e e e e e e e | ",
"g _ _ _ _ _ _ _ 3 e.S S Z V k.S S S S S S #.@.S S S S S S S S Z k.T S S S S S S S R V k.S S S S S R n.T S S S E _ _ _ _ _ _ _ E ",
"y 8 8 < i 8 8 8 9 >.K K ).^.{.{.{.{.2.K K w.^.{.{.{.^.&.K K ,.{.{.{.{.!.L K K 2.{.{.{.^.>.K K ).{.{.{.b K K K _ 8 8 8 8 8 8 8 _ ",
"g w a 0 9 q.q.8 9 e.S S P {.,.,.,.,.L S S $.^.,.,.,.{.$.S S }.,.,.,.,.|.1.S S L ,.,.,.{.(.S S P ,.,.,.2.R S S _ 8 8 r a a 3 8 _ ",
"g 8 9 8 8 8 8 8 9 e.S S P {.,.,.,.,.L S S $.^.,.,.,.{.$.S S }.,.,.,.,.|.1.S S L ,.,.,.{.(.S S P ,.,.,.2.R S S _ 8 8 8 9 9 c 0.x.",
"~.8 8 8 8 8 8 8 9 e.S S P {.,.,.,.,.L S S $.^.,.,.,.{.$.S S }.,.,.,.,.|.1.S S L ,.,.,.{.(.S S P ,.,.,.2.R S S _ 8 8 8 8 8 8 8 _ ",
"C.8 8 8 8 8 8 8 9 e.S S P {.,.,.,.,.L S S $.^.,.,.,.{.$.S S }.,.,.,.,.|.1.S S L ,.,.,.{.(.S S P ,.,.,.2.R S S _ 8 8 8 8 8 8 8 _ ",
"s 8 8 8 8 8 8 8 9 e.S S P {.,.,.,.,.L S S $.^.,.,.,.{.$.S S }.,.,.,.,.|.1.S S L ,.,.,.{.(.S S P ,.,.,.2.R S S _ 8 8 8 8 8 8 8 _ ",
"h.0.0.0.0.0.0.0.0.e.S S P {.,.,.,.,.L S S $.^.,.,.,.{.$.S S }.,.,.,.,.|.1.S S L ,.,.,.{.(.S S P ,.,.,.:.R S S x.0.0.0.0.0.0.0.x.",
"h.} } } } } } } 0 z z z z z z z z z z z z z z z z z z z z z z z z z z z z z z z z z z z z z z z z z z z z z z 1 } } } } } } } 1 ",
"h.} } } } } } } 0 z z z z z z z z z z z z z z z z z z z z z z z z z z z z z z z z z z z z z z z z z z z z z z 1 } } } } } } } 1 ",
"h.g } } } } } } 0 z z z z z z z z z z z z z z z z z z z z z z z z z z z z z z z z z z z z z z z z z z z z z z 1 } } } } } } } 1 ",
"D._ 2 2 : e 2 _ 0 z z z z z z z z z z z z z z z z z z z z z z z z z z z z z z z z z z z z z z z z z z z z z z 1 9.} } } } : 2 b ",
"x.} } } a a } } 0 z z z z z z z z z z z z z z z z z z z z z z z z z z z z z z z z z z z z z z z z z z z z z z 1 } : u u 2 } } 1 ",
"..} } } } } } } 0 z z z z z z z z z z z z z z z z z z z z z z z z z z z z z z z z z z z z z z z z z z z z z z 1 } } r r } } } 1 ",
"E.} } } } } } } 0 z z z z z z z z z z z z z z z z z z z z z z z z z z z z z z z z z z z z z z z z z z z z z z 1 } } } } } } } 1 ",
"F.2 2 2 2 2 2 2 2 z z z z z z z z z z z z z z z z z z z z z z z z z z z z z z z z z z z z z z z z z z z z z z b 2 2 2 2 2 2 2 b ",
"..8 8 8 8 q.8 8 9 z z z z z z z z z z z z z z z z z z z z z z z z z z z z z z z z z z z z z z z z z z z z z z _ 8 8 8 8 8 8 8 _ ",
"C.8 8 8 8 G.8 8 9 z z z z z z z z z z z z z z z z z z z z z z z z z z z z z z z z z z z z z z z z z z z z z z _ 8 8 c c 8 8 8 _ ",
"C._ _ : 4 8 8 8 9 z z z z z z z z z z z z z z z z z z z z z z z z z z z z z z z z z z z z z z z z z z z z z z _ 8 8 c c 8 8 8 _ ",
"C.c c e r 8 8 8 9 z z z z z z z z z z z z z z z z z z z z z z z z z z z z z z z z z z z z z z z z z z z z z z _ 8 8 8 4 | h r A ",
"H.8 8 8 8 8 8 8 9 z z z z z z z z z z z z z z z z z z z z z z z z z z z z z z z z z z z z z z z z z z z z z z _ 8 8 8 8 3 8 8 _ ",
"H.8 8 8 8 8 8 8 9 z z z z z z z z z z z z z z z z z z z z z z z z z z z z z z z z z z z z z z z z z z z z z z _ 8 8 8 8 8 8 8 _ ",
"H._ _ _ _ _ _ _ 3 z z z z z z z z z z z z z z z z z z z z z z z z z z z z z z z z z z z z z z z z z z z z z z E _ _ _ _ _ _ _ E ",
"C.e e e e e e e _ z z z z z z z z z z z z z z z z z z z z z z z z z z z z z z z z z z z z z z z z z z z z z z 0.e e e e e e e 0.",
"C.} } } 0 0 } } 0 z z z z z z z z z z z z z z z z z z z z z z z z z z z z z z z z z z z z z z z z z z z z z z 1 } } 0 0 } } } 1 ",
"C.} } } 2 p : 0 0 z z z z z z z z z z z z z z z z z z z z z z z z z z z z z z z z z z z z z z z z z z z z z z 1 } < 3 3 0 } } 1 ",
"A } } - g < } e r z z z z z z z z z z z z z z z z z z z z z z z z z z z z z z z z z z z z z z z z z z z z z z g _ v e g <.} } 1 ",
"I.} } - 0 } } } < z z z z z z z z z z z z z z z z z z z z z z z z z z z z z z z z z z z z z z z z z z z z z z g - } } - [ } } 1 ",
"D.} } } } } } } 0 z z z z z z z z z z z z z z z z z z z z z z z z z z z z z z z z z z z z z z z z z z z z z z 1 } } } } < } } 1 "};
