/* XPM */
static char *_fe5b6eb078d47bba489680e19495894d1BOYx6Hg7M2cp0l[] = {
/* columns rows colors chars-per-pixel */
"64 64 175 2 ",
"   c None",
".  c #000000",
"X  c #0A0B0D",
"o  c #020614",
"O  c #070C11",
"+  c #090E13",
"@  c #040E1E",
"#  c #0E151B",
"$  c #121312",
"%  c #10171E",
"&  c #12181F",
"*  c #1A1E1A",
"=  c #07162A",
"-  c #161D25",
";  c #191F26",
":  c #171F2E",
">  c #091733",
",  c #0B1B33",
"<  c #0C1C3A",
"1  c #101E35",
"2  c #1A2126",
"3  c #172129",
"4  c #1B242C",
"5  c #1C2734",
"6  c #1E2932",
"7  c #1C2938",
"8  c #18253D",
"9  c #242626",
"0  c #262928",
"q  c #292B2A",
"w  c #222C36",
"e  c #222E39",
"r  c #283136",
"t  c #24313C",
"y  c #2B353E",
"u  c #353837",
"i  c #36393A",
"p  c #3B3F3E",
"a  c #333635",
"s  c #0F2446",
"d  c #1D2740",
"f  c #1E2943",
"g  c #102449",
"h  c #132B4B",
"j  c #192B49",
"k  c #142A53",
"l  c #1F3152",
"z  c #1D355E",
"x  c #212C43",
"c  c #273540",
"v  c #283642",
"b  c #2B3844",
"n  c #23334D",
"m  c #283649",
"M  c #2D3B48",
"N  c #313E4A",
"B  c #233651",
"V  c #2A3D5F",
"C  c #1D3667",
"Z  c #1D3A6D",
"A  c #1E3A70",
"S  c #293F65",
"D  c #243E6D",
"F  c #283F6A",
"G  c #253C63",
"H  c #213E75",
"J  c #394147",
"K  c #33414E",
"L  c #354453",
"P  c #3A4654",
"I  c #374857",
"U  c #394957",
"Y  c #34465F",
"T  c #374958",
"R  c #3A4C5C",
"E  c #3E505F",
"W  c #2A426B",
"Q  c #394D61",
"!  c #384F6C",
"~  c #3F5162",
"^  c #3E536C",
"/  c #254276",
"(  c #284173",
")  c #23437F",
"_  c #29467A",
"`  c #2D497D",
"'  c #344D72",
"]  c #355078",
"[  c #3A537B",
"{  c #424546",
"}  c #444749",
"|  c #474A4C",
" . c #484F58",
".. c #43515E",
"X. c #515456",
"o. c #545759",
"O. c #575B5D",
"+. c #595C5F",
"@. c #425464",
"#. c #495765",
"$. c #4B5867",
"%. c #445769",
"&. c #45596B",
"*. c #485B6D",
"=. c #585D62",
"-. c #525E6E",
";. c #535D65",
":. c #465B72",
">. c #485D70",
",. c #405A7F",
"<. c #5D6163",
"1. c #4C6275",
"2. c #4E6578",
"3. c #556676",
"4. c #516679",
"5. c #52697D",
"6. c #5F6D7A",
"7. c #616567",
"8. c #636769",
"9. c #66696C",
"0. c #686B6F",
"q. c #6B6E72",
"w. c #656B73",
"e. c #6C7073",
"r. c #717578",
"t. c #74787B",
"y. c #787C7F",
"u. c #2D4A82",
"i. c #274B89",
"p. c #3B5381",
"a. c #2B5397",
"s. c #325797",
"d. c #3D5D99",
"f. c #325CAD",
"g. c #335FB3",
"h. c #46618A",
"j. c #4A668A",
"k. c #4B688C",
"l. c #546D81",
"z. c #596F83",
"x. c #567185",
"c. c #5A7285",
"v. c #5A748A",
"b. c #5C788E",
"n. c #4A6794",
"m. c #4D6A96",
"M. c #506D91",
"N. c #7A7E82",
"B. c #637D93",
"V. c #7E8285",
"C. c #678097",
"Z. c #688095",
"A. c #7E8893",
"S. c #82868A",
"D. c #85898D",
"F. c #898D91",
"G. c #8E9296",
"H. c #8F9498",
"J. c #93979C",
"K. c #969B9F",
"L. c #9A9FA3",
"P. c #9DA2A7",
"I. c #9FA3A8",
"U. c #A2A6AC",
"Y. c #A7ABB1",
"T. c #ABAEB4",
"R. c #ADB0B4",
"E. c #B2B5BB",
"W. c #B2B5BC",
"Q. c #B5B9BD",
"!. c #B8BBBF",
"~. c #C6C8CC",
"^. c #C9CBCE",
"/. c #D5D7D9",
"(. c #D2D3D6",
/* pixels */
"g.g.g.a.a.a.a.a.a.g.g.g.g.g.g.g.g.g.g.g.g.g.g.g.a.a.g.a.a.h h , g.g.g.a.a.a.a.a.a.g.g.g.g.g.g.g.g.g.g.g.g.g.g.g.a.a.g.a.a.h h , ",
"g.g.a.a.a.a.a.a.a.a.a.a.a.a.a.g.g.g.g.a.a.i.u./ W k.,.,.,.,.~ Q m.n.k.M.j.j.[ G W z S Z a.a.a.g.g.g.g.a.a.a.a.a.a.a.a.a.a.a.h , ",
"g.a.a.a.a.) ) ) ) ) ) ) a.a.a.a.a.s._ ! R ~ 5.1.*.R >.>.>.>.>.>.>.v M >.6 M U >.>.%.5.Q ] ' ,.d.a.a.a.a.a.a.a.a.a.a.a.a.) h h , ",
"g.a.a.a.) ) ) ) ) ) ) ) ) ) ) _ ' >.5.b.b.v.1.5.v 6 >.>.>.>.>.>.>.&.b U R >.>.U % b.b.b.b.l.M S ) ) ) ) a.a.a.a.a.a.) ) h , , , ",
"g.a.a.a.) ) ) ) ) ) ) ) ) W > @.v.b.b.b.b.b @.v.l.+ L >.>.>.>.>.>.>.&.>.>.>.R % 1.b.b.b.T L x.R k A ) ) ) ) ) ) ) ) ) ) h h , , ",
"g.a.a.a.) ) ) ) h ) ) H ^ >.R - l.b.b.b...I l.v.b.l.c &.>.@.@.>.>.>.1.&.v &.U v l.b.2.v v b.b.b.b.b.&.8 h ) ) ) ) ) ) ) ) h , , ",
"a.a.a.) ) ) ) ) ) a.F ~ >.>.>.R &.b.b.b.b.x.R 5.b.x.M b U % e U R ~ 4.R &.K R b.b.b.b.b.b.b.b.b.b.>.~ ~ :./ ) ) ) ) ) ) ) h h , ",
"a.a.) ) ) ) ) ) p.Q >.>.>.>.>.>.6 %.b.b.b.b.b.b.b.b.v.P . R @.U U 3 R @.>.6 5.b.b.b.b.b.%.b.b.b.%.- ~ >.>.&.F ) ) ) ) ) ) ) h , ",
"a.a.) ) ) ) ) D R >.>.>.>.>.>.>.@.# %.C.R v v v v b.b.c.t >.>.>.>.@.%.>.b l.b.b.b.b.2.v 2.b.b.%.# @.R R >.>.U g ) ) ) ) ) ) h , ",
"g.a.a.) ) ) D R >.>.>.>.>.>.>.>.>.@.4 w l.b.b.b.b.b.b.b.T 6 >.>.>.>.1.5.I b.b.b.U v %.b.b.b.1.- @.>.>.>.>.>.R 6 ^ ` ) ) ) h , , ",
"g.a.a.) ) Z M >.>.>.>.>.>.>.>.*.R #.=.+.+.+.+.+.+.+.+.+.+.+.+.+.+.+.+.+.+.+.+.+.+.+.+.+.+.+.| M @.>.@.@.>.>.>.>.>.@.C ) ) h , , ",
"g.a.a.) ( ~ 4 ~ >.>.>.>.>.>.3.;.<.y.G.H.H.L.^.H.H.H.H.H.H.H.H.P.Q.L.H.H.H.H.H.H.H.E.T.H.H.H.D.r.J R U U >.>.>.>.>.@.& B h h , , ",
"a.a.) [ o v.l.R 6 >.>.>.>.K | D.H.H.H.H.H.D.W.U.H.H.H.H.H.H.H.F.E.I.H.H.H.H.H.H.S.E.E.L.H.H.H.H.H.S.X.I >.>.>.>.>.r I M , h , , ",
"a.a.h 7 l.L x.b.T 4 %.>.U . o.<.<.<.<.<.<.O.{ <.<.<.<.<.<.<.<.X.p o.<.<.<.<.<.<.<.p } <.<.<.<.<.<.<.i w >.>.&.v * I &.2.m , , , ",
"h h , >.b.x.@.l.b.L e I O 9 p p p p } F.F.N.$ p p p 9 N.F.F.<.p p p p a e.F.F.} p p p 9 9.F.F.+.p p p 0 N &.b M R &.1.b.v.1 , , ",
", , e l.b.b.l.l.b.v.U i | 9 p p p p | H.H.S.$ p p p 9 S.H.H.8.p p p p u t.H.H.| p p p 9 e.H.H.<.p p p q 8.b M l.b.2.b.b.b.7 , , ",
"g.g.[ b.b.b.b.b.b.b.J V.<.9 p p p p | H.H.S.$ p p p 9 S.H.H.8.p p p p u t.H.H.| p p p 9 e.H.H.<.p p p 0 F.7.6.b.b.b.b.b.b.h.g.g.",
"g.f.b.b.b.z.y *.x.c.<.H.<.9 p p p p | H.H.S.$ p p p 9 S.H.H.8.p p p p u t.H.H.| p p p 9 e.H.H.<.p p p 0 G.S.. b.x.x.x.v.b.l.) g.",
"a.` b.b.b.b.b.*.L ..N.H.<.9 p p p p | H.H.S.$ p p p 9 S.H.H.8.p p p p u t.H.H.| p p p 9 e.H.H.<.p p p q G.G.o.A.R L L 2.b.x.V a.",
") l &.&.&.&.&.&.$.{ G.H.<.9 p p p p | H.H.S.$ p p p 9 S.H.H.8.p p p p u t.H.H.| p p p 9 e.H.H.<.p p p q G.H.q.. E &.&.&.&.&.Y ) ",
"u.o . . . . . . . { G.H.<.9 p p p p | H.H.S.$ p p p 9 S.H.H.8.p p p p u t.H.H.| p p p 9 q.H.H.<.p p p 0 G.H.G.. . . . . . . < ) ",
"#.l.l.I X X X @.5.} <.<.<.<.<.<.<.<.<.<.<.<.<.<.<.<.<.<.<.<.<.<.<.<.<.<.<.<.<.<.<.<.<.<.<.<.<.<.<.<.0.<.<.<.<.I l.l.l.l.l.l.l.Y ",
"#.. 3 v l.b.b.%.>.q.H.H.P.~.Q.H.H.H.H.H.H.L.(.I.H.H.H.H.H.H.H.J./.R.H.H.H.H.H.H.H.~./.K.H.H.H.H.H.H.!.^.H.H.H.L t v v v v t l.I ",
"L #.1.b.b.b.b.b.@.q.H.H.V.P.K.H.H.H.H.H.H.D.T.H.H.H.H.H.H.H.H.N.Y.P.H.H.H.H.H.H.H.P.T.H.H.H.H.H.H.F.F.L.H.H.H.b E b.b.b.b.I . . ",
"$.B.b.b.b.b.b.b.v.} <.<.<.<.<.<.<.<.<.<.<.<.<.<.<.<.<.<.<.<.<.<.<.<.<.<.<.<.<.<.<.<.<.<.<.<.<.<.<.<.<.<.<.<.<.@.b.b.b.b.b.v.>.M ",
"#.b.b.b.b.b.b.b.v.q.H.H.<.9 p p p p | H.H.S.$ p p p 9 S.H.H.8.p p p p u t.H.H.| p p p 9 q.H.H.<.p p p q G.H.H.R b.b.b.b.b.b.b.R ",
"#.l.l.l.l.l.l.l.4.q.H.H.<.9 p p p p | H.H.S.$ p p p 9 S.H.H.8.p p p p u t.H.H.| p p p 9 e.H.H.<.p p p q G.H.H.L l.l.l.l.l.l.l.I ",
"-.. . . . . . . . q.H.H.<.9 p p p p | H.H.S.$ p p p 9 S.H.H.8.p p p p u t.H.H.| p p p 9 e.H.H.<.p p p 0 G.H.H.. . . . . . . . . ",
"-.U U U &.. e U I q.H.H.<.9 p p p p | H.H.S.$ p p p 9 S.H.H.8.p p p p u t.H.H.| p p p 9 e.H.H.<.p p p q G.H.H.e U R U b U U U e ",
" .>.>.5.U &.&.6 2.q.H.H.<.9 p p p p | H.H.S.$ p p p 9 S.H.H.8.p p p p u t.H.H.| p p p 9 e.H.H.<.p p p q G.H.H.M >.w 6 - @.>.>.M ",
"w.>.&.c 4 >.>.>.&.q.H.H.<.9 p p p p | H.H.S.$ p p p 9 S.H.H.8.p p p p u t.H.H.| p p p 9 e.H.H.<.p p p q G.H.H.% 6 >.>.L + >.>.M ",
"@.>.~ 4 K >.>.>.&.q.H.H.<.9 p p p p | H.H.S.$ p p p 9 S.H.H.8.p p p p u t.H.H.| p p p 9 e.H.H.<.p p p q G.H.H.M >.>.>.2.e R >.M ",
"@.>.>.~ U >.>.>.&.                                                                                            M >.1.>.&.~ R >.M ",
"@.>.>.>.>.>.>.>.&.                                                                                            M >.>.>.&.>.>.>.M ",
"..@.@.@.@.@.@.@.~                                                                                             v @.@.@.@.@.@.@.v ",
"L R R R R R R R U                                                                                             t R R R R R R R t ",
"P b.b.1.x.b.b.b.v.                                                                                            R b.b.b.b.b.b.b.R ",
"L K b &.v.B.B.b.v.                                                                                            R b.b.2.b b U b.R ",
"L b.v.b.b.b.b.b.v.                                                                                            R b.b.b.v.v.l.y 2 ",
"m b.b.b.b.b.b.b.v.                                                                                            R b.b.b.b.b.b.b.R ",
"f b.b.b.b.b.b.b.v.                                                                                            R b.b.b.b.b.b.b.R ",
"8 b.b.b.b.b.b.b.v.                                                                                            R b.b.b.b.b.b.b.R ",
"< y y y y y y y y                                                                                             ; y y y y y y y 2 ",
"< >.>.>.>.>.>.>.&.                                                                                            M >.>.>.>.>.>.>.M ",
"< >.>.>.>.>.>.>.&.                                                                                            M >.>.>.>.>.>.>.M ",
"< L >.>.>.>.>.>.&.                                                                                            M >.>.>.>.>.>.>.M ",
"@ R 6 6 5.@.6 R &.                                                                                            M z.>.>.>.>.5.6 % ",
"2 >.>.>.b b >.>.&.                                                                                            M >.5.e e 6 >.>.M ",
"n >.>.>.>.>.>.>.&.                                                                                            M >.>.2.2.>.>.>.M ",
"j >.>.>.>.>.>.>.&.                                                                                            M >.>.>.>.>.>.>.M ",
"s 6 6 6 6 6 6 6 6                                                                                             % 6 6 6 6 6 6 6 % ",
"n b.b.b.b.B.b.b.v.                                                                                            R b.b.b.b.b.b.b.R ",
"x b.b.b.b.Z.b.b.v.                                                                                            R b.b.l.l.b.b.b.R ",
"x R R 5.%.b.b.b.v.                                                                                            R b.b.l.l.b.b.b.R ",
"f l.l.@.2.b.b.b.v.                                                                                            R b.b.b.%.v T 2.3 ",
"d b.b.b.b.b.b.b.v.                                                                                            R b.b.b.b.U b.b.R ",
"d b.b.b.b.b.b.b.v.                                                                                            R b.b.b.b.b.b.b.R ",
"d R R R R R R R U                                                                                             t R R R R R R R t ",
"f @.@.@.@.@.@.@.R                                                                                             y @.@.@.@.@.@.@.y ",
"x >.>.>.&.&.>.>.&.                                                                                            M >.>.&.&.>.>.>.M ",
"f >.>.>.6 I 5.&.&.                                                                                            M >.1.U U &.>.>.M ",
": >.>.~ L 1.>.@.2.                                                                                            L R 4.@.L N >.>.M ",
"= >.>.~ &.>.>.>.1.                                                                                            L ~ >.>.~ *.>.>.M ",
"@ >.>.>.>.>.>.>.&.                                                                                            M >.>.>.>.1.>.>.M "
};
