/* XPM */
static char * 4_xpm[] = {
"64 64 162 2",
"  	c #051128",
". 	c #040D21",
"+ 	c #01040B",
"@ 	c #010205",
"# 	c #030B1D",
"$ 	c #040B1B",
"% 	c #030917",
"& 	c #040914",
"* 	c #0B131D",
"= 	c #080F1A",
"- 	c #080D12",
"; 	c #060C11",
"> 	c #0C1420",
", 	c #0B1320",
"' 	c #0C151F",
") 	c #070D19",
"! 	c #030712",
"~ 	c #020610",
"{ 	c #040812",
"] 	c #020715",
"^ 	c #03091A",
"/ 	c #050E21",
"( 	c #040A18",
"_ 	c #060C14",
": 	c #070B10",
"< 	c #0D1419",
"[ 	c #0B1217",
"} 	c #0A1015",
"| 	c #0A1016",
"1 	c #030609",
"2 	c #04070A",
"3 	c #020405",
"4 	c #060B0E",
"5 	c #090E14",
"6 	c #060C18",
"7 	c #050C16",
"8 	c #071021",
"9 	c #10181E",
"0 	c #0F171D",
"a 	c #090F14",
"b 	c #040609",
"c 	c #010102",
"d 	c #0E151A",
"e 	c #000105",
"f 	c #090E12",
"g 	c #000101",
"h 	c #06090D",
"i 	c #060B0F",
"j 	c #0E161B",
"k 	c #01040D",
"l 	c #020716",
"m 	c #020817",
"n 	c #080D14",
"o 	c #010203",
"p 	c #090D10",
"q 	c #060A0E",
"r 	c #030608",
"s 	c #0C1218",
"t 	c #010307",
"u 	c #030814",
"v 	c #030406",
"w 	c #0D1318",
"x 	c #05080C",
"y 	c #070D1A",
"z 	c #070A0E",
"A 	c #000000",
"B 	c #010204",
"C 	c #030815",
"D 	c #131A21",
"E 	c #0F161B",
"F 	c #030507",
"G 	c #01030B",
"H 	c #020304",
"I 	c #040B19",
"J 	c #0B0E12",
"K 	c #0F1012",
"L 	c #0F1011",
"M 	c #0A0B0B",
"N 	c #020613",
"O 	c #030816",
"P 	c #0E1317",
"Q 	c #0D1012",
"R 	c #101112",
"S 	c #18191A",
"T 	c #1E1F20",
"U 	c #1E2021",
"V 	c #212324",
"W 	c #2F2F30",
"X 	c #222425",
"Y 	c #292A2B",
"Z 	c #28292B",
"` 	c #262729",
" .	c #1B1D1E",
"..	c #161718",
"+.	c #06080A",
"@.	c #03060D",
"#.	c #000001",
"$.	c #242526",
"%.	c #1D1E1F",
"&.	c #232425",
"*.	c #1B1C1D",
"=.	c #0D0E0E",
"-.	c #030506",
";.	c #020406",
">.	c #0E0E0F",
",.	c #0E1010",
"'.	c #09090A",
").	c #070808",
"!.	c #090A0B",
"~.	c #060607",
"{.	c #020202",
"].	c #03060B",
"^.	c #030303",
"/.	c #18191B",
"(.	c #010101",
"_.	c #050606",
":.	c #141616",
"<.	c #131414",
"[.	c #030403",
"}.	c #05080B",
"|.	c #010206",
"1.	c #121314",
"2.	c #060606",
"3.	c #171819",
"4.	c #040404",
"5.	c #191B1B",
"6.	c #111213",
"7.	c #111518",
"8.	c #0A111D",
"9.	c #051027",
"0.	c #0F151B",
"a.	c #040608",
"b.	c #191C1F",
"c.	c #040711",
"d.	c #02050D",
"e.	c #0B0F13",
"f.	c #141516",
"g.	c #080C11",
"h.	c #050A11",
"i.	c #010207",
"j.	c #131415",
"k.	c #2E2E2F",
"l.	c #313132",
"m.	c #1F2122",
"n.	c #323333",
"o.	c #272829",
"p.	c #202223",
"q.	c #2A2B2C",
"r.	c #252628",
"s.	c #12191F",
"t.	c #0D1015",
"u.	c #0A0C0F",
"v.	c #121416",
"w.	c #020203",
"x.	c #020409",
"y.	c #000102",
"z.	c #03050C",
"A.	c #02040B",
"B.	c #01030A",
"C.	c #131A20",
"D.	c #020308",
"E.	c #000104",
"      . . . . . .                               . .   . . + + @       . . . . . .                               . .   . . + + @ ",
"    . . . . . . . . . . . . .         . . # $ % & * = = = = - ; > , * ' * * ) ! & ~ { ] . . .         . . . . . . . . . . . + @ ",
"  . . . . ^ ^ ^ ^ ^ ^ ^ . . . . . / ( _ : - < [ } : | | | | | | | 1 2 | 3 2 4 | | 5 < ; 6 7 = 8 . . . . . . . . . . . . ^ + + @ ",
"  . . . ^ ^ ^ ^ ^ ^ ^ ^ ^ ^ ^ ( 7 | < 9 9 0 [ < 1 3 | | | | | | | a b 4 : | | 4 c 9 9 9 9 d 2 { ^ ^ ^ ^ . . . . . . ^ ^ + @ @ @ ",
"  . . . ^ ^ ^ ^ ^ ^ ^ ^ ^ & e f 0 9 9 9 9 b f 0 d g h | | | | | | | a | | | : c [ 9 9 9 i h j : k l ^ ^ ^ ^ ^ ^ ^ ^ ^ ^ + + @ @ ",
"  . . . ^ ^ ^ ^ + ^ ^ m n | : o d 9 9 9 p q d 0 9 d r a | f f | | | [ a 1 a 4 1 d 9 s 1 1 9 9 9 9 9 a t + ^ ^ ^ ^ ^ ^ ^ ^ + @ @ ",
". . . ^ ^ ^ ^ ^ ^ . u - | | | : a 9 9 9 9 j : < 9 j 2 b 4 c v 4 : - w : a x : 9 9 9 9 9 9 9 9 9 9 | - - | % ^ ^ ^ ^ ^ ^ ^ + + @ ",
". . ^ ^ ^ ^ ^ ^ y ; | | | | | | 3 5 9 9 9 9 9 9 9 9 0 z A : f 4 4 B : f | 3 < 9 9 9 9 9 5 9 9 9 5 o - | | a u ^ ^ ^ ^ ^ ^ ^ + @ ",
". . ^ ^ ^ ^ ^ C : | | | | | | | f c 5 D : 1 1 1 1 9 9 E F | | | | f 5 | b d 9 9 9 9 s 1 s 9 9 5 c f : : | | 4 G ^ ^ ^ ^ ^ ^ + @ ",
"  . . ^ ^ ^ C : | | | | | | | | | f H v d 9 9 9 9 9 9 9 i 3 | | | | [ < q 9 9 9 4 1 5 9 9 9 [ o f | | | | | : 3 n I ^ ^ ^ + @ @ ",
"  . . ^ ^ ] 2 | | | | | | | | } : J K L L L L L L L L L L L L L L L L L L L L L L L L L L L M 2 f | f f | | | | | f N ^ ^ + @ @ ",
"  . . ^ O - H - | | | | | | P Q R S T U U V W U U U U U U U U X Y V U U U U U U U Z ` U U U  ...+.: 4 4 | | | | | f c @.+ + @ @ ",
". . ^ ) #.0 d : 3 | | | | x M  .U U U U U  .Z $.U U U U U U U %.Z &.U U U U U U *.Z Z V U U U U U *.=.q | | | | | -.q 2 @ + @ @ ",
". . + ;.d h j 9 i H 5 | 4 A >.R R R R R R ,.'.R R R R R R R R =.).>.R R R R R R R ).!.R R R R R R R ~.v | | a 1 {.q a s ].@ @ @ ",
"+ + @ | 9 j f d 9 h v q g ^.).).).).!.%.%./.(.).).).^./.%.%.R ).).).)._.:.%.%.!.).).).^.<.%.%.L ).).).[.}.a b 2 : a [ 9 0 |.@ @ ",
"@ @ v d 9 9 d d 9 0 4 ~.M ^.).).).).M U U *.(.).).).^.*.U U 1.).).).).2.3.U U M ).).).^.:.U U R ).).).4.1.b 2 d 9 s 9 9 9 ;.@ @ ",
"    ) 9 9 9 9 9 9 9 +.5.R ^.).).).).M U U *.(.).).).^.*.U U 1.).).).).2.3.U U M ).).).^.:.U U R ).).).[.%.6.7.9 9 9 9 9 9 8.    ",
"  9.9 9 9 0.a.} j E R U R ^.).).).).M U U *.(.).).).^.*.U U 1.).).).).2.3.U U M ).).).^.:.U U R ).).).[.T *.A 9 j j j 0 9 d ^   ",
". I 9 9 9 9 9 } h p /.U R ^.).).).).M U U *.(.).).).^.*.U U 1.).).).).2.3.U U M ).).).^.:.U U R ).).).4.T T >.b.: h h s 9 j c.. ",
"^ d.a a a a a a e.'.T U R ^.).).).).M U U *.(.).).).^.*.U U 1.).).).).2.3.U U M ).).).^.:.U U R ).).).4.T U f.A g.a a a a a h.^ ",
"$ #.A A A A A A A '.T U R ^.).).).).M U U *.(.).).).^.*.U U 1.).).).).2.3.U U M ).).).^.f.U U R ).).).[.T U T A A A A A A A i.^ ",
"J d d q (.(.(.f < !.R R R R R R R R R R R R R R R R R R R R R R R R R R R R R R R R R R R R R R R R j.R R R R q d d d d d d d h.",
"J A B 1 d 9 9 5 | f.U U X k.Y U U U U U U V l.&.U U U U U U U m.n.o.U U U U U U U k.n.p.U U U U U U q.W U U U h F 1 1 1 1 F d q ",
"h J [ 9 9 9 9 9 f f.U U 5.X p.U U U U U U  .` U U U U U U U U /.r.X U U U U U U U X ` U U U U U U %.%.V U U U b g.9 9 9 9 q A A ",
"e.s.9 9 9 9 9 9 0 !.R R R R R R R R R R R R R R R R R R R R R R R R R R R R R R R R R R R R R R R R R R R R R f 9 9 9 9 9 0 | 2 ",
"J 9 9 9 9 9 9 9 0 f.U U R ^.).).).).M U U *.(.).).).^.*.U U 1.).).).).2.3.U U M ).).).^.f.U U R ).).).4.T U U : 9 9 9 9 9 9 9 : ",
"J d d d d d d d w f.U U R ^.).).).).M U U *.(.).).).^.*.U U 1.).).).).2.3.U U M ).).).^.:.U U R ).).).4.T U U h d d d d d d d q ",
"t.A A A A A A A A f.U U R ^.).).).).M U U *.(.).).).^.*.U U 1.).).).).2.3.U U M ).).).^.:.U U R ).).).[.T U U A A A A A A A A A ",
"t.4 4 4 a A v 4 q f.U U R ^.).).).).M U U *.(.).).).^.*.U U 1.).).).).2.3.U U M ).).).^.:.U U R ).).).4.T U U v 4 : 4 b 4 4 4 v ",
"u.| | < 4 a a 3 s f.U U R ^.).).).).M U U *.(.).).).^.*.U U 1.).).).).2.3.U U M ).).).^.:.U U R ).).).4.T U U 2 | v 3 o f | | 2 ",
"v.| a r H | | | a f.U U R ^.).).).).M U U *.(.).).).^.*.U U 1.).).).).2.3.U U M ).).).^.:.U U R ).).).4.T U U c 3 | | h g | | 2 ",
"f | - H x | | | a f.U U R ^.).).).).M U U *.(.).).).^.*.U U 1.).).).).2.3.U U M ).).).^.:.U U R ).).).4.T U U 2 | | | s v : | 2 ",
"f | | - 4 | | | a A A A A A A A A A A A A A A A A A A A A A A A A A A A A A A A A A A A A A A A A A A A A A A 2 | [ | a - : | 2 ",
"f | | | | | | | a A A A A A A A A A A A A A A A A A A A A A A A A A A A A A A A A A A A A A A A A A A A A A A 2 | | | a | | | 2 ",
"p f f f f f f f - A A A A A A A A A A A A A A A A A A A A A A A A A A A A A A A A A A A A A A A A A A A A A A 1 f f f f f f f 1 ",
"h : : : : : : : 4 A A A A A A A A A A A A A A A A A A A A A A A A A A A A A A A A A A A A A A A A A A A A A A F : : : : : : : F ",
"z 9 9 [ j 9 9 9 0 A A A A A A A A A A A A A A A A A A A A A A A A A A A A A A A A A A A A A A A A A A A A A A : 9 9 9 9 9 9 9 : ",
"h x b a 0 s.s.9 0 A A A A A A A A A A A A A A A A A A A A A A A A A A A A A A A A A A A A A A A A A A A A A A : 9 9 s b b 4 9 : ",
"h 9 0 9 9 9 9 9 0 A A A A A A A A A A A A A A A A A A A A A A A A A A A A A A A A A A A A A A A A A A A A A A : 9 9 9 0 0 d a.w.",
"].9 9 9 9 9 9 9 0 A A A A A A A A A A A A A A A A A A A A A A A A A A A A A A A A A A A A A A A A A A A A A A : 9 9 9 9 9 9 9 : ",
"x.9 9 9 9 9 9 9 0 A A A A A A A A A A A A A A A A A A A A A A A A A A A A A A A A A A A A A A A A A A A A A A : 9 9 9 9 9 9 9 : ",
"t 9 9 9 9 9 9 9 0 A A A A A A A A A A A A A A A A A A A A A A A A A A A A A A A A A A A A A A A A A A A A A A : 9 9 9 9 9 9 9 : ",
"i.a.a.a.a.a.a.a.a.A A A A A A A A A A A A A A A A A A A A A A A A A A A A A A A A A A A A A A A A A A A A A A w.a.a.a.a.a.a.a.w.",
"i.| | | | | | | a A A A A A A A A A A A A A A A A A A A A A A A A A A A A A A A A A A A A A A A A A A A A A A 2 | | | | | | | 2 ",
"i.| | | | | | | a A A A A A A A A A A A A A A A A A A A A A A A A A A A A A A A A A A A A A A A A A A A A A A 2 | | | | | | | 2 ",
"i.h | | | | | | a A A A A A A A A A A A A A A A A A A A A A A A A A A A A A A A A A A A A A A A A A A A A A A 2 | | | | | | | 2 ",
"y.: 3 3 < f 3 : a A A A A A A A A A A A A A A A A A A A A A A A A A A A A A A A A A A A A A A A A A A A A A A 2 0.| | | | < 3 c ",
"w.| | | b b | | a A A A A A A A A A A A A A A A A A A A A A A A A A A A A A A A A A A A A A A A A A A A A A A 2 | < v v 3 | | 2 ",
"z.| | | | | | | a A A A A A A A A A A A A A A A A A A A A A A A A A A A A A A A A A A A A A A A A A A A A A A 2 | | s s | | | 2 ",
"A.| | | | | | | a A A A A A A A A A A A A A A A A A A A A A A A A A A A A A A A A A A A A A A A A A A A A A A 2 | | | | | | | 2 ",
"B.3 3 3 3 3 3 3 3 A A A A A A A A A A A A A A A A A A A A A A A A A A A A A A A A A A A A A A A A A A A A A A c 3 3 3 3 3 3 3 c ",
"z.9 9 9 9 s.9 9 0 A A A A A A A A A A A A A A A A A A A A A A A A A A A A A A A A A A A A A A A A A A A A A A : 9 9 9 9 9 9 9 : ",
"x.9 9 9 9 C.9 9 0 A A A A A A A A A A A A A A A A A A A A A A A A A A A A A A A A A A A A A A A A A A A A A A : 9 9 d d 9 9 9 : ",
"x.: : < 5 9 9 9 0 A A A A A A A A A A A A A A A A A A A A A A A A A A A A A A A A A A A A A A A A A A A A A A : 9 9 d d 9 9 9 : ",
"x.d d f s 9 9 9 0 A A A A A A A A A A A A A A A A A A A A A A A A A A A A A A A A A A A A A A A A A A A A A A : 9 9 9 5 1 i s B ",
"D.9 9 9 9 9 9 9 0 A A A A A A A A A A A A A A A A A A A A A A A A A A A A A A A A A A A A A A A A A A A A A A : 9 9 9 9 4 9 9 : ",
"D.9 9 9 9 9 9 9 0 A A A A A A A A A A A A A A A A A A A A A A A A A A A A A A A A A A A A A A A A A A A A A A : 9 9 9 9 9 9 9 : ",
"D.: : : : : : : 4 A A A A A A A A A A A A A A A A A A A A A A A A A A A A A A A A A A A A A A A A A A A A A A F : : : : : : : F ",
"x.f f f f f f f : A A A A A A A A A A A A A A A A A A A A A A A A A A A A A A A A A A A A A A A A A A A A A A a.f f f f f f f a.",
"x.| | | a a | | a A A A A A A A A A A A A A A A A A A A A A A A A A A A A A A A A A A A A A A A A A A A A A A 2 | | a a | | | 2 ",
"x.| | | 3 q < a a A A A A A A A A A A A A A A A A A A A A A A A A A A A A A A A A A A A A A A A A A A A A A A 2 | [ 4 4 a | | 2 ",
"B | | - h [ | f s A A A A A A A A A A A A A A A A A A A A A A A A A A A A A A A A A A A A A A A A A A A A A A h : w f h }.| | 2 ",
"E.| | - a | | | [ A A A A A A A A A A A A A A A A A A A A A A A A A A A A A A A A A A A A A A A A A A A A A A h - | | - } | | 2 ",
"y.| | | | | | | a A A A A A A A A A A A A A A A A A A A A A A A A A A A A A A A A A A A A A A A A A A A A A A 2 | | | | [ | | 2 "};
