/* XPM */
static char *ce5452d6d7b144aad129de7753abc81dZJn8ZTTTGyqpC9Es[] = {
/* columns rows colors chars-per-pixel */
"64 64 167 2 ",
"   c #00000000",
".  c #000000",
"X  c #0A0B0D",
"o  c #020614",
"O  c #070C11",
"+  c #090E13",
"@  c #040E1E",
"#  c #0E151B",
"$  c #111211",
"%  c #10171E",
"&  c #12181F",
"*  c #1A1E1A",
"=  c #07162A",
"-  c #161D25",
";  c #191F26",
":  c #171F2E",
">  c #091733",
",  c #0B1B33",
"<  c #0C1C3A",
"1  c #101E35",
"2  c #1A2126",
"3  c #172129",
"4  c #1B242C",
"5  c #1C2734",
"6  c #1E2932",
"7  c #15253B",
"8  c #1A253E",
"9  c #1C2938",
"0  c #242625",
"q  c #272928",
"w  c #292B2A",
"e  c #222C36",
"r  c #222E39",
"t  c #283136",
"y  c #24313C",
"u  c #2B353E",
"i  c #333635",
"p  c #353837",
"a  c #36393A",
"s  c #3B3E3E",
"d  c #0F2446",
"f  c #1D2740",
"g  c #1E2943",
"h  c #102449",
"j  c #132B4B",
"k  c #192B49",
"l  c #142A53",
"z  c #1F3152",
"x  c #1D355E",
"c  c #212C43",
"v  c #273540",
"b  c #283642",
"n  c #2B3844",
"m  c #23334D",
"M  c #283649",
"N  c #2D3B48",
"B  c #313E4A",
"V  c #233651",
"C  c #2A3D5F",
"Z  c #1D3667",
"A  c #1D3A6D",
"S  c #1E3A70",
"D  c #293F65",
"F  c #243E6D",
"G  c #283F6A",
"H  c #253C63",
"J  c #213E75",
"K  c #394147",
"L  c #33414E",
"P  c #354453",
"I  c #3A4654",
"U  c #374857",
"Y  c #394957",
"T  c #34465F",
"R  c #374958",
"E  c #3A4C5C",
"W  c #3E505F",
"Q  c #2A426B",
"!  c #394D61",
"~  c #384F6C",
"^  c #3F5162",
"/  c #3E536C",
"(  c #254276",
")  c #284173",
"_  c #23437F",
"`  c #29467A",
"'  c #2D497D",
"]  c #344D72",
"[  c #355078",
"{  c #3A537B",
"}  c #424546",
"|  c #444748",
" . c #474A4C",
".. c #484F58",
"X. c #43515E",
"o. c #515456",
"O. c #545759",
"+. c #575B5D",
"@. c #595C5F",
"#. c #425464",
"$. c #495765",
"%. c #4B5867",
"&. c #445769",
"*. c #45596B",
"=. c #485B6D",
"-. c #535D65",
";. c #585D62",
":. c #525E6E",
">. c #465B72",
",. c #485D70",
"<. c #405A7F",
"1. c #5D6163",
"2. c #4C6275",
"3. c #4E6578",
"4. c #556676",
"5. c #516679",
"6. c #52697D",
"7. c #5F6D7A",
"8. c #616567",
"9. c #636769",
"0. c #66696C",
"q. c #6B6F72",
"w. c #656B73",
"e. c #6D7074",
"r. c #717578",
"t. c #74787C",
"y. c #787C7F",
"u. c #2D4A82",
"i. c #274B89",
"p. c #3B5381",
"a. c #2B5397",
"s. c #325797",
"d. c #3D5D99",
"f. c #325CAD",
"g. c #335FB3",
"h. c #46618A",
"j. c #4A668A",
"k. c #4B688C",
"l. c #546D81",
"z. c #596F83",
"x. c #567185",
"c. c #5A7285",
"v. c #5A748A",
"b. c #5C788E",
"n. c #4A6794",
"m. c #4D6A96",
"M. c #506D91",
"N. c #7A7E82",
"B. c #637D93",
"V. c #7C8083",
"C. c #678097",
"Z. c #688095",
"A. c #7E8893",
"S. c #82868A",
"D. c #84898C",
"F. c #888D91",
"G. c #8D9296",
"H. c #8F9498",
"J. c #9A9EA3",
"K. c #9DA1A5",
"L. c #9FA3A8",
"P. c #A2A6AC",
"I. c #ACAEB4",
"U. c #B2B5BB",
"Y. c #B2B5BC",
"T. c #B4B8BD",
"R. c #C9CBCE",
/* pixels */
"g.g.g.a.a.a.a.a.a.g.g.g.g.g.g.g.g.g.g.g.g.g.g.g.a.a.g.a.a.j j , g.g.g.a.a.a.a.a.a.g.g.g.g.g.g.g.g.g.g.g.g.g.g.g.a.a.g.a.a.j j , ",
"g.g.a.a.a.a.a.a.a.a.a.a.a.a.a.g.g.g.g.a.a.i.u.( Q k.<.<.<.<.^ ! m.n.k.M.j.j.{ H Q x D A a.a.a.g.g.g.g.a.a.a.a.a.a.a.a.a.a.a.j , ",
"g.a.a.a.a._ _ _ _ _ _ _ a.a.a.a.a.s.` ~ E ^ 6.2.=.E ,.,.,.,.,.,.,.b N ,.6 N Y ,.,.&.6.! [ ] <.d.a.a.a.a.a.a.a.a.a.a.a.a._ j j , ",
"g.a.a.a._ _ _ _ _ _ _ _ _ _ _ ` ] ,.6.b.b.v.2.6.b 6 ,.,.,.,.,.,.,.*.n Y E ,.,.Y % b.b.b.b.l.N D _ _ _ _ a.a.a.a.a.a._ _ j , , , ",
"g.a.a.a._ _ _ _ _ _ _ _ _ Q > #.v.b.b.b.b.n #.v.l.+ P ,.,.,.,.,.,.,.*.,.,.,.E % 2.b.b.b.R P x.E l S _ _ _ _ _ _ _ _ _ _ j j , , ",
"g.a.a.a._ _ _ _ j _ _ J / ,.E - l.b.b.b.X.U l.v.b.l.v *.,.#.#.,.,.,.2.*.b *.Y b l.b.3.b b b.b.b.b.b.*.7 j _ _ _ _ _ _ _ _ j , , ",
"a.a.a._ _ _ _ _ _ a.G ^ ,.,.,.E *.b.b.b.b.x.E 6.b.x.N n Y % r Y E ^ 5.E *.L E b.b.b.b.b.b.b.b.b.b.,.^ ^ >.( _ _ _ _ _ _ _ j j , ",
"a.a._ _ _ _ _ _ p.! ,.,.,.,.,.,.6 &.b.b.b.b.b.b.b.b.v.I . E #.Y Y 3 E #.,.6 6.b.b.b.b.b.&.b.b.b.&.- ^ ,.,.*.G _ _ _ _ _ _ _ j , ",
"a.a._ _ _ _ _ F E ,.,.,.,.,.,.,.#.# &.C.E b b b b b.b.c.y ,.,.,.,.#.&.,.n l.b.b.b.b.3.b 3.b.b.&.# #.E E ,.,.Y h _ _ _ _ _ _ j , ",
"g.a.a._ _ _ F E ,.,.,.,.,.,.,.,.,.#.4 e l.b.b.b.b.b.b.b.R 6 ,.,.,.,.2.6.U b.b.b.Y b &.b.b.b.2.- #.,.,.,.,.,.E 6 / ' _ _ _ j , , ",
"g.a.a._ _ A N ,.,.,.,.,.,.,.,.=.E $.;.@.@.@.@.@.@.@.@.@.@.@.@.@.@.@.@.@.@.@.@.@.@.@.@.@.@.@. .N #.,.#.#.,.,.,.,.,.#.Z _ _ j , , ",
"g.a.a._ ) ^ 4 ^ ,.,.,.,.,.,.4.-.1.y.G.H.H.J.R.H.H.H.H.H.H.H.H.K.T.J.H.H.H.H.H.H.H.U.I.H.H.H.D.r.K E Y Y ,.,.,.,.,.#.& V j j , , ",
"a.a._ { o v.l.E 6 ,.,.,.,.L  .D.H.H.H.H.H.D.Y.P.H.H.H.H.H.H.H.F.U.L.H.H.H.H.H.H.S.U.U.J.H.H.H.H.H.D.o.U ,.,.,.,.,.t U N , j , , ",
"a.a.j 9 l.P x.b.R 4 &.,.Y . O.1.1.1.1.1.1.+.} 1.1.1.1.1.1.1.1.o.s O.1.1.1.1.1.1.1.s | 1.1.1.1.1.1.1.a e ,.,.*.b * U *.3.M , , , ",
"j j , ,.b.x.#.l.b.P r U O 0 s s s s | F.F.N.$ s s s 0 N.F.F.1.s s s s i e.F.F.| s s s 0 0.F.F.@.s s s q B *.n N E *.2.b.v.1 , , ",
", , r l.b.b.l.l.b.v.Y a  .0 s s s s  .H.H.S.$ s s s 0 S.H.H.9.s s s s p t.H.H. .s s s 0 e.H.H.1.s s s w 9.n N l.b.3.b.b.b.9 , , ",
"g.g.{ b.b.b.b.b.b.b.K V.1.0 s s s s  .H.H.S.$ s s s 0 S.H.H.9.s s s s p t.H.H. .s s s 0 e.H.H.1.s s s q F.8.7.b.b.b.b.b.b.h.g.g.",
"g.f.b.b.b.z.u =.x.c.1.H.1.0 s s s s  .H.H.S.$ s s s 0 S.H.H.9.s s s s p t.H.H. .s s s 0 e.H.H.1.s s s q G.S.. b.x.x.x.v.b.l._ g.",
"a.' b.b.b.b.b.=.P X.N.H.1.0 s s s s  .H.H.S.$ s s s 0 S.H.H.9.s s s s p t.H.H. .s s s 0 e.H.H.1.s s s w G.G.O.A.E P P 3.b.x.C a.",
"_ z *.*.*.*.*.*.%.} G.H.1.0 s s s s  .H.H.S.$ s s s 0 S.H.H.9.s s s s p t.H.H. .s s s 0 e.H.H.1.s s s w G.H.q.. W *.*.*.*.*.T _ ",
"u.o . . . . . . . } G.H.1.0 s s s s  .H.H.S.$ s s s 0 S.H.H.9.s s s s p t.H.H. .s s s 0 q.H.H.1.s s s q G.H.G.. . . . . . . < _ ",
"$.l.l.U X X X #.6.                                                                                            U l.l.l.l.l.l.l.T ",
"$.. 3 b l.b.b.&.,.                                                                                            P y b b b b y l.U ",
"P $.2.b.b.b.b.b.#.                                                                                            n W b.b.b.b.U . . ",
"%.B.b.b.b.b.b.b.v.                                                                                            #.b.b.b.b.b.v.,.N ",
"$.b.b.b.b.b.b.b.v.                                                                                            E b.b.b.b.b.b.b.E ",
"$.l.l.l.l.l.l.l.5.                                                                                            P l.l.l.l.l.l.l.U ",
":.. . . . . . . .                                                                                             . . . . . . . . . ",
":.Y Y Y *.. r Y U                                                                                             r Y E Y n Y Y Y r ",
"..,.,.6.Y *.*.6 3.                                                                                            N ,.e 6 - #.,.,.N ",
"w.,.*.v 4 ,.,.,.*.                                                                                            % 6 ,.,.P + ,.,.N ",
"#.,.^ 4 L ,.,.,.*.                                                                                            N ,.,.,.3.r E ,.N ",
"#.,.,.^ Y ,.,.,.*.                                                                                            N ,.2.,.*.^ E ,.N ",
"#.,.,.,.,.,.,.,.*.                                                                                            N ,.,.,.*.,.,.,.N ",
"X.#.#.#.#.#.#.#.^                                                                                             b #.#.#.#.#.#.#.b ",
"P E E E E E E E Y                                                                                             y E E E E E E E y ",
"I b.b.2.x.b.b.b.v.                                                                                            E b.b.b.b.b.b.b.E ",
"P L n *.v.B.B.b.v.                                                                                            E b.b.3.n n Y b.E ",
"P b.v.b.b.b.b.b.v.                                                                                            E b.b.b.v.v.l.u 2 ",
"M b.b.b.b.b.b.b.v.                                                                                            E b.b.b.b.b.b.b.E ",
"g b.b.b.b.b.b.b.v.                                                                                            E b.b.b.b.b.b.b.E ",
"8 b.b.b.b.b.b.b.v.                                                                                            E b.b.b.b.b.b.b.E ",
"< u u u u u u u u                                                                                             ; u u u u u u u 2 ",
"< ,.,.,.,.,.,.,.*.                                                                                            N ,.,.,.,.,.,.,.N ",
"< ,.,.,.,.,.,.,.*.                                                                                            N ,.,.,.,.,.,.,.N ",
"< P ,.,.,.,.,.,.*.                                                                                            N ,.,.,.,.,.,.,.N ",
"@ E 6 6 6.#.6 E *.                                                                                            N z.,.,.,.,.6.6 % ",
"2 ,.,.,.n n ,.,.*.                                                                                            N ,.6.r r 6 ,.,.N ",
"m ,.,.,.,.,.,.,.*.                                                                                            N ,.,.3.3.,.,.,.N ",
"k ,.,.,.,.,.,.,.*.                                                                                            N ,.,.,.,.,.,.,.N ",
"d 6 6 6 6 6 6 6 6                                                                                             % 6 6 6 6 6 6 6 % ",
"m b.b.b.b.B.b.b.v.                                                                                            E b.b.b.b.b.b.b.E ",
"c b.b.b.b.Z.b.b.v.                                                                                            E b.b.l.l.b.b.b.E ",
"c E E 6.&.b.b.b.v.                                                                                            E b.b.l.l.b.b.b.E ",
"g l.l.#.3.b.b.b.v.                                                                                            E b.b.b.&.b R 3.3 ",
"f b.b.b.b.b.b.b.v.                                                                                            E b.b.b.b.Y b.b.E ",
"f b.b.b.b.b.b.b.v.                                                                                            E b.b.b.b.b.b.b.E ",
"f E E E E E E E Y                                                                                             y E E E E E E E y ",
"g #.#.#.#.#.#.#.E                                                                                             u #.#.#.#.#.#.#.u ",
"c ,.,.,.*.*.,.,.*.                                                                                            N ,.,.*.*.,.,.,.N ",
"g ,.,.,.6 U 6.*.*.                                                                                            N ,.2.Y Y *.,.,.N ",
": ,.,.^ P 2.,.#.3.                                                                                            P E 5.#.P B ,.,.N ",
"= ,.,.^ *.,.,.,.2.                                                                                            P ^ ,.,.^ =.,.,.N ",
"@ ,.,.,.,.,.,.,.*.                                                                                            N ,.,.,.,.2.,.,.N "
};
