/* XPM */
static char * bricks_blue_00_xpm[] = {
"64 64 77 1",
" 	c #335FB3",
".	c #2B5397",
"+	c #132B4B",
"@	c #0B1B33",
"#	c #23437F",
"$	c #130215",
"%	c #FF8000",
"&	c #FD5F0C",
"*	c #CC342E",
"=	c #FF8801",
"-	c #ED4C11",
";	c #FF8601",
">	c #FD7B02",
",	c #FFCE38",
"'	c #FE8D00",
")	c #FEF9ED",
"!	c #FF8300",
"~	c #190018",
"{	c #EF4A17",
"]	c #130217",
"^	c #C1987A",
"/	c #F4E3A2",
"(	c #F8F8DA",
"_	c #4D4358",
":	c #5B1932",
"<	c #1E0417",
"[	c #C05539",
"}	c #6A2533",
"|	c #66142F",
"1	c #7B2C37",
"2	c #CD5827",
"3	c #F9A93A",
"4	c #B85733",
"5	c #170416",
"6	c #F2B85D",
"7	c #DF9834",
"8	c #ECE3AD",
"9	c #D09E6F",
"0	c #5A4F5A",
"a	c #574B64",
"b	c #544F61",
"c	c #D39D78",
"d	c #584F62",
"e	c #433950",
"f	c #632034",
"g	c #3E081F",
"h	c #FAB831",
"i	c #B6552C",
"j	c #892E31",
"k	c #B1542B",
"l	c #621D33",
"m	c #3F0B20",
"n	c #D17724",
"o	c #B8542B",
"p	c #140115",
"q	c #F6B448",
"r	c #B34F2C",
"s	c #5F1A2D",
"t	c #6D2538",
"u	c #340922",
"v	c #5A172C",
"w	c #631D2A",
"x	c #C05C2D",
"y	c #3C061A",
"z	c #52192F",
"A	c #E4EBE9",
"B	c #FBFADD",
"C	c #EFD095",
"D	c #555168",
"E	c #4C475B",
"F	c #5A5765",
"G	c #F0D49D",
"H	c #CB9D78",
"I	c #C69475",
"J	c #4B4152",
"K	c #5F1F34",
"L	c #4F1932",
"   ......               .. ..++@   ......               .. ..++@",
"  .............    ...........+@  .............    ...........+@",
" ....#######................#++@ ....#######................#++@",
" ...################......##+@@@ ...################......##+@@@",
" ...########################++@@ ...########################++@@",
" ...####+########...#########+@@ ...####+++#######+++########+@@",
"...######.######.###+########++@...####+###++#####+##########++@",
"..#############.####+#########+@..#####$####+########.########+@",
"..################+++#########+@..#####$....######....########+@",
" ..#############++###########+@@ ..%&##*$...#################+@@",
" ..######@@@#################+@@ ..$$#$*$####################+@@",
" ..####@@+++####+###+######+++@@ ..###$*$#+++#######+@++###+++@@",
"..#####@++######+##+++#@@@+@@+@@.=$##$-*$++++######@@+++##+@@+@@",
"..+++#@+###++++++++++++@@@@@@@@@.$$+$*;*$+>++++++++@++++++@@@@@@",
"++@@++@+++++@@@@@++@@@@@@@@@@@@$$$$$*;-*$+$+@@@@@++@@@@++@@@@@@@",
"@@@@@@@@@@@@@@@@@@@@@@@@@@@@@$$****-*;-$$@@@@@@@@@@@@@@@@@@@@@@@",
"        .. ..++@   ......   $$**;,;,;;*$.'$..++@   ......       ",
"   ...........+@  ..........$**;,,,,;*$$.$$...+@  ............. ",
"............#++@ ....#######$*;,,),,-$$.....#++@ ....#######....",
"####......##+@@@ ...#######$$;;,,));*;*$..##+@@@ ...############",
"############++@@ ...######$*;;,,));;;;*$#!##++@@ ...####+#######",
"#############+@@ ...####++$*;,,)),;,;*$######+@@ ...#####.######",
"#########+###++@...####+##$-,,)))),,,*$#~####++@...#############",
"##########.###+@..#####+##$-,))))))),*$#######+@..##############",
"##############+@..######..$-,);,))));{*$######+@..##############",
"#############+@@ ..########$-,;,,),*-*$+#####+@@ ..#############",
"#############+@@ ..#########$;;,,,**$$#######+@@ ..#############",
"###########+++@@ ..#########$$$$$$$$$######+++@@ ..#############",
"####++####+@@+@@..########]^/(((((//^]@@##+@@+@@..########@+####",
"+#++++++++@@@@@@..+++####+]__^/(^^/__]++++@@@@@@..+++###@@++++++",
"@++@@@@++@@@@@@@++@@++++++@]]]]]]]]]]]+++@@@@@@@++@@+++@@+++@@@@",
"@@@@@@@@@@@@@@@@@@@@@@@@@@@]:<[}}[|<:]@@@@@@@@@@@@@@@@@@@@@@@@@@",
".        ++#    .. ..++@   ]123<4<31:]          .. ..++@   .....",
"....... +###..........+@  .]]]43<42]]].    ...........+@  ......",
"####....+##.........#++@ ...]:5:675:]...............#++@ ....###",
"#######+####......##+@@@ ...#]]]]]]]########......##+@@@ ...####",
"#######+###.########++@@ ...#]8909a]#+++##########++++@@ ...####",
"#########..##########+@@ ...#]b9cde]+############++##+@@ ...####",
"##++#################++@...###]]]]]#+###.#######++###++@...#####",
"#+##.#################+@..###+]ffg]##....######++#####+@..######",
"#+##.#################+@..####]hij]############+######+@..######",
"##..#################+@@ ..###]klm]############+#####+@@ ..#####",
"#####################+@@ ..###]nop]############+#####+@@ ..#####",
"##########@@@######+++@@ ..###]qrs]#######@@@#++.##+++@@ ..#####",
"########@+++++####+@@+@@..####]tuv]######@++++##...@@+@@..######",
"###++++@@+++++++@@@@@@@@..+++#]wxy]+++++@+++++++++.@@@@@..+++###",
"++++@@@@@++@@@@++@@@@@@@++@@++]wxz]+@@@@@++@@@@++@@@@@@@++@@++++",
"@@@@@@@@@@@@@@@@@@@@@@@@@@@@@]ABCDE]@@@@@@@@@@@@@@@@@@@@@@@@@@@@",
".. ..++@   ......            ]FGHIJ].++@   ......    +#+        ",
"......+@  .............    ..]]KKL]]..+@  ..........++##   .....",
"....#++@ ....#######..........]]K]].#++@ ....#######+###........",
"..##+@@@ ...############+++#...]]]##+@@@ ...########+###.###....",
"####++@@ ...#####+++####+##.########++@@ ...########+##.########",
"#####+@@ ...###++###+##+###.##++#####+@@ ...##########.#########",
"#####++@...###++####.##+#...##+#.####++@...####+###########+++##",
"######+@..####+####..########+##.#####+@..######.#########+###.#",
"######+@..#####++#..###########..#####+@..###++###########+###.#",
"#####+@@ ..######..##################+@@ ..#+##.###########...##",
"#####+@@ ..##########################+@@ ..#+##.################",
"###+++@@ ..#####+#######@@#########+++@@ ..##..##@@#############",
"##+@@+@@..####@++######@+++#++####+@@+@@..#######++######@+#++##",
"++@@@@@@..+++@@++##++@@+++++++++++@@@@@@..+++##@+++++++@@+++++++",
"+@@@@@@@++@@@@++++++@@+++++@@@@++@@@@@@@++@@++@+++++@@@@@++@@@@+",
"@@@@@@@@@@@@@@@@@@@@@@@@@@@@@@@@@@@@@@@@@@@@@@@@@@@@@@@@@@@@@@@@"};
