/* XPM */
static char * 6_xpm[] = {
"64 64 69 1",
" 	c #335FB3",
".	c #2B5397",
"+	c #132B4B",
"@	c #0B1B33",
"#	c #23437F",
"$	c #ED4C11",
"%	c #130215",
"&	c #CC342E",
"*	c #FF8601",
"=	c #FEF9ED",
"-	c #FFCE38",
";	c #130217",
">	c #C1987A",
",	c #F4E3A2",
"'	c #F8F8DA",
")	c #4D4358",
"!	c #5B1932",
"~	c #1E0417",
"{	c #C05539",
"]	c #6A2533",
"^	c #66142F",
"/	c #7B2C37",
"(	c #CD5827",
"_	c #F9A93A",
":	c #B85733",
"<	c #170416",
"[	c #F2B85D",
"}	c #DF9834",
"|	c #ECE3AD",
"1	c #D09E6F",
"2	c #5A4F5A",
"3	c #574B64",
"4	c #544F61",
"5	c #D39D78",
"6	c #584F62",
"7	c #433950",
"8	c #632034",
"9	c #3E081F",
"0	c #FAB831",
"a	c #B6552C",
"b	c #892E31",
"c	c #B1542B",
"d	c #621D33",
"e	c #3F0B20",
"f	c #D17724",
"g	c #B8542B",
"h	c #140115",
"i	c #F6B448",
"j	c #B34F2C",
"k	c #5F1A2D",
"l	c #6D2538",
"m	c #340922",
"n	c #5A172C",
"o	c #631D2A",
"p	c #C05C2D",
"q	c #3C061A",
"r	c #52192F",
"s	c #E4EBE9",
"t	c #FBFADD",
"u	c #EFD095",
"v	c #555168",
"w	c #4C475B",
"x	c #5A5765",
"y	c #F0D49D",
"z	c #CB9D78",
"A	c #C69475",
"B	c #4B4152",
"C	c #5F1F34",
"D	c #4F1932",
"   ......               .. ..++@   ......               .. ..++@",
"  .............    ...........+@  .............    ...........+@",
" ....#######................#++@ ....#######................#++@",
" ...################......##+@@@ ...################......##+@@@",
" ...########################++@@ ...########################++@@",
" ...####+########...#########+@@ ...####+++#######+++########+@@",
"...######.######.###+#######$+%@...####+###++#####+##########++@",
"..#############.####+########%&@..$####+####+########.########+@",
"..################+++######*#%&%..#####+....######....########+@",
" ..#############++########$##%&&%..####*#...#################+@@",
" ..######@@@#################+%&%..###$%*####################+@@",
" ..####@@+++####+###+######++%$$&%.###%###+++#######+@++###+++@@",
"..#####@++######+##+++#@@@+@@%&$&%###@@@#++++######@@+++##+@@+@@",
"..+++#@+###++++++++++++@@@@@@%&*$&%+@%@#+++++++++++@++++++@@@@@@",
"++@@++@+++++@@@@@++@@@@@@@@@%&$**&%%@%%+++++@@@@@++@@@@++@@@@@@@",
"@@@@@@@@@@@@@@@@@@@@@@@@@@@@%&*=*$&%%%%@@@@@@@@@@@@@@@@@@@@@@@@@",
"        .. ..++@   ......  %&$*==**$&&% .. ..++@   ......       ",
"   ...........+@  .........%&**-=--*$&%.......+@  ............. ",
"............#++@ ....######%$*-====-*$&%....#++@ ....#######....",
"####......##+@@@ ...######%$$*-====-*$&%..##+@@@ ...############",
"############++@@ ...####*#%&***-====-*$&%###++@@ ...####+#######",
"#############+@@ ...####$+#%&$*-====-**&%####+@@ ...#####.######",
"#########+###++@...####+##.%&$*-===--*$$%####++@...#############",
"##########.###+@..#####+##%&$*-===--*$&%######+@..##############",
"##############+@..######..%&$**--=-**$&%######+@..##############",
"#############+@@ ..########%&$**==*$$&%+#####+@@ ..#############",
"#############+@@ ..#########%&&*-*&&%%#######+@@ ..#############",
"###########+++@@ ..#########%%%%%%%%%######+++@@ ..#############",
"####++####+@@+@@..########;>,''''',,>;@@##+@@+@@..########@+####",
"+#++++++++@@@@@@..+++####+;))>,'>>,));++++@@@@@@..+++###@@++++++",
"@++@@@@++@@@@@@@++@@++++++@;;;;;;;;;;;+++@@@@@@@++@@+++@@+++@@@@",
"@@@@@@@@@@@@@@@@@@@@@@@@@@@;!~{]]{^~!;@@@@@@@@@@@@@@@@@@@@@@@@@@",
".        ++#    .. ..++@   ;/(_~:~_/!;          .. ..++@   .....",
"....... +###..........+@  .;;;:_~:(;;;.    ...........+@  ......",
"####....+##.........#++@ ...;!<![}<!;...............#++@ ....###",
"#######+####......##+@@@ ...#;;;;;;;########......##+@@@ ...####",
"#######+###.########++@@ ...#;|1213;#+++##########++++@@ ...####",
"#########..##########+@@ ...#;41567;+############++##+@@ ...####",
"##++#################++@...###;;;;;#+###.#######++###++@...#####",
"#+##.#################+@..###+;889;##....######++#####+@..######",
"#+##.#################+@..####;0ab;############+######+@..######",
"##..#################+@@ ..###;cde;############+#####+@@ ..#####",
"#####################+@@ ..###;fgh;############+#####+@@ ..#####",
"##########@@@######+++@@ ..###;ijk;#######@@@#++.##+++@@ ..#####",
"########@+++++####+@@+@@..####;lmn;######@++++##...@@+@@..######",
"###++++@@+++++++@@@@@@@@..+++#;opq;+++++@+++++++++.@@@@@..+++###",
"++++@@@@@++@@@@++@@@@@@@++@@++;opr;+@@@@@++@@@@++@@@@@@@++@@++++",
"@@@@@@@@@@@@@@@@@@@@@@@@@@@@@;stuvw;@@@@@@@@@@@@@@@@@@@@@@@@@@@@",
".. ..++@   ......            ;xyzAB;.++@   ......    +#+        ",
"......+@  .............    ..;;CCD;;..+@  ..........++##   .....",
"....#++@ ....#######..........;;C;;.#++@ ....#######+###........",
"..##+@@@ ...############+++#...;;;##+@@@ ...########+###.###....",
"####++@@ ...#####+++####+##.########++@@ ...########+##.########",
"#####+@@ ...###++###+##+###.##++#####+@@ ...##########.#########",
"#####++@...###++####.##+#...##+#.####++@...####+###########+++##",
"######+@..####+####..########+##.#####+@..######.#########+###.#",
"######+@..#####++#..###########..#####+@..###++###########+###.#",
"#####+@@ ..######..##################+@@ ..#+##.###########...##",
"#####+@@ ..##########################+@@ ..#+##.################",
"###+++@@ ..#####+#######@@#########+++@@ ..##..##@@#############",
"##+@@+@@..####@++######@+++#++####+@@+@@..#######++######@+#++##",
"++@@@@@@..+++@@++##++@@+++++++++++@@@@@@..+++##@+++++++@@+++++++",
"+@@@@@@@++@@@@++++++@@+++++@@@@++@@@@@@@++@@++@+++++@@@@@++@@@@+",
"@@@@@@@@@@@@@@@@@@@@@@@@@@@@@@@@@@@@@@@@@@@@@@@@@@@@@@@@@@@@@@@@"};
