/* XPM */
static char * 7_xpm[] = {
"64 64 70 1",
" 	c #335FB3",
".	c #2B5397",
"+	c #132B4B",
"@	c #0B1B33",
"#	c #23437F",
"$	c #ED4C11",
"%	c #130215",
"&	c #CC342E",
"*	c #FF8601",
"=	c #FFCE38",
"-	c #FEF9ED",
";	c #EF4A17",
">	c #130217",
",	c #C1987A",
"'	c #F4E3A2",
")	c #F8F8DA",
"!	c #4D4358",
"~	c #5B1932",
"{	c #1E0417",
"]	c #C05539",
"^	c #6A2533",
"/	c #66142F",
"(	c #7B2C37",
"_	c #CD5827",
":	c #F9A93A",
"<	c #B85733",
"[	c #170416",
"}	c #F2B85D",
"|	c #DF9834",
"1	c #ECE3AD",
"2	c #D09E6F",
"3	c #5A4F5A",
"4	c #574B64",
"5	c #544F61",
"6	c #D39D78",
"7	c #584F62",
"8	c #433950",
"9	c #632034",
"0	c #3E081F",
"a	c #FAB831",
"b	c #B6552C",
"c	c #892E31",
"d	c #B1542B",
"e	c #621D33",
"f	c #3F0B20",
"g	c #D17724",
"h	c #B8542B",
"i	c #140115",
"j	c #F6B448",
"k	c #B34F2C",
"l	c #5F1A2D",
"m	c #6D2538",
"n	c #340922",
"o	c #5A172C",
"p	c #631D2A",
"q	c #C05C2D",
"r	c #3C061A",
"s	c #52192F",
"t	c #E4EBE9",
"u	c #FBFADD",
"v	c #EFD095",
"w	c #555168",
"x	c #4C475B",
"y	c #5A5765",
"z	c #F0D49D",
"A	c #CB9D78",
"B	c #C69475",
"C	c #4B4152",
"D	c #5F1F34",
"E	c #4F1932",
"   ......               .. ..++@   ......               .. ..++@",
"  .............    ...........+@  .............    ...........+@",
" ....#######................#++@ ....#######................#++@",
" ...################......##+@@@ ...################......##+@@@",
" ...########################++@@ ...########################++@@",
" ...####+########...#########+@@ ...####+++#######+++########+@@",
"...######.######.###+##$#####++@...####+###++#####+##########++@",
"..#############.####+####%####+@..#####+####+########.########+@",
"..################+++####%#$##+@..#####+....######....########+@",
" ..#############++######%&###+@@ ..######...#################+@@",
" ..######@@@############%&%##+@@ ..##########################+@@",
" ..####@@+++####+###+###%&%+++$@ .%*######+++#######+@++###+++@@",
"..#####@++######+##+++#@%&$%@+%*..#%$@@@#++++######@@+++##+@@+@@",
"..+++#@+###++++++++++++@%&*&%@@%%.++@@@#+++++++++++@++++++@@@@@@",
"++@@++@+++++@@@@@++@@@@@%&$*&%%%%%@@@@++++++@@@@@++@@@@++@@@@@@@",
"@@@@@@@@@@@@@@@@@@@@@@@@%%$*&$&&&&%%@@@@@@@@@@@@@@@@@@@@@@@@@@@@",
"        .. ..++@   ......%&**=*=*&&%%  *.. ..++@   ......       ",
"   ...........+@  .......%%&*====*&&%.*%......+@  ............. ",
"............#++@ ....###*#%%$==-==*&%.......#++@ ....#######....",
"####......##+@@@ ...###%#%&*&*--==**%%....##+@@@ ...############",
"############++@@ ...###*#%&****--==**&%#####++@@ ...####+#######",
"#############+@@ ...###%++%&*=*=--==*&%######+@@ ...#####.######",
"#########+###++@...####+##%&===----==$%######++@...#############",
"##########.###+@..#####+##%&=-------=$%#######+@..##############",
"##############+@..######.%&;*----=*-=$%+######+@..##############",
"#############+@@ ..#######%&$&=-==*=$%++#####+@@ ..#############",
"#############+@@ ..########%%&&===**%########+@@ ..#############",
"###########+++@@ ..#########%%%%%%%%%######+++@@ ..#############",
"####++####+@@+@@..########>,')))))'',>@@##+@@+@@..########@+####",
"+#++++++++@@@@@@..+++####+>!!,'),,'!!>++++@@@@@@..+++###@@++++++",
"@++@@@@++@@@@@@@++@@++++++@>>>>>>>>>>>+++@@@@@@@++@@+++@@+++@@@@",
"@@@@@@@@@@@@@@@@@@@@@@@@@@@>~{]^^]/{~>@@@@@@@@@@@@@@@@@@@@@@@@@@",
".        ++#    .. ..++@   >(_:{<{:(~>          .. ..++@   .....",
"....... +###..........+@  .>>><:{<_>>>.    ...........+@  ......",
"####....+##.........#++@ ...>~[~}|[~>...............#++@ ....###",
"#######+####......##+@@@ ...#>>>>>>>########......##+@@@ ...####",
"#######+###.########++@@ ...#>12324>#+++##########++++@@ ...####",
"#########..##########+@@ ...#>52678>+############++##+@@ ...####",
"##++#################++@...###>>>>>#+###.#######++###++@...#####",
"#+##.#################+@..###+>990>##....######++#####+@..######",
"#+##.#################+@..####>abc>############+######+@..######",
"##..#################+@@ ..###>def>############+#####+@@ ..#####",
"#####################+@@ ..###>ghi>############+#####+@@ ..#####",
"##########@@@######+++@@ ..###>jkl>#######@@@#++.##+++@@ ..#####",
"########@+++++####+@@+@@..####>mno>######@++++##...@@+@@..######",
"###++++@@+++++++@@@@@@@@..+++#>pqr>+++++@+++++++++.@@@@@..+++###",
"++++@@@@@++@@@@++@@@@@@@++@@++>pqs>+@@@@@++@@@@++@@@@@@@++@@++++",
"@@@@@@@@@@@@@@@@@@@@@@@@@@@@@>tuvwx>@@@@@@@@@@@@@@@@@@@@@@@@@@@@",
".. ..++@   ......            >yzABC>.++@   ......    +#+        ",
"......+@  .............    ..>>DDE>>..+@  ..........++##   .....",
"....#++@ ....#######..........>>D>>.#++@ ....#######+###........",
"..##+@@@ ...############+++#...>>>##+@@@ ...########+###.###....",
"####++@@ ...#####+++####+##.########++@@ ...########+##.########",
"#####+@@ ...###++###+##+###.##++#####+@@ ...##########.#########",
"#####++@...###++####.##+#...##+#.####++@...####+###########+++##",
"######+@..####+####..########+##.#####+@..######.#########+###.#",
"######+@..#####++#..###########..#####+@..###++###########+###.#",
"#####+@@ ..######..##################+@@ ..#+##.###########...##",
"#####+@@ ..##########################+@@ ..#+##.################",
"###+++@@ ..#####+#######@@#########+++@@ ..##..##@@#############",
"##+@@+@@..####@++######@+++#++####+@@+@@..#######++######@+#++##",
"++@@@@@@..+++@@++##++@@+++++++++++@@@@@@..+++##@+++++++@@+++++++",
"+@@@@@@@++@@@@++++++@@+++++@@@@++@@@@@@@++@@++@+++++@@@@@++@@@@+",
"@@@@@@@@@@@@@@@@@@@@@@@@@@@@@@@@@@@@@@@@@@@@@@@@@@@@@@@@@@@@@@@@"};
