/* XPM */
static char *result[] = {
/* columns rows colors chars-per-pixel */
"90 90 206 2 ",
"   c #22162E",
".  c #25192F",
"X  c #281A2F",
"o  c #271A31",
"O  c #291A32",
"+  c #2D1A39",
"@  c #2A1633",
"#  c #311A37",
"$  c #331B3B",
"%  c #3A1B3C",
"&  c #3C213D",
"*  c #2F1844",
"=  c #301846",
"-  c #3A194C",
";  c #32174C",
":  c #341654",
">  c #3C1951",
",  c #351659",
"<  c #3C175C",
"1  c #471B44",
"2  c #4A1B46",
"3  c #4F1B49",
"4  c #451847",
"5  c #511D4A",
"6  c #45185E",
"7  c #441958",
"8  c #561A5C",
"9  c #581953",
"0  c #651C56",
"q  c #6A1759",
"w  c #66195A",
"e  c #6C1B5B",
"r  c #651758",
"t  c #721D5D",
"y  c #442C42",
"u  c #5B2455",
"i  c #6E205B",
"p  c #602D53",
"a  c #74215F",
"s  c #411760",
"d  c #4B1864",
"f  c #4D1869",
"g  c #481863",
"h  c #5E1A62",
"j  c #54196D",
"k  c #5B1C6E",
"l  c #551967",
"z  c #591B71",
"x  c #611B64",
"c  c #661B69",
"v  c #691C69",
"b  c #751E60",
"n  c #781E61",
"m  c #631D75",
"M  c #631D78",
"N  c #762261",
"B  c #7A2362",
"V  c #7C2C64",
"C  c #742667",
"Z  c #7C3661",
"A  c #772A7B",
"S  c #852B68",
"D  c #842968",
"F  c #823A65",
"G  c #88356A",
"H  c #9D3575",
"J  c #8D3472",
"K  c #A33978",
"L  c #A73B7A",
"P  c #AB437E",
"I  c #946773",
"U  c #A5697D",
"Y  c #8A506C",
"T  c #6E2DAD",
"R  c #732EAD",
"E  c #782FAF",
"W  c #7C31AC",
"Q  c #762EB0",
"!  c #7E30B2",
"~  c #9C3885",
"^  c #A13D87",
"/  c #8133AD",
"(  c #8531B6",
")  c #8C35B5",
"_  c #8E32BA",
"`  c #9633BE",
"'  c #9A35BD",
"]  c #9E38BB",
"[  c #963AAC",
"{  c #A53BB7",
"}  c #A23CBC",
"|  c #A93DB4",
" . c #BA3FBC",
".. c #A23EAB",
"X. c #BB4A85",
"o. c #B55485",
"O. c #BD5B89",
"+. c #B85886",
"@. c #AC4D83",
"#. c #B66988",
"$. c #B66988",
"%. c #A642A2",
"&. c #AA44A2",
"*. c #B543AB",
"=. c #B945AA",
"-. c #BE4AAA",
";. c #B951AC",
":. c #AA42BA",
">. c #AA41B6",
",. c #BD41B7",
"<. c #C44B8A",
"1. c #CB4E8E",
"2. c #CF4E90",
"3. c #CB4E9D",
"4. c #D14F91",
"5. c #D24F98",
"6. c #CE519B",
"7. c #CE5292",
"8. c #D45395",
"9. c #DA5595",
"0. c #D45B94",
"q. c #DD5A96",
"w. c #D45399",
"e. c #DC5699",
"r. c #D6599C",
"t. c #DD5C9A",
"y. c #C8568D",
"u. c #E15E9B",
"i. c #E05C96",
"p. c #C7608F",
"a. c #DD6199",
"s. c #D16394",
"d. c #D8799A",
"f. c #E1639B",
"g. c #E36A9D",
"h. c #E27F9F",
"j. c #C44DA6",
"k. c #C151AB",
"l. c #D65CA9",
"z. c #CE46B5",
"x. c #D24DB3",
"c. c #D047B4",
"v. c #C55BB6",
"b. c #CA5EB6",
"n. c #C353B0",
"m. c #D44FA1",
"M. c #E05FBF",
"N. c #DA68AB",
"B. c #DC73AE",
"V. c #CD61B6",
"C. c #D468B5",
"Z. c #E56BA3",
"A. c #EA6EA3",
"S. c #ED72A3",
"D. c #ED7BA5",
"F. c #E57BA1",
"G. c #F27EAF",
"H. c #F078A4",
"J. c #E775B3",
"K. c #9533C0",
"L. c #9D35C0",
"P. c #9D3EC0",
"I. c #AE37C8",
"U. c #A236C1",
"Y. c #B138C6",
"T. c #BF37D2",
"R. c #C63CCD",
"E. c #C83DCD",
"W. c #C93FC7",
"Q. c #C236D4",
"!. c #C538D3",
"~. c #CA3FD0",
"^. c #CB41CE",
"/. c #E175C4",
"(. c #E262C2",
"). c #E783A2",
"_. c #EC85A5",
"`. c #EE89A6",
"'. c #F682AD",
"]. c #FB85AC",
"[. c #FE8BAE",
"{. c #F287A9",
"}. c #E999A5",
"|. c #F594AB",
" X c #FF92AF",
".X c #F999AE",
"XX c #E681B4",
"oX c #F583B1",
"OX c #FA85B1",
"+X c #FF8DB0",
"@X c #F789B1",
"#X c #FF93B1",
"$X c #FD9EB0",
"%X c #F797B1",
"&X c #EDA4AA",
"*X c #E7A4A6",
"=X c #F5A4AD",
"-X c #F3ABAD",
";X c #F8A6AF",
":X c #FFA2B2",
">X c #FBACB1",
",X c #F6ABB5",
"<X c #FEB3B3",
"1X c #FFBBB6",
"2X c #FFBDB8",
"3X c None",
/* pixels */
"3X3X3X3X3X3X3X3X3X3X3X3X3X3X3X3X3X3X3X3X3X3X3X3X3X3X3X3X3X3X3X3X3X3X3X3X3X3X3X3X3X3X3X3X3X3X3X3X3X3X3X3X3X3X3X3X3X3X3X3X3X3X3X3X3X3X3X3X3X3X3X3X3X3X3X3X3X3X3X3X3X3X3X3X3X3X3X3X3X3X",
"3X3X3X3X3X3X3X3X3X3X3X3X3X3X3X3X3X3X3X3X3X3X3X3X3X3X3X3X3X3X3X3X3X3X3X3X3X3X3X3X3X3X3X3X3X3X3X3X3X3X3X3X3X3X3X3X3X3X3X3X3X3X3X3X3X3X3X3X3X3X3X3X3X3X3X3X3X3X3X3X3X3X3X3X3X3X3X3X3X3X",
"3X3X3X3X3X3X3X3X3X3X3X3X3X3X3X3X3X3X3X3X3X3X3X3X3X3X3X3X3X3X3X3X3X3X3X3X3X3X3X3X3X3X3X3X3X3X3X3X3X3X3X3X3X3X3X3X3X3X3X3X3X3X3X3X3X3X3X3X3X3X3X3X3X3X3X3X3X3X3X3X3X3X3X3X3X3X3X3X3X3X",
"3X3X3X3X3X3X3X3X3X3X3X3X3X3X3X3X3X3X3X3X3X3X3X3X3X3X3X3X3X3X3X3X3X3X3X3X3X3X3X3X3X3X3X3X3X3X3X3X3X3X3X3X3X3X3X3X3X3X3X3X3X3X3X3X3X3X3X3X3X3X3X3X3X3X3X3X3X3X3X3X3X3X3X3X3X3X3X3X3X3X",
"3X3X3X3X3X3X3X3X3X3X3X3X3X3X3X3X3X3X3X3X3X3X3X3X3X3X3X3X3X3X3X3X3X3X3X3X3X3X3X3X3X3X3X3X3X3X3X3X3X3X3X3X3X3X3X3X3X3X3X3X3X3X3XR 3X3X3X3X3X3X3X3X3X3X3X3X3X3X3X3X3X3X3X3X3X3X3X3X3X3X",
"3X3X3X3X3X3X3X3X3X3X3X3X3X3X3X3X3X3X3X3X3X3X3X3X3X3X3X3X3X3X3X3X3X3X3X3X3X3X3X3X3X3X3X3X3X3X3X3X3X3X3X3X3X3X3X3X3X3X3X3X3X3X3XR R 3X3X3X3X3X3X3X3X3X3X3X3X3X3X3X3X3X3X3X3X3X3X3X3X3X",
"3X3X3X3X3X3X3X3X3X3X3X3X3X3X3X3X3X3X3X3X3X3X3X3X3X3X3X3X3X3X3X3X3X3X3X3X3X3X3X3X3X3X3X3X3X3X3X3X3X3X3X3X3X3X3X3X3X3X3X3X3X3X3X3X3X3X3X3X3X3X3X3X3X3X3X3X3X3X3X3X3X3X3X3X3X3X3X3X3X3X",
"3X3X3X3X3X3X3X3X3X3X3X3X3X3X3X3X3X3X3X3X3X3X3X3X3X3X3X3X3X3X3X3X3X' K.' ' ` ' 3X3X3X3X3X3X3X3X3X3X3X3X3X3X3X3X3X3X3X3X3X3X3X3X3X3X3X3X3X3X3X3X3X3X3X3X3X3X3X3X3X3X3X3X3X3X3X3X3X3X3X",
"3X3X3X3X3X3X3X3X3X3X3X3X3X3X3X3X3X3X3X3X3X3X3X3X3X3X3X3X3X3X3X3X] ] } } } } } } 3X3X3X3X3X3X3X3X3X3X3X3X3X3X3X3X3X3X3X3X3X3X3X3X3X3X3X3X3X3X3X3X3X3X3X3X3X3X3X3X3X3X3X3X3X3X3X3X3X3X",
"3X3X3X3X3X3X3X3X3X3X3X3X3X3X3X3X3X3X3X3X3X3X3X3X3X3X3X3X3X3XK.K.*.r.e.G.@XOX@XoXt.8.3X3X3X3X3X3X3X3X3X3X3X3X3X3X3X3X3X3X3X3X3X3X3X3X3X3X3X3X3X3X3X3X3X3X3X3X3X3X3X3X3X3X3X3X3X3X3X3X",
"3X3X3X3X3X3X3X3X3X3X3X3X3X3X3X3X3X3X3X3X3X3X3X3X3X3X3X3XK.} *.*.j.3Xr.V.b.N.S.S.S.S.l.3X` R R R R 3X3X3X3X3X3X3X3X3X3X3X3X3X3X3X3X3X3X3X3X3X3X3X3X3X3X3X3X3X3X3X3X3X3X3X3X3X3X3X3X3X",
"3X3X3X3X3X3X3X3X3X3X3X3X3X3X3X3X3X3X3X3X3X3X3X3X3X3X3X] ] { 6.9.3X3X3X` ` *.8.e.[.#XV.' ] W W R E R 3X3X3X3X3X3X3X3X3X3X3X3X3X3X3X3X3X3X3X3X3X3X3X3X3X3X3X3X3X3X3X3X3X3X3X3X3X3X3X3X",
"3X3X3X3X3X3X3X3X3X3X3X3X3X3X3X3X3X3X3X3X3X3X3X3X3X3X3Xw.w.6.} ] ] 3X3X' ' ' ' :.,X<X_.5.6.8.8.*.K._ Q R R R R 3X3X3X3X3X3X3X3X3X3X3X3X3X3X3X3X3X3X3X3X3X3X3X3X3X3X3X3X3X3X3X3X3X3X3X",
"3X3X3X3X3X3X3X3X3X3X3X3X3X3X3X3X3X3X3X3X3X3X3X3X3X3X3X9.q.w.{ 3X3X3X' ' K.| =.k.,X1X|.S.S.A.A.l.=.*.) ( ( ( ( R 3XR R 3X3X3X3X3X3X3X3X3X3X3X3X3X3X3X3X3X3X3X3X3X3X3X3X3X3X3X3X3X3X3X",
"3X3X3X3X3X3X3X3X3X3X3X3X3X3X3X3X3X3X3X3X3X3X3X3X3X3X3X9.9.9.3X3X` ' ' ] ] -.q.g.>X<X:X#X#X#X#XD.q.r.:.} ] ] ' ! W W R R 3X3X3X3X3X3X3X3X3X3X3X3X3X3X3X3X3X3X3X3X3X3X3X3X3X3X3X3X3X3X",
"3X3X3X3X3X3X3X3X3X3X3X3X3X3X3X3X3X3X3X3X3X3X3X3X3X3X3X3Xe.7.W R ( K.] 3.5.A.].].[.[.:X<X<X<X<X<X<X>X@XoXZ.w.7.5.2.*.` ` R R 3X3X3X3X3X3X3X3X3X3X3X3X3X3X3X3X3X3X3X3X3X3X3X3X3X3X3X3X",
"3X3X3X3X3X3X3X3X3X3X3X3X3X3X3X3X3X3XR Q ` ' ' ` ] 6.3X9.9.w.&...;.V.V._.`.|.:X:X:X$X:X$X:X:X:X:X:X:X:X:X.X`.`.).`.B.V.v.) ) ! 3X3X3X3X3X3X3X3X3X3X3X3X3X3X3X3X3X3X3X3X3X3X3X3X3X3X3X",
"3X3X3X3X3X3X3X3X3X3X3X3X3X3X3X3X3XE R W ` ' ' ] { w.q.9.9.9.q.q.H.#X#X>X<X-X-X&X-X-X.XG.].].].].].[.>X<X-X-X-X<X<X:X X@X:.} ) Q E 3X3X3X3X3X3X3X3X3X3X3X3X3X3X3X3X3X3X3X3X3X3X3X3X3X",
"3X3X3X3X3X3X3X3X3X3X3X3X3X3X3XR R ( ' ` ' ` =.r.9.9.9.9.0.e.'.].:X1X>Xa.t.P V V B V @.u.u.t.q.t.t.u.t.f.P i S 0.t.`.1X>X@XOXv.K._ Q R 3X3X3X3X3X3X3X3X3X3X3X3X3X3X3X3X3X3X3X3X3X3X3X",
"3X3X3X3X3X3X3X3X3X3X3X3X3XR R R R ( 3X3X3X3X..%.&.8.9.f.S.D.$X:X|._.).q.q.K e e e q S K L 8.e.X.K K K K K K K K K p._.`.$X:XXXV.v.) ( ! 3X3X3X3X3X3X3X3X3X3X3X3X3X3X3X3X3X3X3X3X3X3X",
"3X3X3X3X3X3X3X3X3X3X3X3X3XR R 3X3X3X3X3X3X3XR R W 6.9.S.#X X>X<X).1.4.9.t.K q e e e e e a <.9.H w q e 0 H 9.1.N r H 2.9.=X<X:X#X'.:.] ) R E 3X3X3X3X3X3X3X3X3X3X3X3X3X3X3X3X3X3X3X3X",
"3X3X3X3X3X3X3X3X3X3X3X3X3X3X3X3X3X3X3X3XR R ( K.] w.8._.1X>Xg.u.L a D 1.t.K q e e e t e t a a t e t e t t N N i e t a V 0.t.`.1X,Xa.w.*.` ` R R 3X3X3X3X3X3X3X3X3X3X3X3X3X3X3X3X3X3X",
"3X3X3X3X3X3X3X3X3X3X3X3X3X3X3X3X3X3XR R R R [ =.-.Z.S.D._.F.P K S q N 1.t.K 0 0 3 1 9 h 8 t e 9 2 2 2 2 9 h h e e e e a H K y.`.).S.S.l.=.*.) ( _ 3X3X3X3X3X3X3X3X3X3X3X3X3X3X3X3X3X",
"3X3X3X3X3X3X3X3X3X3X3X3X3X3X3X3X3XR R R R Q &.q.f.[. XA.1.<.a 0 e e N <.9.H q i + . - g d e t 2 . O o . - g d w e e e e e w H 8.9.].%XS.q.r.:.} } } } 3X3X3X3X3X3X3X3X3X3X3X3X3X3X3X",
"3X3X3X3X3X3X3X3XR R 3X3X3X3X3X3X3X3XR R _ ` v.[.[.<X1X$.t a e t t e i a N t t 0 # O O O $ i a 2 X O O O + O + d f x a e e e a a G &X1X$X].].'.'.'.oX'.t.9.*.` ' 3X3X3X3X3X3X3X3X3X3X",
"3X3X3X3X3X3X3X3XR 3X3X3X3X3X3X3X3X( ( ) v.V.XX:X$X`.{.@.e e 5 1 9 h h e e e e 0 # X O O + 8 h 4 o O O O X X + - > 4 2 5 e e e 0 B F._.|.:X:X:X:X:X:X$X`._.B.b.V.r.9.3X3X3X3X3X3X3X3X",
"3X3X3X3X3X3X3X3X3X3X3X3X3X3X3XR R ( ] :.'. X$X<X=X0.8.H e 0 + . - g d e e e e 0 # O O O + 6 g - O O O O O O O o o o o + 0 e e q B <.2.).<X>X1X<X<X,X<X,X,X$X].].t.t.q.3X3X3X3X3X3X3X",
"3X3X3X3X3X3X3X3X3X3X3X3X3X3X3XR T %.w.t.>X<X_.t.7.D a t e 0 # o O + $ 0 e h l d + X O O O O + + O O O O O O O O O O o # e e h l l t t P t.g.>X1X`.q.r.:.] -.q.f.'.[.S.9.9.3X3X3X3X3X",
"3X3X3X3X3X3X3X3X3X3X3X3X3XR R ( ( ;.S.D.>X1X_.9.1.B e e e 0 # O O O # 0 b 9 - - O O O O O O O O O O O O O O O O O O O # 8 h 7 - - 2 1 J e.a.>X1X|.A.Z.-.=.=.=.-.Z.S.S.A.S.3X3X3X3X3X",
"3X3X3X3X3X3X3X3X3X3X3X3XR R W ' ] V. X#X<X<X).4.<.a 0 i e 0 # o O O # 0 e 3 o o O o O O O O O O O O O O O O O O O O o # 6 d - O O .   Z 8.0.>X<X>X#X[.q.9.=.` ' 5.9.S.+X+X3X3X3X3X3X",
"3X3X3X3X3X3X3X3X3X3X3X3XR T W 3.w._.<X<X X#XO.t i $ O 3 a 0 # O O X + 0 e 2 o o O O O O O O O O O O O O O O O O O O X O + + O O O O O 5 t S {.#X:X<X>Xq.9.&.R R 3X3X+X+XoX:.` 3X3X3X",
"3X3X3X3X3X3X3X3X3X3X3X3X3XR W 7.9._.1X>XD.S.@.q 0 # X 4 h 8 # O O o # 0 N 2 o o O O O O O O O X O O O O O O O O O O O O X O O O O O O 2 e V a.S.|.1X>Xa.9.%.T R ` 3XB.+XoX} ` ' 3X3X",
"3X3X3X3X3X3X3X3X3X3X3X3XE R / w.q._.1X>X0.4.H e 0 # X - d 6 + . O O # 0 e 2 O O o O O O O O O O O O O O O O O O O O O O O O O O O O . 2 e N <.2.).1X>Xf.i.&.R E ' ] V.[.oX} ` ` 3X3X",
"3X3X3X3X3X3X3X3X3X3XR R ( ` P.G.].:X1X&XG t a t 0 # o O + + O O O o + d l - O O O O O O O O X O O O O O O O O O O O O O O O O O O O o 2 t t t t $.1X<X[.[.b.K.' 3.4.A. XoX:.` ' 3X3X",
"3X3X3X3X3X3X3X3X3X3XR T [ =.k.'.[.:X1X&XV e 9 2 2 O O O X O O O O O O - > $ o O O O O O O O O O O O O O O O O O O O O X o O O O O O O % 2 2 e r #.1X<X#X[.N.*.-.Z.S.S.S.Z.} K.' 3X3X",
"3X3X3X3X3X3X3X3X3X3XR R %.q.t.].[.:X<X}.V e 2 X O O O O O O O O O O O O o O O O O O O O O O O O O O O O O O O O O O O O O O O O O O O o O # 0 0 #.<X>X#X XS.q.f.].[.Z.8.6.} K.3X3X3X",
"3X3X3X3X3X3X3X3X3X3XR R %.9.a.>X1X`.q.7.B e 2 O O O O O O O O O O O O O O O O O O O O O O O O O O O O O O O O O O O O O O O O O O O O O O O + O F t.g.>X<X$X'.].f.i.-.] ] 3X3X3X3X3X",
"3X3X3X3X3X3X3X3X3X3XR T %.9.a.>X1X_.9.y.u 2 % X O O O O O O O O O O O O O O O O O O O O O O O O O O O o O O O O O X O O O O O O O X O O O O O . F e.a.>X1X$X+X'.k.=.| 3X3X3X3X3X3X3X",
"3X3X3X3X3X3X3X3X3X3XR T %.9.a.>X1X).4.X.& . X O O O O O O O O O O O O O O O O O O O O O O O O O O O O O O O O X O O O O O O O O O O O O O O O . Z 8.q.-X<X:X].'.{ ] 3X3X3X3X3X3X3X3X",
"3X3X3X3X3X3X3X3X3X3XR R %.9.a.>X1X$.t a # o O O O O O O O O O O O O O O O O O O O O O X O O O O O O O O O O O O O O O O O O O O O O O O O O O o 5 t G &X1X`.q.e.w.w.3X3X3X3X3X3X3X3X",
"3X3X3X3X3X3X3X3X3X3XR T %.9.a.>X2X#.q 0 # o O O O O O O O O O O O O O o O O O O O O O O O O O O O O O O O O O O O O O O O O O O O O O O O O O o 2 e S &X1X_.8.9.e.9.j.3X3X3X3X3X3X3X",
"3X3X3X3X3X3X3X3X3X3XR R %.9.a.>X1X#.q 0 # O O O o O O O O O O X O O O O O O O O O O O o O o O O O O O O O + O O O O O O O O O O O O O O O O O o 2 e Z &X1X_.9.9.9.9.=.] ] 3X3X3X3X3X",
"3X3X3X3X3X3X3X3X3X3XR R %.9.a.>X1X#.q 0 # O O O O O O O O O O O O O O O X O O O O O O O O O O O O O O O * : : O X O O O O O O O O O O o O O O o 2 e V &X2X_.9.9.9.9.9.w.9.3X3X3X3X3X",
"3X3X3X3X3X3X3X3X3X3XR T %.9.a.:X1X#.q 0 # o O O O O O O O O O O O O O O O O O O O O O O O O O O O O O O = , : O O O O O O O O O O O O O O O O o 3 e V &X1X_.w.w.-.=.j.q.r.{ K.3X3X3X",
"3X3X3X3X3X3X3X3X3X3XR Q %.9.a.<X1X#.0 0 # O O O O O O O O O O O O O O O O O O O O O O O O O O O o O O O = , , + O O O O o O O O O O O O O O O o 2 e V &X1X_.9.w.] ` =.r.3.{ ' ] 3X3X",
"3X3X3X3X3X3X3X3X3X3X` ` *.9.a.:X1X#.e 0 # o O O O O O O O O O O O O O O O O O O O O O O X O O O O O O o - f g + . O O O O O O O O O O O O O O o 2 q V &X1X_.8.w.} ` ' ] { 3.w.w.3X3X",
"3X3X3X3X3X3X3X3X3X3X' ' k.S.D.>X1X#.q 0 # o O O O O O O O O O O O O O O O O O O O O O O O O O O O O O O - f 6 + O O O O O O O O O O O O O O O o 3 w S &X1X|.A.Z.} ` ' 3X{ 9.9.9.3X3X",
"3X3X3X3X3X3X3X3X3X3X' ` V.[.#X<X1X#.q 0 # X O O O O O O O X O O O X O O O O O O O O O O O O O O O O O X - l d + O O X O O O O O O O O O O O O o 1 r V &X1X:X+XoX} ' 3X3X3Xw.w.w.3X3X",
"3X3X3X3X3X3X3X3X3X3X' ` b.[.#X<X1X#.q 0 # O O O O O O O O O O O O O O O O O O o O O O O O O O O O O O X - j d + X O O O O O O O O o O O O O O O O @ y *X1X$X+XoX} ` ' 3X3X} ] ] 3X3X",
"3X3X3X3X3X3X3X3X3X3X' ` V.+X+X<X1XU 4 1 @ O O O O O O O O O O O O O O O O O O O o O O O O O O O O O O o = - - O X O O O O O O O O O O O O O O O O . y *X1X:X+XG.:.` ' 3X3X3XK.3X3X3X",
"3X3X3X3X3X3X3X3X3X3X' ` V.[.#X<X1XI   o O O O O O O O O O O O O O O O O O O O O O O O O O O O O O O O O O X o O O O O O O X O O O O O O O O O O + O y *X1X:X].oX} K.' 3X3X3X3X3X3X3X",
"3X3X3X3X3X3X3X3X3X3X' ` V.[.#X>X1XI   O O O O O O O O O O O O O O O O O O O O O O O O O O O O O O O O O O O O O O O O O O O O O O O O O O O O o 1 0 V &X1X:X+XoX:.K.' 3X3X3X3X3X3X3X",
"3X3X3X3X3X3X3X3X3X3X' ` V.[.#X<X1XU 1 1 O O O O O O O O O O O O O O O O O O O O O O O O O O O O O O O O O O O O O O O O O O O O O O O O O O O o 2 e S &X1X:X[.oX} K.' 3X3X3X3X3X3X3X",
"3X3X3X3X3X3X3X3X3X3X' ' V.[.[.<X2X#.e 0 # O O O O O O O O O O O O O O O O O O O O O O O O O O O O O O O O O O O O O O O O O O O O O O O O O O o 2 e Z &X1X$X[.G.:.K.' 3X3X3X3X3X3X3X",
"3X3X3X3X3X3X3X3X3X3X' K.-.q.a.>X2X#.0 0 # O O O O O O O O O O O O O o O O O O O O O O o O O O O O O O O O O O O O O o O O O O O O O O O O O O o 2 e S &X1X`.q.r.} K.' 3X3X3X3X3X3X3X",
"3X3X3X3X3X3X3X3X3X3X' K.=.9.a..X:X+.e 0 # O O O O O X + * * O O O O O O O O O O O O O O O O O O O O O O O O O X O O O O O O O O O O O O O O O o 2 q V `.:XD.9.6.} ' K.3X3X3X3X3X3X3X",
"3X3X3X3X3X3X3X3X3X3XK.K.-.9.t.].+X+.t e # O O O O O O = , : O O O O O O O O O O O O O O O O O O O O O O O O O O O O O O O O O O O O O O O O O o 3 a S _.+XS.9.w.} ' ' 3X3X3X3X3X3X3X",
"3X3X3X3X3X3X3X3X3X3X] K.=.9.t.]. XZ.8.X.& O O O O O O O O O O O O O O O O O O O O O O O O O O O O o O O O O O O O O O O O O O O O O O O O O o . Z 9.9.].[.S.9.w.} ' ' 3X3X3X3X3X3X3X",
"3X3X3X3X3X3X3X3X3X3XK.' =.9.t.]. XS.q.<.& . O O O O O O O O O O O O O O O O O O O O O O O O O + * * O O O O O O O O O O O O O O O O O O O O O . Z t.t.].#XS.9.6.] ` ' 3X3X3X3X3X3X3X",
"3X3X3X3X3X3X3X3X3X3X' K.=.9.u.].#XS.t.y.& O O O O O O O O O O O O O O O O O O o O O O O O O O = , : + o O O O O O O O O O + O O O O O O O O O . F u.a.'.+XS.9.w.{ ` 3X3X3X3X3X3X3X3X",
"3X3X3X3X3X3X3X3X3X3X3X3Xq.9.q.].[.:X<X}.y o o O O O O O O O O O O O O O O O O X o O O o O : : : , : + o O O O O X * : : , : : , : O O O O O .   I <X:X#X[.S.9.9.3X3X3X3X3X3X3X3X3X3X",
"3X3X3X3X3X3X3X3X3X3X3X3X3X=.k.Z.S.|.1X*Xu 1 % o O O O O O O O O O O O O O + * * O o + * = , , , , : O O O O O * * : , , , , : * * O O O O @ 1 4 U 2X>XD.S.l.=.=.3X3X3X3X3X3X3X3X3X3X",
"3X3X3X3X3X3X3X3X3X3X3X3X` ` ] w.9.).1X&XG a 3 o O O O O O O O O O O O O O = , : + o = , , , , , , : + o O O + : , , , , : , * X X O O O o # i n $.1X>Xa.9.=.K.K.3X3X3X3X3X3X3X3X3X3X",
"3X3X3X3X3X3X3X3X3X3X3X3X' ` ] w.9.`.1X>X0.8.Z o O O O O O O O O O O O : : , , : + o = , , , , , , : O o * : : , , : , : + O O o O O O O . & X.8.`.1X>Xa.9.=.' ' 3X3X3X3X3X3X3X3X3X3X",
"3X3X3X3X3X3X3X3X3X3X3X3X3XK.} =.*.B.:X.Xa.e.F . o o O O O O O O + = = , , : * * O O * , : , , , , : O o * , , , , , , : @ O O O O O O % 2 u 1.9.D.:X%X;.=.>.3X3X3X3X3X3X3X3X3X3X3X3X",
"3X3X3X3X3X3X3X3X3X3X3X3X3X3X3XK.K.b.[.'.a.u.G & & O o X O O O O = , , , , * o o O O * , , , , , , : + o * : : , , , , : + O O O O O o 5 n D 7.q.A.[.G.} ' 3X3X3X3X3X3X3X3X3X3X3X3X3X",
"3X3X3X3X3X3X3X3X3X3X3X3X3X3X3X' ' =.i.f.;X<X).1.P & o X O O ; , , , , , , = O O O O * , , , : , , : O o O O + : , , , : O O O O O O   Z 4.0.;X<X_.q.w.} ' ' 3X3X3X3X3X3X3X3X3X3X3X3X",
"3X3X3X3X3X3X3X3X3X3X3X3X3X3X3X' '  .c.x.).`.).{.d.u 7 7 - - s s s s < = * + o O O O = , , , , , , : = = + O O * = : s s - - $ O O O   Y {._.`.`.N.=.*.} ' 3X3X3X3X3X3X3X3X3X3X3X3X3X",
"3X3X3X3X3X3X3X3X3X3X3X3X3X3X3X' ` Y.R.W.w.5._.1X*XW M z f f f f f f d + o O O O O O * , , , , , , , , , ; + O O . > f f f f > # @ # . I 2X>Xa.8.=.K.K.3X3X3X3X3X3X3X3X3X3X3X3X3X3X3X",
"3X3X3X3X3X3X3X3X3X3X3X3X3X3X3X' ` =.r.w.9.9.).1X}.B r x M z f f f f d O O O O O : , : , , , , , , , , , s g 6 + @ 4 f f f f j z k r 9 #.2X<Xa.9.=.K.] 3X3X3X3X3X3X3X3X3X3X3X3X3X3X3X",
"3X3X3X3X3X3X3X3X3X3X3X3X3X3X3X' ` =.q.q.A.A.|.1X-XO.o.@.~ ~ m z z z l + o O o + < s 6 s s s s s s s g s g f d > - - - > j j A ^ ^ $.#.d.`.D.x.c.,.3X3X3X3X3X3X3X3X3X3X3X3X3X3X3X3X3X",
"3X3X3X3X3X3X3X3X3X3X3X3X3X3X3X' ` =.9.t.'.[.:X1X<X.X#XD.e.y.A m M M k # O O + $ d f f f f f f d d f f f f f f f f -   # k m ^ i.f.>X2X_.8.5.R.R.3X3X3X3X3X3X3X3X3X3X3X3X3X3X3X3X3X3X",
"3X3X3X3X3X3X3X3X3X3X3X3X3X3X3X' ` =.9.q.].[.:X<X<X<X<X_.9.1.a 0 v M z # X - g d f f f f f f f f f f f f f g f f f - . O r w H 9.t.:X1X`.9.w.E.!.!.3X3X3X3X3X3X3X3X3X3X3X3X3X3X3X3X3X",
"3X3X3X3X3X3X3X3X3X3X3X3X3X3X3X3X3X,.c.x.A.S.@X:X>X<X<X|.S.g.L K S v v 6 7 d z j j z j l j j j l z z z j k j z z z 8 2 5 H K y.D.D._.`.N.z.z.R.!.3X3X3X3X3X3X3X3X3X3X3X3X3X3X3X3X3X3X",
"3X3X3X3X3X3X3X3X3X3X3X3X3X3X3X3X3X3XQ.R.m.w.A.[.[.>X<X:X+X].f.u.L t n m m m m M M M M m M M M M M M M M M M M M M v N S 8.i.A.+X'.e.9.z.!.!.3X3X3X3X3X3X3X3X3X3X3X3X3X3X3X3X3X3X3X3X",
"3X3X3X3X3X3X3X3X3X3X3X3X3X3X3X3X3XL.' U.R.E.c.i.f.[. X X+X[.+X[.Z.2.<.n e e 0 e M M M M M M M M M M M M v q q w w H 2.9.'.+XS.i.m.W.R.R.3X3X3X3X3X3X3X3X3X3X3X3X3X3X3X3X3X3X3X3X3X3X",
"3X3X3X3X3X3X3X3X3X3X3X3X3X3X3X3X3X3X' L.I.I. .c.z.(.(.Z.S.S.S.A.S.S.Z.+.o.o.+.@.C c v v c c v v v v v x J O.o.o.o.s.S.A.S.S.l.c.c.^.!.3X3X3X3X3X3X3X3X3X3X3X3X3X3X3X3X3X3X3X3X3X3X3X",
"3X3X3X3X3X3X3X3X3X3X3X3X3X3X3X3X3X3X3X3X' K.I.!.Q.Q.Q.z.w.w.w.w.A.OX+X+X+X+X+X_.G C a V V V V B V a V a O.#X+X+X+X+X+X'.e.w.z.!.Q.3X3X3X3X3X3X3X3X3X3X3X3X3X3X3X3X3X3X3X3X3X3X3X3X3X",
"3X3X3X3X3X3X3X3X3X3X3X3X3X3X3X3X3X3X3X3X3X3X3X3X3XL.' Y.E.E.E.E.E.^.^.e.q.t.t.a.=X-X-X-X-X-X-X-X-X-X-X-X$X[.+X+X#XS.i.e.W.!.E.3X3X3X3X3X3X3X3X3X3X3X3X3X3X3X3X3X3X3X3X3X3X3X3X3X3X3X",
"3X3X3X3X3X3X3X3X3X3X3X3X3X3X3X3X3X3X3X3X3X3X3X3X3X3X' Y.!.!.!.!.!.3XR.z.z.c.z.x.J./.XX`._._._.|.:X:X:X:X#X#X].D.S.l.c.c.E.!.3X3X3X3X3X3X3X3X3X3X3X3X3X3X3X3X3X3X3X3X3X3X3X3X3X3X3X3X",
"3X3X3X3X3X3X3X3X3X3X3X3X3X3X3X3X3X3X3X3X3X3X3X3X3X3X3X3X3X3X3X3X3X3X3X!.!.!.!.!.Q.Q.z.w.w.w.5.Z.OX@XOXOXOXOXoXt.w.z.Q.T.3X3X3X3X3X3X3X3X3X3X3X3X3X3X3X3X3X3X3X3X3X3X3X3X3X3X3X3X3X3X",
"3X3X3X3X3X3X3X3X3X3X3X3X3X3X3X3X3X3X3X3X3X3X3X3X3X3X3X3X3X3X3X3X3X3X3X3X3X3X3X3X3X3X] ] ] ] ] ] } U.R.^.^.E.~.R.R.Y.L.L.' ' 3X3X3X3X3X3X3X3X3X3X3X3X3X3X3X3X3X3X3X3X3X3X3X3X3X3X3X3X",
"3X3X3X3X3X3X3X3X3X3X3X3X3X3X3X3X3X3X3X3X3X3X3X3X3X3X3X3X3X3X3X3X3X3X3X3X3X3X3X3X3X3X3XK.' ' ' ' ` L.Q.!.!.!.!.!.!.I.3X' ' ' 3X3X3X3X3X3X3X3X3X3X3X3X3X3X3X3X3X3X3X3X3X3X3X3X3X3X3X3X",
"3X3X3X3X3X3X3X3X3X3X3X3X3X3X3X3X3X3X3X3X3X3X3X3X3X3X3X3X3X3X3X3X3X3X3X3X3X3X3X3X3X3X3X3X3X3X3X3X3X3X3X3X3X3X3X3X3X3X3X3X3X3X3X3X3X3X3X3X3X3X3X3X3X3X3X3X3X3X3X3X3X3X3X3X3X3X3X3X3X3X",
"3X3X3X3X3X3X3X3X3X3X3X3X3X3X3X3X3X3X3X3X3X3X3X3X3X3X3X3X3X3X3X3X3X3X3X3X3X3X3X3X3X3X3X3X3X3X3X3X3X3X3X3X3X3X3X3X3X3X3X3X3X3X3X3X3X3X3X3X3X3X3X3X3X3X3X3X3X3X3X3X3X3X3X3X3X3X3X3X3X3X",
"3X3X3X3X3X3X3X3X3X3X3X3X3X3X3X3X3X3X3X3X3X3X3X3X3X3X3X3X3X3X3X3X3X3X3X3X3X3X3X3X3X3X3X3X3X3X3X3X3X3X3X3X3X3X3X3X3X3X3X3X3X3X3X3X3X3X3X3X3X3X3X3X3X3X3X3X3X3X3X3X3X3X3X3X3X3X3X3X3X3X",
"3X3X3X3X3X3X3X3X3X3X3X3X3X3X3X3X3X3X3X3X3X3X3X3X3X3X3X3X3X3X3X3X3X3X3X3X3X3X3X3X3X3X3X3X3X3X3X3X3X3X3X3X3X3X3X3X3X3X3X3X3X3X3X3X3X3X3X3X3X3X3X3X3X3X3X3X3X3X3X3X3X3X3X3X3X3X3X3X3X3X",
"3X3X3X3X3X3X3X3X3X3X3X3X3X3X3X3X3X3X3X3X3X3X3X3X3X3X3X3X3X3X3X3X3X3X3X3X3X3X3X3X3X3X3X3X3X3X3X3X3X3X3X3X3X3X3X3X3X3X3X3X3X3X3X3X3X3X3X3X3X3X3X3X3X3X3X3X3X3X3X3X3X3X3X3X3X3X3X3X3X3X",
"3X3X3X3X3X3X3X3X3X3X3X3X3X3X3X3X3X3X3X3X3X3X3X3X3X3X3X3X3X3X3X3X3X3X3X3X3X3X3X3X3X3X3X3X3X3X3X3X3X3X3X3X3X3X3X3X3X3X3X3X3X3X3X3X3X3X3X3X3X3X3X3X3X3X3X3X3X3X3X3X3X3X3X3X3X3X3X3X3X3X",
"3X3X3X3X3X3X3X3X3X3X3X3X3X3X3X3X3X3X3X3X3X3X3X3X3X3X3X3X3X3X3X3X3X3X3X3X3X3X3X3X3X3X3X3X3X3X3X3X3X3X3X3X3X3X3X3X3X3X3X3X3X3X3X3X3X3X3X3X3X3X3X3X3X3X3X3X3X3X3X3X3X3X3X3X3X3X3X3X3X3X"
};
