/* XPM */
static char * bricks_darkblue_xpm[] = {
"64 64 5 1",
" 	c #050F25",
".	c #030C1E",
"+	c #01030A",
"@	c #000205",
"#	c #020818",
"   ......               .. ..++@   ......               .. ..++@",
"  .............    ...........+@  .............    ...........+@",
" ....#######................#++@ ....#######................#++@",
" ...################......##+@@@ ...################......##+@@@",
" ...########################++@@ ...########################++@@",
" ...####+########...#########+@@ ...####+++#######+++########+@@",
"...######.######.###+########++@...####+###++#####+##########++@",
"..#############.####+#########+@..#####+####+########.########+@",
"..################+++#########+@..#####+....######....########+@",
" ..#############++###########+@@ ..######...#################+@@",
" ..######@@@#################+@@ ..##########################+@@",
" ..####@@+++####+###+######+++@@ ..#######+++#######+@++###+++@@",
"..#####@++######+##+++#@@@+@@+@@..###@@@#++++######@@+++##+@@+@@",
"..+++#@+###++++++++++++@@@@@@@@@..++@@@#+++++++++++@++++++@@@@@@",
"++@@++@+++++@@@@@++@@@@@@@@@@@@@++@@@@++++++@@@@@++@@@@++@@@@@@@",
"@@@@@@@@@@@@@@@@@@@@@@@@@@@@@@@@@@@@@@@@@@@@@@@@@@@@@@@@@@@@@@@@",
"        .. ..++@   ......               .. ..++@   ......       ",
"   ...........+@  .............    ...........+@  ............. ",
"............#++@ ....#######................#++@ ....#######....",
"####......##+@@@ ...################......##+@@@ ...############",
"############++@@ ...########################++@@ ...####+#######",
"#############+@@ ...####++###################+@@ ...#####.######",
"#########+###++@...####+##.##################++@...#############",
"##########.###+@..#####+##.###+######..#######+@..##############",
"##############+@..######..#####.#####.#+######+@..##############",
"#############+@@ ..###################++#####+@@ ..#############",
"#############+@@ ..##########################+@@ ..#############",
"###########+++@@ ..##########+@@+##########+++@@ ..#############",
"####++####+@@+@@..########+@@@+++###+@@@##+@@+@@..########@+####",
"+#++++++++@@@@@@..+++####+@@+++++#++@@++++@@@@@@..+++###@@++++++",
"@++@@@@++@@@@@@@++@@++++++@+++@@@++@@++++@@@@@@@++@@+++@@+++@@@@",
"@@@@@@@@@@@@@@@@@@@@@@@@@@@@@@@@@@@@@@@@@@@@@@@@@@@@@@@@@@@@@@@@",
".        ++#    .. ..++@   ......               .. ..++@   .....",
"....... +###..........+@  .............    ...........+@  ......",
"####....+##.........#++@ ....#######................#++@ ....###",
"#######+####......##+@@@ ...################......##+@@@ ...####",
"#######+###.########++@@ ...#########+++##########++++@@ ...####",
"#########..##########+@@ ...########+############++##+@@ ...####",
"##++#################++@...#########+###.#######++###++@...#####",
"#+##.#################+@..###+#######....######++#####+@..######",
"#+##.#################+@..####.################+######+@..######",
"##..#################+@@ ..####################+#####+@@ ..#####",
"#####################+@@ ..####################+#####+@@ ..#####",
"##########@@@######+++@@ ..#####@@@#######@@@#++.##+++@@ ..#####",
"########@+++++####+@@+@@..#####@+++######@++++##...@@+@@..######",
"###++++@@+++++++@@@@@@@@..+++#@@++++++++@+++++++++.@@@@@..+++###",
"++++@@@@@++@@@@++@@@@@@@++@@++@+++++@@@@@++@@@@++@@@@@@@++@@++++",
"@@@@@@@@@@@@@@@@@@@@@@@@@@@@@@@@@@@@@@@@@@@@@@@@@@@@@@@@@@@@@@@@",
".. ..++@   ......               .. ..++@   ......    +#+        ",
"......+@  .............    ...........+@  ..........++##   .....",
"....#++@ ....#######................#++@ ....#######+###........",
"..##+@@@ ...############+++#......##+@@@ ...########+###.###....",
"####++@@ ...#####+++####+##.########++@@ ...########+##.########",
"#####+@@ ...###++###+##+###.##++#####+@@ ...##########.#########",
"#####++@...###++####.##+#...##+#.####++@...####+###########+++##",
"######+@..####+####..########+##.#####+@..######.#########+###.#",
"######+@..#####++#..###########..#####+@..###++###########+###.#",
"#####+@@ ..######..##################+@@ ..#+##.###########...##",
"#####+@@ ..##########################+@@ ..#+##.################",
"###+++@@ ..#####+#######@@#########+++@@ ..##..##@@#############",
"##+@@+@@..####@++######@+++#++####+@@+@@..#######++######@+#++##",
"++@@@@@@..+++@@++##++@@+++++++++++@@@@@@..+++##@+++++++@@+++++++",
"+@@@@@@@++@@@@++++++@@+++++@@@@++@@@@@@@++@@++@+++++@@@@@++@@@@+",
"@@@@@@@@@@@@@@@@@@@@@@@@@@@@@@@@@@@@@@@@@@@@@@@@@@@@@@@@@@@@@@@@"};
