/* XPM */
static char * bricks_gray_00_xpm[] = {
"64 64 256 2",
"  	c #000000",
". 	c #010101",
"+ 	c #020202",
"@ 	c #030303",
"# 	c #040404",
"$ 	c #050505",
"% 	c #060606",
"& 	c #070707",
"* 	c #080808",
"= 	c #090909",
"- 	c #0A0A0A",
"; 	c #0B0B0B",
"> 	c #0C0C0C",
", 	c #0D0D0D",
"' 	c #0E0E0E",
") 	c #0F0F0F",
"! 	c #101010",
"~ 	c #111111",
"{ 	c #121212",
"] 	c #131313",
"^ 	c #141414",
"/ 	c #151515",
"( 	c #161616",
"_ 	c #171717",
": 	c #181818",
"< 	c #191919",
"[ 	c #1A1A1A",
"} 	c #1B1B1B",
"| 	c #1C1C1C",
"1 	c #1D1D1D",
"2 	c #1E1E1E",
"3 	c #1F1F1F",
"4 	c #202020",
"5 	c #212121",
"6 	c #222222",
"7 	c #232323",
"8 	c #242424",
"9 	c #252525",
"0 	c #262626",
"a 	c #272727",
"b 	c #282828",
"c 	c #292929",
"d 	c #2A2A2A",
"e 	c #2B2B2B",
"f 	c #2C2C2C",
"g 	c #2D2D2D",
"h 	c #2E2E2E",
"i 	c #2F2F2F",
"j 	c #303030",
"k 	c #313131",
"l 	c #323232",
"m 	c #333333",
"n 	c #343434",
"o 	c #353535",
"p 	c #363636",
"q 	c #373737",
"r 	c #383838",
"s 	c #393939",
"t 	c #3A3A3A",
"u 	c #3B3B3B",
"v 	c #3C3C3C",
"w 	c #3D3D3D",
"x 	c #3E3E3E",
"y 	c #3F3F3F",
"z 	c #404040",
"A 	c #414141",
"B 	c #424242",
"C 	c #434343",
"D 	c #444444",
"E 	c #454545",
"F 	c #464646",
"G 	c #474747",
"H 	c #484848",
"I 	c #494949",
"J 	c #4A4A4A",
"K 	c #4B4B4B",
"L 	c #4C4C4C",
"M 	c #4D4D4D",
"N 	c #4E4E4E",
"O 	c #4F4F4F",
"P 	c #505050",
"Q 	c #515151",
"R 	c #525252",
"S 	c #535353",
"T 	c #545454",
"U 	c #555555",
"V 	c #565656",
"W 	c #575757",
"X 	c #585858",
"Y 	c #595959",
"Z 	c #5A5A5A",
"` 	c #5B5B5B",
" .	c #5C5C5C",
"..	c #5D5D5D",
"+.	c #5E5E5E",
"@.	c #5F5F5F",
"#.	c #606060",
"$.	c #616161",
"%.	c #626262",
"&.	c #636363",
"*.	c #646464",
"=.	c #656565",
"-.	c #666666",
";.	c #676767",
">.	c #686868",
",.	c #696969",
"'.	c #6A6A6A",
").	c #6B6B6B",
"!.	c #6C6C6C",
"~.	c #6D6D6D",
"{.	c #6E6E6E",
"].	c #6F6F6F",
"^.	c #707070",
"/.	c #717171",
"(.	c #727272",
"_.	c #737373",
":.	c #747474",
"<.	c #757575",
"[.	c #767676",
"}.	c #777777",
"|.	c #787878",
"1.	c #797979",
"2.	c #7A7A7A",
"3.	c #7B7B7B",
"4.	c #7C7C7C",
"5.	c #7D7D7D",
"6.	c #7E7E7E",
"7.	c #7F7F7F",
"8.	c #808080",
"9.	c #818181",
"0.	c #828282",
"a.	c #838383",
"b.	c #848484",
"c.	c #858585",
"d.	c #868686",
"e.	c #878787",
"f.	c #888888",
"g.	c #898989",
"h.	c #8A8A8A",
"i.	c #8B8B8B",
"j.	c #8C8C8C",
"k.	c #8D8D8D",
"l.	c #8E8E8E",
"m.	c #8F8F8F",
"n.	c #909090",
"o.	c #919191",
"p.	c #929292",
"q.	c #939393",
"r.	c #949494",
"s.	c #959595",
"t.	c #969696",
"u.	c #979797",
"v.	c #989898",
"w.	c #999999",
"x.	c #9A9A9A",
"y.	c #9B9B9B",
"z.	c #9C9C9C",
"A.	c #9D9D9D",
"B.	c #9E9E9E",
"C.	c #9F9F9F",
"D.	c #A0A0A0",
"E.	c #A1A1A1",
"F.	c #A2A2A2",
"G.	c #A3A3A3",
"H.	c #A4A4A4",
"I.	c #A5A5A5",
"J.	c #A6A6A6",
"K.	c #A7A7A7",
"L.	c #A8A8A8",
"M.	c #A9A9A9",
"N.	c #AAAAAA",
"O.	c #ABABAB",
"P.	c #ACACAC",
"Q.	c #ADADAD",
"R.	c #AEAEAE",
"S.	c #AFAFAF",
"T.	c #B0B0B0",
"U.	c #B1B1B1",
"V.	c #B2B2B2",
"W.	c #B3B3B3",
"X.	c #B4B4B4",
"Y.	c #B5B5B5",
"Z.	c #B6B6B6",
"`.	c #B7B7B7",
" +	c #B8B8B8",
".+	c #B9B9B9",
"++	c #BABABA",
"@+	c #BBBBBB",
"#+	c #BCBCBC",
"$+	c #BDBDBD",
"%+	c #BEBEBE",
"&+	c #BFBFBF",
"*+	c #C0C0C0",
"=+	c #C1C1C1",
"-+	c #C2C2C2",
";+	c #C3C3C3",
">+	c #C4C4C4",
",+	c #C5C5C5",
"'+	c #C6C6C6",
")+	c #C7C7C7",
"!+	c #C8C8C8",
"~+	c #C9C9C9",
"{+	c #CACACA",
"]+	c #CBCBCB",
"^+	c #CCCCCC",
"/+	c #CDCDCD",
"(+	c #CECECE",
"_+	c #CFCFCF",
":+	c #D0D0D0",
"<+	c #D1D1D1",
"[+	c #D2D2D2",
"}+	c #D3D3D3",
"|+	c #D4D4D4",
"1+	c #D5D5D5",
"2+	c #D6D6D6",
"3+	c #D7D7D7",
"4+	c #D8D8D8",
"5+	c #D9D9D9",
"6+	c #DADADA",
"7+	c #DBDBDB",
"8+	c #DCDCDC",
"9+	c #DDDDDD",
"0+	c #DEDEDE",
"a+	c #DFDFDF",
"b+	c #E0E0E0",
"c+	c #E1E1E1",
"d+	c #E2E2E2",
"e+	c #E3E3E3",
"f+	c #E4E4E4",
"g+	c #E5E5E5",
"h+	c #E6E6E6",
"i+	c #E7E7E7",
"j+	c #E8E8E8",
"k+	c #E9E9E9",
"l+	c #EAEAEA",
"m+	c #EBEBEB",
"n+	c #ECECEC",
"o+	c #EDEDED",
"p+	c #EEEEEE",
"q+	c #EFEFEF",
"r+	c #F0F0F0",
"s+	c #F1F1F1",
"t+	c #F2F2F2",
"u+	c #F3F3F3",
"v+	c #F4F4F4",
"w+	c #F5F5F5",
"x+	c #F6F6F6",
"y+	c #F7F7F7",
"z+	c #F8F8F8",
"A+	c #F9F9F9",
"B+	c #FAFAFA",
"C+	c #FBFBFB",
"D+	c #FCFCFC",
"E+	c #FDFDFD",
"F+	c #FEFEFE",
"G+	c #FFFFFF",
"` ` ` N N N N N N ` ` ` ` ` ` ` ` ` ` ` ` ` ` ` N N ` N N a a < ` ` ` N N N N N N ` ` ` ` ` ` ` ` ` ` ` ` ` ` ` N N ` N N a a < ",
"` ` N N N N N N N N N N N N N ` ` ` ` N N N N N N N N N N N a < ` ` N N N N N N N N N N N N N ` ` ` ` N N N N N N N N N N N a < ",
"` N N N N z z z z z z z N N N N N N N N N N N N N N N N z a a < ` N N N N z z z z z z z N N N N N N N N N N N N N N N N z a a < ",
"` N N N z z z z z z z z z z z z z z z z N N N N N N z z a < < < ` N N N z z z z z z z z z z z z z z z z N N N N N N z z a < < < ",
"` N N N z z z z z z z z z z z z z z z z z z z z z z z z a a < < ` N N N z z z z z z z z z z z z z z z z z z z z z z z z a a < < ",
"` N N N z z z z z z z z z z z z z z z z z z z z z z z z z a < < ` N N N z z z z z z z z z z z z z z z z z z z z z z z z z a < < ",
"N N N z z z z z z z z z z z z z z z z z z z z z z z z z z a a < N N N z z z z z z z z z z z z z z z z z z z z z z z z z z a a < ",
"N N z z z z z z z z z z z z z z z z z z z z z z z z z z z z a < N N z z z z z z z z z z z z z z z z z z z z z z z z z z z z a < ",
"N N z z z z z z z z z z z z z z z z z z z z z z z z z z z z a < N N z z z z z z z z z z z z z z z z z z z z z z z z z z z z a < ",
"` N N z z z z z z z z z z z z z z z z z z z z z z z z z z a < < ` N N z z z z z z z z z z z z z z z z z z z z z z z z z z a < < ",
"` N N z z z z z z z z z z z z z z z z z z z z z z z z z z a < < ` N N z z z z z z z z z z z z z z z z z z z z z z z z z z a < < ",
"` N N z z z z z z z z z z z z z z z z z z z z z z z z a a a < < ` N N z z z z z z z z z z z z z z z z z z z z z z z z a a a < < ",
"N N z z z z z z z z z z z z z z z z z z a a z z z z a < < a < < N N z z z z z z z z z z z z z z z z z z a a z z z z a < < a < < ",
"N N a a a z z z z z z a a a a a a z a a a a a a a a < < < < < < N N a a a z z z z z z a a a a a a z a a a a a a a a < < < < < < ",
"a a < < a a a a a a a a < < < < < a a < < < < a a < < < < < < < a a < < a a a a a a a a < < < < < a a < < < < a a < < < < < < < ",
"< < < < < < < < < < < < < < < < < < < < < < < < < < < < < < < < < < < < < < < < < < < < < < < < < < < < < < < < < < < < < < < < ",
"` ` ` ` ` ` ` ` N N ` N N a a < ` ` ` N N N N N N ` ` ` ` ` ` ` ` ` ` ` ` ` ` ` N N ` N N a a < ` ` ` N N N N N N ` ` ` ` ` ` ` ",
"` ` ` N N N N N N N N N N N a < ` ` N N N N N N N N N N N N N ` ` ` ` N N N N N N N N N N N a < ` ` N N N N N N N N N N N N N ` ",
"N N N N N N N N N N N N z a a < ` N N N N z z z z z z z N N N N N N N N N N N N N N N N z a a < ` N N N N z z z z z z z N N N N ",
"z z z z N N N N N N z z a < < < ` N N N z z z z z z z z z z z z z z z z N N N N N N z z a < < < ` N N N z z z z z z z z z z z z ",
"z z z z z z z z z z z z a a < < ` N N N z z z z z z z z z z z z z z z z z z z z z z z z a a < < ` N N N z z z z z z z z z z z z ",
"z z z z z z z z z z z z z a < < ` N N N z z z z z z z z z z z z z z z z z z z z z z z z z a < < ` N N N z z z z z z z z z z z z ",
"z z z z z z z z z z z z z a a < N N N z z z z z z z z z z z z z z z z z z z z z z z z z z a a < N N N z z z z z z z z z z z z z ",
"z z z z z z z z z z z z z z a < N N z z z z z z z z z z z z z z z z z z z z z z z z z z z z a < N N z z z z z z z z z z z z z z ",
"z z z z z z z z z z z z z z a < N N z z z z z z z z z z z z z z z z z z z z z z z z z z z z a < N N z z z z z z z z z z z z z z ",
"z z z z z z z z z z z z z a < < ` N N z z z z z z z z z z z z z z z z z z z z z z z z z z a < < ` N N z z z z z z z z z z z z z ",
"z z z z z z z z z z z z z a < < ` N N z z z z z z z z z z z z z z z z z z z z z z z z z z a < < ` N N z z z z z z z z z z z z z ",
"z z z z z z z z z z z a a a < < ` N N z z z z z z z z z z z z z z z z z z z z z z z z a a a < < ` N N z z z z z z z z z z z z z ",
"z z z z a a z z z z a < < a < < N N z z z z z z z z z z z z z z z z z z a a z z z z a < < a < < N N z z z z z z z z z z z z z z ",
"a z a a a a a a a a < < < < < < N N a a a z z z z z z a a a a a a z a a a a a a a a < < < < < < N N a a a z z z z z z a a a a a ",
"< a a < < < < a a < < < < < < < a a < < a a a a a a a a < < < < < a a < < < < a a < < < < < < < a a < < a a a a a a a a < < < < ",
"< < < < < < < < < < < < < < < < < < < < < < < < < < < < < < < < < < < < < < < < < < < < < < < < < < < < < < < < < < < < < < < < ",
"N ` ` ` ` ` ` ` ` ` ` ` ` ` ` ` N N ` N N a a < ` ` ` N N N N N N ` ` ` ` ` ` ` ` ` ` ` ` ` ` ` N N ` N N a a < ` ` ` N N N N N ",
"N N N N N N N ` ` ` ` N N N N N N N N N N N a < ` ` N N N N N N N N N N N N N ` ` ` ` N N N N N N N N N N N a < ` ` N N N N N N ",
"z z z z N N N N N N N N N N N N N N N N z a a < ` N N N N z z z z z z z N N N N N N N N N N N N N N N N z a a < ` N N N N z z z ",
"z z z z z z z z z z z z N N N N N N z z a < < < ` N N N z z z z z z z z z z z z z z z z N N N N N N z z a < < < ` N N N z z z z ",
"z z z z z z z z z z z z z z z z z z z z a a < < ` N N N z z z z z z z z z z z z z z z z z z z z z z z z a a < < ` N N N z z z z ",
"z z z z z z z z z z z z z z z z z z z z z a < < ` N N N z z z z z z z z z z z z z z z z z z z z z z z z z a < < ` N N N z z z z ",
"z z z z z z z z z z z z z z z z z z z z z a a < N N N z z z z z z z z z z z z z z z z z z z z z z z z z z a a < N N N z z z z z ",
"z z z z z z z z z z z z z z z z z z z z z z a < N N z z z z z z z z z z z z z z z z z z z z z z z z z z z z a < N N z z z z z z ",
"z z z z z z z z z z z z z z z z z z z z z z a < N N z z z z z z z z z z z z z z z z z z z z z z z z z z z z a < N N z z z z z z ",
"z z z z z z z z z z z z z z z z z z z z z a < < ` N N z z z z z z z z z z z z z z z z z z z z z z z z z z a < < ` N N z z z z z ",
"z z z z z z z z z z z z z z z z z z z z z a < < ` N N z z z z z z z z z z z z z z z z z z z z z z z z z z a < < ` N N z z z z z ",
"z z z z z z z z z z z z z z z z z z z a a a < < ` N N z z z z z z z z z z z z z z z z z z z z z z z z a a a < < ` N N z z z z z ",
"z z z z z z z z z z z z a a z z z z a < < a < < N N z z z z z z z z z z z z z z z z z z a a z z z z a < < a < < N N z z z z z z ",
"z z z a a a a a a z a a a a a a a a < < < < < < N N a a a z z z z z z a a a a a a z a a a a a a a a < < < < < < N N a a a z z z ",
"a a a a < < < < < a a < < < < a a < < < < < < < a a < < a a a a a a a a < < < < < a a < < < < a a < < < < < < < a a < < a a a a ",
"< < < < < < < < < < < < < < < < < < < < < < < < < < < < < < < < < < < < < < < < < < < < < < < < < < < < < < < < < < < < < < < < ",
"N N ` N N a a < ` ` ` N N N N N N ` ` ` ` ` ` ` ` ` ` ` ` ` ` ` N N ` N N a a < ` ` ` N N N N N N ` ` ` ` ` ` ` ` ` ` ` ` ` ` ` ",
"N N N N N N a < ` ` N N N N N N N N N N N N N ` ` ` ` N N N N N N N N N N N a < ` ` N N N N N N N N N N N N N ` ` ` ` N N N N N ",
"N N N N z a a < ` N N N N z z z z z z z N N N N N N N N N N N N N N N N z a a < ` N N N N z z z z z z z N N N N N N N N N N N N ",
"N N z z a < < < ` N N N z z z z z z z z z z z z z z z z N N N N N N z z a < < < ` N N N z z z z z z z z z z z z z z z z N N N N ",
"z z z z a a < < ` N N N z z z z z z z z z z z z z z z z z z z z z z z z a a < < ` N N N z z z z z z z z z z z z z z z z z z z z ",
"z z z z z a < < ` N N N z z z z z z z z z z z z z z z z z z z z z z z z z a < < ` N N N z z z z z z z z z z z z z z z z z z z z ",
"z z z z z a a < N N N z z z z z z z z z z z z z z z z z z z z z z z z z z a a < N N N z z z z z z z z z z z z z z z z z z z z z ",
"z z z z z z a < N N z z z z z z z z z z z z z z z z z z z z z z z z z z z z a < N N z z z z z z z z z z z z z z z z z z z z z z ",
"z z z z z z a < N N z z z z z z z z z z z z z z z z z z z z z z z z z z z z a < N N z z z z z z z z z z z z z z z z z z z z z z ",
"z z z z z a < < ` N N z z z z z z z z z z z z z z z z z z z z z z z z z z a < < ` N N z z z z z z z z z z z z z z z z z z z z z ",
"z z z z z a < < ` N N z z z z z z z z z z z z z z z z z z z z z z z z z z a < < ` N N z z z z z z z z z z z z z z z z z z z z z ",
"z z z a a a < < ` N N z z z z z z z z z z z z z z z z z z z z z z z z a a a < < ` N N z z z z z z z z z z z z z z z z z z z z z ",
"z z a < < a < < N N z z z z z z z z z z z z z z z z z z a a z z z z a < < a < < N N z z z z z z z z z z z z z z z z z z a a z z ",
"a a < < < < < < N N a a a z z z z z z a a a a a a z a a a a a a a a < < < < < < N N a a a z z z z z z a a a a a a z a a a a a a ",
"a < < < < < < < a a < < a a a a a a a a < < < < < a a < < < < a a < < < < < < < a a < < a a a a a a a a < < < < < a a < < < < a ",
"< < < < < < < < < < < < < < < < < < < < < < < < < < < < < < < < < < < < < < < < < < < < < < < < < < < < < < < < < < < < < < < < "};
