/* XPM */
static char * exit_00_xpm[] = {
"64 64 8 1",
" 	c #979797",
".	c #636363",
"+	c #878787",
"@	c #6B0000",
"#	c #B30000",
"$	c #EBEBEB",
"%	c #434343",
"&	c #080F1B",
"          .++++++++++++++++++++++++++++++++++++++++++          .",
" +++++++++.++++@@@@@@@@@@@@@@@@@@@@@@@@@@@@@@@@@@@+++ +++++++++.",
" +++++++++.++++@@###############################@@+++ +++++++++.",
" +++++++++.++++@##$$$$$$##$$####$$##$$##$$$$$$$$#@+++ +++++++++.",
" +++++++++.++++@##$$$$$$##$$####$$##$$##$$$$$$$$#@+++ +++++++++.",
" +++++++++.++++@##$$######$$$##$$$##$$#####$$####@+++ +++++++++.",
"...........++++@##$$#######$$$$$$###$$#####$$####@+++...........",
"          .++++@##$$$$$$####$$$$####$$#####$$####@+++          .",
" +++++++++.++++@##$$$$$$####$$$$####$$#####$$####@+++ +++++++++.",
" +++++++++.++++@##$$#######$$$$$$###$$#####$$####@+++ +++++++++.",
" +++++++++.++++@##$$######$$$##$$$##$$#####$$####@+++ +++++++++.",
" +++++++++.++++@##$$$$$$##$$####$$##$$#####$$####@+++ +++++++++.",
" +++++++++.++++@##$$$$$$##$$####$$##$$#####$$####@+++ +++++++++.",
"...........++++@@###############################@@+++...........",
"          .++++@@@@@@@@@@@@@@@@@@@@@@@@@@@@@@@@@@@+++          .",
" +++++++++.++++++++++++++++++++++++++++++++++++++++++ +++++++++.",
" +++++++++.                                           +++++++++.",
" +++++++++. %%%%%%%%%%%%%%%%%%%%%%%%%%%%%%%%%%%%%%%%  +++++++++.",
" +++++++++. .%%%%%%%%%%%%%%%%%%%%%%%%%%%%%%%%%%%%%%.  +++++++++.",
" +++++++++. ..%%%%%%%%%%%%%%%%%%%%%%%%%%%%%%%%%%%%..  +++++++++.",
"........... ...%%%%%%%%%%%%%%%%%%%%%%%%%%%%%%%%%%... ...........",
"          . ....&&&&&&&&&&&&&&&&&&&&&&&&&&&&&&&&....           .",
" +++++++++. ....&&&&&&&&&&&&&&&&&&&&&&&&&&&&&&&&....  +++++++++.",
" +++++++++. ....&&&&&&&&&&&&&&&&&&&&&&&&&&&&&&&&....  +++++++++.",
" +++++++++. ....&&&&&&&&&&&&&&&&&&&&&&&&&&&&&&&&....  +++++++++.",
" +++++++++. ....&&&&&&&&&&&&&&&&&&&&&&&&&&&&&&&&....  +++++++++.",
" +++++++++. ....&&&&&&&&&&&&&&&&&&&&&&&&&&&&&&&&....  +++++++++.",
"........... ....&&&&&&&&&&&&&&&&&&&&&&&&&&&&&&&&.... ...........",
"          . ....&&&&&&&&&&&&&&&&&&&&&&&&&&&&&&&&....           .",
" +++++++++. ....&&&&&&&&&&&&&&&&&&&&&&&&&&&&&&&&....  +++++++++.",
" +++++++++. ....&&&&&&&&&&&&&&&&&&&&&&&&&&&&&&&&....  +++++++++.",
" +++++++++. ....&&&&&&&&&&&&&&&&&&&&&&&&&&&&&&&&....  +++++++++.",
" +++++++++. ....&&&&&&&&&&&&&&&&&&&&&&&&&&&&&&&&....  +++++++++.",
" +++++++++. ....&&&&&&&&&&&&&&&&&&&&&&&&&&&&&&&&....  +++++++++.",
"........... ....&&&&&&&&&&&&&&&&&&&&&&&&&&&&&&&&.... ...........",
"          . ....&&&&&&&&&&&&&&&&&&&&&&&&&&&&&&&&....           .",
" +++++++++. ....&&&&&&&&&&&&&&&&&&&&&&&&&&&&&&&&....  +++++++++.",
" +++++++++. ....&&&&&&&&&&&&&&&&&&&&&&&&&&&&&&&&....  +++++++++.",
" +++++++++. ....&&&&&&&&&&&&&&&&&&&&&&&&&&&&&&&&....  +++++++++.",
" +++++++++. ....&&&&&&&&&&&&&&&&&&&&&&&&&&&&&&&&....  +++++++++.",
" +++++++++. ....&&&&&&&&&&&&&&&&&&&&&&&&&&&&&&&&....  +++++++++.",
"........... ....&&&&&&&&&&&&&&&&&&&&&&&&&&&&&&&&.... ...........",
"          . ....&&&&&&&&&&&&&&&&&&&&&&&&&&&&&&&&....           .",
" +++++++++. ....&&&&&&&&&&&&&&&&&&&&&&&&&&&&&&&&....  +++++++++.",
" +++++++++. ....&&&&&&&&&&&&&&&&&&&&&&&&&&&&&&&&....  +++++++++.",
" +++++++++. ....&&&&&&&&&&&&&&&&&&&&&&&&&&&&&&&&....  +++++++++.",
" +++++++++. ....&&&&&&&&&&&&&&&&&&&&&&&&&&&&&&&&....  +++++++++.",
" +++++++++. ....&&&&&&&&&&&&&&&&&&&&&&&&&&&&&&&&....  +++++++++.",
"........... ....&&&&&&&&&&&&&&&&&&&&&&&&&&&&&&&&.... ...........",
"          . ....&&&&&&&&&&&&&&&&&&&&&&&&&&&&&&&&....           .",
" +++++++++. ....&&&&&&&&&&&&&&&&&&&&&&&&&&&&&&&&....  +++++++++.",
" +++++++++. ....&&&&&&&&&&&&&&&&&&&&&&&&&&&&&&&&....  +++++++++.",
" +++++++++. ....&&&&&&&&&&&&&&&&&&&&&&&&&&&&&&&&....  +++++++++.",
" +++++++++. ....&&&&&&&&&&&&&&&&&&&&&&&&&&&&&&&&....  +++++++++.",
" +++++++++. ....&&&&&&&&&&&&&&&&&&&&&&&&&&&&&&&&....  +++++++++.",
"........... ....&&&&&&&&&&&&&&&&&&&&&&&&&&&&&&&&.... ...........",
"          . ....&&&&&&&&&&&&&&&&&&&&&&&&&&&&&&&&....           .",
" +++++++++. ....&&&&&&&&&&&&&&&&&&&&&&&&&&&&&&&&....  +++++++++.",
" +++++++++. ....&&&&&&&&&&&&&&&&&&&&&&&&&&&&&&&&....  +++++++++.",
" +++++++++. ....&&&&&&&&&&&&&&&&&&&&&&&&&&&&&&&&....  +++++++++.",
" +++++++++. ....&&&&&&&&&&&&&&&&&&&&&&&&&&&&&&&&....  +++++++++.",
" +++++++++. ....&&&&&&&&&&&&&&&&&&&&&&&&&&&&&&&&....  +++++++++.",
"........... ....&&&&&&&&&&&&&&&&&&&&&&&&&&&&&&&&.... ...........",
"........... ....&&&&&&&&&&&&&&&&&&&&&&&&&&&&&&&&.... ..........."};
