/* XPM */
static char * metal_green_00_xpm[] = {
"64 64 5 1",
" 	c #071F00",
".	c #235B13",
"+	c #3B7727",
"@	c #1B4B0B",
"#	c #133B07",
"                                                                ",
" .++++++++++++++++++++++++++++++++++++++++++++++++++++++++++++. ",
" +.++++++++++++++++++++++++++++++++++++++++++++++++++++++++++.@ ",
" ++.++++++++++++++++++++++++++++++++++++++++++++++++++++++++.@@ ",
" +++........................................................@@@ ",
" ++++.......................................................@@@ ",
" ++++.......................................................@@@ ",
" ++++.......................................................@@@ ",
" ++++....++............................................++...@@@ ",
" ++++...+..#..........................................+..#..@@@ ",
" ++++...+..#..........................................+..#..@@@ ",
" ++++...@##@..........................................@##@..@@@ ",
" ++++....@@............................................@@...@@@ ",
" ++++.......................................................@@@ ",
" ++++.......................................................@@@ ",
" ++++.......................................................@@@ ",
" ++++.......................................................@@@ ",
" ++++....++............................................++...@@@ ",
" ++++...+..#..........................................+..#..@@@ ",
" ++++...+..#..........................................+..#..@@@ ",
" ++++...@##@..........................................@##@..@@@ ",
" ++++....@@............................................@@...@@@ ",
" ++++.......................................................@@@ ",
" ++++.......................................................@@@ ",
" ++++.......................................................@@@ ",
" ++++.......................................................@@@ ",
" ++++....++............................................++...@@@ ",
" ++++...+..#..........................................+..#..@@@ ",
" ++++...+..#..........................................+..#..@@@ ",
" ++++...@##@..........................................@##@..@@@ ",
" ++++....@@............................................@@...@@@ ",
" ++++.......................................................@@@ ",
" ++++.......................................................@@@ ",
" ++++.......................................................@@@ ",
" ++++.......................................................@@@ ",
" ++++....++............................................++...@@@ ",
" ++++...+..#..........................................+..#..@@@ ",
" ++++...+..#..........................................+..#..@@@ ",
" ++++...@##@..........................................@##@..@@@ ",
" ++++....@@............................................@@...@@@ ",
" ++++.......................................................@@@ ",
" ++++.......................................................@@@ ",
" ++++.......................................................@@@ ",
" ++++.......................................................@@@ ",
" ++++....++............................................++...@@@ ",
" ++++...+..#..........................................+..#..@@@ ",
" ++++...+..#..........................................+..#..@@@ ",
" ++++...@##@..........................................@##@..@@@ ",
" ++++....@@............................................@@...@@@ ",
" ++++.......................................................@@@ ",
" ++++.......................................................@@@ ",
" ++++.......................................................@@@ ",
" ++++.......................................................@@@ ",
" ++++....++............................................++...@@@ ",
" ++++...+..#..........................................+..#..@@@ ",
" ++++...+..#..........................................+..#..@@@ ",
" ++++...@##@..........................................@##@..@@@ ",
" ++++....@@............................................@@...@@@ ",
" ++++.......................................................@@@ ",
" +++........................................................@@@ ",
" ++.########################################################@@@ ",
" +.##########################################################@@ ",
" .############################################################@ ",
"                                                                "};
