/* XPM */
static char * ore_xpm[] = {
"64 64 392 2",
"  	c #171717",
". 	c #1E1E1E",
"+ 	c #1D1D1D",
"@ 	c #1C1C1C",
"# 	c #1B1B1B",
"$ 	c #1F1F1F",
"% 	c #202020",
"& 	c #222222",
"* 	c #191919",
"= 	c #161616",
"- 	c #212121",
"; 	c #242424",
"> 	c #272727",
", 	c #1A1A1A",
"' 	c #252525",
") 	c #262626",
"! 	c #232323",
"~ 	c #181818",
"{ 	c #1A1A19",
"] 	c #1E1E1D",
"^ 	c #050505",
"/ 	c #020202",
"( 	c #090909",
"_ 	c #111112",
": 	c #030303",
"< 	c #101010",
"[ 	c #131313",
"} 	c #13181C",
"| 	c #142731",
"1 	c #142630",
"2 	c #131F27",
"3 	c #1C1E1F",
"4 	c #252C31",
"5 	c #262D32",
"6 	c #212B32",
"7 	c #142732",
"8 	c #132029",
"9 	c #0B0B0B",
"0 	c #121212",
"a 	c #10181D",
"b 	c #152B37",
"c 	c #12222A",
"d 	c #1C1F21",
"e 	c #293037",
"f 	c #2A3138",
"g 	c #242F37",
"h 	c #14242D",
"i 	c #12212A",
"j 	c #151515",
"k 	c #141414",
"l 	c #282F36",
"m 	c #14242C",
"n 	c #11181C",
"o 	c #142934",
"p 	c #060606",
"q 	c #171716",
"r 	c #1C1C1B",
"s 	c #202022",
"t 	c #282D32",
"u 	c #282E34",
"v 	c #282F35",
"w 	c #222D34",
"x 	c #13222B",
"y 	c #0F0F0F",
"z 	c #161718",
"A 	c #151617",
"B 	c #161717",
"C 	c #16181B",
"D 	c #272D31",
"E 	c #272D32",
"F 	c #212E31",
"G 	c #0E2E31",
"H 	c #0E2528",
"I 	c #171818",
"J 	c #141616",
"K 	c #151616",
"L 	c #16191C",
"M 	c #243237",
"N 	c #0E3335",
"O 	c #0E2A2C",
"P 	c #0E292B",
"Q 	c #171819",
"R 	c #262D33",
"S 	c #233035",
"T 	c #0D3133",
"U 	c #0E3234",
"V 	c #0E282B",
"W 	c #141516",
"X 	c #131515",
"Y 	c #070707",
"Z 	c #040404",
"` 	c #080808",
" .	c #313131",
"..	c #333333",
"+.	c #303033",
"@.	c #252D32",
"#.	c #1F2428",
"$.	c #2A2A2A",
"%.	c #2F2F2F",
"&.	c #2F3033",
"*.	c #252D33",
"=.	c #1F262A",
"-.	c #0E0E0E",
";.	c #353535",
">.	c #383838",
",.	c #353738",
"'.	c #22292D",
").	c #323232",
"!.	c #373737",
"~.	c #343637",
"{.	c #2A3238",
"].	c #21292D",
"^.	c #0C0C0C",
"/.	c #242B30",
"(.	c #0D0D0D",
"_.	c #1F2021",
":.	c #25292C",
"<.	c #313232",
"[.	c #303133",
"}.	c #232D33",
"|.	c #1E2E37",
"1.	c #1D2E37",
"2.	c #192C37",
"3.	c #172E36",
"4.	c #0E2E30",
"5.	c #0E2527",
"6.	c #212223",
"7.	c #21282D",
"8.	c #1C2A32",
"9.	c #1E2D36",
"0.	c #1A2F37",
"a.	c #143436",
"b.	c #13292C",
"c.	c #363636",
"d.	c #253138",
"e.	c #152B38",
"f.	c #142E37",
"g.	c #0E3435",
"h.	c #0E292A",
"i.	c #222224",
"j.	c #1F282D",
"k.	c #152732",
"l.	c #152A36",
"m.	c #0E3336",
"n.	c #253037",
"o.	c #152A37",
"p.	c #142D36",
"q.	c #0E3334",
"r.	c #1C1B1B",
"s.	c #20272D",
"t.	c #152731",
"u.	c #142A35",
"v.	c #0E3235",
"w.	c #0D292B",
"x.	c #0E0F0F",
"y.	c #2C2C2C",
"z.	c #2A2B2C",
"A.	c #22272B",
"B.	c #1E272B",
"C.	c #16222B",
"D.	c #14222B",
"E.	c #14242B",
"F.	c #13292A",
"G.	c #142324",
"H.	c #191A1A",
"I.	c #1B1A1A",
"J.	c #1C1A1A",
"K.	c #1D1C1B",
"L.	c #1E1E1F",
"M.	c #1D2325",
"N.	c #18232A",
"O.	c #16232B",
"P.	c #14252B",
"Q.	c #12282A",
"R.	c #112829",
"S.	c #122224",
"T.	c #1D1E1E",
"U.	c #1B1D1E",
"V.	c #1A1C1D",
"W.	c #191B1D",
"X.	c #181A1C",
"Y.	c #171A1C",
"Z.	c #16191B",
"`.	c #171B1C",
" +	c #191E1E",
".+	c #191C1D",
"++	c #1A1B1B",
"@+	c #1D1A19",
"#+	c #181B1E",
"$+	c #181B1D",
"%+	c #161B1B",
"&+	c #151B1B",
"*+	c #151A1B",
"=+	c #171B1B",
"-+	c #1C1D1D",
";+	c #181919",
">+	c #181819",
",+	c #232425",
"'+	c #1D1D1E",
")+	c #111212",
"!+	c #111111",
"~+	c #222323",
"{+	c #242526",
"]+	c #161819",
"^+	c #252C32",
"/+	c #142733",
"(+	c #142632",
"_+	c #131E26",
":+	c #21262B",
"<+	c #242628",
"[+	c #15181A",
"}+	c #263138",
"|+	c #122028",
"1+	c #343638",
"2+	c #252B30",
"3+	c #16181A",
"4+	c #292F36",
"5+	c #142A36",
"6+	c #132028",
"7+	c #343434",
"8+	c #232526",
"9+	c #23282D",
"0+	c #20282D",
"a+	c #15242D",
"b+	c #171E24",
"c+	c #1A191A",
"d+	c #1F1F20",
"e+	c #0F1010",
"f+	c #0A0B0B",
"g+	c #212122",
"h+	c #1E1F1F",
"i+	c #1B1C1D",
"j+	c #1A1C1E",
"k+	c #1A1D1F",
"l+	c #1A1D1E",
"m+	c #1E2124",
"n+	c #242A2F",
"o+	c #262C32",
"p+	c #212F32",
"q+	c #173435",
"r+	c #173436",
"s+	c #163435",
"t+	c #133335",
"u+	c #133435",
"v+	c #123235",
"w+	c #103031",
"x+	c #102F30",
"y+	c #102729",
"z+	c #1B1C1B",
"A+	c #1F2325",
"B+	c #272E34",
"C+	c #0E2A2B",
"D+	c #191818",
"E+	c #1A1B1C",
"F+	c #2A3037",
"G+	c #243136",
"H+	c #0D2A2B",
"I+	c #212426",
"J+	c #24292E",
"K+	c #24292F",
"L+	c #1F2A2E",
"M+	c #102A2D",
"N+	c #102A2C",
"O+	c #0F2A2C",
"P+	c #0F292C",
"Q+	c #0F2425",
"R+	c #132632",
"S+	c #162229",
"T+	c #242425",
"U+	c #1D1F20",
"V+	c #1D1F1F",
"W+	c #1C1F1F",
"X+	c #1A1E1F",
"Y+	c #191E1F",
"Z+	c #191D1F",
"`+	c #171C1D",
" @	c #171A1B",
".@	c #13191F",
"+@	c #17242C",
"@@	c #1B1B1C",
"#@	c #18191A",
"$@	c #171616",
"%@	c #14191D",
"&@	c #152630",
"*@	c #152631",
"=@	c #15262F",
"-@	c #1A2229",
";@	c #0F0E0E",
">@	c #121111",
",@	c #1E2123",
"'@	c #1F2124",
")@	c #1F2123",
"!@	c #202223",
"~@	c #1F2225",
"{@	c #22282D",
"]@	c #1F2D32",
"^@	c #102F31",
"/@	c #112F31",
"(@	c #102629",
"_@	c #101011",
":@	c #212222",
"<@	c #222223",
"[@	c #161617",
"}@	c #212427",
"|@	c #252B31",
"1@	c #233237",
"2@	c #0F292B",
"3@	c #202427",
"4@	c #202121",
"5@	c #232629",
"6@	c #242C2F",
"7@	c #252E32",
"8@	c #252F32",
"9@	c #2A2F32",
"0@	c #2E3132",
"a@	c #212C33",
"b@	c #182B36",
"c@	c #182C37",
"d@	c #172C37",
"e@	c #152C37",
"f@	c #132E36",
"g@	c #0E3032",
"h@	c #0D2F30",
"i@	c #0D2E30",
"j@	c #102628",
"k@	c #1F2121",
"l@	c #2E3438",
"m@	c #243037",
"n@	c #0E3436",
"o@	c #272E33",
"p@	c #2A3137",
"q@	c #10292B",
"r@	c #1D1E1F",
"s@	c #212527",
"t@	c #262E33",
"u@	c #2D3337",
"v@	c #142833",
"w@	c #132731",
"x@	c #132931",
"y@	c #0E2F30",
"z@	c #0D2F2F",
"A@	c #0F2628",
"B@	c #191A1D",
"C@	c #242D31",
"D@	c #252E33",
"E@	c #212E32",
"F@	c #202021",
"G@	c #1E1F20",
"H@	c #1A1D1D",
"I@	c #141F20",
"J@	c #143435",
"K@	c #113435",
"L@	c #113436",
"M@	c #112A2D",
"N@	c #0F1113",
"O@	c #171A1D",
"P@	c #161A1A",
"Q@	c #151A1A",
"R@	c #191C1C",
"S@	c #202222",
"T@	c #252626",
"U@	c #1B1B1A",
"V@	c #1F2022",
"W@	c #181A1D",
"X@	c #293036",
"Y@	c #243238",
"Z@	c #0E2728",
"`@	c #1B1C1C",
" #	c #121D1E",
".#	c #0F2A2B",
"+#	c #1A1A1B",
"@#	c #283036",
"##	c #212E33",
"$#	c #0D2E31",
"%#	c #0F2426",
"&#	c #141D1E",
"*#	c #0E3031",
"=#	c #0D3031",
"-#	c #151516",
";#	c #1C1C1D",
">#	c #181A1B",
",#	c #151819",
"'#	c #141819",
")#	c #171A1A",
"!#	c #1E2020",
"~#	c #1C2020",
"{#	c #1C2021",
"]#	c #1B2021",
"^#	c #15191A",
"/#	c #121618",
"(#	c #181A1A",
"_#	c #1F2020",
"  . . + @ # # # # # # # # # # # # # # # @ . . $ % & & & & & & & $ * =   # - & & & $ $ . + @ # # # # # # # # # # # # # # # @ . . ",
"* - & - $ . . . . . . . . . . . . . . . % - & & ; > > > > > > > ; @ , , . ' > > ) ! & & - $ . . . . . . . . . . . . . . $ - - & ",
"* - & - % . . . . . . . . . . . . . . . - & & ! ' > > > > > > > ; + , , . ' > > ) ; & & - $ . . . . . . . . . . . . . . $ - & & ",
"* - & - % $ $ $ $ % % % % % % % $ . . . - ! ! ; ' > > > > > > > ; . # # . ) > > ) ; ! ! & - % % $ . . . . . . . . . . . $ - - & ",
"* - & & - - & & ; ' ' ' ' ' ' ; & @ # @ - ) > > > > > > > > > > ; $ . . - ) > > > > > > ) ) ' ' ! . # , , # # # + $ - - - % $ $ ",
"* - & & & & & ! ' > > > > > > > & # , # - > > > > > > > > > > > ' % . . - ) > > > > > > > > > > ; . # , , , , , + % & & - % . . ",
"* - & & & & & ! ' > > > > > > > ! # , # - > > > > > > > > > > > ' % . . - ) > > > > > > > > > > ' . # , , , , , + % & & - % . . ",
"* - & & & - - & ; ) > > ) ) ) ; $ ~   ~ . ) ) ) ) > > > ) ) ) ) ; $ . . - ' ) > > > > > > > > > & # ~           { ] - & - % $ . ",
"* - & - $ . + . $ - - - - % % ~ ^ / / / ( + . $ % - - - % + + + @ # # @ . % - - & ; ; ; ; ; ; ! _ : / / / / / / / < @ . . % - - ",
"* - & - . # , , @ . . . + @ # [ } | | 1 2 ~ , , @ . . . + ~     ~ , , , @ . . . % & & & & & & - 3 4 5 5 6 | 7 7 8 9 * , @ $ - & ",
"* - & - . , , , @ . . . + , , 0 a b b b c   , , # . . . @   = =   , , , @ . . . % - & & & & & - d e f f g b b b h 9 * , @ $ & & ",
"* - & - . @ @ @ + $ $ $ . @ # [ a b b b i   , , # . . + , j k k j ~ ~ ~ * + . . % - & & & & & - d l f f g b b b m 9 * , @ $ & & ",
"* - & & ! ! ! ; ; ! ! ! ! ! & * n o o o 8 ~ , , , , * = p / / / / : : : ^ q r @ + $ % % $ . . . s t u v w o o o x y # + . - & & ",
"* - & ! ' > > > ' ! ! ! & ; ; % @ z A A B , , , *     [ C D E E F G G G H k , , + . . . . @ # , # # I J K z I I I , . . $ - & & ",
"* - & ! ) > > > ' & & & & & & & % * ~ ~ * , , , ~ = = [ L f f f M N N N O k , , + . . . . # , , ,   B =   * , , , + . . $ - & & ",
"* - & ! ) > > > ' & & & & & & - $ * ~ ~ * , , , * = = [ C f f f M N N N P k , # @ . $ $ . # , , , ~     ~ , , , # . . $ $ - - & ",
"* - & ! ) > > > > ) ) ) ; - % % +       * @ + + ,   = j Q R l l S T U T V   . . $ ! ; ; & @ * * # % - - - & ! ! ! ; ; ; ; - . + ",
"* - & ! ) > > > > > > > ! $ . . #   =   , . . . @   = = j W W W W X X X B . - - - ' > > ; + * ~ + ! ) ) ) > > > > > > > ' % # , ",
"* - & ! ) > > > > > > > ! $ . . #   =   , . . . @   = = = = = = = = = = * $ - - & ) > > ; + * ~ + ; > > > > > > > > > > ) % # , ",
"* - & ! ' > > > > > > > ! $ . . #   =   , @ + + # j j j j = =           , $ - & & ' ) ) ! # ~   # ! > > > > > > > > > > ) % # , ",
"  $ % % - & & ! ; ; ; ; & - - - . * ~ @ . 9 Y Y p Z Z Z ` ~ # # @ + + + . + + . > = 9 9 ( p ^ ^ Y   . $ % - & & & - - - - % $ $ ",
"= . . . . $ $ $ - & & & & & & - . , , $ -  .....+.@.@.@.#., . . $ - - - % @ # + $.%.....&.*.*.*.=.-.=   , + $ $ . + @ @ + $ - & ",
"= . . . . . . . - & & & & & & - . , , $ - ;.>.>.,.f f f '., . . % & & & % @ , @ $.).!.>.~.{.{.{.].^.j =   @ . . . @ , , @ $ & & ",
"  . . . . . $ $ - & & & & - - % + * * . - ;.>.>.,.f f f '.* + + . - & & % @ # + $.).!.>.~.{.{.{.].^.j =   @ . . . @ # # @ $ - & ",
", ! ; ; ; ; ; ; ! & & ' % -.9 9 ( ` ` ( 9 !.>.>.,.f f f /.Y ( ( (.# . . . $ $ _.:.<.!.>.~.{.{.{.].(.=   , % ! ; ! & & - - % $ . ",
"+ > > > > > > ) ; & ! > $ ).....[.R R R }.|.|.|.1.2.2.2.3.4.4.4.5.= # @ . - - 6.7.8.9.|.0.a.a.a.b.-.  ~ @ ! > > > > ) ) ' % @ # ",
"+ > > > > > > > ' & ! > % c.>.>.,.f f f d.e.b b b b b b f.g.g.g.h.= , , + % - i.j.k.l.b f.m.m.m.P -.  ~ @ ; > > > > > > ' % # , ",
"+ > > > > > > > ' & ! > % ;.!.!.~.e e e n.o.l.l.l.l.l.l.p.q.q.q.h.= , , r.. - 6.s.t.u.l.p.v.v.v.w.x.  ~ @ ; > > > > > > ' % # , ",
"@ ; ; ; ; ; ; ; ! & & ; ! y.y.y.z.A.A.A.B.C.C.C.C.D.D.D.E.F.F.F.G.H., I.J.K.+ L.M.N.O.O.P.Q.R.R.S.I # # . - ! ; ; ; ; ; ; - . . ",
", & & & & & & & & & & & & $ $ $ T.U.V.V.W.X.X.X.Y.Z.Z.Z.`. + + +.+++, J.@+I., ++V..+#+#+$+%+&+*+=+-+. . . . $ % % - & & & & - - ",
"* - & & & & & & & & & - $ # # # , * ;+;+;+;+>+~   B B B I , ++++++, , I.I., , , , , , , ;+  B B >+@ . . . . . . $ - & & & & & & ",
"* - & & & - - - - - - % . , , , , * * * ~ ~ ~ ~     =     , , , # , , , , , , , , , , , *   = = ~ + . . . . . . $ - & & & & & & ",
"* - & ,+'+)+!+!+!+!+!+< [ * * , @ $ $ $ . # # # # # @ # # * ~ , - !+^.^.^.^.^.^.(.# % % % $ . . $ - & ! ! ! ! ! ; ; ; ; ; ; ; ; ",
"* - ~+{+]+^+R R }./+/+(+_+  ~ , $ ' ) ' ! . . . $ - - - . ~   , ' %.)...[.R R R :+@ ' ) ) ) ) ) ) ) ) ) ) ) ) > > > > > > > > > ",
"* - ~+<+[+e f f }+b b l.|+  ~ , % > > > ; $ . . % & & & $   = , ' ..>.>.1+f f f 2+. > > > > > > > > > > > > > > > > > > > > > > ",
"* - ~+<+3+4+e e n.l.l.5+6+  ~ , % > > > ; $ . . - & & & $ I = , ' 7+>.>.1+f f f 2+. ) > > > > > > > > > > > > > > > > > > > > > ",
"* - & 8+U.9+9+9+0+a+a+a+b+c+, # . & & & % . + + . . . d+_.e+f+(.j ;.>.>.1+f f f 2+< =     $ ! ! ! ; ; ; ; ; ; ; ; > > > > ) ' ' ",
"* - & g+h+i+i+V.j+k+k+l+U.. . . + @ # # # , , , , , , i+m+n+^+o+p+q+r+r+s+t+u+u+v+w+x+x+y+[ , # @ . % % % % % % - ' > > > ' ! ! ",
"* - & - + * * * , ++++z++ . . . + , , , , , , , , ~ ~ V.A+B+f f M N N N N N N N N N N N C+< * , , + . . . . . . - ; > > > ; & & ",
"* - & - @ * ~ ~ * , , # + . . . + , , , , , , , , * D+E+A+B+e F+G+U U U U U U U U U U U H+< * , , + . . . . . . - ; > > > ; & & ",
"* - & - . @ @ @ . $ % % $ . . # [ < < < k . % % $ . . _.I+J+K+K+L+M+M+M+M+M+M+M+N+O+O+P+Q+X ~ ~ , $ - & - - % % - ; ' ' ; ! & & ",
"* - & & - - - - ; ) ) ' & $ . = } R+R+R+S+! ) ) ) ) ) ) T+_.U+V+W+X+Y+Y+Y+Y+Y+Y+Z+`+`+`+ @]+    # ! > > ' ! & & & & & ! & & & & ",
"* - & & & & & ! ' > > > ! $ . j .@b b b +@; > > > > > > ; '+@@# # ++++++++++++++, #@;+;+I B = = , ; > > ) ; & & & & & & & & & & ",
"* & & & & & & ! ' > > > ! $ . j .@b b l.+@; > > > > > > ; @ , , , , , , , , , , , ~ ~ ~   $@= = I.! > > ) ; & & & & & & & & & & ",
"  % % % - & & & ; ) ) ' - . +   %@&@*@=@-@; ) ) ' ; ; ; - . + + . $ $ $ . # , , ,       V.k y ;@>@~ # @ # . % % - ! ; ; ! - % % ",
"k , # @ $ & & & & ! ! & $ # , @@-+,@'@)@!@! ! & % @ # @ . - - - & ' ) ) ! + , , *   = B ~@{@^+*.]@^@/@/@(@_@# # . ; > > ' % @ # ",
"[ , , # $ & & & & & & - . , , , . :@<@<@<@& & & $ , , , + - & & ; > > > ; + , , * = j [@}@|@e f 1@N N N 2@(.* , . ; > > ' % # , ",
"[ , , # $ & & & & & & - . , , , . - & & & & & & $ , , , + - & & ; > > > ; + , , * = j [@3@|@e f 1@N N N 2@(.* , + ; > > ' % # , ",
"k @ + + $ - - - - - - - . # # # + % % % - - - % . # # # + - - g+,+% . . # j [ [ 0 < y _@$+o+e f 1@N N N O+` 0 k = . ) ) ; % + + ",
"~ - - - % $ $ $ $ $ $ . . . . . + # # # # @ @ @ + . . . . . $ 4@5@6@7@8@9@).).).0@^+^+^+a@b@c@c@d@e@e@e@f@g@h@i@j@!+. % - - - % ",
"* - & - % . . . . . . . . . . . + , , , , , , , @ . . . . . . k@5@B+{.{.l@>.>.>.1+{.f f m@b b b b b b b f.n@g.g.N+-.+ . $ - & & ",
"* - & - $ . . . . . . . . . . . + , , , , , , , @ . . . . . . k@5@o@p@{.l@>.>.>.1+{.f f m@b b b b b b b f.n@g.g.q@-.+ . $ - & & ",
"* - & - - - - % $ . . h+r@~ ~ ~   k k k j , , , @ $ $ $ $ . . _.s@2+5 t@u@>.>.>.1+{.f f m@v@| w@w@w@w@w@x@y@z@z@A@[ $ - - & ; ; ",
"* - & & ; ) ) ' - @ r _.B@C@D@D@E@G G 4.Q+  ~ * @ - - - - . . L.F@G@V+H@I@J@J@J@J@K@L@L@M@N@Y.$+$+$+$+$+O@P@Q@Q@R@S@T@) ) ) > > ",
"* - & ! ' > > ) - # U@V@W@X@{.{.Y@N N N Z@j ~ ~ @ - & & - . . . . h+h+`@ #g.g.g.g.g.g.g..#)++#E+E+E+E+E+++H.;+;+`@! > > > > > > ",
"* - & ! ) > > > - # U@V@W@@#{.{.Y@N N U Z@j ~ ~ @ - & & - . . . . . . #  #q.g.g.g.g.g.g..#_ , +#+#+#+#+#, * ~ ~ # ! > > > > > > ",
"* - & ! ' > > ) - + @ V@j+5 o@o@##$#$#h@%#  * , @ - - - % . . . . $ $ + &#*#*#*#*#=#=#=#Z@-#+ '+'+;#;#;#@ , * * @ & ) ) ) > > > ",
"* - & & ! ! ! ! & - - :@_.E+E+++>#,#'#,#)#+ . . . $ $ $ . . . . % - - :@!#~#{#]#X+^#/#/#)#:@' ' ; & - - F@L.. . . $ - - - & ! ! ",
"* - & & & & & & & & & - h+`@# # ++;+;+(#++. . . . . . . . . . . % & & & & <@~+6._#(#B B @@; > > > ; & & - $ . . . . . . $ - & & ",
"* - & & & & & & & & & - . # , , , ~ ~ ~ , . . . . . . . . . . . % & & & & & & & $ ;+= [@# ; > > > ; & & - $ . . . . . . $ - & & ",
"* - - - - - - - - - - - . # # # , ~ ~ * # $ $ $ $ $ $ $ $ $ $ $ % & & & & & & & $ ,     @ ; > > ) ! - - - $ . . . . $ $ $ - & & ",
"  $ $ $ $ $ $ $ $ $ $ $ . . . . @ , , , $ ; ' ' ' ' ' ' ; & - - & & & & & & & & - - % $ % - - - - $ $ $ $ . . . $ - - - - & & & ",
"= . . . . . . . . . . . . . . . + , , # - > > > > > > > ) ! & & & & & & & & & & & & & & - $ . . . . . . . . . . $ - & & & & & & ",
"[ # # # # # # # # # # # # # # # , ~ ~ ~ . ; ; ; ; ; ; ; ! % $ $ $ $ $ $ $ $ $ $ $ $ $ $ . @ # # # # # # # # # # @ . $ $ $ $ $ $ "};
